# Blender v2.79 (sub 0) OBJ File: 'zarya_leftarm.obj'
# www.blender.org
mtllib zarya_leftarm.mtl
o leftarm
v 0.241557 0.348988 -0.119160
v 0.243689 0.028118 0.121229
v 0.243689 0.348988 0.121229
v 0.250934 0.348988 0.128380
v 0.494670 0.028118 0.128380
v 0.494670 0.348988 0.128380
v 0.494670 0.348988 -0.127364
v 0.248802 0.028119 -0.126312
v 0.248802 0.348988 -0.126312
v 0.501915 0.348988 0.121229
v 0.501915 0.028119 -0.121266
v 0.501915 0.348988 -0.121266
v 0.494670 0.021475 -0.119161
v 0.253066 0.021475 0.121229
v 0.253066 0.021475 -0.119161
v 0.494670 0.028119 -0.127364
v 0.241557 0.028119 -0.119161
v 0.250934 0.028118 0.128380
v 0.501915 0.028118 0.121229
v 0.494670 0.021475 0.121229
v 0.241557 0.528977 -0.119160
v 0.248802 0.528977 -0.126312
v 0.494670 0.528977 -0.127364
v 0.501915 0.528977 -0.121266
v 0.501915 0.528977 0.121229
v 0.494670 0.528977 0.128380
v 0.250934 0.528977 0.128380
v 0.243689 0.528977 0.121229
v 0.241557 0.618970 -0.119160
v 0.243689 0.618970 0.121229
v 0.250934 0.618970 0.128380
v 0.494670 0.618970 0.128380
v 0.494670 0.618970 -0.127364
v 0.248802 0.618970 -0.126312
v 0.501915 0.618970 0.121229
v 0.501915 0.618970 -0.121266
v 0.241557 0.663968 -0.119160
v 0.248802 0.663968 -0.126312
v 0.494670 0.663968 -0.127364
v 0.501915 0.663968 -0.121266
v 0.501915 0.663968 0.121229
v 0.494670 0.663968 0.128380
v 0.250934 0.663968 0.128380
v 0.243689 0.663968 0.121229
vt 0.396400 0.120300
vt 0.310300 0.256100
vt 0.310300 0.120300
vt 0.315200 0.755300
vt 0.225300 0.890500
vt 0.225300 0.755300
vt 0.484800 0.119200
vt 0.398700 0.255200
vt 0.398700 0.119200
vt 0.574600 0.119800
vt 0.488000 0.256500
vt 0.488000 0.119800
vt 0.490100 0.876100
vt 0.571000 0.964400
vt 0.490100 0.964400
vt 0.484800 0.257700
vt 0.484800 0.255200
vt 0.487200 0.255200
vt 0.396100 0.255200
vt 0.398700 0.257700
vt 0.317800 0.890500
vt 0.315200 0.893100
vt 0.315200 0.890500
vt 0.574600 0.256500
vt 0.577100 0.256500
vt 0.574600 0.259000
vt 0.488000 0.259000
vt 0.310300 0.258600
vt 0.396400 0.256100
vt 0.396400 0.258600
vt 0.225300 0.893100
vt 0.317800 0.755300
vt 0.577100 0.119800
vt 0.487200 0.119200
vt 0.396100 0.119200
vt 0.396100 0.051300
vt 0.398700 0.051300
vt 0.484800 0.051300
vt 0.487200 0.051300
vt 0.574600 0.051500
vt 0.577100 0.051500
vt 0.315200 0.687700
vt 0.317800 0.687700
vt 0.488000 0.051500
vt 0.225300 0.687700
vt 0.396400 0.052400
vt 0.310300 0.052400
vt 0.396400 0.018600
vt 0.310300 0.018600
vt 0.315200 0.653900
vt 0.225300 0.653900
vt 0.484800 0.017400
vt 0.398700 0.017400
vt 0.574600 0.017200
vt 0.488000 0.017200
vt 0.317800 0.653900
vt 0.577100 0.017200
vt 0.487200 0.017400
vt 0.396100 0.017400
vt 0.396100 0.000300
vt 0.398700 0.000300
vt 0.484800 0.000300
vt 0.487200 0.000300
vt 0.574600 0.000200
vt 0.577100 0.000200
vt 0.315200 0.637000
vt 0.317800 0.637000
vt 0.488000 0.000200
vt 0.225300 0.637000
vt 0.396400 0.001500
vt 0.310300 0.001500
vt 0.571000 0.876100
vn -0.9243 0.0000 -0.3816
vn -0.8477 -0.4086 0.3383
vn -0.9209 -0.0000 0.3898
vn -0.3797 -0.0000 0.9251
vn 0.3369 -0.3568 0.8713
vn 0.3797 -0.0000 0.9251
vn 0.3408 0.0000 -0.9402
vn -0.3568 -0.3961 -0.8461
vn -0.3817 0.0000 -0.9243
vn 0.9226 -0.0000 0.3857
vn 0.8443 -0.3736 -0.3842
vn 0.9066 0.0000 -0.4219
vn 0.3137 -0.9046 -0.2887
vn -0.2610 -0.9100 0.3221
vn -0.2144 -0.9239 -0.3169
vn 0.2999 -0.3883 -0.8714
vn -0.8346 -0.4433 -0.3269
vn -0.3474 -0.3756 0.8592
vn 0.8686 -0.3587 0.3418
vn 0.3259 -0.8863 0.3290
usemtl None
s 1
f 1/1/1 2/2/2 3/3/3
f 4/4/4 5/5/5 6/6/6
f 7/7/7 8/8/8 9/9/9
f 10/10/10 11/11/11 12/12/12
f 13/13/13 14/14/14 15/15/15
f 13/16/13 16/17/16 11/18/11
f 17/19/17 8/8/8 15/20/15
f 2/21/2 14/22/14 18/23/18
f 19/24/19 5/25/5 20/26/20
f 19/24/19 13/27/13 11/11/11
f 14/28/14 17/29/17 15/30/15
f 20/31/20 18/23/18 14/22/14
f 2/21/2 4/4/4 3/32/3
f 5/25/5 10/10/10 6/33/6
f 11/18/11 7/7/7 12/34/12
f 15/20/15 16/17/16 13/16/13
f 8/8/8 1/35/1 9/9/9
f 9/9/9 21/36/1 22/37/9
f 12/34/12 23/38/7 24/39/12
f 6/33/6 25/40/10 26/41/6
f 3/32/3 27/42/4 28/43/3
f 25/40/10 12/12/12 24/44/12
f 23/38/7 9/9/9 22/37/9
f 27/42/4 6/6/6 26/45/6
f 21/46/1 3/3/3 28/47/3
f 29/48/1 28/47/3 30/49/3
f 31/50/4 26/45/6 32/51/6
f 33/52/7 22/37/9 34/53/9
f 35/54/10 24/44/12 36/55/12
f 28/43/3 31/50/4 30/56/3
f 26/41/6 35/54/10 32/57/6
f 24/39/12 33/52/7 36/58/12
f 22/37/9 29/59/1 34/53/9
f 34/53/9 37/60/1 38/61/9
f 36/58/12 39/62/7 40/63/12
f 32/57/6 41/64/10 42/65/6
f 30/56/3 43/66/4 44/67/3
f 41/64/10 36/55/12 40/68/12
f 39/62/7 34/53/9 38/61/9
f 43/66/4 32/51/6 42/69/6
f 37/70/1 30/49/3 44/71/3
f 1/1/1 17/29/17 2/2/2
f 4/4/4 18/23/18 5/5/5
f 7/7/7 16/17/16 8/8/8
f 10/10/10 19/24/19 11/11/11
f 13/13/13 20/72/20 14/14/14
f 19/24/19 20/26/20 13/27/13
f 14/28/14 2/2/2 17/29/17
f 20/31/20 5/5/5 18/23/18
f 2/21/2 18/23/18 4/4/4
f 5/25/5 19/24/19 10/10/10
f 11/18/11 16/17/16 7/7/7
f 15/20/15 8/8/8 16/17/16
f 8/8/8 17/19/17 1/35/1
f 9/9/9 1/35/1 21/36/1
f 12/34/12 7/7/7 23/38/7
f 6/33/6 10/10/10 25/40/10
f 3/32/3 4/4/4 27/42/4
f 25/40/10 10/10/10 12/12/12
f 23/38/7 7/7/7 9/9/9
f 27/42/4 4/4/4 6/6/6
f 21/46/1 1/1/1 3/3/3
f 29/48/1 21/46/1 28/47/3
f 31/50/4 27/42/4 26/45/6
f 33/52/7 23/38/7 22/37/9
f 35/54/10 25/40/10 24/44/12
f 28/43/3 27/42/4 31/50/4
f 26/41/6 25/40/10 35/54/10
f 24/39/12 23/38/7 33/52/7
f 22/37/9 21/36/1 29/59/1
f 34/53/9 29/59/1 37/60/1
f 36/58/12 33/52/7 39/62/7
f 32/57/6 35/54/10 41/64/10
f 30/56/3 31/50/4 43/66/4
f 41/64/10 35/54/10 36/55/12
f 39/62/7 33/52/7 34/53/9
f 43/66/4 31/50/4 32/51/6
f 37/70/1 29/48/1 30/49/3
