# Blender v2.79 (sub 0) OBJ File: 'zarya_helper_head.obj'
# www.blender.org
mtllib zarya_helper_head.mtl
o head
v 0.239784 -0.167726 -0.253604
v 0.000000 -0.341180 -0.253604
v 0.000000 -0.167726 -0.253604
v -0.239784 -0.167726 -0.253604
v 0.239784 -0.341180 -0.253604
v -0.239784 -0.341180 -0.253604
vt 0.823106 0.651000
vt 0.919088 0.732761
vt 0.919088 0.651000
vt 0.823106 0.651000
vt 0.823106 0.732761
vt 0.823106 0.732761
vn 0.0000 0.0000 -1.0000
usemtl head
s 1
f 1/1/1 2/2/1 3/3/1
f 2/2/1 4/4/1 3/3/1
f 1/1/1 5/5/1 2/2/1
f 2/2/1 6/6/1 4/4/1
