# Blender v2.79 (sub 0) OBJ File: 'lamppost_01.obj'
# www.blender.org
mtllib lamppost_01.mtl
o dec
v 0.097030 8.812471 0.000002
v 0.072900 -0.017358 0.072900
v 0.097030 -0.017358 -0.000000
v 0.000000 8.812471 0.097032
v -0.072900 -0.017358 0.072900
v 0.000000 -0.017358 0.097030
v 0.072900 8.812471 0.072902
v -0.072900 8.812471 -0.072898
v 0.000000 -0.017358 -0.097030
v -0.072900 -0.017358 -0.072900
v 0.000000 8.812471 -0.097028
v 0.072900 -0.017358 -0.072900
v 0.072900 8.812471 -0.072898
v -0.072900 8.812471 0.072902
v -0.097030 -0.017358 -0.000000
v -0.097030 8.812471 0.000002
v -0.113302 8.834694 -0.001092
v -0.085125 8.372586 -0.086217
v -0.113302 8.372586 -0.001092
v -0.000000 8.834694 -0.114393
v 0.085125 8.372586 -0.086217
v -0.000000 8.372586 -0.114393
v 0.113302 8.834694 -0.001092
v 0.085125 8.372586 0.084033
v 0.113302 8.372586 -0.001092
v -0.000000 8.834694 0.112210
v -0.085125 8.372586 0.084033
v -0.000000 8.372586 0.112210
v 0.085125 8.834694 0.084033
v -0.085125 8.834694 -0.086217
v -0.000000 8.372586 -0.001092
v -0.000000 8.834694 -0.001092
v -0.085125 8.834694 0.084033
v 0.085125 8.834694 -0.086217
v -0.054177 8.727696 0.084951
v -0.054177 8.843293 -0.006855
v -0.059594 8.755852 -0.102385
v -0.032505 8.900320 -1.446388
v -0.032505 8.892308 -1.456450
v -0.035756 8.860218 -1.465928
v 0.054177 8.843293 -0.006855
v 0.054177 8.727696 0.084951
v 0.059594 8.755852 -0.102385
v -0.000000 8.646430 0.084951
v -0.032505 9.422224 1.877699
v -0.054177 8.646430 0.084951
v 0.054177 8.612690 -0.102385
v -0.000000 8.612690 -0.102385
v -0.000000 8.808960 0.084951
v -0.000000 8.843293 -0.006855
v 0.032505 8.900320 -1.446388
v -0.000000 8.900320 -1.461345
v -0.000000 8.828126 -1.471408
v 0.035756 8.860218 -1.465928
v 0.032505 8.828126 -1.456450
v 0.032505 8.892308 -1.456450
v -0.032505 8.828126 -1.456450
v -0.032505 8.817408 -1.446596
v 0.032505 8.817408 -1.446596
v -0.000000 8.817408 -1.461555
v 0.032505 9.422224 1.877699
v 0.054177 8.646430 0.084951
v -0.054177 8.612690 -0.102385
v -0.000000 8.892308 -1.471408
v -0.000000 8.860218 -1.480885
v -0.032505 9.522440 1.877699
v -0.000000 9.522440 1.877699
v 0.054177 8.808960 0.084951
v 0.032505 9.478558 1.877699
v -0.032505 9.478558 1.877699
v -0.054177 8.808960 0.084951
v -0.000000 9.422224 1.877699
v 0.032505 9.522440 1.877699
v -0.020804 9.471769 1.888012
v -0.020804 9.493841 1.888012
v -0.015791 9.521925 1.888012
v -0.000000 9.521925 2.374548
v -0.000000 9.521925 1.888012
v 0.015791 9.521925 2.374548
v 0.015791 9.521925 1.888012
v -0.020804 9.493841 2.374548
v 0.020804 9.471769 1.888012
v 0.020804 9.515910 1.888012
v 0.020804 9.493841 1.888012
v -0.000000 9.465755 1.888012
v -0.015791 9.465755 2.374548
v -0.015791 9.465755 1.888012
v 0.015791 9.465755 1.888012
v -0.000000 9.465755 2.374548
v -0.020804 9.515910 2.374548
v -0.020804 9.515910 1.888012
v 0.020804 9.471769 2.374548
v 0.020804 9.493841 2.374548
v -0.015791 9.521925 2.374548
v -0.020804 9.471769 2.374548
v -0.087887 9.560674 2.480612
v -0.174974 9.521253 2.649824
v -0.087887 9.560674 2.649824
v -0.000801 9.565747 2.480612
v 0.086285 9.560674 2.649824
v 0.086285 9.560674 2.480612
v -0.115811 9.512095 2.930314
v -0.000801 9.445298 2.969552
v -0.000801 9.513193 2.969552
v 0.086285 9.521253 2.299753
v -0.182197 9.521253 2.393525
v -0.087887 9.521253 2.299753
v 0.180595 9.521253 2.393525
v 0.182657 9.521253 2.480612
v 0.173372 9.521253 2.649824
v 0.114209 9.512095 2.930314
v -0.000801 9.522351 2.281443
v -0.114890 9.522553 2.921056
v -0.000801 9.565747 2.649824
v 0.114209 9.445298 2.930314
v -0.000801 9.485908 2.649824
v 0.086285 9.485908 2.649824
v -0.087887 9.485908 2.480612
v -0.174974 9.466242 2.649824
v -0.184259 9.466242 2.480612
v -0.000801 9.485908 2.480612
v 0.086285 9.485908 2.480612
v -0.087887 9.485908 2.649824
v -0.115811 9.445298 2.930314
v 0.086285 9.445299 2.299753
v -0.000801 9.442739 2.281443
v -0.182197 9.459844 2.393525
v -0.087887 9.445299 2.299753
v 0.180595 9.459844 2.393525
v 0.173372 9.466242 2.649824
v 0.182657 9.466242 2.480612
v -0.184259 9.521253 2.480612
v 0.113288 9.522553 2.921056
v -0.000801 9.523649 2.959980
v 0.015791 9.465755 2.374548
v 0.020804 9.515910 2.374548
vt 0.107633 0.999974
vt 0.070706 0.000008
vt 0.107633 0.000000
vt 0.245281 0.997219
vt 0.207938 0.000678
vt 0.245281 0.000650
vt 0.274662 0.996569
vt 0.274662 0.000000
vt 0.207938 0.999984
vt 0.177994 0.000000
vt 0.207938 0.000000
vt 0.177995 0.999984
vt 0.140638 0.000000
vt 0.140638 1.000000
vt 0.070706 0.999989
vt 0.036281 0.000000
vt 0.070706 0.000006
vt 0.036281 0.999983
vt 0.000000 0.000004
vt 0.624243 0.327230
vt 0.584334 0.254942
vt 0.624243 0.254938
vt 0.915751 0.000000
vt 0.956843 0.072291
vt 0.915751 0.072291
vt 0.702730 0.327229
vt 0.662110 0.254947
vt 0.702730 0.254938
vt 0.923891 0.145051
vt 0.882813 0.073037
vt 0.923891 0.073007
vt 0.956209 0.144336
vt 0.956209 0.072291
vt 0.882813 0.000000
vt 0.882813 0.072291
vt 0.882813 0.304022
vt 0.932091 0.312483
vt 0.882813 0.318049
vt 0.956860 0.295658
vt 0.981370 0.306916
vt 0.907323 0.329307
vt 0.948403 0.329310
vt 0.981370 0.320943
vt 0.956872 0.295654
vt 0.932100 0.278828
vt 0.981386 0.284396
vt 0.882813 0.287287
vt 0.882813 0.273260
vt 0.981386 0.270369
vt 0.948413 0.262001
vt 0.907327 0.262002
vt 0.739035 0.327257
vt 0.739035 0.254966
vt 0.662110 0.327236
vt 0.662110 0.254945
vt 0.466419 0.170712
vt 0.510650 0.183521
vt 0.475329 0.199700
vt 0.584334 0.337678
vt 0.581163 0.339369
vt 0.566975 0.341324
vt 0.355927 0.155347
vt 0.311698 0.167994
vt 0.320663 0.139120
vt 0.857985 0.173776
vt 0.843089 0.341519
vt 0.833158 0.173776
vt 0.882813 0.144478
vt 0.857985 0.144478
vt 0.833158 0.159926
vt 0.808330 0.174270
vt 0.808330 0.159926
vt 0.793434 0.003934
vt 0.808330 0.001595
vt 0.939515 0.255620
vt 0.955856 0.250599
vt 0.955814 0.255620
vt 0.412057 0.000000
vt 0.426210 0.002065
vt 0.429381 0.003739
vt 0.551911 0.340418
vt 0.546555 0.339065
vt 0.391604 0.002348
vt 0.396960 0.001012
vt 0.843089 0.003838
vt 0.857985 0.001499
vt 0.389382 0.336290
vt 0.274662 0.166662
vt 0.283594 0.137929
vt 0.438314 0.201095
vt 0.429381 0.172040
vt 0.843089 0.002339
vt 0.857985 0.000000
vt 0.793434 0.002340
vt 0.808330 0.000000
vt 0.939515 0.245579
vt 0.938143 0.250599
vt 0.924760 0.250599
vt 0.823227 0.002340
vt 0.823227 0.003934
vt 0.940941 0.257297
vt 0.957239 0.257297
vt 0.823227 0.341359
vt 0.808330 0.341359
vt 0.872882 0.003838
vt 0.927545 0.255620
vt 0.783503 0.174270
vt 0.783503 0.159926
vt 0.833158 0.144478
vt 0.348733 0.169327
vt 0.409382 0.337010
vt 0.544334 0.001434
vt 0.564334 0.000717
vt 0.503456 0.169383
vt 0.584334 0.000000
vt 0.872882 0.341519
vt 0.857985 0.341519
vt 0.793434 0.341359
vt 0.767062 0.314485
vt 0.760414 0.315470
vt 0.760414 0.312029
vt 0.815567 0.342971
vt 0.808330 0.374260
vt 0.808330 0.342971
vt 0.801093 0.374260
vt 0.801093 0.342971
vt 0.958963 0.144455
vt 0.969076 0.113259
vt 0.969077 0.144454
vt 0.405726 0.338785
vt 0.429381 0.337729
vt 0.425842 0.339509
vt 0.415784 0.339147
vt 0.964079 0.031284
vt 0.971316 0.000000
vt 0.971316 0.031284
vt 0.956843 0.031284
vt 0.964079 0.000000
vt 0.979191 0.113258
vt 0.979191 0.144454
vt 0.396187 0.369467
vt 0.739035 0.321612
vt 0.742477 0.315652
vt 0.744637 0.316568
vt 0.406245 0.369829
vt 0.753048 0.321469
vt 0.751445 0.316498
vt 0.758253 0.316429
vt 0.981950 0.144516
vt 0.981950 0.113320
vt 0.402954 0.338817
vt 0.956209 0.113321
vt 0.958963 0.113259
vt 0.419014 0.370420
vt 0.428553 0.339738
vt 0.767062 0.307644
vt 0.760414 0.308588
vt 0.636638 0.218301
vt 0.587199 0.187455
vt 0.634462 0.186951
vt 0.683909 0.217904
vt 0.729007 0.186186
vt 0.731182 0.217537
vt 0.963872 0.072766
vt 0.998131 0.095645
vt 0.961408 0.095271
vt 0.733515 0.251167
vt 0.586573 0.234972
vt 0.638971 0.251931
vt 0.783503 0.233380
vt 0.783503 0.217236
vt 0.776287 0.185926
vt 0.963871 0.112891
vt 0.686478 0.254938
vt 0.616326 0.136935
vt 0.681733 0.186553
vt 0.615725 0.007772
vt 0.681741 0.059037
vt 0.634469 0.059418
vt 0.731184 0.090000
vt 0.776291 0.058366
vt 0.783503 0.089670
vt 0.683912 0.090382
vt 0.636640 0.090763
vt 0.729013 0.058655
vt 0.740585 0.006765
vt 0.638974 0.124455
vt 0.686482 0.127478
vt 0.783503 0.105841
vt 0.733518 0.123692
vt 0.586573 0.107430
vt 0.587203 0.059892
vt 0.584334 0.091277
vt 0.883520 0.145083
vt 0.916922 0.163791
vt 0.883579 0.163791
vt 0.739035 0.293400
vt 0.780871 0.307644
vt 0.739631 0.307644
vt 0.913447 0.179912
vt 0.883567 0.211042
vt 0.883578 0.179912
vt 0.740185 0.135933
vt 0.780871 0.277012
vt 0.739631 0.277012
vt 0.772974 0.254938
vt 0.739631 0.254938
vt 0.961873 0.229457
vt 0.933234 0.245579
vt 0.932014 0.229734
vt 0.959439 0.198258
vt 0.929581 0.198534
vt 0.677755 0.129219
vt 0.924760 0.147133
vt 0.966565 0.145082
vt 0.740569 0.134246
vt 0.956209 0.094617
vt 0.924760 0.262001
vt 0.888491 0.262001
vt 0.882813 0.260277
vt 0.070707 0.999983
vt 0.207938 0.997247
vt 0.000000 0.999987
vt 0.584334 0.327234
vt 0.956843 0.000000
vt 0.662110 0.327238
vt 0.882813 0.145082
vt 0.915780 0.295655
vt 0.915786 0.295655
vt 0.882813 0.173776
vt 0.833158 0.174270
vt 0.955814 0.245579
vt 0.927545 0.245579
vt 0.767062 0.321327
vt 0.815567 0.374260
vt 0.956843 0.000000
vt 0.416304 0.370191
vt 0.393416 0.369499
vt 0.956209 0.144517
vt 0.758253 0.307672
vt 0.584334 0.218846
vt 1.000000 0.073133
vt 1.000000 0.113258
vt 0.677651 0.000000
vt 0.924760 0.145082
vt 0.782261 0.293400
vt 0.913436 0.211041
vt 0.966565 0.245271
vt 0.930310 0.145417
vt 0.677634 0.127478
vt 0.958657 0.072291
vn 0.9493 -0.0000 0.3142
vn -0.3142 -0.0000 0.9493
vn 0.3142 -0.0000 0.9493
vn -0.3142 0.0000 -0.9493
vn 0.3142 0.0000 -0.9493
vn 0.9493 0.0000 -0.3142
vn -0.9493 -0.0000 0.3142
vn -0.9493 0.0000 -0.3142
vn 0.0000 -1.0000 0.0000
vn 0.0000 1.0000 0.0000
vn -0.9991 0.0261 0.0328
vn -0.9860 0.1306 -0.1040
vn 0.9991 0.0261 0.0328
vn 0.0000 -0.9178 0.3971
vn 0.0000 -0.9842 0.1773
vn 0.0000 0.9791 0.2035
vn 0.0000 0.9366 0.3503
vn -0.0000 0.9790 0.2039
vn -0.0180 0.9991 0.0392
vn 0.3992 -0.2967 -0.8675
vn 0.9860 0.1306 -0.1040
vn -0.9765 -0.1457 -0.1585
vn 0.9765 -0.1457 -0.1585
vn -0.0684 -0.9865 -0.1486
vn 0.9999 0.0000 0.0121
vn 1.0000 0.0000 0.0000
vn -1.0000 0.0000 0.0000
vn -0.3209 -0.6410 -0.6973
vn -0.3209 -0.6410 -0.6972
vn 0.2755 0.7520 -0.5988
vn 0.2756 0.7521 -0.5987
vn 0.3723 0.2629 -0.8901
vn -0.3723 0.2629 -0.8901
vn -0.2755 0.7520 -0.5988
vn -0.2756 0.7521 -0.5987
vn 0.3209 -0.6410 -0.6973
vn 0.0000 0.9291 -0.3698
vn 0.0000 -0.9886 -0.1506
vn -0.3992 -0.2967 -0.8675
vn 0.0000 0.9992 0.0396
vn 0.0000 0.9802 0.1982
vn -0.9999 0.0000 0.0121
vn -0.6612 0.0000 0.7502
vn 0.0000 0.9988 0.0499
vn 0.0000 0.9988 0.0498
vn 0.6612 0.0000 0.7502
vn 0.1886 -0.1572 0.9694
vn 0.0000 -0.2305 0.9731
vn -0.7682 0.6402 0.0000
vn 0.7682 -0.6403 0.0000
vn -0.7682 -0.6403 0.0000
vn 0.7682 0.6402 0.0000
vn -0.4124 0.9110 0.0000
vn 0.0582 0.9983 0.0000
vn -0.3229 -0.0000 0.9464
vn 0.0570 0.9755 -0.2126
vn 0.0569 0.9755 -0.2126
vn 0.0568 0.9755 -0.2126
vn -0.2072 0.9559 -0.2083
vn 0.3786 0.9255 -0.0090
vn 0.3785 0.9254 0.0208
vn 0.3229 -0.0000 0.9464
vn -0.0570 0.9755 -0.2126
vn -0.0569 0.9755 -0.2126
vn -0.0570 0.9755 -0.2125
vn -0.4108 0.9076 0.0867
vn -0.0582 0.9983 0.0000
vn 0.0000 -0.9897 -0.1433
vn 0.1999 -0.9797 -0.0110
vn 0.2187 -0.9686 -0.1184
vn -0.0158 -0.9772 0.2118
vn 0.0672 -0.9735 0.2186
vn -0.0672 -0.9735 0.2186
vn -0.1999 -0.9797 -0.0110
vn -0.2187 -0.9686 -0.1185
vn 0.0158 -0.9772 0.2118
vn -0.7051 0.0000 -0.7091
vn -0.2058 0.0000 -0.9786
vn -0.9985 -0.0000 0.0548
vn 0.0558 0.9894 0.1341
vn 0.0571 0.9894 0.1335
vn 0.0576 0.9894 0.1333
vn 0.4108 0.9076 0.0867
vn 0.2058 0.0000 -0.9786
vn 0.7051 0.0000 -0.7091
vn 0.9997 -0.0000 -0.0237
vn -0.9997 0.0000 -0.0237
vn 0.9985 -0.0000 0.0548
vn -0.0557 0.9894 0.1341
vn -0.0571 0.9894 0.1335
vn -0.0553 0.9894 0.1343
vn 0.9773 0.0367 0.2089
vn 0.2499 0.6541 0.7140
vn 0.2499 0.6540 0.7140
vn -0.2499 0.6538 0.7142
vn -0.2499 0.6540 0.7140
vn -0.9951 0.0000 -0.0990
vn -0.9962 0.0860 -0.0108
vn -0.9967 0.0807 -0.0112
vn -0.9967 0.0803 -0.0116
vn -0.9971 0.0749 -0.0120
vn 0.0000 -0.9842 0.1772
vn 0.3723 -0.2629 -0.8901
vn 0.9967 0.0803 -0.0116
vn 0.9971 0.0749 -0.0120
vn 0.9967 0.0807 -0.0112
vn 0.9962 0.0860 -0.0108
vn -0.9990 -0.0378 -0.0219
vn -0.9960 -0.0865 -0.0240
vn 0.9960 -0.0865 -0.0240
vn 0.9990 -0.0378 -0.0219
vn 0.9990 -0.0378 0.0232
vn -0.9990 -0.0378 0.0232
vn 0.3992 0.2967 -0.8675
vn -0.3992 0.2967 -0.8675
vn 0.3209 -0.6410 -0.6972
vn 0.0684 -0.9865 -0.1486
vn -0.3723 -0.2629 -0.8901
vn 0.0180 0.9991 0.0392
vn 0.4736 0.3947 0.7874
vn -0.1886 -0.1572 0.9694
vn -0.4735 0.3946 0.7874
vn -0.3785 0.9254 0.0208
vn 0.0570 0.9755 -0.2125
vn -0.3786 0.9255 -0.0090
vn 0.2072 0.9559 -0.2083
vn 0.4124 0.9110 0.0000
vn -0.0568 0.9755 -0.2126
vn -0.0429 -0.9911 -0.1259
vn 0.2203 -0.9754 0.0000
vn 0.0000 -0.9757 0.2191
vn 0.1994 -0.9769 0.0765
vn -0.1994 -0.9769 0.0765
vn -0.2203 -0.9754 0.0000
vn 0.0429 -0.9911 -0.1259
vn -0.2057 0.0000 -0.9786
vn 0.0553 0.9894 0.1343
vn 0.2057 0.0000 -0.9786
vn -0.0576 0.9894 0.1333
vn 0.9763 -0.0000 0.2163
vn 0.9951 0.0000 -0.0990
vn 0.2499 0.6538 0.7142
vn -0.9763 -0.0000 0.2163
vn -0.9773 0.0367 0.2089
usemtl dec
s 1
f 1/1/1 2/2/1 3/3/1
f 4/4/2 5/5/2 6/6/2
f 7/7/3 6/6/3 2/8/3
f 8/9/4 9/10/4 10/11/4
f 11/12/5 12/13/5 9/10/5
f 13/14/6 3/3/6 12/13/6
f 14/15/7 15/16/7 5/17/7
f 16/18/8 10/19/8 15/16/8
f 17/20/8 18/21/8 19/22/8
f 20/23/5 21/24/5 22/25/5
f 23/26/1 24/27/1 25/28/1
f 26/29/2 27/30/2 28/31/2
f 29/32/3 28/31/3 24/33/3
f 30/34/4 22/25/4 18/35/4
f 21/36/9 31/37/9 22/38/9
f 31/37/9 24/39/9 28/40/9
f 18/41/9 31/37/9 19/42/9
f 31/37/9 27/43/9 19/42/9
f 30/44/10 32/45/10 20/46/10
f 32/45/10 33/47/10 26/48/10
f 34/49/10 32/45/10 23/50/10
f 32/45/10 29/51/10 23/50/10
f 34/52/6 25/28/6 21/53/6
f 33/54/7 19/22/7 27/55/7
f 35/56/11 36/57/11 37/58/11
f 38/59/12 39/60/12 40/61/12
f 41/62/13 42/63/13 43/64/13
f 44/65/14 45/66/14 46/67/14
f 47/68/15 44/65/15 48/69/15
f 36/70/16 49/71/17 50/72/18
f 50/72/19 51/73/19 52/74/19
f 53/75/20 54/76/20 55/77/20
f 54/78/21 56/79/21 51/80/21
f 40/61/22 57/81/22 58/82/22
f 59/83/23 55/84/23 54/78/23
f 48/69/24 58/85/24 60/86/24
f 42/63/25 61/87/25 62/88/25
f 47/89/26 42/63/26 62/88/26
f 35/56/27 63/90/27 46/91/27
f 60/86/28 57/92/28 53/93/29
f 52/74/30 56/94/31 64/95/30
f 64/96/32 54/76/32 65/97/32
f 40/98/33 64/96/33 65/97/33
f 52/74/34 39/99/35 38/100/35
f 60/101/36 55/77/36 59/102/36
f 49/71/37 66/103/37 67/104/37
f 48/69/38 59/105/38 47/68/38
f 40/98/39 53/75/39 57/106/39
f 50/72/18 38/100/40 36/70/16
f 50/72/18 68/107/17 41/108/41
f 48/69/15 46/67/15 63/109/15
f 68/110/25 69/111/25 42/63/25
f 35/56/42 45/112/42 70/113/42
f 71/114/42 70/113/42 66/115/42
f 44/65/14 61/116/14 72/117/14
f 49/71/37 73/118/37 68/107/37
f 70/119/43 74/120/43 75/121/43
f 76/122/10 77/123/10 78/124/10
f 78/124/10 79/125/10 80/126/10
f 67/104/44 80/126/45 73/118/45
f 74/127/27 81/128/27 75/129/27
f 67/104/44 76/122/45 78/124/44
f 69/111/46 82/130/46 61/87/46
f 73/131/46 83/132/46 84/133/46
f 85/134/9 86/135/9 87/136/9
f 88/137/9 89/138/9 85/134/9
f 75/129/27 90/139/27 91/140/27
f 84/133/26 92/141/26 82/130/26
f 61/142/47 82/143/47 88/144/47
f 83/132/26 93/145/26 84/133/26
f 72/146/48 85/147/48 87/148/48
f 76/149/49 90/139/49 94/150/49
f 92/141/50 88/151/50 82/130/50
f 74/127/51 86/152/51 95/153/51
f 79/154/52 83/132/52 80/155/52
f 66/156/43 75/121/43 91/157/43
f 96/158/53 97/159/53 98/160/53
f 99/161/54 100/162/54 101/163/54
f 102/164/55 103/165/55 104/166/55
f 105/167/56 99/161/57 101/163/58
f 106/168/59 96/158/59 107/169/59
f 108/170/60 101/163/60 109/171/60
f 101/163/61 110/172/61 109/171/61
f 103/165/62 111/173/62 104/166/62
f 107/169/63 99/161/64 112/174/65
f 98/160/66 97/159/66 113/175/66
f 96/158/67 114/176/67 99/161/67
f 115/177/68 116/178/68 117/179/68
f 118/180/69 119/181/69 120/182/69
f 117/179/9 121/183/9 122/184/9
f 123/185/70 124/186/70 119/181/70
f 125/187/71 121/183/71 126/188/71
f 118/180/72 127/189/72 128/190/72
f 129/191/73 122/184/73 125/187/73
f 130/192/74 122/184/74 131/193/74
f 130/192/75 115/177/75 117/179/75
f 121/183/76 128/190/76 126/188/76
f 116/178/68 124/186/68 123/185/68
f 116/178/9 118/180/9 121/183/9
f 107/194/77 127/195/77 106/196/77
f 112/197/78 128/198/78 107/199/78
f 120/200/79 97/201/79 132/202/79
f 114/176/80 133/203/81 100/162/82
f 110/172/83 100/162/83 133/203/83
f 125/204/84 112/197/84 105/205/84
f 129/206/85 105/205/85 108/207/85
f 131/208/86 108/209/86 109/210/86
f 106/196/87 120/200/87 132/202/87
f 130/211/88 109/210/88 110/212/88
f 114/176/89 113/175/90 134/213/91
f 130/211/92 133/214/92 115/215/92
f 134/213/93 111/216/94 133/203/94
f 134/217/95 102/164/96 104/166/95
f 124/218/97 102/219/97 113/220/97
f 1/1/1 7/221/1 2/2/1
f 4/4/2 14/222/2 5/5/2
f 7/7/3 4/4/3 6/6/3
f 8/9/4 11/12/4 9/10/4
f 11/12/5 13/14/5 12/13/5
f 13/14/6 1/1/6 3/3/6
f 14/15/7 16/18/7 15/16/7
f 16/18/8 8/223/8 10/19/8
f 17/20/8 30/224/8 18/21/8
f 20/23/5 34/225/5 21/24/5
f 23/26/1 29/226/1 24/27/1
f 26/29/2 33/227/2 27/30/2
f 29/32/3 26/29/3 28/31/3
f 30/34/4 20/23/4 22/25/4
f 21/36/9 25/228/9 31/37/9
f 31/37/9 25/228/9 24/39/9
f 18/41/9 22/38/9 31/37/9
f 31/37/9 28/40/9 27/43/9
f 30/44/10 17/229/10 32/45/10
f 32/45/10 17/229/10 33/47/10
f 34/49/10 20/46/10 32/45/10
f 32/45/10 26/48/10 29/51/10
f 34/52/6 23/26/6 25/28/6
f 33/54/7 17/20/7 19/22/7
f 35/56/27 71/114/27 36/57/27
f 40/61/98 37/58/99 38/59/100
f 37/58/99 36/57/101 38/59/100
f 41/62/26 68/110/26 42/63/26
f 44/65/14 72/117/14 45/66/14
f 47/68/15 62/230/102 44/65/15
f 36/70/16 71/231/17 49/71/17
f 50/72/18 41/108/41 51/73/40
f 53/75/103 65/97/103 54/76/103
f 51/80/104 41/62/105 43/64/106
f 43/64/106 54/78/107 51/80/104
f 58/82/108 63/90/108 37/58/108
f 37/58/109 40/61/109 58/82/109
f 54/78/110 43/64/110 59/83/110
f 43/64/111 47/89/111 59/83/111
f 48/69/38 63/109/38 58/85/38
f 42/63/25 69/111/25 61/87/25
f 47/89/112 43/64/112 42/63/112
f 35/56/113 37/58/113 63/90/113
f 60/86/28 58/85/28 57/92/28
f 52/74/30 51/73/31 56/94/31
f 64/96/114 56/232/114 54/76/114
f 40/98/115 39/233/115 64/96/115
f 52/74/34 64/95/34 39/99/35
f 60/101/36 53/75/116 55/77/36
f 49/71/37 71/231/37 66/103/37
f 48/69/117 60/86/117 59/105/117
f 40/98/118 65/97/118 53/75/118
f 50/72/119 52/74/119 38/100/119
f 50/72/18 49/71/17 68/107/17
f 48/69/15 44/65/15 46/67/15
f 68/110/25 73/131/25 69/111/25
f 35/56/42 46/91/42 45/112/42
f 71/114/42 35/56/42 70/113/42
f 44/65/14 62/230/14 61/116/14
f 49/71/37 67/104/37 73/118/37
f 70/119/43 45/234/43 74/120/43
f 76/122/10 94/235/10 77/123/10
f 78/124/10 77/123/10 79/125/10
f 67/104/44 78/124/44 80/126/45
f 74/127/27 95/153/27 81/128/27
f 67/104/44 66/103/45 76/122/45
f 69/111/46 84/133/46 82/130/46
f 84/133/46 69/111/46 73/131/46
f 73/131/120 80/155/120 83/132/120
f 85/134/9 89/138/9 86/135/9
f 88/137/9 135/236/9 89/138/9
f 75/129/27 81/128/27 90/139/27
f 84/133/26 93/145/26 92/141/26
f 85/147/48 72/146/48 88/144/48
f 72/146/48 61/142/48 88/144/48
f 83/132/26 136/237/26 93/145/26
f 74/120/121 45/234/121 87/148/121
f 45/234/48 72/146/48 87/148/48
f 76/149/49 91/140/49 90/139/49
f 92/141/50 135/238/50 88/151/50
f 74/127/51 87/239/51 86/152/51
f 79/154/52 136/237/52 83/132/52
f 66/156/43 70/119/43 75/121/43
f 91/157/122 76/240/122 66/156/122
f 96/158/123 132/241/123 97/159/123
f 99/161/54 114/176/54 100/162/54
f 102/164/55 124/242/55 103/165/55
f 105/167/56 112/174/124 99/161/57
f 106/168/125 132/241/125 96/158/125
f 108/170/126 105/167/126 101/163/126
f 101/163/127 100/162/127 110/172/127
f 103/165/62 115/243/62 111/173/62
f 107/169/63 96/158/128 99/161/64
f 96/158/67 98/160/67 114/176/67
f 115/177/129 103/244/129 116/178/129
f 118/180/130 123/185/130 119/181/130
f 117/179/9 116/178/9 121/183/9
f 125/187/131 122/184/131 121/183/131
f 118/180/132 120/182/132 127/189/132
f 129/191/133 131/193/133 122/184/133
f 130/192/134 117/179/134 122/184/134
f 121/183/131 118/180/131 128/190/131
f 116/178/135 103/244/135 124/186/135
f 116/178/9 123/185/9 118/180/9
f 107/194/77 128/245/77 127/195/77
f 112/197/78 126/246/136 128/198/78
f 120/200/79 119/247/79 97/201/79
f 114/176/80 134/213/137 133/203/81
f 125/204/84 126/246/138 112/197/84
f 129/206/85 125/204/85 105/205/85
f 131/208/86 129/248/86 108/209/86
f 106/196/87 127/195/87 120/200/87
f 130/211/88 131/208/88 109/210/88
f 114/176/89 98/160/139 113/175/90
f 110/212/140 133/214/140 130/211/140
f 133/214/141 111/249/141 115/215/141
f 134/213/93 104/250/142 111/216/94
f 134/217/95 113/251/96 102/164/96
f 113/220/143 97/201/143 119/247/143
f 119/247/144 124/218/144 113/220/144
