# Blender v2.79 (sub 0) OBJ File: 'tomb_5.obj'
# www.blender.org
mtllib tomb_5.mtl
o dec
v -0.204402 0.418006 0.290605
v -0.208688 0.408627 0.178774
v -0.171188 0.435613 0.257584
v -0.137459 0.447669 0.320248
v -0.053704 0.397577 0.473414
v -0.104590 0.346278 0.369528
v -0.083270 0.350887 0.334427
v -0.072425 0.356723 0.329580
v -0.101952 0.343893 0.377796
v -0.128186 -0.001157 1.869390
v -0.193301 0.393660 0.458290
v 0.017331 0.063071 1.849607
v -0.056074 0.379109 0.477765
v -0.178174 0.374098 0.663702
v -0.114999 0.076607 1.887611
v 0.004144 -0.014693 1.831386
v -0.074623 0.356221 0.305403
v -0.173673 0.396619 0.204680
v -0.214658 0.406039 0.194139
v -0.130463 0.361335 0.323991
v 0.423892 0.098761 1.416793
v -0.617504 0.099544 1.179098
v 0.451000 0.148620 1.293624
v -0.609390 0.123046 1.337455
v -0.618064 0.174622 1.209366
v -0.608830 0.047968 1.307187
v 0.451558 0.073542 1.263356
v 0.424452 0.023684 1.386524
v -0.151734 0.254637 0.212288
v -0.246960 0.393678 0.331164
v -0.127444 0.342589 0.351326
v -0.146424 0.324331 0.230296
v -0.125349 0.462277 0.346531
v -0.075126 0.298840 0.312747
v -0.311857 0.560402 0.435072
v -0.193566 0.261528 0.238863
v -0.127623 0.457288 0.364849
v 0.158151 -0.236472 -0.147475
v 0.156356 -0.184162 -0.209230
v 0.029367 -0.270808 -0.172815
v 0.027571 -0.218499 -0.234570
v -0.164142 0.173246 0.208950
v -0.152881 0.164015 0.200804
v -0.129912 0.194030 0.225560
vt 0.684300 0.404100
vt 0.626300 0.480500
vt 0.683400 0.439900
vt 0.583000 0.569800
vt 0.663600 0.408400
vt 0.679900 0.364000
vt 0.685600 0.359200
vt 0.698800 0.375800
vt 0.712300 0.434600
vt 0.708700 0.520100
vt 0.716900 0.519800
vt 0.721500 0.462600
vt 0.719600 0.458600
vt 0.745700 0.439100
vt 0.738200 0.449200
vt 0.743400 0.450300
vt 0.298000 0.282600
vt 0.298000 0.990700
vt 0.283700 0.320000
vt 0.277000 0.389400
vt 0.264800 0.473400
vt 0.264800 0.990700
vt 0.264800 0.340100
vt 0.267300 0.349700
vt 0.264800 0.985200
vt 0.298000 0.985200
vt 0.298000 0.403400
vt 0.290900 0.406900
vt 0.277800 0.330300
vt 0.254100 0.473400
vt 0.308600 0.397900
vt 0.308600 0.979600
vt 0.254100 0.990700
vt 0.298000 0.481800
vt 0.298000 0.538500
vt 0.264800 0.481800
vt 0.264800 0.538500
vt 0.309200 0.334600
vt 0.309200 0.979600
vt 0.305000 0.346500
vt 0.296300 0.364000
vt 0.256300 0.276300
vt 0.270300 0.288500
vt 0.253500 0.282600
vt 0.253500 0.990700
vt 0.285600 0.340300
vt 0.295400 0.360400
vt 0.393600 0.208700
vt 0.426800 0.208700
vt 0.393600 0.633900
vt 0.426800 0.633900
vt 0.426800 0.641300
vt 0.393600 0.641300
vt 0.426800 0.201300
vt 0.393600 0.201300
vt 0.426800 0.392900
vt 0.426800 0.449700
vt 0.393600 0.392900
vt 0.393600 0.449700
vt 0.383100 0.207900
vt 0.438300 0.201200
vt 0.382100 0.633100
vt 0.438300 0.641300
vt 0.426800 0.393500
vt 0.426800 0.449100
vt 0.393600 0.393500
vt 0.393600 0.449100
vt 0.438300 0.201200
vt 0.438300 0.641300
vt 0.382100 0.209400
vt 0.383100 0.634700
vt 0.698800 0.375800
vt 0.684300 0.404100
vt 0.685600 0.359200
vt 0.679900 0.364000
vt 0.663600 0.408400
vt 0.626300 0.480500
vt 0.583000 0.569800
vt 0.683400 0.439900
vt 0.721500 0.462600
vt 0.708700 0.520100
vt 0.716900 0.519800
vt 0.745700 0.439100
vt 0.264800 0.473400
vt 0.264800 0.029600
vt 0.277000 0.389400
vt 0.283700 0.320000
vt 0.298000 0.282600
vt 0.298000 0.029600
vt 0.290900 0.406900
vt 0.264800 0.340100
vt 0.298000 0.403400
vt 0.298000 0.035100
vt 0.264800 0.035100
vt 0.298000 0.482300
vt 0.298000 0.538000
vt 0.264800 0.482300
vt 0.264800 0.538000
vt 0.254100 0.473400
vt 0.277800 0.330300
vt 0.254100 0.029600
vt 0.308600 0.397900
vt 0.308600 0.029600
vt 0.253500 0.282600
vt 0.253500 0.029600
vt 0.256300 0.276300
vt 0.296300 0.364000
vt 0.270300 0.288500
vt 0.309200 0.334600
vt 0.309200 0.029600
vn 0.2983 0.9180 -0.2613
vn -0.8303 0.5455 0.1145
vn 0.3868 0.8823 -0.2683
vn -0.5818 0.7844 0.2150
vn -0.7654 0.6352 0.1035
vn -0.9370 -0.1466 -0.3170
vn -0.3201 0.0631 -0.9452
vn 0.6148 -0.3845 -0.6886
vn 0.5327 -0.6790 -0.5051
vn 0.8392 0.5257 -0.1394
vn 0.9731 -0.0966 -0.2092
vn 0.0883 -0.7959 -0.5990
vn 0.6464 -0.6290 -0.4318
vn 0.0484 0.1321 -0.9901
vn -0.9123 -0.1394 -0.3851
vn 0.5792 0.8066 -0.1177
vn -0.5750 -0.6188 0.5351
vn -0.3901 0.4718 0.7907
vn 0.5458 -0.7780 0.3111
vn 0.7375 0.3525 0.5760
vn -0.5823 0.3265 0.7445
vn -0.5742 -0.7590 0.3069
vn 0.4839 0.3022 0.8213
vn 0.4920 -0.7811 0.3846
vn -0.5713 -0.3131 -0.7586
vn -0.5792 0.7443 -0.3323
vn 0.6604 -0.3415 -0.6688
vn 0.6525 0.7183 -0.2415
vn -0.3681 -0.4881 0.7914
vn -0.2809 -0.2817 0.9174
vn 0.0139 -0.5514 0.8341
vn -0.4758 -0.4720 0.7421
vn -0.5202 -0.5710 0.6351
vn -0.4178 -0.5945 0.6870
vn -0.3671 0.7351 0.5698
vn -0.3331 0.7862 -0.5205
vn -0.3982 -0.2462 0.8836
vn -0.0173 0.9974 -0.0692
vn -0.1299 0.6554 0.7439
vn 0.6753 -0.2529 0.6927
vn -0.3797 -0.1887 -0.9056
vn -0.3541 -0.9349 -0.0248
vn 0.7164 0.1035 -0.6900
vn 0.7420 -0.6426 0.1909
usemtl dec
s 1
f 3/1/1 11/2/2 4/3/3
f 4/3/3 11/2/2 14/4/4
f 11/2/2 3/1/1 1/5/5
f 1/5/5 3/1/1 19/6/6
f 19/6/6 3/1/1 2/7/7
f 2/7/7 3/1/1 18/8/8
f 18/8/8 3/1/1 20/9/9
f 3/1/1 4/3/3 20/9/9
f 5/10/10 13/11/11 4/3/3
f 13/11/11 9/12/12 4/3/3
f 9/12/12 6/13/13 4/3/3
f 20/9/9 4/3/3 6/13/13
f 17/14/14 7/15/15 8/16/16
f 8/16/16 7/15/15 13/11/11
f 7/15/15 9/12/12 13/11/11
f 19/17/6 10/18/17 1/19/5
f 1/19/5 10/18/17 11/20/2
f 11/20/2 10/18/17 14/21/4
f 14/21/4 10/18/17 15/22/18
f 17/23/14 8/24/16 16/25/19
f 12/26/20 16/25/19 5/27/10
f 8/24/16 13/28/11 16/25/19
f 13/28/11 5/27/10 16/25/19
f 4/29/3 14/30/4 5/31/10
f 5/31/10 14/30/4 12/32/20
f 14/30/4 15/33/18 12/32/20
f 10/34/17 16/35/19 15/36/18
f 15/36/18 16/35/19 12/37/20
f 17/38/14 16/39/19 7/40/15
f 7/40/15 16/39/19 9/41/12
f 2/42/7 18/43/8 19/44/6
f 19/44/6 18/43/8 10/45/17
f 18/43/8 20/46/9 10/45/17
f 20/46/9 6/47/13 10/45/17
f 6/47/13 9/41/12 10/45/17
f 16/39/19 10/45/17 9/41/12
f 24/48/21 26/49/22 21/50/23
f 21/50/23 26/49/22 28/51/24
f 22/52/25 25/53/26 27/54/27
f 27/54/27 25/53/26 23/55/28
f 24/56/21 25/57/26 26/58/22
f 26/58/22 25/57/26 22/59/25
f 21/60/23 23/61/28 24/62/21
f 24/62/21 23/61/28 25/63/26
f 28/64/24 27/65/27 21/66/23
f 21/66/23 27/65/27 23/67/28
f 22/68/25 27/69/27 26/70/22
f 26/70/22 27/69/27 28/71/24
f 44/72/29 29/73/30 43/74/31
f 43/74/31 29/73/30 42/75/32
f 42/75/32 29/73/30 36/76/33
f 36/76/33 29/73/30 30/77/34
f 35/78/35 30/77/34 32/79/36
f 32/79/36 30/77/34 29/73/30
f 44/72/29 31/80/37 29/73/30
f 29/73/30 31/80/37 32/79/36
f 33/81/38 32/79/36 37/82/39
f 37/82/39 32/79/36 31/80/37
f 31/80/37 34/83/40 37/82/39
f 35/84/35 41/85/41 30/86/34
f 30/86/34 41/85/41 36/87/33
f 36/87/33 41/85/41 42/88/32
f 41/85/41 40/89/42 42/88/32
f 37/90/39 34/91/40 33/92/38
f 39/93/43 33/92/38 34/91/40
f 34/91/40 38/94/44 39/93/43
f 41/95/41 39/96/43 40/97/42
f 40/97/42 39/96/43 38/98/44
f 35/99/35 32/100/36 41/101/41
f 32/100/36 33/102/38 39/103/43
f 39/103/43 41/101/41 32/100/36
f 42/104/32 40/105/42 43/106/31
f 31/107/37 44/108/29 34/109/40
f 40/105/42 38/110/44 43/106/31
f 34/109/40 44/108/29 38/110/44
f 44/108/29 43/106/31 38/110/44
