# Blender v2.79 (sub 0) OBJ File: ''
# www.blender.org
mtllib chn3a_leftleg.mtl
o lg
v 0.252612 1.499250 -0.125000
v -0.003405 1.499250 -0.198221
v -0.003405 1.499250 -0.125000
v -0.003405 1.499250 0.125000
v 0.252612 0.749250 0.125000
v 0.252612 1.499250 0.125000
v 0.252612 0.749250 -0.125000
v -0.003405 0.749250 0.125000
v -0.003405 0.749250 -0.125000
v -0.003405 1.407100 -0.125000
v 0.252612 1.407100 -0.125000
v 0.252612 1.499250 -0.198221
v -0.003405 1.407100 -0.198221
v 0.252612 1.407100 -0.198221
vt 0.739393 0.168676
vt 0.705036 0.168676
vt 0.705036 0.168676
vt 0.601257 0.000616
vt 0.508330 0.255468
vt 0.508330 0.000616
vt 0.125000 0.375000
vt 0.062500 0.500000
vt 0.062500 0.375000
vt 0.739393 0.099963
vt 0.705036 0.099963
vt 0.402946 0.044857
vt 0.402946 0.265605
vt 0.354571 0.265605
vt 0.403410 0.276702
vt 0.339846 0.276702
vt 0.339846 0.034579
vt 0.761775 0.045367
vt 0.710831 0.064145
vt 0.710831 0.045367
vt 0.598861 0.034481
vt 0.683582 0.253120
vt 0.683582 0.034481
vt 0.710831 0.064145
vt 0.761775 0.064145
vt 0.761775 0.064145
vt 0.766383 0.107691
vt 0.766383 0.133019
vt 0.766383 0.133019
vt 0.761630 0.045556
vt 0.761630 0.064199
vt 0.761630 0.045556
vt 0.739393 0.168676
vt 0.601257 0.255468
vt 0.125000 0.500000
vt 0.354571 0.013935
vt 0.402946 0.013935
vt 0.339846 0.000664
vt 0.403410 0.000664
vt 0.598861 0.253120
vt 0.766383 0.107691
vt 0.761630 0.064199
vn 0.0000 1.0000 0.0000
vn 0.0000 -0.0000 1.0000
vn 0.0000 -1.0000 0.0000
vn -1.0000 0.0000 0.0000
vn 1.0000 0.0000 0.0000
vn 0.0000 0.0000 -1.0000
usemtl None.002
s 1
f 1/1/1 2/2/1 3/3/1
f 4/4/2 5/5/2 6/6/2
f 7/7/3 8/8/3 9/9/3
f 6/10/1 3/3/1 4/11/1
f 10/12/4 9/13/4 8/14/4
f 5/15/5 7/16/5 11/17/5
f 12/18/6 13/19/6 2/20/6
f 11/21/6 9/22/6 10/23/6
f 10/24/3 14/25/3 11/26/3
f 3/27/4 13/28/4 10/29/4
f 1/30/5 14/31/5 12/32/5
f 1/1/1 12/33/1 2/2/1
f 4/4/2 8/34/2 5/5/2
f 7/7/3 5/35/3 8/8/3
f 6/10/1 1/1/1 3/3/1
f 8/14/4 4/36/4 10/12/4
f 4/36/4 3/37/4 10/12/4
f 11/17/5 1/38/5 6/39/5
f 6/39/5 5/15/5 11/17/5
f 12/18/6 14/25/6 13/19/6
f 11/21/6 7/40/6 9/22/6
f 10/24/3 13/19/3 14/25/3
f 3/27/4 2/41/4 13/28/4
f 1/30/5 11/42/5 14/31/5
