# Blender v2.79 (sub 0) OBJ File: ''
# www.blender.org
mtllib chn3a_head.mtl
o head
v -0.000220 -0.003489 0.260214
v 0.256213 -0.003489 0.260430
v 0.251792 0.004854 0.250944
v -0.000220 -0.504758 0.260214
v 0.256213 -0.504758 0.260430
v 0.256652 -0.003489 -0.259985
v 0.256652 -0.504758 -0.259985
v 0.000219 -0.504758 -0.260202
v 0.252215 0.004854 -0.250506
v 0.000211 0.004854 -0.250719
v 0.000219 -0.003489 -0.260202
v 0.207357 -0.143364 -0.275811
v 0.232932 -0.185665 -0.275789
v 0.180004 -0.185665 -0.275834
v 0.232932 -0.317355 -0.275789
v 0.180004 -0.317355 -0.275834
v 0.207357 -0.356144 -0.275811
v 0.000236 -0.356144 -0.279395
v 0.000236 -0.317355 -0.279395
v 0.000236 -0.143364 -0.279395
v 0.000216 -0.143364 -0.256639
v 0.242147 -0.317355 -0.253026
v 0.207337 -0.143364 -0.253055
v 0.207337 -0.356144 -0.253055
v 0.000216 -0.356144 -0.256639
v 0.242147 -0.185665 -0.253026
v 0.189171 -0.324535 -0.265998
v 0.000227 -0.324535 -0.269567
v 0.189171 -0.178485 -0.265998
v 0.000227 -0.188826 -0.269567
v 0.254558 -0.367989 -0.292766
v 0.281710 -0.360055 -0.267677
v 0.286964 -0.507058 -0.268569
v 0.259292 -0.528895 -0.265221
v 0.257436 -0.507058 -0.292764
v 0.000247 -0.367989 -0.292981
v 0.000224 -0.528895 -0.265440
v 0.000247 -0.507058 -0.292981
v 0.268008 -0.029567 0.272293
v 0.280548 -0.280836 -0.230138
v 0.281195 -0.035226 -0.052516
v 0.274152 -0.528895 0.266272
v -0.000229 -0.528895 0.270721
v -0.000242 -0.507138 0.286072
v 0.276321 -0.508951 0.286305
v -0.000242 -0.026352 0.286072
v 0.247549 -0.027812 0.240577
v 0.255164 -0.283859 -0.221116
v 0.255192 -0.357287 -0.253867
v 0.315152 -0.342787 0.117145
v 0.315844 -0.355053 0.096529
v 0.333665 -0.330844 0.085656
v 0.303123 -0.153387 0.099926
v 0.304125 -0.168150 0.117058
v 0.323931 -0.176684 0.085579
v 0.314971 -0.353174 -0.091027
v 0.314058 -0.340264 -0.115304
v 0.332873 -0.329140 -0.084494
v 0.303055 -0.166018 -0.115390
v 0.302229 -0.151461 -0.092351
v 0.323138 -0.174980 -0.084570
v 0.281728 -0.356570 0.096617
v 0.279943 -0.341781 -0.115216
v 0.268940 -0.167535 -0.115302
v 0.281037 -0.344304 0.117233
v 0.270009 -0.169668 0.117146
v 0.280856 -0.354691 -0.090939
v 0.269008 -0.154904 0.100014
v 0.073555 -0.003722 -0.296772
v 0.220621 -0.146311 -0.303742
v 0.075608 -0.140349 -0.342870
v 0.058478 -0.022382 -0.242956
v 0.190776 -0.164172 -0.256182
v 0.060531 -0.159008 -0.289054
v 0.182853 -0.027571 -0.210646
v 0.212698 -0.009710 -0.258206
v -0.000212 0.004854 0.250731
v 0.000236 -0.185665 -0.279395
v 0.255011 -0.036609 -0.038812
v 0.000214 -0.357287 -0.254082
v -0.000203 -0.027812 0.240368
v 0.268114 -0.152979 -0.092263
v 0.022777 -0.196015 -0.267689
v 0.000226 -0.207739 -0.268243
v 0.000266 -0.176108 -0.315784
v 0.044375 -0.178600 -0.268364
v 0.042653 -0.149434 -0.311301
v 0.066777 -0.163832 -0.273753
v 0.052631 -0.005947 -0.275194
v 0.066759 -0.007545 -0.252496
v 0.000215 -0.001335 -0.254623
v 0.000243 -0.002539 -0.287759
v -0.252216 0.004854 0.250518
v -0.256653 -0.003489 0.259997
v -0.256653 -0.504758 0.259997
v -0.256214 -0.003489 -0.260418
v -0.256214 -0.504758 -0.260418
v -0.251793 0.004854 -0.250932
v -0.206891 -0.143364 -0.276161
v -0.179538 -0.185665 -0.276138
v -0.232466 -0.185665 -0.276182
v -0.179538 -0.317355 -0.276138
v -0.232466 -0.317355 -0.276182
v -0.206891 -0.356144 -0.276161
v -0.241751 -0.317355 -0.253434
v -0.206910 -0.143364 -0.253405
v -0.206910 -0.356144 -0.253405
v -0.241751 -0.185665 -0.253434
v -0.188723 -0.324535 -0.266317
v -0.188723 -0.178485 -0.266317
v -0.256942 -0.367989 -0.293198
v -0.286511 -0.507058 -0.269053
v -0.286512 -0.360055 -0.268157
v -0.258844 -0.528895 -0.265659
v -0.256942 -0.507058 -0.293198
v -0.268468 -0.029567 0.271841
v -0.281107 -0.035226 -0.052990
v -0.286544 -0.280836 -0.230617
v -0.274602 -0.528895 0.265808
v -0.276805 -0.508951 0.285838
v -0.247955 -0.027812 0.240159
v -0.254791 -0.283859 -0.221546
v -0.254764 -0.357287 -0.254297
v -0.315350 -0.342787 0.116613
v -0.333809 -0.330844 0.085092
v -0.316007 -0.355053 0.095995
v -0.303292 -0.153387 0.099414
v -0.324075 -0.176684 0.085032
v -0.304323 -0.168150 0.116544
v -0.314817 -0.353174 -0.091559
v -0.332731 -0.329140 -0.085056
v -0.313864 -0.340264 -0.115834
v -0.302861 -0.166018 -0.115902
v -0.322996 -0.174980 -0.085116
v -0.302073 -0.151461 -0.092861
v -0.281892 -0.356570 0.096141
v -0.279749 -0.341781 -0.115688
v -0.268746 -0.167535 -0.115756
v -0.281235 -0.344304 0.116759
v -0.270207 -0.169668 0.116690
v -0.280702 -0.354691 -0.091413
v -0.269177 -0.154904 0.099560
v -0.073055 -0.003722 -0.296896
v -0.075030 -0.140349 -0.342997
v -0.220109 -0.146311 -0.304114
v -0.058068 -0.022382 -0.243054
v -0.060043 -0.159008 -0.289156
v -0.190344 -0.164172 -0.256504
v -0.182497 -0.027571 -0.210954
v -0.212262 -0.009710 -0.258564
v -0.254945 -0.036609 -0.039242
v -0.267958 -0.152979 -0.092715
v -0.022325 -0.196015 -0.267727
v -0.043923 -0.178600 -0.268438
v -0.042127 -0.149434 -0.311373
v -0.066315 -0.163832 -0.273865
v -0.066333 -0.007545 -0.252608
v -0.052167 -0.005947 -0.275282
vt 0.562715 0.843666
vt 0.489398 0.843666
vt 0.489398 0.853118
vt 0.562715 0.708553
vt 0.489398 0.708553
vt 0.369858 0.843666
vt 0.369858 0.708553
vt 0.293590 0.708553
vt 0.391263 0.800254
vt 0.299608 0.800254
vt 0.299608 0.846315
vt 0.369858 0.853118
vt 0.293590 0.843666
vt 0.270806 0.117164
vt 0.282199 0.136008
vt 0.258620 0.136008
vt 0.282199 0.188815
vt 0.258620 0.188815
vt 0.270806 0.207315
vt 0.184006 0.207315
vt 0.184006 0.188815
vt 0.186692 0.117164
vt 0.272743 0.115923
vt 0.187932 0.115525
vt 0.188319 0.136105
vt 0.271901 0.205831
vt 0.282465 0.195284
vt 0.264813 0.186269
vt 0.281494 0.134199
vt 0.261097 0.134009
vt 0.261849 0.190270
vt 0.184177 0.188333
vt 0.264840 0.140214
vt 0.257456 0.138216
vt 0.259289 0.184571
vt 0.263746 0.189718
vt 0.183653 0.184278
vt 0.183727 0.189601
vt 0.262529 0.131694
vt 0.186993 0.132528
vt 0.077169 0.147427
vt 0.083825 0.155043
vt 0.016831 0.179007
vt 0.002005 0.166074
vt 0.016831 0.158014
vt 0.076588 0.034786
vt 0.002005 0.034786
vt 0.016831 0.034786
vt 0.221343 0.363375
vt 0.134102 0.159867
vt 0.221343 0.247960
vt 0.002005 0.364788
vt 0.780592 0.182480
vt 0.780463 0.000700
vt 0.689443 0.000700
vt 0.016831 0.464012
vt 0.002005 0.464012
vt 0.016831 0.363375
vt 0.221343 0.464012
vt 0.087269 0.401450
vt 0.101086 0.400255
vt 0.101086 0.322103
vt 0.104195 0.239618
vt 0.092864 0.250996
vt 0.106060 0.200178
vt 0.093486 0.193938
vt 0.103523 0.184141
vt 0.023150 0.098935
vt 0.099842 0.460019
vt 0.002005 0.144467
vt 0.689443 0.182480
vt 0.587898 0.790626
vt 0.622953 0.789890
vt 0.622882 0.838233
vt 0.018905 0.350194
vt 0.028640 0.342427
vt 0.036009 0.356602
vt 0.027510 0.438547
vt 0.019508 0.430431
vt 0.036080 0.424977
vt 0.120876 0.345177
vt 0.131717 0.354400
vt 0.114806 0.359254
vt 0.128688 0.432666
vt 0.118213 0.441092
vt 0.113039 0.427204
vt 0.017397 0.325576
vt 0.146905 0.343139
vt 0.144661 0.441925
vt 0.002439 0.340498
vt 0.004292 0.441761
vt 0.129795 0.328715
vt 0.018034 0.454240
vt 0.976207 0.393288
vt 0.929522 0.439590
vt 0.929214 0.392998
vt 0.976306 0.371659
vt 0.907163 0.439590
vt 0.907357 0.393385
vt 0.976301 0.460736
vt 0.929252 0.460652
vt 0.999107 0.439008
vt 0.976013 0.439105
vt 0.976464 0.392677
vt 0.976147 0.439236
vt 0.928915 0.439236
vt 0.562715 0.853118
vt 0.391263 0.846315
vt 0.293590 0.853118
vt 0.186692 0.136008
vt 0.184278 0.205645
vt 0.186993 0.137483
vt 0.089756 0.327798
vt 0.017710 0.107018
vt 0.087269 0.460114
vt 0.588401 0.836260
vt 0.128448 0.457437
vt 0.929354 0.371466
vt 0.998817 0.393676
vt 0.936046 0.831883
vt 0.916570 0.833358
vt 0.916570 0.817226
vt 0.947016 0.823732
vt 0.933158 0.810089
vt 0.960048 0.816209
vt 0.939824 0.748243
vt 0.959854 0.741201
vt 0.916570 0.740690
vt 0.916570 0.751637
vt 0.489398 0.853118
vt 0.489398 0.843666
vt 0.489398 0.708553
vt 0.369858 0.843666
vt 0.369858 0.708553
vt 0.391263 0.800254
vt 0.299608 0.800254
vt 0.369858 0.853118
vt 0.270806 0.117164
vt 0.258620 0.136008
vt 0.282199 0.136008
vt 0.258620 0.188815
vt 0.282199 0.188815
vt 0.270806 0.207315
vt 0.272743 0.115923
vt 0.271901 0.205831
vt 0.264813 0.186269
vt 0.282465 0.195284
vt 0.281494 0.134199
vt 0.261097 0.134009
vt 0.261849 0.190270
vt 0.264840 0.140214
vt 0.257456 0.138216
vt 0.263746 0.189718
vt 0.259289 0.184571
vt 0.262529 0.131694
vt 0.077169 0.147427
vt 0.016831 0.179007
vt 0.083825 0.155043
vt 0.002005 0.166074
vt 0.016831 0.158014
vt 0.221343 0.363375
vt 0.221343 0.247960
vt 0.134102 0.159867
vt 0.002005 0.364788
vt 0.689443 0.000700
vt 0.016831 0.363375
vt 0.087269 0.401450
vt 0.101086 0.322103
vt 0.101086 0.400255
vt 0.092864 0.250996
vt 0.104195 0.239618
vt 0.093486 0.193938
vt 0.106060 0.200178
vt 0.103523 0.184141
vt 0.002005 0.144467
vt 0.689443 0.182480
vt 0.587898 0.790626
vt 0.622953 0.789890
vt 0.018905 0.350194
vt 0.036009 0.356602
vt 0.028640 0.342427
vt 0.027510 0.438547
vt 0.036080 0.424977
vt 0.019508 0.430431
vt 0.120876 0.345177
vt 0.114806 0.359254
vt 0.131717 0.354400
vt 0.128688 0.432666
vt 0.113039 0.427204
vt 0.118213 0.441092
vt 0.017397 0.325576
vt 0.146905 0.343139
vt 0.144661 0.441925
vt 0.002439 0.340498
vt 0.004292 0.441761
vt 0.129795 0.328715
vt 0.018034 0.454240
vt 0.976207 0.393288
vt 0.929214 0.392998
vt 0.929522 0.439590
vt 0.976306 0.371659
vt 0.907357 0.393385
vt 0.907163 0.439590
vt 0.929252 0.460652
vt 0.976301 0.460736
vt 0.976013 0.439105
vt 0.999107 0.439008
vt 0.976464 0.392677
vt 0.928915 0.439236
vt 0.976147 0.439236
vt 0.089756 0.327798
vt 0.128448 0.457437
vt 0.929354 0.371466
vt 0.998817 0.393676
vt 0.936046 0.831883
vt 0.947016 0.823732
vt 0.933158 0.810089
vt 0.960048 0.816209
vt 0.959854 0.741201
vt 0.939824 0.748243
vn -0.0006 0.7508 0.6605
vn -0.0008 0.0000 1.0000
vn 0.0008 -0.0000 -1.0000
vn 0.9871 0.1602 0.0008
vn 1.0000 -0.0000 0.0008
vn 0.0000 1.0000 0.0000
vn 0.0006 0.7508 -0.6605
vn 0.8833 0.4689 0.0007
vn 0.0086 -0.0050 -1.0000
vn 0.0085 -0.0043 -1.0000
vn 0.0086 0.0049 -1.0000
vn 0.0082 0.0052 -1.0000
vn 0.0008 0.0016 -1.0000
vn 0.0008 -0.0016 -1.0000
vn 0.6955 -0.4582 -0.5535
vn 0.7910 -0.5213 -0.3202
vn 0.8391 -0.4250 -0.3397
vn 0.8278 0.5007 0.2532
vn 0.8558 0.5174 0.0007
vn 0.9009 0.4340 0.0008
vn 0.0000 -1.0000 0.0000
vn 0.9269 -0.0000 -0.3753
vn -0.7315 0.0000 0.6818
vn -0.0113 0.8028 0.5962
vn -0.0005 0.8075 0.5899
vn -0.0005 0.8073 0.5902
vn 0.0343 -0.8222 0.5682
vn 0.6679 0.0262 -0.7438
vn 0.6739 0.0286 -0.7383
vn 0.6406 0.0157 -0.7677
vn 0.2064 -0.7599 -0.6164
vn 0.1834 -0.7642 -0.6183
vn 0.4660 -0.6778 -0.5688
vn 0.0005 -0.7836 -0.6213
vn 0.9997 0.0037 0.0231
vn 0.9998 0.0146 0.0159
vn 0.9986 -0.0324 0.0411
vn 0.6181 -0.7859 -0.0173
vn -0.0007 -0.5857 0.8105
vn -0.0007 -0.5765 0.8171
vn -0.0042 -0.7012 0.7130
vn -0.0007 0.0292 0.9996
vn 0.0341 0.0097 0.9994
vn -0.0008 0.0197 0.9998
vn 0.0600 0.9981 0.0106
vn 0.0482 0.9985 0.0242
vn -0.0577 0.9978 -0.0319
vn -0.4087 0.5412 -0.7349
vn -0.3467 0.4844 -0.8032
vn -0.3468 0.4727 -0.8101
vn -0.4085 0.4643 -0.7858
vn -0.3933 0.3890 -0.8331
vn -0.3910 0.3971 -0.8303
vn -0.0372 0.9637 -0.2645
vn -0.0122 0.9642 -0.2651
vn -0.0152 0.9641 -0.2650
vn 0.0002 0.9642 -0.2653
vn 0.0000 0.9997 -0.0252
vn 0.6337 0.0131 -0.7734
vn 0.9983 0.0360 -0.0450
vn 0.9997 0.0226 0.0128
vn 0.9994 -0.0300 0.0175
vn 0.9918 -0.1265 0.0186
vn -0.0052 -0.7084 0.7058
vn 0.0189 -0.0000 -0.9998
vn 0.8270 -0.4705 0.3077
vn 0.8284 -0.5346 0.1675
vn 0.8186 -0.5697 0.0733
vn 0.7899 0.5764 0.2096
vn 0.8480 0.2558 0.4642
vn 0.8606 0.4191 0.2894
vn 0.8120 -0.5610 -0.1612
vn 0.8018 -0.5146 -0.3038
vn 0.8109 -0.5763 -0.1021
vn 0.7571 0.5642 -0.3293
vn 0.7637 0.6232 -0.1686
vn 0.7596 0.6430 -0.0979
vn 0.9980 0.0630 -0.0040
vn 0.8517 0.0540 0.5212
vn 0.8436 0.0530 -0.5343
vn 0.0840 -0.9664 -0.2429
vn 0.0444 -0.9990 -0.0102
vn 0.0395 -0.8581 0.5119
vn -0.0026 -0.0007 -1.0000
vn -0.0389 0.8441 -0.5347
vn 0.0026 0.0007 1.0000
vn -0.0320 0.7562 0.6535
vn 0.0380 -0.8817 -0.4703
vn 0.0445 -0.9605 -0.2748
vn 0.0424 -0.9678 -0.2482
vn -0.0444 0.9990 0.0102
vn 0.2626 0.3154 -0.9119
vn 0.2627 0.3155 -0.9119
vn 0.2594 0.3122 -0.9139
vn -0.9666 0.0688 -0.2469
vn 0.0440 -0.9469 -0.3186
vn 0.0472 -0.9454 -0.3226
vn 0.0424 -0.9476 -0.3167
vn 0.8603 -0.1156 0.4965
vn -0.0445 0.9469 0.3186
vn -0.0477 0.9454 0.3223
vn -0.0491 0.9448 0.3240
vn -0.2440 -0.3133 0.9178
vn 0.6759 -0.7370 0.0006
vn 0.7213 -0.6474 0.2463
vn 0.7442 -0.6679 0.0006
vn 0.6897 0.6681 -0.2791
vn 0.6610 0.5437 -0.5172
vn 0.7371 0.6063 -0.2984
vn -0.0113 0.8026 0.5964
vn 0.0061 -0.9520 -0.3062
vn 0.0003 -0.9520 -0.3062
vn -0.0701 0.9970 -0.0333
vn -0.4124 0.5405 -0.7334
vn -0.3110 0.3870 -0.8681
vn -0.0153 0.9641 -0.2650
vn 0.0000 0.9995 -0.0319
vn -0.0319 0.7562 0.6536
vn 0.2659 0.3187 -0.9098
vn 0.0487 -0.9447 -0.3243
vn -0.0444 0.9469 0.3185
vn -0.0427 0.9476 0.3166
vn -0.0477 0.9455 0.3222
vn 0.4730 -0.7136 -0.5168
vn 0.4077 -0.7604 -0.5056
vn 0.4829 -0.7131 -0.5083
vn 0.4632 -0.7165 -0.5216
vn 0.4634 -0.7243 -0.5106
vn 0.3734 -0.7603 -0.5315
vn 0.8511 0.0715 -0.5201
vn 0.8494 0.0713 -0.5229
vn 0.8491 0.0713 -0.5235
vn 0.0877 0.9962 0.0000
vn 0.0000 0.9997 -0.0240
vn 0.0925 0.9956 0.0125
vn 0.0423 0.1700 -0.9845
vn 0.0008 0.2153 -0.9766
vn 0.2410 0.2210 -0.9450
vn 0.8512 0.0715 -0.5200
vn 0.8514 0.0715 -0.5196
vn 0.8495 0.0713 -0.5228
vn 0.0000 0.9993 -0.0363
vn 0.0008 0.1594 -0.9872
vn -0.9872 0.1111 0.1145
vn -1.0000 0.0000 -0.0008
vn -0.8833 0.4689 -0.0007
vn -0.9871 0.1602 -0.0008
vn -0.9452 0.3264 0.0007
vn -0.0069 -0.0050 -1.0000
vn -0.0068 -0.0043 -1.0000
vn -0.0069 0.0049 -1.0000
vn -0.0065 0.0052 -1.0000
vn -0.7663 -0.6361 -0.0898
vn -0.7867 -0.5743 -0.2266
vn -0.7902 -0.5212 -0.3225
vn -0.7729 0.5911 -0.2307
vn -0.8312 0.5491 -0.0871
vn -0.8558 0.5174 -0.0007
vn -0.9258 0.0000 -0.3779
vn 0.7304 -0.0000 0.6831
vn 0.0103 0.8028 0.5962
vn -0.0352 -0.8222 0.5682
vn -0.6436 0.0039 -0.7654
vn -0.6347 0.0008 -0.7727
vn -0.6455 0.0047 -0.7637
vn -0.2053 -0.7599 -0.6167
vn -0.4651 -0.6778 -0.5695
vn -0.1824 -0.7642 -0.6186
vn -0.9995 0.0113 0.0303
vn -0.9992 -0.0061 0.0390
vn -0.9998 0.0030 0.0221
vn -0.6181 -0.7859 -0.0183
vn 0.0029 -0.7012 0.7130
vn -0.0010 0.0292 0.9996
vn -0.0358 0.0097 0.9993
vn -0.0600 0.9981 0.0105
vn 0.0578 0.9978 -0.0318
vn -0.0482 0.9985 0.0241
vn 0.4056 0.5419 -0.7361
vn 0.2871 0.4796 -0.8292
vn 0.2898 0.4748 -0.8310
vn 0.3256 0.4006 -0.8564
vn 0.3363 0.4034 -0.8510
vn 0.0325 0.9632 -0.2668
vn 0.0145 0.9639 -0.2660
vn 0.0122 0.9639 -0.2659
vn -0.6325 0.0000 -0.7746
vn -0.9999 -0.0057 0.0156
vn -0.9992 -0.0348 0.0219
vn -0.9918 -0.1265 0.0169
vn 0.0040 -0.7084 0.7058
vn -0.0172 0.0000 -0.9999
vn -0.8275 -0.4705 0.3063
vn -0.8187 -0.5697 0.0719
vn -0.8287 -0.5346 0.1661
vn -0.7902 0.5764 0.2082
vn -0.8611 0.4191 0.2879
vn -0.8488 0.2558 0.4628
vn -0.8117 -0.5610 -0.1626
vn -0.8107 -0.5763 -0.1035
vn -0.8013 -0.5146 -0.3052
vn -0.7566 0.5642 -0.3306
vn -0.7595 0.6430 -0.0992
vn -0.7634 0.6232 -0.1699
vn -0.9980 0.0630 -0.0057
vn -0.8526 0.0540 0.5198
vn -0.8427 0.0530 -0.5357
vn -0.0420 -0.9682 -0.2465
vn -0.0444 -0.9990 -0.0103
vn -0.0403 -0.8581 0.5118
vn 0.0042 -0.0007 -1.0000
vn 0.0398 0.8441 -0.5347
vn -0.0042 0.0007 1.0000
vn 0.0308 0.7562 0.6536
vn 0.0309 0.7562 0.6536
vn -0.0372 -0.8817 -0.4704
vn -0.0420 -0.9678 -0.2483
vn 0.0444 0.9990 0.0103
vn -0.2610 0.3154 -0.9124
vn -0.2579 0.3122 -0.9143
vn -0.2611 0.3155 -0.9123
vn 0.9670 0.0688 -0.2453
vn -0.0434 -0.9469 -0.3187
vn -0.0418 -0.9476 -0.3167
vn -0.0467 -0.9454 -0.3226
vn -0.8612 -0.1156 0.4950
vn 0.0505 0.9423 0.3309
vn 0.0486 0.9448 0.3241
vn 0.0506 0.9451 0.3229
vn 0.2425 -0.3133 0.9182
vn -0.7663 -0.6361 -0.0897
vn -0.7440 -0.6682 -0.0006
vn -0.7729 0.5911 -0.2306
vn -0.7361 0.6065 -0.3005
vn 0.0103 0.8026 0.5964
vn -0.0055 -0.9520 -0.3062
vn 0.0701 0.9970 -0.0331
vn 0.4136 0.5405 -0.7327
vn 0.0398 0.8441 -0.5346
vn -0.2644 0.3187 -0.9102
vn -0.0481 -0.9447 -0.3243
vn 0.0397 0.9475 0.3173
vn 0.0402 0.9500 0.3096
vn 0.0422 0.9476 0.3167
vn -0.4721 -0.7136 -0.5176
vn -0.4820 -0.7131 -0.5091
vn -0.4069 -0.7604 -0.5062
vn -0.4623 -0.7165 -0.5224
vn -0.4626 -0.7243 -0.5113
vn -0.3725 -0.7603 -0.5321
vn -0.8473 0.0716 -0.5263
vn -0.8482 0.0713 -0.5249
vn -0.8513 0.0707 -0.5198
vn -0.0877 0.9962 -0.0001
vn -0.0925 0.9956 0.0124
vn -0.0406 0.1700 -0.9846
vn -0.2394 0.2210 -0.9454
vn -0.8505 0.0715 -0.5210
usemtl None.001
s 1
f 1/1/1 2/2/1 3/3/1
f 1/1/2 4/4/2 5/5/2
f 6/6/3 7/7/3 8/8/3
f 2/2/4 5/5/5 7/7/5
f 3/9/6 9/10/6 10/11/6
f 9/12/7 6/6/7 11/13/7
f 3/3/8 2/2/4 6/6/4
f 12/14/9 13/15/3 14/16/10
f 13/15/3 15/17/3 16/18/11
f 17/19/12 16/18/11 15/17/3
f 18/20/13 19/21/3 16/18/11
f 20/22/14 12/14/9 14/16/10
f 12/23/6 20/24/6 21/25/6
f 17/26/15 15/27/16 22/28/17
f 13/29/18 12/23/19 23/30/20
f 17/26/21 24/31/21 25/32/21
f 15/27/22 13/29/22 26/33/22
f 14/34/23 16/35/23 27/36/23
f 16/35/24 19/37/25 28/38/26
f 14/34/27 29/39/27 30/40/27
f 31/41/28 32/42/29 33/43/30
f 34/44/31 35/45/32 33/43/33
f 36/46/3 31/41/3 35/45/3
f 37/47/34 38/48/34 35/45/32
f 39/49/35 40/50/36 41/51/37
f 42/52/38 34/44/38 33/43/38
f 43/53/21 37/54/21 34/55/21
f 44/56/39 43/57/40 42/52/41
f 45/58/42 39/49/43 44/56/44
f 39/49/43 46/59/2 44/56/44
f 47/60/45 39/61/46 41/62/47
f 41/62/48 40/63/49 48/64/50
f 40/63/51 32/65/52 49/66/53
f 32/65/54 31/67/55 49/66/56
f 49/66/56 31/67/55 36/68/57
f 46/69/58 39/61/46 47/60/45
f 31/41/28 33/43/30 35/45/59
f 36/46/3 35/45/3 38/48/3
f 37/47/34 35/45/32 34/70/31
f 32/42/60 40/50/36 33/43/61
f 33/43/61 40/50/36 45/58/62
f 45/58/62 40/50/36 39/49/35
f 42/52/63 33/43/61 45/58/62
f 44/56/39 42/52/41 45/58/64
f 43/53/21 34/55/21 42/71/21
f 29/72/65 27/73/65 28/74/3
f 50/75/66 51/76/67 52/77/68
f 53/78/69 54/79/70 55/80/71
f 56/81/72 57/82/73 58/83/74
f 59/84/75 60/85/76 61/86/77
f 58/83/78 61/86/78 55/80/78
f 54/79/70 50/75/79 52/77/79
f 56/81/72 58/83/74 52/77/68
f 57/82/80 59/84/80 61/86/80
f 60/85/76 53/78/69 55/80/71
f 56/81/81 51/76/82 62/87/82
f 62/87/83 51/76/83 50/75/83
f 59/84/84 57/82/84 63/88/84
f 60/85/85 59/84/85 64/89/85
f 65/90/86 50/75/86 54/79/86
f 66/91/87 54/79/87 53/78/87
f 57/82/88 56/81/89 67/92/90
f 68/93/91 53/78/91 60/85/91
f 69/94/92 70/95/93 71/96/94
f 71/96/95 72/97/95 69/94/95
f 71/96/96 73/98/97 74/99/98
f 70/95/99 75/100/99 73/101/99
f 69/94/100 75/102/101 76/103/102
f 72/104/103 74/105/103 73/106/103
f 1/1/1 3/3/1 77/107/1
f 1/1/2 5/5/2 2/2/2
f 6/6/3 8/8/3 11/13/3
f 2/2/4 7/7/5 6/6/4
f 3/9/6 10/11/6 77/108/6
f 9/12/7 11/13/7 10/109/7
f 3/3/8 6/6/4 9/12/8
f 13/15/3 16/18/11 14/16/10
f 18/20/13 16/18/11 17/19/12
f 20/22/14 14/16/10 78/110/3
f 12/23/6 21/25/6 23/30/6
f 17/26/104 22/28/105 24/31/106
f 13/29/107 23/30/108 26/33/109
f 17/26/21 25/32/21 18/111/21
f 15/27/22 26/33/22 22/28/22
f 14/34/23 27/36/23 29/39/23
f 16/35/24 28/38/26 27/36/110
f 14/34/111 30/40/112 78/112/112
f 47/60/45 41/62/47 79/113/113
f 41/62/48 48/64/50 79/113/114
f 40/63/49 49/66/115 48/64/50
f 49/66/116 36/68/57 80/114/57
f 46/69/58 47/60/45 81/115/117
f 29/72/65 28/74/3 30/116/3
f 58/83/78 55/80/78 52/77/78
f 54/79/70 52/77/79 55/80/71
f 56/81/72 52/77/68 51/76/67
f 57/82/80 61/86/80 58/83/80
f 60/85/76 55/80/71 61/86/77
f 56/81/89 62/87/82 67/92/90
f 62/87/83 50/75/83 65/90/83
f 59/84/84 63/88/84 64/89/84
f 60/85/85 64/89/85 82/117/85
f 65/90/86 54/79/86 66/91/86
f 66/91/118 53/78/118 68/93/118
f 57/82/88 67/92/90 63/88/88
f 68/93/91 60/85/91 82/117/91
f 69/94/92 76/103/119 70/95/93
f 71/96/95 74/118/95 72/97/95
f 71/96/96 70/95/120 73/98/97
f 70/95/99 76/103/99 75/100/99
f 69/94/121 72/119/122 75/102/123
f 83/120/124 84/121/125 85/122/126
f 86/123/127 85/122/126 87/124/128
f 88/125/129 86/123/127 87/124/128
f 88/125/130 89/126/131 90/127/132
f 89/126/133 91/128/134 90/127/135
f 87/124/136 92/129/137 89/126/138
f 86/123/127 83/120/124 85/122/126
f 88/125/139 87/124/140 89/126/141
f 89/126/133 92/129/142 91/128/134
f 87/124/136 85/122/143 92/129/137
f 1/1/1 93/130/1 94/131/1
f 1/1/2 95/132/2 4/4/2
f 96/133/3 8/8/3 97/134/3
f 94/131/144 97/134/145 95/132/145
f 93/135/6 10/11/6 98/136/6
f 98/137/7 11/13/7 96/133/7
f 93/130/146 96/133/147 94/131/148
f 99/138/149 100/139/150 101/140/3
f 101/140/3 102/141/151 103/142/3
f 104/143/152 103/142/3 102/141/151
f 18/20/13 102/141/151 19/21/3
f 20/22/14 100/139/150 99/138/149
f 99/144/6 21/25/6 20/24/6
f 104/145/153 105/146/154 103/147/155
f 101/148/156 106/149/157 99/144/158
f 104/145/21 25/32/21 107/150/21
f 103/147/159 108/151/159 101/148/159
f 100/152/160 109/153/160 102/154/160
f 102/154/161 28/38/26 19/37/25
f 100/152/162 30/40/162 110/155/162
f 111/156/163 112/157/164 113/158/165
f 114/159/166 112/157/167 115/160/168
f 36/46/3 115/160/3 111/156/3
f 37/47/34 115/160/168 38/48/34
f 116/161/169 117/162/170 118/163/171
f 119/164/172 112/157/172 114/159/172
f 43/53/21 114/165/21 37/54/21
f 44/56/39 119/164/173 43/57/40
f 120/166/174 44/56/44 116/161/175
f 116/161/175 44/56/44 46/59/2
f 121/167/176 117/168/177 116/169/178
f 117/168/179 122/170/180 118/171/181
f 118/171/181 123/172/182 113/173/183
f 113/173/184 123/172/185 111/174/186
f 123/172/185 36/68/57 111/174/186
f 46/69/58 121/167/176 116/169/178
f 111/156/163 115/160/187 112/157/164
f 36/46/3 38/48/3 115/160/3
f 37/47/34 114/175/166 115/160/168
f 113/158/145 112/157/188 118/163/171
f 112/157/188 120/166/189 118/163/171
f 120/166/189 116/161/169 118/163/171
f 119/164/190 120/166/189 112/157/188
f 44/56/39 120/166/191 119/164/173
f 43/53/21 119/176/21 114/165/21
f 110/177/192 28/74/3 109/178/192
f 124/179/193 125/180/194 126/181/195
f 127/182/196 128/183/197 129/184/198
f 130/185/199 131/186/200 132/187/201
f 133/188/202 134/189/203 135/190/204
f 131/186/205 128/183/205 134/189/205
f 129/184/198 125/180/206 124/179/206
f 130/185/199 125/180/194 131/186/200
f 132/187/207 134/189/207 133/188/207
f 135/190/204 128/183/197 127/182/196
f 130/185/208 136/191/209 126/181/209
f 136/191/210 124/179/210 126/181/210
f 133/188/211 137/192/211 132/187/211
f 135/190/212 138/193/212 133/188/212
f 139/194/213 129/184/213 124/179/213
f 140/195/214 127/182/214 129/184/215
f 132/187/216 141/196/217 130/185/208
f 142/197/218 135/190/218 127/182/218
f 143/198/219 144/199/220 145/200/221
f 144/199/222 143/198/222 146/201/222
f 144/199/223 147/202/224 148/203/225
f 145/200/226 148/204/226 149/205/226
f 143/198/227 150/206/228 149/207/229
f 146/208/230 148/209/230 147/210/230
f 1/1/1 77/107/1 93/130/1
f 1/1/2 94/131/2 95/132/2
f 96/133/3 11/13/3 8/8/3
f 94/131/148 96/133/147 97/134/145
f 93/135/6 77/108/6 10/11/6
f 98/137/7 10/109/7 11/13/7
f 93/130/146 98/137/146 96/133/147
f 101/140/3 100/139/150 102/141/151
f 18/20/13 104/143/152 102/141/151
f 20/22/14 78/110/3 100/139/150
f 99/144/6 106/149/6 21/25/6
f 104/145/231 107/150/232 105/146/154
f 101/148/233 108/151/234 106/149/157
f 104/145/21 18/111/21 25/32/21
f 103/147/159 105/146/159 108/151/159
f 100/152/160 110/155/160 109/153/160
f 102/154/161 109/153/235 28/38/26
f 100/152/236 78/112/112 30/40/112
f 121/167/176 151/211/237 117/168/177
f 117/168/179 151/211/238 122/170/180
f 118/171/181 122/170/180 123/172/182
f 123/172/185 80/114/57 36/68/57
f 46/69/58 81/115/117 121/167/176
f 110/177/192 30/116/3 28/74/3
f 131/186/205 125/180/205 128/183/205
f 129/184/198 128/183/197 125/180/206
f 130/185/199 126/181/195 125/180/194
f 132/187/207 131/186/207 134/189/207
f 135/190/204 134/189/203 128/183/197
f 130/185/208 141/196/217 136/191/209
f 136/191/210 139/194/210 124/179/210
f 133/188/211 138/193/211 137/192/211
f 135/190/239 152/212/239 138/193/239
f 139/194/213 140/195/213 129/184/213
f 140/195/214 142/197/214 127/182/214
f 132/187/216 137/192/216 141/196/217
f 142/197/218 152/212/218 135/190/218
f 143/198/219 145/200/221 150/206/240
f 144/199/222 146/201/222 147/213/222
f 144/199/223 148/203/225 145/200/241
f 145/200/226 149/205/226 150/206/226
f 143/198/242 149/207/243 146/214/244
f 153/215/245 85/122/246 84/121/247
f 154/216/248 155/217/249 85/122/246
f 156/218/250 155/217/249 154/216/248
f 156/218/251 157/219/252 158/220/253
f 158/220/254 157/219/255 91/128/134
f 155/217/256 158/220/257 92/129/137
f 154/216/248 85/122/246 153/215/245
f 156/218/251 158/220/253 155/217/258
f 158/220/254 91/128/134 92/129/142
f 155/217/256 92/129/137 85/122/143
