# Blender v2.79 (sub 0) OBJ File: ''
# www.blender.org
mtllib chn3a_rightarm.mtl
o ra
v -0.500000 0.688957 -0.125000
v -0.247418 0.688957 -0.125000
v -0.247418 0.002927 -0.125000
v -0.247418 0.688957 0.125000
v -0.500000 0.688957 0.125000
v -0.500000 0.002927 0.125000
v -0.500000 0.002927 -0.125000
v -0.247418 0.002927 0.125000
vt 0.494722 0.382960
vt 0.400064 0.382960
vt 0.400064 0.642711
vt 0.684080 0.383791
vt 0.589771 0.383791
vt 0.589771 0.642585
vt 0.999091 0.486445
vt 0.904444 0.486445
vt 0.904444 0.581092
vt 0.305347 0.382373
vt 0.400299 0.382373
vt 0.400299 0.642931
vt 0.589402 0.382507
vt 0.494806 0.382507
vt 0.494806 0.642088
vt 0.494722 0.642711
vt 0.684080 0.642585
vt 0.999091 0.581092
vt 0.305347 0.642931
vt 0.589402 0.642088
vn 0.0000 0.0000 -1.0000
vn 0.0000 -0.0000 1.0000
vn 0.0000 -1.0000 -0.0000
vn 1.0000 -0.0000 0.0000
vn -1.0000 0.0000 0.0000
usemtl None.004
s 1
f 1/1/1 2/2/1 3/3/1
f 4/4/2 5/5/2 6/6/2
f 7/7/3 3/8/3 8/9/3
f 2/10/4 4/11/4 8/12/4
f 5/13/5 1/14/5 7/15/5
f 1/1/1 3/3/1 7/16/1
f 4/4/2 6/6/2 8/17/2
f 7/7/3 8/9/3 6/18/3
f 2/10/4 8/12/4 3/19/4
f 5/13/5 7/15/5 6/20/5
