# Blender v2.79 (sub 0) OBJ File: 'matras_01.obj'
# www.blender.org
mtllib matras_01.mtl
o dec
v -1.359553 0.033438 -0.302850
v -1.343459 0.033764 0.001383
v -1.370474 0.033438 0.304847
v -1.348076 -0.004291 0.294822
v -1.315119 0.072101 -0.569371
v -1.338680 0.071820 -0.292044
v -1.322394 0.072147 0.001760
v -1.349225 0.071820 0.294802
v -1.342189 0.072003 0.576054
v -1.087717 0.065386 -0.287531
v -1.082602 0.075615 -0.580956
v -1.092994 0.066112 0.005890
v -1.098263 0.065386 0.299307
v -1.103685 0.075615 0.592720
v -0.835951 0.057389 -0.283005
v -0.831126 0.079421 -0.576436
v -0.841220 0.070117 0.010408
v -0.846489 0.057389 0.303829
v -0.851435 0.079421 0.554036
v -0.580317 0.083215 -0.571927
v -0.585134 0.069721 -0.278505
v -0.590158 0.072940 0.014917
v -0.595687 0.069721 0.308334
v -0.601035 0.083215 0.581053
v -0.334619 0.075078 -0.258117
v -0.329789 0.087010 -0.551831
v -0.339349 0.076736 0.019430
v -0.344869 0.073515 0.312846
v -0.350229 0.087010 0.585558
v -0.083779 0.078752 -0.254861
v -0.078969 0.090805 -0.548004
v -0.088539 0.080530 0.023934
v -0.094059 0.077312 0.317351
v -0.099789 0.090805 0.610760
v 0.167951 0.081116 -0.264974
v 0.172771 0.094609 -0.558401
v 0.162931 0.084335 0.028451
v 0.157411 0.081117 0.321864
v 0.151951 0.094609 0.601205
v 0.423211 0.092160 -0.532985
v 0.418761 0.078668 -0.260462
v 0.413741 0.081884 0.032956
v 0.408221 0.078668 0.326369
v 0.402751 0.092160 0.605717
v 0.674391 0.090807 -0.549384
v 0.669571 0.077313 -0.255961
v 0.664551 0.080531 0.037469
v 0.659021 0.077314 0.330878
v 0.653301 0.090807 0.624290
v 0.920151 0.081149 -0.238435
v 0.924971 0.093311 -0.532140
v 0.915111 0.099796 0.041961
v 0.909831 0.079865 0.335382
v 0.904371 0.093311 0.614646
v 1.171561 0.074037 -0.246945
v 1.176681 0.076608 -0.540362
v 1.166291 0.086727 0.046477
v 1.161021 0.074036 0.339898
v 1.155591 0.076608 0.633315
v 1.396491 0.079941 -0.512504
v 1.401281 0.080086 -0.242815
v 1.396001 0.081594 0.050607
v 1.411661 0.080402 0.344403
v 1.394171 0.080212 0.616960
v 1.419091 0.042213 -0.533242
v 1.423671 0.042358 -0.252844
v 1.418211 0.043101 0.051007
v 1.433691 0.042675 0.355231
v 1.402421 0.003975 -0.242796
v 1.397161 0.005482 0.050625
v 1.412821 0.004292 0.344421
v 1.397651 0.003830 -0.512485
v 1.172711 -0.002067 -0.246922
v 1.167441 0.010623 0.046499
v 1.162171 -0.002067 0.339917
v 1.156741 0.000498 0.633334
v 0.921291 0.005038 -0.238416
v 0.926121 0.017201 -0.532118
v 0.916261 0.023686 0.041984
v 0.910991 0.003754 0.335405
v 0.670731 0.001203 -0.255939
v 0.675541 0.014696 -0.549369
v 0.665701 0.004421 0.037487
v 0.660171 0.001203 0.330901
v 0.419911 0.002557 -0.260439
v 0.424361 0.016049 -0.532966
v 0.414891 0.005774 0.032975
v 0.409371 0.002557 0.326388
v 0.173921 0.018499 -0.558378
v 0.169101 0.005007 -0.264951
v 0.164081 0.008224 0.028470
v 0.158561 0.005007 0.321883
v -0.082629 0.002641 -0.254838
v -0.087389 0.004419 0.023953
v -0.092919 0.001201 0.317370
v -0.328639 0.010900 -0.551808
v -0.333459 -0.001031 -0.258098
v -0.338199 0.000625 0.019449
v -0.343719 -0.002594 0.312865
v -0.349439 0.010900 0.606273
v -0.579161 0.007104 -0.571909
v -0.583986 -0.006390 -0.278486
v -0.589002 -0.003169 0.014940
v -0.594531 -0.006390 0.308353
v -0.834794 -0.018722 -0.282987
v -0.840071 -0.005995 0.010431
v -0.845340 -0.018722 0.303852
v -0.850286 0.003310 0.554058
v -1.086569 -0.010716 -0.287512
v -1.091837 -0.009990 0.005909
v -1.097114 -0.010716 0.299326
v -1.313971 -0.004008 -0.569352
v -1.337531 -0.004291 -0.292025
v -1.321245 -0.003963 0.001783
v -1.341040 -0.004107 0.576073
v 1.416001 0.042483 0.638218
v 1.155791 0.038552 0.654180
v 1.395311 0.004101 0.616983
v 0.905521 0.017200 0.614669
v 0.904551 0.055258 0.636083
v 0.654451 0.014696 0.624313
v 0.653501 0.052752 0.645152
v 0.403901 0.016049 0.605740
v 0.402951 0.054104 0.626579
v 0.152141 0.056554 0.622075
v 0.153101 0.018499 0.601228
v -0.098629 0.014694 0.610778
v -0.099589 0.052749 0.631629
v -0.350029 0.048955 0.606994
v -0.599878 0.007104 0.581075
v -0.600842 0.045160 0.602481
v -0.851237 0.041366 0.574905
v -1.102536 -0.000494 0.592743
v -1.103488 0.037560 0.613582
v -1.364302 0.033611 0.597081
v 1.177631 0.038552 -0.561484
v 1.177831 0.000498 -0.540339
v 0.925931 0.055258 -0.553271
v 0.675351 0.052752 -0.570514
v 0.424161 0.054104 -0.554111
v 0.173731 0.056554 -0.579527
v -0.077819 0.014694 -0.547981
v -0.078019 0.052749 -0.569130
v -0.328839 0.048955 -0.572957
v -0.579364 0.045160 -0.593057
v -0.829970 0.003310 -0.576417
v -0.830165 0.041366 -0.597562
v -1.081453 -0.000494 -0.580934
v -1.335797 0.033720 -0.590886
v -1.081648 0.037560 -0.602079
vt 0.945400 0.906100
vt 0.983900 0.906500
vt 0.951400 0.699900
vt 0.990500 0.700300
vt 0.945300 0.502000
vt 0.983700 0.503700
vt 0.944300 0.306300
vt 0.982300 0.309500
vt 0.942800 0.102200
vt 0.980800 0.105800
vt 0.925500 0.902600
vt 0.931300 0.697200
vt 0.925300 0.501400
vt 0.924100 0.308000
vt 0.922800 0.105100
vt 0.852400 0.697200
vt 0.852400 0.893000
vt 0.852400 0.501400
vt 0.852400 0.305600
vt 0.856400 0.085000
vt 0.773500 0.697200
vt 0.769300 0.891000
vt 0.773500 0.501400
vt 0.773500 0.305600
vt 0.780700 0.082100
vt 0.695400 0.897400
vt 0.694600 0.697200
vt 0.694600 0.501400
vt 0.694600 0.305600
vt 0.695400 0.080300
vt 0.615600 0.697200
vt 0.615600 0.893000
vt 0.615600 0.501400
vt 0.615600 0.305600
vt 0.618000 0.084300
vt 0.536700 0.697200
vt 0.536700 0.905200
vt 0.536700 0.501400
vt 0.536700 0.305600
vt 0.535900 0.083400
vt 0.457800 0.697200
vt 0.457800 0.900800
vt 0.457800 0.501400
vt 0.457800 0.305600
vt 0.455400 0.082400
vt 0.378900 0.900800
vt 0.378900 0.697200
vt 0.378900 0.501400
vt 0.378900 0.305600
vt 0.382900 0.080000
vt 0.304300 0.906800
vt 0.300000 0.706100
vt 0.300000 0.501400
vt 0.300000 0.305600
vt 0.296800 0.081000
vt 0.221000 0.706100
vt 0.222500 0.903200
vt 0.221000 0.501400
vt 0.221000 0.305600
vt 0.212300 0.084000
vt 0.141000 0.691600
vt 0.148000 0.894500
vt 0.142100 0.501400
vt 0.142100 0.305600
vt 0.134100 0.088200
vt 0.075000 0.908300
vt 0.069900 0.697200
vt 0.073000 0.500800
vt 0.080300 0.306900
vt 0.071100 0.119700
vt 0.055200 0.911200
vt 0.049900 0.699900
vt 0.053100 0.501400
vt 0.060200 0.305200
vt 0.051100 0.116000
vt 0.016600 0.912300
vt 0.010700 0.700300
vt 0.014300 0.503100
vt 0.022600 0.308400
vt 0.012100 0.120400
vt 0.107000 0.968600
vt 0.025700 0.985100
vt 0.099300 0.728200
vt 0.019900 0.734800
vt 0.023400 0.502000
vt 0.100500 0.502700
vt 0.100500 0.270600
vt 0.031600 0.272100
vt 0.091600 0.013000
vt 0.021300 0.050300
vt 0.188600 0.745300
vt 0.190200 0.979000
vt 0.188600 0.502700
vt 0.188600 0.270600
vt 0.178800 0.008100
vt 0.276700 0.745300
vt 0.281600 0.983300
vt 0.276700 0.502700
vt 0.276700 0.270600
vt 0.273100 0.004500
vt 0.364800 0.734800
vt 0.364800 0.976100
vt 0.364800 0.502700
vt 0.364800 0.270600
vt 0.369200 0.003300
vt 0.452800 0.976100
vt 0.452800 0.734800
vt 0.452800 0.502700
vt 0.452800 0.270600
vt 0.450200 0.006100
vt 0.540900 0.981400
vt 0.540900 0.734800
vt 0.540900 0.502700
vt 0.540900 0.270600
vt 0.540000 0.007300
vt 0.629000 0.966900
vt 0.629000 0.734800
vt 0.629000 0.502700
vt 0.629000 0.270600
vt 0.628500 0.007200
vt 0.718000 0.972100
vt 0.717100 0.734800
vt 0.717100 0.502700
vt 0.717100 0.270600
vt 0.718000 0.003600
vt 0.805100 0.734800
vt 0.800500 0.964600
vt 0.805100 0.502700
vt 0.805100 0.270600
vt 0.813200 0.005700
vt 0.893200 0.966900
vt 0.893200 0.734800
vt 0.893200 0.502700
vt 0.893200 0.270600
vt 0.897700 0.009200
vt 0.974800 0.978200
vt 0.981300 0.734800
vt 0.974600 0.502700
vt 0.973300 0.273500
vt 0.971800 0.033000
vt 0.051100 0.084800
vt 0.123500 0.052600
vt 0.056300 0.050300
vt 0.121500 0.013000
vt 0.202300 0.008100
vt 0.204000 0.048900
vt 0.289700 0.004500
vt 0.290800 0.045400
vt 0.378700 0.003300
vt 0.379300 0.044900
vt 0.454200 0.047300
vt 0.453700 0.006100
vt 0.536900 0.007300
vt 0.537100 0.047800
vt 0.618900 0.007200
vt 0.621600 0.049400
vt 0.701800 0.003600
vt 0.701300 0.045400
vt 0.790000 0.005700
vt 0.789000 0.048000
vt 0.868300 0.009200
vt 0.867100 0.049400
vt 0.942800 0.069900
vt 0.937000 0.033000
vt 0.055200 0.943100
vt 0.060400 0.985100
vt 0.137300 0.930100
vt 0.135800 0.968600
vt 0.212900 0.979000
vt 0.214200 0.938800
vt 0.297500 0.983300
vt 0.298400 0.942500
vt 0.374600 0.976100
vt 0.375300 0.936400
vt 0.456200 0.976100
vt 0.456600 0.936400
vt 0.537800 0.981400
vt 0.537900 0.940900
vt 0.619400 0.966900
vt 0.619200 0.928600
vt 0.701900 0.972100
vt 0.700500 0.928600
vt 0.778300 0.964600
vt 0.781800 0.928600
vt 0.863100 0.928600
vt 0.864200 0.966900
vt 0.945400 0.937600
vt 0.939800 0.978200
vt 0.863100 0.925800
vn -0.6951 -0.0107 -0.7188
vn -0.3831 -0.8250 -0.4154
vn -0.9995 -0.0153 -0.0253
vn -0.5243 -0.8515 -0.0021
vn -0.9997 -0.0158 -0.0179
vn -0.4911 -0.8710 -0.0088
vn -0.9996 -0.0153 -0.0240
vn -0.5222 -0.8525 -0.0221
vn -0.7241 -0.0107 0.6896
vn -0.3968 -0.8267 0.3989
vn -0.3983 0.8229 -0.4052
vn -0.5163 0.8563 -0.0026
vn -0.4791 0.8777 -0.0086
vn -0.5140 0.8575 -0.0209
vn -0.4119 0.8242 0.3885
vn 0.0189 0.9997 0.0175
vn -0.0212 0.8653 -0.5008
vn 0.0107 0.9999 -0.0054
vn 0.0126 0.9998 -0.0123
vn 0.0098 0.8534 0.5211
vn -0.0106 0.9998 0.0172
vn 0.0016 0.8776 -0.4794
vn -0.0166 0.9998 -0.0059
vn -0.0034 0.9998 -0.0172
vn 0.0051 0.8972 0.4415
vn 0.0067 0.8709 -0.4914
vn -0.0310 0.9994 0.0123
vn -0.0138 0.9999 0.0004
vn -0.0276 0.9995 -0.0153
vn -0.0494 0.8706 0.4894
vn -0.0181 0.9997 0.0157
vn 0.0086 0.8770 -0.4803
vn -0.0152 0.9999 0.0022
vn -0.0148 0.9997 -0.0195
vn -0.0416 0.8806 0.4720
vn -0.0125 0.9998 0.0160
vn -0.0186 0.8761 -0.4818
vn -0.0151 0.9999 0.0021
vn -0.0146 0.9997 -0.0185
vn -0.0284 0.8619 0.5062
vn -0.0007 0.9998 0.0178
vn 0.0125 0.8642 -0.5030
vn -0.0021 1.0000 0.0005
vn -0.0023 0.9998 -0.0187
vn 0.0026 0.8773 0.4798
vn 0.0156 0.8853 -0.4647
vn 0.0072 0.9998 0.0193
vn 0.0076 1.0000 0.0001
vn 0.0079 0.9998 -0.0185
vn -0.0156 0.8761 0.4819
vn -0.0022 0.8627 -0.5057
vn -0.0053 0.9998 0.0183
vn -0.0283 0.9995 -0.0079
vn -0.0094 0.9999 -0.0101
vn -0.0108 0.8632 0.5046
vn 0.0025 1.0000 -0.0024
vn 0.0282 0.8799 -0.4743
vn -0.0047 0.9999 -0.0071
vn 0.0093 0.9999 0.0069
vn 0.0097 0.8831 0.4692
vn 0.0116 0.9999 -0.0076
vn 0.0464 0.8488 -0.5267
vn 0.0309 0.9995 0.0008
vn 0.0099 0.9999 0.0079
vn 0.0206 0.8486 0.5285
vn 0.4094 0.8318 -0.3749
vn 0.4884 0.8726 -0.0008
vn 0.4915 0.8708 -0.0084
vn 0.5013 0.8652 0.0003
vn 0.3878 0.8302 0.4005
vn 0.7389 0.0110 -0.6737
vn 0.9999 0.0146 -0.0021
vn 0.9998 0.0073 -0.0174
vn 0.9998 0.0146 0.0144
vn 0.7067 0.0108 0.7074
vn 0.4371 -0.8165 -0.3771
vn 0.5231 -0.8522 0.0039
vn 0.4930 -0.8700 -0.0009
vn 0.5315 -0.8470 -0.0096
vn 0.4151 -0.8154 0.4036
vn 0.0086 -0.8497 -0.5271
vn -0.0070 -0.9999 0.0124
vn -0.0289 -0.9995 0.0082
vn -0.0028 -0.9998 -0.0218
vn -0.0167 -0.8490 0.5281
vn -0.0060 -0.9999 0.0073
vn -0.0147 -0.8545 -0.5192
vn 0.0079 -0.9999 0.0106
vn -0.0114 -0.9998 -0.0155
vn -0.0340 -0.8553 0.5170
vn 0.0051 -0.9998 -0.0172
vn 0.0035 -0.8412 -0.5407
vn 0.0283 -0.9995 0.0079
vn 0.0099 -0.9999 0.0101
vn -0.0077 -0.8413 0.5405
vn -0.0077 -0.9998 -0.0189
vn 0.0015 -0.8610 -0.5086
vn -0.0076 -1.0000 -0.0001
vn -0.0082 -0.9998 0.0182
vn -0.0305 -0.8519 0.5228
vn 0.0190 -0.8389 -0.5439
vn 0.0007 -0.9998 -0.0178
vn 0.0021 -1.0000 -0.0005
vn 0.0023 -0.9998 0.0187
vn 0.0070 -0.8507 0.5255
vn 0.0055 -0.8549 -0.5187
vn 0.0125 -0.9998 -0.0160
vn 0.0151 -0.9999 -0.0021
vn 0.0151 -0.9997 0.0181
vn 0.0182 -0.8442 0.5357
vn 0.0374 -0.8555 -0.5165
vn 0.0175 -0.9997 -0.0164
vn 0.0151 -0.9999 -0.0022
vn 0.0143 -0.9997 0.0182
vn -0.0304 -0.7074 0.7061
vn 0.0398 -0.8456 -0.5323
vn 0.0280 -0.9995 -0.0171
vn 0.0138 -0.9999 -0.0004
vn 0.0227 -0.9995 0.0200
vn -0.0418 -0.8502 0.5247
vn 0.0141 -0.9998 -0.0100
vn 0.0267 -0.8442 -0.5354
vn 0.0113 -0.9999 0.0002
vn 0.0154 -0.9998 0.0152
vn 0.0305 -0.8571 0.5142
vn -0.0017 -0.8453 -0.5343
vn -0.0189 -0.9998 -0.0064
vn -0.0050 -1.0000 -0.0001
vn -0.0190 -0.9998 0.0056
vn 0.0302 -0.8320 0.5539
vn -0.0038 -0.0123 0.9999
vn -0.0171 0.0122 0.9998
vn -0.0184 -0.0020 0.9998
vn -0.0462 -0.0009 0.9989
vn 0.0103 0.0042 0.9999
vn -0.0123 0.0110 0.9998
vn -0.0606 0.2448 0.9677
vn -0.0815 0.0105 0.9966
vn 0.0234 0.0003 0.9997
vn 0.0396 0.0009 0.9992
vn 0.0446 -0.0120 -0.9989
vn 0.0189 0.0121 -0.9997
vn 0.0020 -0.0024 -1.0000
vn 0.0179 -0.0007 -0.9998
vn 0.0297 0.0038 -0.9995
vn -0.0132 -0.0005 -0.9999
vn 0.0479 0.0004 -0.9988
vn 0.0487 0.0005 -0.9988
vn 0.0179 0.0000 -0.9998
vn -0.0152 -0.0005 -0.9999
usemtl dec
s 1
f 149/1/1 112/2/2 1/3/3
f 112/2/2 113/4/4 1/3/3
f 2/5/5 1/3/3 114/6/6
f 113/4/4 114/6/6 1/3/3
f 2/5/5 114/6/6 3/7/7
f 114/6/6 4/8/8 3/7/7
f 135/9/9 3/7/7 115/10/10
f 4/8/8 115/10/10 3/7/7
f 149/1/1 1/3/3 5/11/11
f 1/3/3 6/12/12 5/11/11
f 1/3/3 2/5/5 6/12/12
f 2/5/5 7/13/13 6/12/12
f 3/7/7 8/14/14 2/5/5
f 2/5/5 8/14/14 7/13/13
f 135/9/9 9/15/15 3/7/7
f 3/7/7 9/15/15 8/14/14
f 6/12/12 10/16/16 5/11/11
f 5/11/11 10/16/16 11/17/17
f 6/12/12 7/13/13 10/16/16
f 7/13/13 12/18/18 10/16/16
f 8/14/14 13/19/19 7/13/13
f 7/13/13 13/19/19 12/18/18
f 8/14/14 9/15/15 13/19/19
f 9/15/15 14/20/20 13/19/19
f 15/21/21 16/22/22 10/16/16
f 11/17/17 10/16/16 16/22/22
f 10/16/16 12/18/18 15/21/21
f 12/18/18 17/23/23 15/21/21
f 12/18/18 13/19/19 17/23/23
f 13/19/19 18/24/24 17/23/23
f 14/20/20 19/25/25 13/19/19
f 13/19/19 19/25/25 18/24/24
f 16/22/22 15/21/21 20/26/26
f 15/21/21 21/27/27 20/26/26
f 22/28/28 21/27/27 17/23/23
f 15/21/21 17/23/23 21/27/27
f 22/28/28 17/23/23 23/29/29
f 17/23/23 18/24/24 23/29/29
f 23/29/29 18/24/24 24/30/30
f 18/24/24 19/25/25 24/30/30
f 25/31/31 26/32/32 21/27/27
f 20/26/26 21/27/27 26/32/32
f 21/27/27 22/28/28 25/31/31
f 22/28/28 27/33/33 25/31/31
f 22/28/28 23/29/29 27/33/33
f 23/29/29 28/34/34 27/33/33
f 23/29/29 24/30/30 28/34/34
f 24/30/30 29/35/35 28/34/34
f 25/31/31 30/36/36 26/32/32
f 26/32/32 30/36/36 31/37/37
f 27/33/33 32/38/38 25/31/31
f 25/31/31 32/38/38 30/36/36
f 27/33/33 28/34/34 32/38/38
f 28/34/34 33/39/39 32/38/38
f 34/40/40 33/39/39 29/35/35
f 28/34/34 29/35/35 33/39/39
f 30/36/36 35/41/41 31/37/37
f 31/37/37 35/41/41 36/42/42
f 35/41/41 30/36/36 37/43/43
f 30/36/36 32/38/38 37/43/43
f 33/39/39 38/44/44 32/38/38
f 32/38/38 38/44/44 37/43/43
f 34/40/40 39/45/45 33/39/39
f 33/39/39 39/45/45 38/44/44
f 36/42/42 35/41/41 40/46/46
f 35/41/41 41/47/47 40/46/46
f 35/41/41 37/43/43 41/47/47
f 37/43/43 42/48/48 41/47/47
f 37/43/43 38/44/44 42/48/48
f 38/44/44 43/49/49 42/48/48
f 38/44/44 39/45/45 43/49/49
f 39/45/45 44/50/50 43/49/49
f 45/51/51 40/46/46 46/52/52
f 40/46/46 41/47/47 46/52/52
f 41/47/47 42/48/48 46/52/52
f 42/48/48 47/53/53 46/52/52
f 42/48/48 43/49/49 47/53/53
f 43/49/49 48/54/54 47/53/53
f 49/55/55 48/54/54 44/50/50
f 43/49/49 44/50/50 48/54/54
f 46/52/52 50/56/56 45/51/51
f 45/51/51 50/56/56 51/57/57
f 46/52/52 47/53/53 50/56/56
f 47/53/53 52/58/58 50/56/56
f 47/53/53 48/54/54 52/58/58
f 48/54/54 53/59/59 52/58/58
f 48/54/54 49/55/55 53/59/59
f 49/55/55 54/60/60 53/59/59
f 50/56/56 55/61/61 51/57/57
f 51/57/57 55/61/61 56/62/62
f 55/61/61 50/56/56 57/63/63
f 50/56/56 52/58/58 57/63/63
f 52/58/58 53/59/59 57/63/63
f 53/59/59 58/64/64 57/63/63
f 59/65/65 58/64/64 54/60/60
f 53/59/59 54/60/60 58/64/64
f 56/62/62 55/61/61 60/66/66
f 55/61/61 61/67/67 60/66/66
f 57/63/63 62/68/68 55/61/61
f 55/61/61 62/68/68 61/67/67
f 63/69/69 62/68/68 58/64/64
f 57/63/63 58/64/64 62/68/68
f 59/65/65 64/70/70 58/64/64
f 58/64/64 64/70/70 63/69/69
f 65/71/71 60/66/66 66/72/72
f 60/66/66 61/67/67 66/72/72
f 66/72/72 61/67/67 67/73/73
f 61/67/67 62/68/68 67/73/73
f 68/74/74 67/73/73 63/69/69
f 62/68/68 63/69/69 67/73/73
f 116/75/75 68/74/74 64/70/70
f 63/69/69 64/70/70 68/74/74
f 65/71/71 66/72/72 72/76/76
f 66/72/72 69/77/77 72/76/76
f 67/73/73 70/78/78 66/72/72
f 66/72/72 70/78/78 69/77/77
f 67/73/73 68/74/74 70/78/78
f 68/74/74 71/79/79 70/78/78
f 116/75/75 118/80/80 68/74/74
f 68/74/74 118/80/80 71/79/79
f 137/81/81 72/82/76 73/83/82
f 72/82/76 69/84/77 73/83/82
f 69/84/77 70/85/78 73/83/82
f 70/85/78 74/86/83 73/83/82
f 75/87/84 74/86/83 71/88/79
f 70/85/78 71/88/79 74/86/83
f 76/89/85 75/87/84 118/90/80
f 71/88/79 118/90/80 75/87/84
f 73/83/82 77/91/86 137/81/81
f 137/81/81 77/91/86 78/92/87
f 73/83/82 74/86/83 77/91/86
f 74/86/83 79/93/88 77/91/86
f 74/86/83 75/87/84 79/93/88
f 75/87/84 80/94/89 79/93/88
f 75/87/84 76/89/85 80/94/89
f 76/89/85 119/95/90 80/94/89
f 77/91/86 81/96/91 78/92/87
f 78/92/87 81/96/91 82/97/92
f 81/96/91 77/91/86 83/98/93
f 77/91/86 79/93/88 83/98/93
f 83/98/93 79/93/88 84/99/94
f 79/93/88 80/94/89 84/99/94
f 121/100/95 84/99/94 119/95/90
f 80/94/89 119/95/90 84/99/94
f 81/96/91 85/101/96 82/97/92
f 82/97/92 85/101/96 86/102/97
f 81/96/91 83/98/93 85/101/96
f 83/98/93 87/103/98 85/101/96
f 83/98/93 84/99/94 87/103/98
f 84/99/94 88/104/99 87/103/98
f 84/99/94 121/100/95 88/104/99
f 121/100/95 123/105/100 88/104/99
f 89/106/101 86/102/97 90/107/102
f 86/102/97 85/101/96 90/107/102
f 87/103/98 91/108/103 85/101/96
f 85/101/96 91/108/103 90/107/102
f 87/103/98 88/104/99 91/108/103
f 88/104/99 92/109/104 91/108/103
f 88/104/99 123/105/100 92/109/104
f 123/105/100 126/110/105 92/109/104
f 89/106/101 90/107/102 142/111/106
f 90/107/102 93/112/107 142/111/106
f 90/107/102 91/108/103 93/112/107
f 91/108/103 94/113/108 93/112/107
f 91/108/103 92/109/104 94/113/108
f 92/109/104 95/114/109 94/113/108
f 127/115/110 95/114/109 126/110/105
f 92/109/104 126/110/105 95/114/109
f 142/111/106 93/112/107 96/116/111
f 93/112/107 97/117/112 96/116/111
f 93/112/107 94/113/108 97/117/112
f 94/113/108 98/118/113 97/117/112
f 94/113/108 95/114/109 98/118/113
f 95/114/109 99/119/114 98/118/113
f 100/120/115 99/119/114 127/115/110
f 95/114/109 127/115/110 99/119/114
f 96/116/111 97/117/112 101/121/116
f 97/117/112 102/122/117 101/121/116
f 102/122/117 97/117/112 103/123/118
f 97/117/112 98/118/113 103/123/118
f 98/118/113 99/119/114 103/123/118
f 99/119/114 104/124/119 103/123/118
f 100/120/115 130/125/120 99/119/114
f 99/119/114 130/125/120 104/124/119
f 105/126/121 146/127/122 102/122/117
f 101/121/116 102/122/117 146/127/122
f 103/123/118 106/128/123 102/122/117
f 102/122/117 106/128/123 105/126/121
f 103/123/118 104/124/119 106/128/123
f 104/124/119 107/129/124 106/128/123
f 130/125/120 108/130/125 104/124/119
f 104/124/119 108/130/125 107/129/124
f 146/127/122 105/126/121 148/131/126
f 105/126/121 109/132/127 148/131/126
f 105/126/121 106/128/123 109/132/127
f 106/128/123 110/133/128 109/132/127
f 107/129/124 111/134/129 106/128/123
f 106/128/123 111/134/129 110/133/128
f 111/134/129 107/129/124 133/135/130
f 107/129/124 108/130/125 133/135/130
f 148/131/126 109/132/127 112/136/2
f 109/132/127 113/137/4 112/136/2
f 109/132/127 110/133/128 113/137/4
f 110/133/128 114/138/6 113/137/4
f 111/134/129 4/139/8 110/133/128
f 110/133/128 4/139/8 114/138/6
f 133/135/130 115/140/10 111/134/129
f 111/134/129 115/140/10 4/139/8
f 116/141/75 117/142/131 118/143/80
f 76/144/85 118/143/80 117/142/131
f 76/144/85 117/142/131 119/145/90
f 119/145/90 117/142/131 120/146/132
f 119/145/90 120/146/132 121/147/95
f 121/147/95 120/146/132 122/148/133
f 123/149/100 121/147/95 124/150/134
f 121/147/95 122/148/133 124/150/134
f 124/150/134 125/151/135 123/149/100
f 126/152/105 123/149/100 125/151/135
f 126/152/105 125/151/135 127/153/110
f 127/153/110 125/151/135 128/154/136
f 127/153/110 128/154/136 100/155/115
f 100/155/115 128/154/136 129/156/137
f 130/157/120 100/155/115 131/158/138
f 100/155/115 129/156/137 131/158/138
f 108/159/125 130/157/120 132/160/139
f 130/157/120 131/158/138 132/160/139
f 133/161/130 108/159/125 134/162/140
f 108/159/125 132/160/139 134/162/140
f 135/163/9 115/164/10 134/162/140
f 115/164/10 133/161/130 134/162/140
f 116/141/75 64/70/70 117/142/131
f 117/142/131 64/70/70 59/65/65
f 117/142/131 59/65/65 120/146/132
f 120/146/132 59/65/65 54/60/60
f 120/146/132 54/60/60 122/148/133
f 122/148/133 54/60/60 49/55/55
f 122/148/133 49/55/55 124/150/134
f 124/150/134 49/55/55 44/50/50
f 125/151/135 124/150/134 39/45/45
f 124/150/134 44/50/50 39/45/45
f 125/151/135 39/45/45 128/154/136
f 128/154/136 39/45/45 34/40/40
f 128/154/136 34/40/40 129/156/137
f 129/156/137 34/40/40 29/35/35
f 29/35/35 24/30/30 129/156/137
f 131/158/138 129/156/137 24/30/30
f 132/160/139 131/158/138 19/25/25
f 131/158/138 24/30/30 19/25/25
f 134/162/140 132/160/139 14/20/20
f 132/160/139 19/25/25 14/20/20
f 135/163/9 134/162/140 9/15/15
f 134/162/140 14/20/20 9/15/15
f 65/165/71 72/166/76 136/167/141
f 72/166/76 137/168/81 136/167/141
f 137/168/81 78/169/87 136/167/141
f 78/169/87 138/170/142 136/167/141
f 78/169/87 82/171/92 138/170/142
f 82/171/92 139/172/143 138/170/142
f 86/173/97 140/174/144 82/171/92
f 82/171/92 140/174/144 139/172/143
f 86/173/97 89/175/101 140/174/144
f 89/175/101 141/176/145 140/174/144
f 142/177/106 143/178/146 89/175/101
f 89/175/101 143/178/146 141/176/145
f 96/179/111 144/180/147 142/177/106
f 142/177/106 144/180/147 143/178/146
f 96/179/111 101/181/116 144/180/147
f 101/181/116 145/182/148 144/180/147
f 146/183/122 147/184/149 101/181/116
f 101/181/116 147/184/149 145/182/148
f 147/184/149 146/183/122 150/185/150
f 146/183/122 148/186/126 150/185/150
f 149/187/1 150/185/150 112/188/2
f 148/186/126 112/188/2 150/185/150
f 65/165/71 136/167/141 60/66/66
f 136/167/141 56/62/62 60/66/66
f 136/167/141 138/170/142 56/62/62
f 138/170/142 51/57/57 56/62/62
f 138/170/142 139/172/143 51/57/57
f 139/172/143 45/51/51 51/57/57
f 139/172/143 140/174/144 45/51/51
f 140/174/144 40/46/46 45/51/51
f 141/176/145 36/42/42 140/174/144
f 140/174/144 36/42/42 40/46/46
f 141/176/145 143/178/146 36/42/42
f 143/178/146 31/37/37 36/42/42
f 143/178/146 144/180/147 31/37/37
f 144/180/147 26/32/32 31/37/37
f 145/182/148 20/26/26 144/180/147
f 144/180/147 20/26/26 26/32/32
f 147/184/149 16/22/22 145/182/148
f 145/182/148 16/22/22 20/26/26
f 150/185/150 11/17/17 147/184/149
f 147/184/149 11/17/17 16/22/22
f 149/187/1 5/11/11 150/185/150
f 150/189/150 5/11/11 11/17/17
