# Blender v2.78 (sub 0) OBJ file: 'bulat_rightleg.blend'
# www.blender.org
mtllib bulat_rightleg.mtl
o rightleg
v 0.000000 1.123642 0.119313
v 0.000000 0.754329 -0.119313
v 0.000000 0.754329 0.119313
v -0.244313 1.123642 0.125000
v -0.005687 0.754329 0.125000
v -0.244313 0.754329 0.125000
v -0.005687 1.123642 -0.125000
v -0.244313 0.754329 -0.125000
v -0.005687 0.754329 -0.125000
v -0.250000 1.123642 -0.119313
v -0.250000 0.754329 0.119313
v -0.250000 0.754329 -0.119313
v -0.244313 0.748642 -0.119313
v -0.005687 0.748642 0.119313
v -0.005687 0.748642 -0.119313
v 0.000000 1.492955 -0.119313
v 0.000000 1.400627 -0.193850
v 0.000000 1.400627 -0.119313
v -0.244313 1.498642 -0.119313
v -0.250000 1.492955 -0.193850
v -0.244313 1.498642 -0.193850
v -0.244313 1.492955 0.125000
v -0.250000 1.492955 0.119313
v -0.244313 1.498642 0.119313
v 0.000000 1.492955 0.119313
v -0.005687 1.492955 0.125000
v -0.005687 1.498642 0.119313
v -0.244313 0.748642 0.119313
v -0.005687 1.498642 -0.119313
v -0.250000 1.492955 -0.119313
v -0.005687 1.123642 0.125000
v -0.005687 1.498642 -0.193850
v -0.250000 1.123642 0.119313
v -0.244313 1.123642 -0.125000
v 0.000000 1.123642 -0.119313
v -0.005687 1.308298 -0.125000
v 0.000000 1.308298 -0.119313
v -0.250000 1.308298 -0.119313
v -0.244313 1.308298 -0.125000
v -0.244313 1.308298 0.125000
v -0.250000 1.308298 0.119313
v 0.000000 1.308298 0.119313
v -0.005687 1.308298 0.125000
v 0.000000 1.400627 0.119313
v -0.244313 1.400627 0.125000
v -0.005687 1.400627 -0.125000
v -0.250000 1.400627 -0.119313
v -0.005687 1.400627 0.125000
v -0.250000 1.400627 0.119313
v -0.244313 1.400627 -0.125000
v -0.244313 1.400627 -0.199537
v -0.250000 1.400627 -0.193850
v -0.005687 1.400627 -0.199537
v 0.000000 1.492955 -0.193850
v -0.005687 1.492955 -0.199537
v -0.244313 1.492955 -0.199537
vt 0.3290 0.5045
vt 0.3290 0.6322
vt 0.4159 0.6322
vt 0.5967 0.5042
vt 0.5967 0.6323
vt 0.6838 0.6323
vt 0.4181 0.5042
vt 0.4181 0.6320
vt 0.5050 0.6320
vt 0.5074 0.5043
vt 0.5074 0.6324
vt 0.5946 0.6324
vt 0.5072 0.5448
vt 0.4187 0.5448
vt 0.4187 0.6333
vt 0.0756 0.8714
vt 0.0756 0.8714
vt 0.0756 0.8714
vt 0.0756 0.8714
vt 0.0756 0.8714
vt 0.0756 0.8714
vt 0.5050 0.6339
vt 0.5071 0.6320
vt 0.4161 0.6320
vt 0.4181 0.6339
vt 0.5946 0.3762
vt 0.5946 0.3742
vt 0.5966 0.3762
vt 0.6859 0.3762
vt 0.6838 0.3742
vt 0.6838 0.3762
vt 0.6859 0.6323
vt 0.6838 0.6343
vt 0.5946 0.6343
vt 0.5966 0.6324
vt 0.3290 0.3769
vt 0.4159 0.3769
vt 0.4159 0.3749
vt 0.5967 0.3742
vt 0.5967 0.3762
vt 0.5074 0.3742
vt 0.5074 0.3762
vt 0.5074 0.6343
vt 0.3290 0.6342
vt 0.4159 0.6342
vt 0.5967 0.6343
vt 0.6859 0.5042
vt 0.6838 0.5042
vt 0.0756 0.8714
vt 0.0756 0.8714
vt 0.5966 0.5043
vt 0.5946 0.5043
vt 0.5071 0.5042
vt 0.5050 0.5042
vt 0.4161 0.5042
vt 0.0756 0.8714
vt 0.0756 0.8714
vt 0.4181 0.4404
vt 0.4161 0.4404
vt 0.5071 0.4404
vt 0.5050 0.4404
vt 0.5966 0.4402
vt 0.5946 0.4402
vt 0.6859 0.4402
vt 0.6838 0.4402
vt 0.5074 0.4402
vt 0.5967 0.4402
vt 0.3290 0.4407
vt 0.4159 0.5045
vt 0.3290 0.4088
vt 0.4159 0.4407
vt 0.5967 0.4082
vt 0.4181 0.4084
vt 0.5074 0.4082
vt 0.6859 0.4082
vt 0.6838 0.4082
vt 0.5966 0.4082
vt 0.5946 0.4082
vt 0.5071 0.4084
vt 0.5050 0.4084
vt 0.4161 0.4084
vt 0.0756 0.8714
vt 0.0756 0.8714
vt 0.0756 0.8714
vt 0.0756 0.8714
vt 0.0756 0.8714
vt 0.5966 0.3762
vt 0.5946 0.3762
vt 0.0756 0.8714
vt 0.0756 0.8714
vt 0.0756 0.8714
vt 0.0756 0.8714
vt 0.0756 0.8714
vt 0.5072 0.6333
vt 0.3290 0.3749
vt 0.4159 0.4088
vn 0.9239 -0.0000 0.3827
vn 0.8756 -0.3416 0.3416
vn 0.8756 -0.3416 -0.3416
vn -0.3827 -0.0000 0.9239
vn -0.3416 -0.3416 0.8756
vn 0.3416 -0.3416 0.8756
vn 0.3827 0.0000 -0.9239
vn 0.3416 -0.3416 -0.8756
vn -0.3416 -0.3416 -0.8756
vn -0.9239 0.0000 -0.3827
vn -0.8756 -0.3416 -0.3416
vn -0.8756 -0.3416 0.3416
vn -0.3416 -0.8756 -0.3416
vn 0.3416 -0.8756 -0.3416
vn 0.3416 -0.8756 0.3416
vn 0.9239 0.3827 0.0000
vn 0.9738 -0.1313 -0.1857
vn 0.7173 -0.6303 -0.2971
vn -0.3827 0.9239 0.0000
vn -0.3416 0.8756 -0.3416
vn -0.8756 0.3416 -0.3416
vn -0.3416 0.3416 0.8756
vn -0.3416 0.8756 0.3416
vn -0.8756 0.3416 0.3416
vn 0.8756 0.3416 0.3416
vn 0.3416 0.8756 0.3416
vn 0.3416 0.3416 0.8756
vn -0.3416 -0.8756 0.3416
vn 0.3827 0.9239 0.0000
vn -0.9239 0.3827 0.0000
vn 0.3827 -0.0000 0.9239
vn 0.3416 0.8756 -0.3416
vn -0.9239 -0.0000 0.3827
vn -0.3827 0.0000 -0.9239
vn 0.9239 0.0000 -0.3827
vn 0.2275 -0.8042 -0.5491
vn -0.9738 -0.1313 -0.1857
vn -0.2275 -0.8042 -0.5491
vn -0.2971 -0.6303 -0.7173
vn -0.7173 -0.6303 -0.2971
vn 0.2971 -0.6303 -0.7173
vn 0.8756 0.3416 -0.3416
vn 0.3416 0.3416 -0.8756
vn -0.3416 0.3416 -0.8756
usemtl None
s 1
f 1/1/1 3/2/2 2/3/3
f 4/4/4 6/5/5 5/6/6
f 7/7/7 9/8/8 8/9/9
f 10/10/10 12/11/11 11/12/12
f 13/13/13 15/14/14 14/15/15
f 16/16/16 18/17/17 17/18/18
f 19/19/19 21/20/20 20/21/21
f 13/22/13 12/23/11 8/9/9
f 2/24/3 15/25/14 9/8/8
f 22/26/22 24/27/23 23/28/24
f 25/29/25 27/30/26 26/31/27
f 3/32/2 5/6/6 14/33/15
f 11/12/12 28/34/28 6/35/5
f 25/36/25 16/37/16 29/38/29
f 27/30/26 24/39/23 22/40/22
f 24/27/23 19/41/19 30/42/30
f 11/12/12 12/11/11 13/43/13
f 14/44/15 15/45/14 2/3/3
f 28/46/28 14/33/15 5/6/6
f 1/47/1 31/48/31 5/6/6
f 19/19/19 29/49/29 32/50/32
f 4/51/4 33/52/33 11/12/12
f 10/53/10 34/54/34 8/9/9
f 15/25/14 13/22/13 8/9/9
f 7/7/7 35/55/35 2/24/3
f 24/56/23 27/57/26 29/49/29
f 36/58/7 37/59/35 35/55/35
f 38/60/10 39/61/34 34/54/34
f 40/62/4 41/63/33 33/52/33
f 42/64/1 43/65/31 31/48/31
f 38/66/10 10/10/10 33/52/33
f 36/58/7 7/7/7 34/54/34
f 40/67/4 4/4/4 31/48/31
f 42/68/1 1/1/1 35/69/35
f 44/70/1 42/68/1 37/71/35
f 45/72/4 40/67/4 43/65/31
f 46/73/36 36/58/7 39/61/34
f 47/74/37 38/66/10 41/63/33
f 44/75/1 48/76/31 43/65/31
f 45/77/4 49/78/33 41/63/33
f 47/79/37 50/80/38 39/61/34
f 46/73/36 18/81/17 37/59/35
f 46/82/36 50/83/38 51/84/39
f 30/85/30 20/21/21 52/86/40
f 45/77/4 22/87/22 23/88/24
f 44/75/1 25/29/25 26/31/27
f 23/88/24 30/42/30 47/74/37
f 46/82/36 53/89/41 17/18/18
f 26/31/27 22/40/22 45/72/4
f 16/37/16 25/36/25 44/70/1
f 54/90/42 55/91/43 32/50/32
f 20/21/21 21/20/20 56/92/44
f 21/20/20 32/50/32 55/91/43
f 53/89/41 55/91/43 54/90/42
f 52/86/40 20/21/21 56/92/44
f 56/92/44 55/91/43 53/89/41
f 50/83/38 47/93/37 52/86/40
f 29/49/29 16/16/16 54/90/42
f 1/1/1 2/3/3 35/69/35
f 4/4/4 5/6/6 31/48/31
f 7/7/7 8/9/9 34/54/34
f 10/10/10 11/12/12 33/52/33
f 13/13/13 14/15/15 28/94/28
f 16/16/16 17/18/18 54/90/42
f 19/19/19 20/21/21 30/85/30
f 25/36/25 29/38/29 27/95/26
f 27/30/26 22/40/22 26/31/27
f 24/27/23 30/42/30 23/88/24
f 11/12/12 13/43/13 28/34/28
f 14/44/15 2/3/3 3/2/2
f 28/46/28 5/6/6 6/5/5
f 1/47/1 5/6/6 3/32/2
f 19/19/19 32/50/32 21/20/20
f 4/51/4 11/12/12 6/35/5
f 10/53/10 8/9/9 12/23/11
f 15/25/14 8/9/9 9/8/8
f 7/7/7 2/24/3 9/8/8
f 24/56/23 29/49/29 19/19/19
f 36/58/7 35/55/35 7/7/7
f 38/60/10 34/54/34 10/53/10
f 40/62/4 33/52/33 4/51/4
f 42/64/1 31/48/31 1/47/1
f 38/66/10 33/52/33 41/63/33
f 36/58/7 34/54/34 39/61/34
f 40/67/4 31/48/31 43/65/31
f 42/68/1 35/69/35 37/71/35
f 44/70/1 37/71/35 18/96/17
f 45/72/4 43/65/31 48/76/31
f 46/73/36 39/61/34 50/80/38
f 47/74/37 41/63/33 49/78/33
f 44/75/1 43/65/31 42/64/1
f 45/77/4 41/63/33 40/62/4
f 47/79/37 39/61/34 38/60/10
f 46/73/36 37/59/35 36/58/7
f 46/82/36 51/84/39 53/89/41
f 30/85/30 52/86/40 47/93/37
f 45/77/4 23/88/24 49/78/33
f 44/75/1 26/31/27 48/76/31
f 23/88/24 47/74/37 49/78/33
f 46/82/36 17/18/18 18/17/17
f 26/31/27 45/72/4 48/76/31
f 16/37/16 44/70/1 18/96/17
f 21/20/20 55/91/43 56/92/44
f 53/89/41 54/90/42 17/18/18
f 52/86/40 56/92/44 51/84/39
f 56/92/44 53/89/41 51/84/39
f 50/83/38 52/86/40 51/84/39
f 29/49/29 54/90/42 32/50/32
