# Blender v2.79 (sub 0) OBJ File: 'konteyner_small_03.obj'
# www.blender.org
mtllib konteyner_small_03.mtl
o dec
v -0.110490 0.005816 0.236767
v -0.110490 0.134271 0.248986
v -0.331471 0.134271 0.238794
v 0.110490 0.134271 0.244537
v 0.331471 0.000210 0.241550
v -0.110490 0.268332 0.240506
v 0.110490 0.268332 0.247954
v 0.333717 0.268332 0.231470
v 0.331471 0.402393 0.242510
v -0.326749 0.402393 0.242510
v -0.110490 0.402393 0.242510
v -0.110490 0.402393 0.080837
v 0.110490 0.395183 0.242510
v 0.110490 0.402389 0.080837
v 0.331471 0.402393 0.080837
v -0.331471 0.403430 0.013023
v 0.326164 0.404041 0.006454
v -0.207812 0.400348 -0.080837
v -0.238990 0.401493 -0.238423
v -0.331471 0.397751 -0.080837
v 0.110490 0.396953 -0.080837
v 0.110490 0.405491 -0.242510
v -0.110490 0.402393 -0.080837
v -0.336246 0.268332 -0.236383
v -0.235542 0.268332 -0.239116
v 0.110490 0.268332 -0.250847
v -0.110490 0.400244 -0.246581
v -0.110490 0.268332 -0.239536
v -0.327784 0.134271 -0.243427
v -0.235953 0.134271 -0.242510
v -0.110490 0.134271 -0.248552
v 0.110490 0.134271 -0.242510
v 0.331471 0.134271 -0.247437
v -0.231269 0.002839 -0.242510
v -0.333960 0.000210 -0.246037
v -0.110490 0.000210 -0.080837
v -0.110490 0.000210 -0.248717
v 0.110490 0.005181 -0.239199
v 0.110490 0.000210 -0.080837
v 0.326341 0.000210 -0.080837
v -0.110490 0.000210 0.080837
v 0.110490 0.000210 0.080837
v 0.334556 0.000210 0.080837
v 0.110490 0.000210 0.246429
v 0.332490 0.000210 -0.242510
v 0.336080 0.134271 -0.080837
v 0.326664 0.134271 0.080837
v 0.325278 0.134271 0.244387
v 0.322679 0.268332 -0.243614
v 0.320970 0.268332 -0.080837
v 0.334820 0.268332 0.080837
v 0.331471 0.398646 -0.242510
v 0.330910 0.390807 -0.232877
v 0.332069 0.395294 0.233166
v -0.328007 0.000210 -0.080837
v -0.334426 0.134271 -0.080837
v -0.334564 0.004492 0.080837
v -0.329819 0.134271 0.080837
v -0.327142 0.000210 0.238165
v -0.328225 0.268332 -0.080837
v -0.338824 0.268332 0.080837
v -0.336654 0.268332 0.243416
v -0.331667 0.398245 -0.234620
v -0.331335 0.392313 -0.080837
v -0.331183 0.394809 0.010928
v -0.326603 0.397976 0.080837
v -0.326432 0.402393 0.080837
v 0.318709 0.394102 -0.080837
v 0.318709 0.402393 -0.080837
v 0.110490 0.398866 0.000348
v -0.110490 0.407340 0.001946
v 0.325707 0.395941 0.003194
v 0.110490 0.393808 -0.000640
v 0.110490 0.394108 0.003602
v -0.110490 0.397204 0.003905
v 0.331471 0.395441 0.080837
v 0.325044 0.395999 -0.003030
v 0.325014 0.407096 -0.005269
v -0.331471 0.394641 0.004923
v -0.110490 0.401449 0.012986
v -0.110490 0.395455 0.008831
v 0.110490 0.405058 0.006152
v -0.331471 0.400189 0.004090
v -0.327705 0.397765 0.235752
v -0.330123 0.404585 -0.242510
vt 1.721300 0.011000
vt 1.720800 0.177900
vt 2.000600 0.011000
vt 2.000600 0.180500
vt 1.442100 0.011000
vt 1.441000 0.181400
vt 1.162800 0.011000
vt 1.162800 0.180500
vt 1.720400 0.349600
vt 2.000600 0.349900
vt 1.441900 0.353500
vt 1.162800 0.349900
vt 2.000600 0.519300
vt 1.721300 0.519300
vt 1.442100 0.519300
vt 1.162800 0.519300
vt 2.005900 0.768500
vt 1.797200 0.768500
vt 2.005900 0.644200
vt 1.797700 0.645300
vt 1.588500 0.768500
vt 1.588500 0.645200
vt 1.379800 0.768500
vt 1.379800 0.644200
vt 1.797200 0.593700
vt 2.005900 0.593700
vt 1.588500 0.588400
vt 1.379800 0.588700
vt 0.495100 0.776900
vt 0.465600 0.900900
vt 0.378300 0.776600
vt 0.378300 0.900900
vt 0.797000 0.776500
vt 0.795600 0.900900
vt 0.587200 0.776000
vt 0.587000 0.900900
vt 1.004300 0.776600
vt 1.004300 0.900900
vt 1.162600 0.519400
vt 1.279500 0.519400
vt 1.162600 0.350000
vt 1.285600 0.350200
vt 1.721100 0.519400
vt 1.722900 0.347400
vt 1.441900 0.519400
vt 1.442300 0.350300
vt 2.000400 0.519400
vt 2.000400 0.350000
vt 1.162600 0.180600
vt 1.282000 0.179800
vt 1.442000 0.179800
vt 1.721900 0.177000
vt 2.000400 0.180600
vt 1.289200 0.011100
vt 1.162600 0.011100
vt 1.721100 0.011100
vt 1.441900 0.011100
vt 2.000400 0.011100
vt 1.004800 0.901300
vt 0.910100 0.901300
vt 1.004800 0.777000
vt 0.796300 0.775400
vt 0.796100 0.901300
vt 0.587400 0.901300
vt 0.586600 0.777800
vt 0.378700 0.901300
vt 0.378700 0.777000
vt 0.795800 0.650800
vt 1.004800 0.652700
vt 0.587600 0.653600
vt 0.378700 0.652700
vt 1.004800 0.528400
vt 0.796100 0.528400
vt 0.587400 0.528400
vt 0.378700 0.528400
vt 1.007800 0.178100
vt 1.007800 0.004300
vt 1.126200 0.179800
vt 1.126100 0.004300
vt 1.007800 0.351900
vt 1.126000 0.353200
vt 1.007800 0.525800
vt 1.126100 0.525800
vt 1.244400 0.004300
vt 1.245000 0.179400
vt 1.244400 0.355600
vt 1.244400 0.525800
vt 1.362800 0.004300
vt 1.355500 0.014600
vt 1.637200 0.907500
vt 1.637200 0.921800
vt 1.488900 0.907500
vt 1.483700 0.924300
vt 1.950000 0.922100
vt 1.969200 0.907600
vt 1.008100 0.526300
vt 1.008100 0.352500
vt 1.126400 0.526300
vt 1.126800 0.352400
vt 1.008100 0.178700
vt 1.125600 0.177800
vt 1.008100 0.004900
vt 1.126400 0.004900
vt 1.244800 0.526300
vt 1.246500 0.353400
vt 1.245500 0.178300
vt 1.244800 0.004900
vt 1.357900 0.518100
vt 1.358200 0.352500
vt 1.993300 0.917400
vt 1.815300 0.917700
vt 1.987800 0.903000
vt 1.815100 0.906500
vt 1.363100 0.004900
vt 1.359000 0.012200
vt 0.922100 0.919100
vt 0.766400 0.919400
vt 0.926600 0.901900
vt 0.766800 0.902800
vt 1.004300 0.715200
vt 0.795600 0.714100
vt 0.587000 0.712900
vt 0.378300 0.711300
vt 0.353600 1.011900
vt 0.353600 1.010500
vt 0.365300 1.012100
vt 0.365300 1.010700
vt 0.365200 1.012400
vt 0.353500 1.011700
vt 0.365200 1.010800
vt 0.353500 1.010400
vt 0.353600 1.012200
vt 0.353600 1.010700
vt 0.365100 1.012200
vt 0.365100 1.010400
vt 1.356500 0.516300
vt 1.356600 0.351900
vt 1.357100 0.273400
vt 1.357100 0.264400
vt 1.355500 0.178100
vt 0.462200 0.919300
vt 0.443200 0.903200
vt 1.362800 0.525800
vt 0.871100 0.914500
vt 0.441900 0.921300
vt 0.870900 0.904400
vt 0.441600 0.904000
vt 0.438800 0.922200
vt 0.438800 0.906800
vt 0.913900 0.923200
vt 0.913900 0.906800
vt 0.913900 0.923100
vt 0.438800 0.923200
vt 0.913900 0.906800
vt 0.438800 0.906800
vt 0.975200 0.925700
vt 0.377200 0.925700
vt 0.975200 0.908500
vt 0.377200 0.902100
vt 0.975200 0.925700
vt 0.377200 0.925700
vt 0.975200 0.902100
vt 0.377200 0.902600
vt 0.377200 0.925700
vt 0.377200 0.898000
vt 0.975200 0.925700
vt 0.975200 0.902600
vt 1.359200 0.178700
vt 1.363100 0.251500
vt 1.392700 0.919700
vt 1.395000 0.907000
vt 1.588300 0.922700
vt 1.588600 0.910300
vt 1.939400 0.924000
vt 1.957800 0.909900
vt 1.421100 0.916800
vt 1.403700 0.905300
vt 1.363100 0.255100
vt 1.363100 0.526300
vn 0.0075 -0.7238 0.6899
vn -0.0041 -0.0080 0.9999
vn -0.5560 -0.6005 0.5746
vn -0.7144 -0.0213 0.6994
vn -0.0212 -0.6996 0.7141
vn -0.0089 -0.0071 0.9999
vn 0.5947 -0.5714 0.5655
vn 0.6902 0.0111 0.7235
vn -0.0078 0.0146 0.9998
vn -0.7053 0.0014 0.7089
vn 0.0082 0.0190 0.9998
vn 0.7491 -0.0016 0.6625
vn -0.5314 0.6047 0.5933
vn 0.0115 0.7054 0.7087
vn 0.0028 0.6912 0.7226
vn 0.5529 0.5670 0.6105
vn -0.6836 0.7293 0.0267
vn 0.0049 1.0000 -0.0025
vn -0.0070 0.9994 0.0326
vn 0.7166 0.6972 -0.0195
vn -0.0127 0.8845 -0.4664
vn -0.6221 0.6243 -0.4725
vn -0.0116 0.7943 -0.6073
vn 0.5909 0.6608 -0.4628
vn -0.0208 0.9995 -0.0219
vn -0.0087 0.7195 -0.6944
vn -0.7279 0.6856 -0.0017
vn -0.5019 0.6105 -0.6127
vn -0.0007 0.9999 0.0146
vn 0.0145 0.7408 -0.6715
vn -0.0028 0.9996 -0.0277
vn -0.0309 0.6846 -0.7282
vn 0.6868 0.7266 -0.0180
vn 0.6164 0.5480 -0.5655
vn -0.7416 0.0196 -0.6705
vn -0.0244 0.0167 -0.9995
vn 0.0154 0.0007 -0.9999
vn -0.0272 0.0069 -0.9996
vn 0.6952 0.0152 -0.7187
vn -0.6812 -0.0030 -0.7320
vn -0.0187 0.0123 -0.9997
vn -0.0156 0.0149 -0.9998
vn 0.0115 -0.0359 -0.9993
vn 0.6891 0.0230 -0.7243
vn -0.0080 -0.7073 -0.7068
vn -0.5866 -0.5645 -0.5806
vn 0.0045 -0.7101 -0.7040
vn -0.0027 -0.7012 -0.7129
vn 0.5697 -0.5953 -0.5666
vn -0.6859 -0.7276 -0.0141
vn 0.0012 -1.0000 -0.0055
vn 0.0000 -0.9998 -0.0157
vn 0.6784 -0.7345 0.0119
vn 0.0001 -0.9999 0.0143
vn -0.7300 -0.6833 0.0047
vn -0.0038 -1.0000 0.0035
vn 0.7349 -0.6780 -0.0116
vn 0.9999 0.0045 0.0097
vn 0.9997 -0.0170 0.0194
vn 0.9980 0.0559 -0.0273
vn 0.9998 -0.0008 -0.0195
vn 0.9988 -0.0225 0.0420
vn 0.9992 0.0127 -0.0383
vn 0.8367 0.4108 -0.3620
vn 0.9989 0.0417 0.0200
vn -1.0000 -0.0038 -0.0031
vn -1.0000 -0.0027 -0.0041
vn -0.9999 0.0115 0.0053
vn -0.9998 0.0016 -0.0213
vn -0.9926 0.1098 -0.0504
vn -0.9997 -0.0248 0.0005
vn -0.8641 0.4303 -0.2609
vn -0.9975 0.0641 0.0303
vn -0.9913 0.1280 0.0308
vn 0.8872 0.4018 0.2267
vn 0.9999 0.0087 -0.0012
vn 0.6052 0.6485 0.4616
vn 0.0118 0.6388 0.7692
vn 0.0096 0.7946 0.6070
vn -0.5903 0.6151 0.5227
vn -0.0068 0.7652 -0.6438
vn 0.0134 0.6650 0.7467
vn -0.0096 0.9499 -0.3124
vn 0.0092 0.6517 0.7584
vn -0.8899 0.3568 0.2842
usemtl dec
s 1
f 1/1/1 2/2/2 59/3/3
f 59/3/3 2/2/2 3/4/4
f 44/5/5 4/6/6 1/1/1
f 1/1/1 4/6/6 2/2/2
f 5/7/7 48/8/8 44/5/5
f 44/5/5 48/8/8 4/6/6
f 2/2/2 6/9/9 3/4/4
f 3/4/4 6/9/9 62/10/10
f 2/2/2 4/6/6 6/9/9
f 6/9/9 4/6/6 7/11/11
f 4/6/6 48/8/8 7/11/11
f 7/11/11 48/8/8 8/12/12
f 62/10/10 6/9/9 10/13/13
f 10/13/13 6/9/9 11/14/14
f 7/11/11 13/15/15 6/9/9
f 6/9/9 13/15/15 11/14/14
f 7/11/11 8/12/12 13/15/15
f 13/15/15 8/12/12 9/16/16
f 10/17/13 11/18/14 67/19/17
f 67/19/17 11/18/14 12/20/18
f 11/18/14 13/21/15 12/20/18
f 12/20/18 13/21/15 14/22/19
f 13/21/15 9/23/16 14/22/19
f 14/22/19 9/23/16 15/24/20
f 12/20/18 80/25/21 67/19/17
f 67/19/17 80/25/21 16/26/22
f 12/20/18 14/22/19 80/25/21
f 80/25/21 14/22/19 82/27/23
f 15/24/20 17/28/24 14/22/19
f 14/22/19 17/28/24 82/27/23
f 18/29/25 19/30/26 20/31/27
f 20/31/27 19/30/26 85/32/28
f 21/33/29 22/34/30 23/35/31
f 23/35/31 22/34/30 27/36/32
f 21/33/29 69/37/33 22/34/30
f 22/34/30 69/37/33 52/38/34
f 85/39/28 19/40/26 24/41/35
f 24/41/35 19/40/26 25/42/36
f 22/43/30 26/44/37 27/45/32
f 27/45/32 26/44/37 28/46/38
f 52/47/34 49/48/39 22/43/30
f 22/43/30 49/48/39 26/44/37
f 24/41/35 25/42/36 29/49/40
f 29/49/40 25/42/36 30/50/41
f 28/46/38 26/44/37 31/51/42
f 31/51/42 26/44/37 32/52/43
f 26/44/37 49/48/39 32/52/43
f 32/52/43 49/48/39 33/53/44
f 30/50/41 34/54/45 29/49/40
f 29/49/40 34/54/45 35/55/46
f 32/52/43 38/56/47 31/51/42
f 31/51/42 38/56/47 37/57/48
f 32/52/43 33/53/44 38/56/47
f 38/56/47 33/53/44 45/58/49
f 35/59/46 34/60/45 55/61/50
f 55/61/50 34/60/45 36/62/51
f 37/63/48 38/64/47 36/62/51
f 36/62/51 38/64/47 39/65/52
f 45/66/49 40/67/53 38/64/47
f 38/64/47 40/67/53 39/65/52
f 36/62/51 41/68/54 55/61/50
f 55/61/50 41/68/54 57/69/55
f 36/62/51 39/65/52 41/68/54
f 41/68/54 39/65/52 42/70/56
f 39/65/52 40/67/53 42/70/56
f 42/70/56 40/67/53 43/71/57
f 57/69/55 41/68/54 59/72/3
f 59/72/3 41/68/54 1/73/1
f 41/68/54 42/70/56 1/73/1
f 1/73/1 42/70/56 44/74/5
f 43/71/57 5/75/7 42/70/56
f 42/70/56 5/75/7 44/74/5
f 40/76/53 45/77/49 46/78/58
f 46/78/58 45/77/49 33/79/44
f 43/80/57 40/76/53 47/81/59
f 47/81/59 40/76/53 46/78/58
f 43/80/57 47/81/59 5/82/7
f 5/82/7 47/81/59 48/83/8
f 33/79/44 49/84/39 46/78/58
f 46/78/58 49/84/39 50/85/60
f 47/81/59 46/78/58 51/86/61
f 51/86/61 46/78/58 50/85/60
f 48/83/8 47/81/59 8/87/12
f 8/87/12 47/81/59 51/86/61
f 49/84/39 52/88/34 53/89/62
f 15/90/20 76/91/63 17/92/24
f 17/92/24 76/91/63 72/93/64
f 76/91/63 15/90/20 54/94/65
f 54/94/65 15/90/20 9/95/16
f 35/96/46 55/97/50 29/98/40
f 29/98/40 55/97/50 56/99/66
f 55/97/50 57/100/55 56/99/66
f 56/99/66 57/100/55 58/101/67
f 59/102/3 3/103/4 57/100/55
f 57/100/55 3/103/4 58/101/67
f 29/98/40 56/99/66 24/104/35
f 24/104/35 56/99/66 60/105/68
f 56/99/66 58/101/67 60/105/68
f 60/105/68 58/101/67 61/106/69
f 58/101/67 3/103/4 61/106/69
f 61/106/69 3/103/4 62/107/10
f 63/108/70 60/105/68 64/109/71
f 65/110/72 66/111/73 16/112/22
f 16/112/22 66/111/73 67/113/17
f 62/107/10 10/114/13 84/115/74
f 77/116/75 68/117/76 78/118/77
f 78/118/77 68/117/76 69/119/33
f 78/120/77 69/37/33 70/121/78
f 70/121/78 69/37/33 21/33/29
f 71/122/79 70/121/78 23/35/31
f 23/35/31 70/121/78 21/33/29
f 71/122/79 18/29/25 83/123/80
f 83/123/80 18/29/25 20/31/27
f 72/124/64 77/125/75 74/126/81
f 74/126/81 77/125/75 73/127/82
f 81/128/83 74/129/81 75/130/84
f 75/130/84 74/129/81 73/131/82
f 81/132/83 75/133/84 65/134/72
f 65/134/72 75/133/84 79/135/85
f 18/29/25 71/122/79 23/35/31
f 19/30/26 18/29/25 27/36/32
f 27/36/32 18/29/25 23/35/31
f 19/40/26 27/45/32 25/42/36
f 25/42/36 27/45/32 28/46/38
f 30/50/41 25/42/36 31/51/42
f 31/51/42 25/42/36 28/46/38
f 30/50/41 31/51/42 34/54/45
f 34/54/45 31/51/42 37/57/48
f 36/62/51 34/60/45 37/63/48
f 54/136/65 51/86/61 76/137/63
f 76/137/63 51/86/61 72/138/64
f 51/86/61 50/85/60 72/138/64
f 77/139/75 72/138/64 50/85/60
f 68/140/76 77/139/75 50/85/60
f 68/117/76 53/141/62 69/119/33
f 69/119/33 53/141/62 52/142/34
f 50/85/60 53/89/62 68/140/76
f 54/136/65 9/143/16 8/87/12
f 8/87/12 51/86/61 54/136/65
f 73/144/82 77/145/75 70/146/78
f 70/146/78 77/145/75 78/147/77
f 73/148/82 70/149/78 75/150/84
f 75/150/84 70/149/78 71/151/79
f 79/152/85 75/153/84 83/154/80
f 83/154/80 75/153/84 71/155/79
f 16/156/22 80/157/21 65/158/72
f 65/158/72 80/157/21 81/159/83
f 80/160/21 82/161/23 81/162/83
f 81/162/83 82/161/23 74/163/81
f 17/164/24 72/165/64 82/166/23
f 82/166/23 72/165/64 74/167/81
f 61/106/69 66/168/73 65/169/72
f 79/170/85 83/171/80 64/172/71
f 64/172/71 83/171/80 20/173/27
f 64/172/71 20/173/27 63/174/70
f 63/174/70 20/173/27 85/175/28
f 24/104/35 60/105/68 63/108/70
f 66/111/73 84/176/74 67/113/17
f 67/113/17 84/176/74 10/177/13
f 61/106/69 84/115/74 66/168/73
f 65/169/72 79/178/85 61/106/69
f 60/105/68 61/106/69 79/178/85
f 60/105/68 79/178/85 64/109/71
f 62/107/10 84/115/74 61/106/69
f 85/179/28 24/104/35 63/108/70
f 50/85/60 49/84/39 53/89/62
