# Blender v2.79 (sub 0) OBJ File: 'tomb_3.obj'
# www.blender.org
mtllib tomb_3.mtl
o dec
v 0.224000 2.045863 0.034946
v 0.645999 1.551033 0.026574
v 0.639585 1.367363 0.026574
v 0.639585 1.367363 0.065962
v 0.645999 1.551033 0.065962
v -0.387942 1.587133 0.026574
v -0.387942 1.587133 0.065962
v -0.394356 1.403463 0.065962
v -0.394356 1.403463 0.026574
v 0.376950 0.349650 0.032278
v -0.322346 0.632523 0.087933
v -0.322346 0.632523 0.032278
v 0.289420 0.219881 0.087933
v 0.289420 0.219881 0.032278
v 0.376950 0.349650 0.087933
v -0.234816 0.762291 0.087933
v -0.234816 0.762291 0.032278
v -0.143541 -0.110387 -0.030203
v -0.143541 -0.110387 0.034945
v 0.102117 -0.110387 0.034945
v 0.046465 2.061393 0.034946
v 0.102117 -0.110387 -0.030203
v 0.224000 2.045863 -0.030203
v 0.046465 2.061393 -0.030203
vt -0.305900 0.423400
vt -0.275500 0.423400
vt -0.305900 0.506800
vt -0.275500 0.506800
vt -0.247700 0.223100
vt -0.247700 0.707100
vt -0.333700 0.223100
vt -0.333700 0.707100
vt -0.247700 0.707100
vt -0.333700 0.707100
vt -0.247700 0.223100
vt -0.333700 0.223100
vt -0.299900 0.223100
vt -0.281500 0.223100
vt -0.299900 0.707100
vt -0.281500 0.707100
vt -0.299900 0.422100
vt -0.281500 0.422100
vt -0.299900 0.508100
vt -0.281500 0.508100
vt -0.299900 0.223100
vt -0.281500 0.223100
vt -0.299900 0.707100
vt -0.281500 0.707100
vt -0.299900 0.422100
vt -0.281500 0.422100
vt -0.299900 0.508100
vt -0.281500 0.508100
vt -0.687800 0.793500
vt -0.687800 0.448300
vt -0.614500 0.793500
vt -0.614500 0.448300
vt -0.687800 0.793500
vt -0.614500 0.793500
vt -0.687800 0.448300
vt -0.614500 0.448300
vt -0.638100 0.793500
vt -0.664200 0.793500
vt -0.638100 0.448300
vt -0.664200 0.448300
vt -0.664200 0.584300
vt -0.638100 0.584300
vt -0.664200 0.657500
vt -0.638100 0.657500
vt -0.638100 0.793500
vt -0.664200 0.793500
vt -0.638100 0.448300
vt -0.664200 0.448300
vt -0.638100 0.657500
vt -0.664200 0.657500
vt -0.638100 0.584300
vt -0.664200 0.584300
vt -0.883400 0.078300
vt -0.856100 0.078300
vt -0.883400 0.991400
vt -0.856100 0.991400
vt -0.921000 0.078300
vt -0.818500 0.087300
vt -0.921000 0.991400
vt -0.846400 0.991400
vt -0.883400 0.082600
vt -0.856100 0.082600
vt -0.883400 0.987200
vt -0.856100 0.987200
vt -0.893200 0.991400
vt -0.921000 0.087300
vt -0.818500 0.991400
vt -0.818500 0.078300
vn 0.6164 0.5336 0.5790
vn 0.6164 0.5336 -0.5790
vn -0.5248 0.6254 0.5773
vn -0.5248 0.6254 -0.5773
vn -0.5971 -0.5568 0.5773
vn 0.5568 -0.5971 0.5773
vn -0.5568 0.5971 0.5773
vn 0.5971 0.5568 0.5773
vn -0.5971 -0.5568 -0.5773
vn -0.5568 0.5971 -0.5773
vn 0.5568 -0.5971 -0.5773
vn 0.5971 0.5568 -0.5773
vn -0.8015 -0.1558 0.5773
vn 0.1558 -0.8015 0.5773
vn -0.1558 0.8015 0.5773
vn 0.8015 0.1558 0.5773
vn -0.8015 -0.1558 -0.5773
vn -0.1558 0.8015 -0.5773
vn 0.1558 -0.8015 -0.5773
vn 0.8015 0.1558 -0.5773
vn -0.7242 0.0634 -0.6866
vn -0.7242 0.0634 0.6866
vn 0.6934 -0.0392 0.7195
vn 0.6934 -0.0392 -0.7195
usemtl dec
s 1
f 1/1/1 23/2/2 21/3/3
f 21/3/3 23/2/2 24/4/4
f 8/5/5 4/6/6 7/7/7
f 7/7/7 4/6/6 5/8/8
f 9/9/9 6/10/10 3/11/11
f 3/11/11 6/10/10 2/12/12
f 8/13/5 9/14/9 4/15/6
f 4/15/6 9/14/9 3/16/11
f 4/17/6 3/18/11 5/19/8
f 5/19/8 3/18/11 2/20/12
f 5/21/8 2/22/12 7/23/7
f 7/23/7 2/22/12 6/24/10
f 7/25/7 6/26/10 8/27/5
f 8/27/5 6/26/10 9/28/9
f 11/29/13 13/30/14 16/31/15
f 16/31/15 13/30/14 15/32/16
f 12/33/17 17/34/18 14/35/19
f 14/35/19 17/34/18 10/36/20
f 11/37/13 12/38/17 13/39/14
f 13/39/14 12/38/17 14/40/19
f 13/41/14 14/42/19 15/43/16
f 15/43/16 14/42/19 10/44/20
f 15/45/16 10/46/20 16/47/15
f 16/47/15 10/46/20 17/48/18
f 16/49/15 17/50/18 11/51/13
f 11/51/13 17/50/18 12/52/17
f 18/53/21 19/54/22 24/55/4
f 24/55/4 19/54/22 21/56/3
f 19/57/22 20/58/23 21/59/3
f 21/59/3 20/58/23 1/60/1
f 20/61/23 22/62/24 1/63/1
f 1/63/1 22/62/24 23/64/2
f 23/65/2 22/66/24 24/67/4
f 24/67/4 22/66/24 18/68/21
