# Blender v2.79 (sub 0) OBJ File: 'kitchen_tarelka2.obj'
# www.blender.org
mtllib kitchen_tarelka2.mtl
o dec
v 0.177513 0.087911 0.000000
v 0.167640 0.099623 0.000000
v 0.154880 0.099621 -0.064155
v 0.118540 0.099625 -0.118538
v 0.064153 0.099626 -0.154877
v 0.000000 0.087910 -0.177515
v 0.000000 0.099621 -0.167642
v -0.064153 0.099626 -0.154877
v -0.118540 0.099625 -0.118538
v -0.164001 0.087910 -0.067933
v -0.154880 0.099621 -0.064155
v -0.177513 0.087911 0.000000
v -0.167640 0.099623 0.000000
v -0.154880 0.099624 0.064155
v -0.125521 0.087914 0.125523
v -0.118540 0.099621 0.118538
v -0.067931 0.087913 0.164002
v -0.064153 0.099620 0.154877
v 0.000000 0.099625 0.167642
v 0.067931 0.087913 0.164002
v 0.064153 0.099620 0.154877
v 0.125521 0.087914 0.125523
v 0.118540 0.099621 0.118538
v 0.164001 0.087913 0.067933
v 0.154880 0.099624 0.064155
v 0.000000 0.000109 0.000000
v -0.113061 0.000107 -0.046833
v -0.046832 0.000111 -0.113059
v 0.000000 0.000112 -0.122379
v 0.086533 0.000106 -0.086536
v -0.046831 0.000105 0.113059
v -0.086533 0.000110 0.086536
v -0.113061 0.000109 0.046833
v 0.164001 0.087910 -0.067933
v 0.105094 0.087911 0.105094
v 0.000000 0.087913 0.177515
v -0.056876 0.087909 0.137310
v -0.105094 0.087911 0.105094
v -0.164001 0.087913 0.067933
v -0.137312 0.087913 -0.056875
v -0.125521 0.087909 -0.125523
v -0.105094 0.087911 -0.105094
v -0.067931 0.087910 -0.164002
v 0.067931 0.087910 -0.164002
v 0.125521 0.087909 -0.125523
v 0.137309 0.095830 -0.056881
v 0.105091 0.095834 -0.105094
v -0.105097 0.095834 -0.105094
v -0.148628 0.095834 0.000000
v -0.056879 0.095832 0.137310
v 0.148625 0.087911 0.000000
v 0.139330 0.017939 0.000000
v 0.137312 0.087909 0.056874
v 0.128724 0.017941 0.053322
v 0.056877 0.087909 0.137310
v 0.000000 0.087911 0.148626
v -0.098521 0.017940 0.098523
v -0.137312 0.087909 0.056874
v -0.148625 0.087911 0.000000
v -0.139330 0.017939 0.000000
v -0.128724 0.017936 -0.053322
v -0.056876 0.087914 -0.137310
v -0.053319 0.017939 -0.128724
v 0.000000 0.087911 -0.148626
v 0.000000 0.017938 -0.139331
v 0.056877 0.087914 -0.137310
v 0.053319 0.017939 -0.128724
v 0.105094 0.087911 -0.105094
v 0.098521 0.017937 -0.098523
v 0.137312 0.087913 -0.056875
v 0.122377 0.000108 0.000000
v 0.128724 0.017936 -0.053322
v 0.113061 0.000109 0.046833
v 0.086533 0.000110 0.086536
v 0.098521 0.017940 0.098523
v 0.046832 0.000105 0.113059
v 0.053319 0.017938 0.128724
v 0.000000 0.000116 0.122379
v 0.000000 0.017939 0.139331
v -0.053319 0.017938 0.128724
v -0.128724 0.017941 0.053322
v -0.122377 0.000108 0.000000
v -0.086533 0.000106 -0.086536
v -0.098521 0.017937 -0.098523
v 0.046832 0.000111 -0.113059
v 0.113061 0.000107 -0.046833
v 0.031656 0.052928 -0.085437
v -0.021352 0.048383 -0.107768
v 0.004672 0.062258 -0.063270
v 0.135496 0.053710 -0.000006
v 0.148623 0.095834 0.000000
v 0.095808 0.053712 -0.095818
v 0.051849 0.053713 -0.125190
v 0.056874 0.095830 -0.137316
v -0.000003 0.095834 -0.148626
v -0.051859 0.053713 -0.125190
v -0.056879 0.095830 -0.137316
v -0.125192 0.053711 -0.051860
v -0.137315 0.095830 -0.056881
v -0.125192 0.053710 0.051847
v -0.137315 0.095832 0.056874
v -0.095819 0.053715 0.095812
v -0.105097 0.095834 0.105094
v -0.000005 0.053711 0.135496
v -0.000003 0.095834 0.148625
v 0.051849 0.053714 0.125184
v 0.056874 0.095832 0.137310
v 0.105091 0.095834 0.105094
v 0.137309 0.095832 0.056874
v 0.125181 0.053711 -0.051860
v 0.106103 0.078318 -0.037952
v 0.092060 0.074280 0.006929
v 0.077455 0.076769 -0.075169
v -0.000005 0.053716 -0.135502
v -0.095819 0.053712 -0.095818
v -0.075538 0.066108 -0.084138
v -0.105052 0.077082 -0.044147
v -0.135507 0.053710 -0.000006
v -0.104843 0.075899 0.020077
v -0.067773 0.059039 0.067795
v -0.051859 0.053714 0.125184
v -0.038717 0.081587 0.102057
v 0.007536 0.078058 0.114490
v 0.063504 0.080065 0.090351
v 0.095808 0.053715 0.095812
v 0.125181 0.053710 0.051847
v 0.095721 0.064785 0.045853
v -0.070318 0.088306 -0.027188
v -0.048893 0.082290 0.051270
v 0.004934 0.065539 -0.037011
v 0.063922 0.081104 -0.029655
v -0.033005 0.062618 -0.049594
v 0.020814 0.085267 0.069546
v 0.042253 0.081801 0.023674
v -0.030936 0.084106 -0.004688
v -0.007080 0.088615 0.015822
v -0.006826 0.086550 -0.012646
v 0.034688 0.075903 -0.015634
vt 0.141700 0.995800
vt 0.088900 0.985300
vt 0.141700 0.988100
vt 0.091800 0.978200
vt 0.044100 0.955300
vt 0.049500 0.949900
vt 0.014100 0.910500
vt 0.021200 0.907600
vt 0.003600 0.857600
vt 0.011300 0.857600
vt 0.014100 0.804800
vt 0.021200 0.807700
vt 0.044100 0.759900
vt 0.049500 0.765400
vt 0.088900 0.730000
vt 0.091800 0.737100
vt 0.141700 0.719500
vt 0.141700 0.727200
vt 0.194600 0.730000
vt 0.191700 0.737100
vt 0.239400 0.759900
vt 0.234000 0.765400
vt 0.269400 0.804800
vt 0.262300 0.807700
vt 0.279900 0.857600
vt 0.272200 0.857600
vt 0.269400 0.910500
vt 0.262300 0.907600
vt 0.239400 0.955300
vt 0.234000 0.949900
vt 0.194600 0.985300
vt 0.191700 0.978200
vt 0.141700 0.857600
vt 0.141700 0.762400
vt 0.105300 0.769600
vt 0.074400 0.790300
vt 0.053800 0.821200
vt 0.046500 0.857600
vt 0.053800 0.894100
vt 0.074400 0.925000
vt 0.105300 0.945600
vt 0.141700 0.952900
vt 0.178200 0.945600
vt 0.209100 0.925000
vt 0.229700 0.894100
vt 0.237000 0.857600
vt 0.229700 0.821200
vt 0.209100 0.790300
vt 0.178200 0.769600
vt 0.097500 0.964500
vt 0.141700 0.973300
vt 0.186000 0.964500
vt 0.223500 0.939400
vt 0.248600 0.901900
vt 0.257400 0.857600
vt 0.248600 0.813400
vt 0.223500 0.775800
vt 0.186000 0.750800
vt 0.141700 0.742000
vt 0.097500 0.750800
vt 0.060000 0.775800
vt 0.034900 0.813400
vt 0.026100 0.857600
vt 0.034900 0.901900
vt 0.060000 0.939400
vt 0.141700 0.973300
vt 0.097500 0.964500
vt 0.060000 0.939400
vt 0.034900 0.901900
vt 0.026100 0.857600
vt 0.034900 0.813400
vt 0.060000 0.775800
vt 0.097500 0.750800
vt 0.141700 0.742000
vt 0.186000 0.750800
vt 0.223500 0.775800
vt 0.248600 0.813400
vt 0.257400 0.857600
vt 0.248600 0.901900
vt 0.223500 0.939400
vt 0.186000 0.964500
vt 0.571500 0.182000
vt 0.571500 0.134200
vt 0.609200 0.134200
vt 0.609200 0.182000
vt 0.533800 0.182000
vt 0.533800 0.134200
vt 0.496100 0.182000
vt 0.496100 0.134200
vt 0.458500 0.182000
vt 0.458500 0.134200
vt 0.420800 0.182000
vt 0.420800 0.134200
vt 0.383100 0.182000
vt 0.383100 0.134200
vt 0.345400 0.182000
vt 0.345400 0.134200
vt 0.307700 0.182000
vt 0.307700 0.134200
vt 0.270000 0.182000
vt 0.270000 0.134200
vt 0.232400 0.182000
vt 0.232400 0.134200
vt 0.194700 0.182000
vt 0.194700 0.134200
vt 0.157000 0.182000
vt 0.157000 0.134200
vt 0.119300 0.182000
vt 0.119300 0.134200
vt 0.081600 0.182000
vt 0.081600 0.134200
vt 0.044000 0.182000
vt 0.044000 0.134200
vt 0.006300 0.182000
vt 0.006300 0.134200
vt 0.571500 0.118400
vt 0.609100 0.118400
vt 0.609100 0.134200
vt 0.533800 0.118400
vt 0.496100 0.118400
vt 0.458400 0.118400
vt 0.458400 0.134200
vt 0.420700 0.118400
vt 0.420700 0.134200
vt 0.383100 0.118400
vt 0.345400 0.118400
vt 0.307700 0.118400
vt 0.270000 0.118400
vt 0.232300 0.118400
vt 0.232300 0.134200
vt 0.194600 0.118400
vt 0.194600 0.134200
vt 0.157000 0.118400
vt 0.119300 0.118400
vt 0.081600 0.118400
vt 0.043900 0.118400
vt 0.043900 0.134200
vt 0.006200 0.118400
vt 0.006200 0.134200
vt 0.356400 0.811400
vt 0.394800 0.778400
vt 0.384900 0.823300
vt 0.005600 0.074700
vt 0.005600 0.115100
vt 0.045300 0.074700
vt 0.045300 0.115100
vt 0.085000 0.074700
vt 0.085000 0.115100
vt 0.124700 0.074700
vt 0.124700 0.115100
vt 0.164300 0.074700
vt 0.164300 0.115100
vt 0.204000 0.074700
vt 0.204000 0.115100
vt 0.243700 0.074700
vt 0.243700 0.115100
vt 0.283400 0.074700
vt 0.283400 0.115100
vt 0.323100 0.074700
vt 0.323100 0.115100
vt 0.362700 0.074700
vt 0.362700 0.115100
vt 0.402400 0.074700
vt 0.402400 0.115100
vt 0.442100 0.074700
vt 0.442100 0.115100
vt 0.481800 0.074700
vt 0.481800 0.115100
vt 0.521400 0.074700
vt 0.521400 0.115100
vt 0.561100 0.074700
vt 0.561100 0.115100
vt 0.600800 0.074700
vt 0.600800 0.115100
vt 0.640500 0.074700
vt 0.640500 0.115100
vt 0.292400 0.910400
vt 0.287200 0.864400
vt 0.306800 0.872400
vt 0.330600 0.905900
vt 0.300000 0.819900
vt 0.320900 0.833700
vt 0.328900 0.783700
vt 0.369600 0.761200
vt 0.415700 0.756000
vt 0.460300 0.768800
vt 0.446500 0.784800
vt 0.496600 0.797700
vt 0.481800 0.811000
vt 0.519100 0.838200
vt 0.498800 0.865300
vt 0.524300 0.884200
vt 0.511500 0.928700
vt 0.480500 0.913200
vt 0.482500 0.964900
vt 0.465400 0.950900
vt 0.441900 0.987400
vt 0.430000 0.973400
vt 0.395800 0.992600
vt 0.376700 0.969100
vt 0.351200 0.979700
vt 0.314900 0.950900
vt 0.337900 0.938700
vt 0.457300 0.835100
vt 0.460300 0.905900
vt 0.391700 0.845500
vt 0.344300 0.868300
vt 0.420100 0.824700
vt 0.406900 0.939900
vt 0.376700 0.907100
vt 0.430400 0.864100
vt 0.415900 0.887800
vt 0.408100 0.864000
vt 0.372500 0.871900
vn 0.9234 -0.3838 0.0000
vn 0.8531 -0.3838 -0.3533
vn 0.3847 0.9230 0.0000
vn 0.3554 0.9230 -0.1472
vn 0.6529 -0.3838 -0.6529
vn 0.2720 0.9230 -0.2720
vn 0.3533 -0.3838 -0.8531
vn 0.1471 0.9231 -0.3552
vn 0.0000 -0.3838 -0.9234
vn 0.0000 0.9230 -0.3847
vn -0.3533 -0.3838 -0.8531
vn -0.1472 0.9231 -0.3552
vn -0.6529 -0.3838 -0.6529
vn -0.2720 0.9231 -0.2720
vn -0.8531 -0.3838 -0.3533
vn -0.3553 0.9231 -0.1472
vn -0.9234 -0.3838 0.0000
vn -0.3847 0.9230 0.0000
vn -0.8531 -0.3837 0.3534
vn -0.3553 0.9231 0.1472
vn -0.6530 -0.3836 0.6530
vn -0.2719 0.9231 0.2719
vn -0.3534 -0.3836 0.8532
vn -0.1472 0.9231 0.3552
vn -0.0000 -0.3837 0.9234
vn 0.0000 0.9231 0.3846
vn 0.3534 -0.3836 0.8532
vn 0.1472 0.9231 0.3552
vn 0.6530 -0.3836 0.6530
vn 0.2719 0.9231 0.2719
vn 0.8531 -0.3837 0.3534
vn 0.3554 0.9231 0.1472
vn 0.0000 -1.0000 0.0000
vn -0.4343 -0.9008 0.0000
vn -0.4012 -0.9008 -0.1661
vn -0.3070 -0.9008 -0.3071
vn -0.1661 -0.9008 -0.4012
vn 0.0000 -0.9008 -0.4342
vn 0.1661 -0.9008 -0.4012
vn 0.3070 -0.9008 -0.3071
vn 0.4012 -0.9008 -0.1661
vn 0.4342 -0.9008 0.0000
vn 0.4012 -0.9008 0.1662
vn 0.3071 -0.9008 0.3070
vn 0.1661 -0.9008 0.4012
vn 0.0000 -0.9008 0.4342
vn -0.1661 -0.9008 0.4012
vn -0.3071 -0.9008 0.3071
vn -0.4012 -0.9008 0.1662
vn 0.5609 -0.7946 -0.2323
vn 0.6071 -0.7946 0.0000
vn 0.5610 -0.7945 0.2323
vn 0.4293 -0.7945 0.4293
vn 0.2324 -0.7945 0.5610
vn 0.0000 -0.7946 0.6071
vn -0.2323 -0.7945 0.5610
vn -0.4293 -0.7945 0.4293
vn -0.5610 -0.7945 0.2324
vn -0.6071 -0.7946 0.0000
vn -0.5609 -0.7946 -0.2323
vn -0.4293 -0.7946 -0.4293
vn -0.2323 -0.7946 -0.5609
vn 0.0000 -0.7946 -0.6071
vn 0.2323 -0.7946 -0.5608
vn 0.4292 -0.7946 -0.4293
vn -0.6305 0.7761 0.0000
vn -0.5826 0.7761 0.2413
vn -0.4459 0.7761 0.4459
vn -0.2414 0.7760 0.5827
vn 0.0000 0.7761 0.6305
vn 0.2413 0.7760 0.5828
vn 0.4460 0.7760 0.4459
vn 0.5826 0.7760 0.2414
vn 0.6306 0.7761 -0.0000
vn 0.5827 0.7760 -0.2413
vn 0.4458 0.7761 -0.4458
vn 0.2413 0.7761 -0.5826
vn 0.0000 0.7761 -0.6306
vn -0.2413 0.7761 -0.5825
vn -0.4458 0.7762 -0.4458
vn -0.5826 0.7761 -0.2413
vn 0.9088 -0.4172 0.0000
vn 0.8396 -0.4172 -0.3478
vn 0.8396 -0.4172 0.3478
vn 0.6426 -0.4172 0.6426
vn 0.3478 -0.4172 0.8396
vn 0.0000 -0.4172 0.9088
vn -0.3478 -0.4172 0.8396
vn -0.6426 -0.4172 0.6426
vn -0.8396 -0.4172 0.3478
vn -0.9088 -0.4172 0.0000
vn -0.8396 -0.4172 -0.3478
vn -0.6426 -0.4172 -0.6427
vn -0.3478 -0.4172 -0.8396
vn 0.0000 -0.4172 -0.9088
vn 0.3478 -0.4172 -0.8396
vn 0.6426 -0.4172 -0.6426
vn -0.1100 0.9291 -0.3531
vn 0.0706 0.9968 -0.0379
vn -0.0985 0.9625 -0.2528
vn -0.4336 0.8991 0.0596
vn -0.3188 0.9426 0.0993
vn -0.4107 0.8778 0.2463
vn -0.2599 0.7599 0.5958
vn -0.0067 0.7178 0.6962
vn 0.3116 0.7812 0.5409
vn 0.3257 0.9079 0.2637
vn 0.2994 0.9388 0.1704
vn 0.4075 0.9128 -0.0239
vn 0.4822 0.8699 -0.1038
vn 0.3236 0.8365 -0.4421
vn 0.1179 0.9463 -0.3009
vn 0.0140 0.9473 -0.3200
vn -0.1695 0.9337 -0.3154
vn -0.2213 0.9126 -0.3439
vn -0.4594 0.8706 -0.1758
vn 0.4304 0.8950 -0.1169
vn 0.2774 0.9491 0.1488
vn 0.0776 0.8779 -0.4725
vn -0.0325 0.9330 -0.3583
vn -0.4887 0.8485 -0.2031
vn -0.3250 0.9222 0.2096
vn -0.4152 0.9030 0.1104
vn -0.2629 0.8984 0.3516
vn 0.0884 0.8254 0.5576
vn 0.3315 0.8903 0.3122
vn 0.3398 0.9293 0.1441
vn 0.0103 0.9890 -0.1474
vn -0.3908 0.9110 0.1318
vn -0.0210 0.9332 -0.3587
vn -0.0605 0.9967 -0.0536
vn 0.1494 0.9283 -0.3404
vn 0.0501 0.9963 0.0694
vn 0.1582 0.9872 -0.0220
vn -0.0216 0.9857 -0.1668
vn -0.0085 0.9998 -0.0150
vn 0.0261 0.9410 -0.3374
vn -0.0611 0.9756 -0.2110
usemtl dec
s 1
f 1/1/1 34/2/2 2/3/3
f 2/3/3 34/2/2 3/4/4
f 34/2/2 45/5/5 3/4/4
f 3/4/4 45/5/5 4/6/6
f 45/5/5 44/7/7 4/6/6
f 4/6/6 44/7/7 5/8/8
f 44/7/7 6/9/9 5/8/8
f 5/8/8 6/9/9 7/10/10
f 6/9/9 43/11/11 7/10/10
f 7/10/10 43/11/11 8/12/12
f 43/11/11 41/13/13 8/12/12
f 8/12/12 41/13/13 9/14/14
f 41/13/13 10/15/15 9/14/14
f 9/14/14 10/15/15 11/16/16
f 10/15/15 12/17/17 11/16/16
f 11/16/16 12/17/17 13/18/18
f 12/17/17 39/19/19 13/18/18
f 13/18/18 39/19/19 14/20/20
f 39/19/19 15/21/21 14/20/20
f 14/20/20 15/21/21 16/22/22
f 15/21/21 17/23/23 16/22/22
f 16/22/22 17/23/23 18/24/24
f 17/23/23 36/25/25 18/24/24
f 18/24/24 36/25/25 19/26/26
f 36/25/25 20/27/27 19/26/26
f 19/26/26 20/27/27 21/28/28
f 20/27/27 22/29/29 21/28/28
f 21/28/28 22/29/29 23/30/30
f 22/29/29 24/31/31 23/30/30
f 23/30/30 24/31/31 25/32/32
f 24/31/31 1/1/1 25/32/32
f 25/32/32 1/1/1 2/3/3
f 26/33/33 82/34/34 27/35/35
f 26/33/33 27/35/35 83/36/36
f 26/33/33 83/36/36 28/37/37
f 26/33/33 28/37/37 29/38/38
f 26/33/33 29/38/38 85/39/39
f 26/33/33 85/39/39 30/40/40
f 26/33/33 30/40/40 86/41/41
f 26/33/33 86/41/41 71/42/42
f 26/33/33 71/42/42 73/43/43
f 26/33/33 73/43/43 74/44/44
f 26/33/33 74/44/44 76/45/45
f 26/33/33 76/45/45 78/46/46
f 26/33/33 78/46/46 31/47/47
f 26/33/33 31/47/47 32/48/48
f 26/33/33 32/48/48 33/49/49
f 26/33/33 33/49/49 82/34/34
f 34/2/2 1/1/1 70/50/50
f 70/50/50 1/1/1 51/51/51
f 1/1/1 24/31/31 51/51/51
f 51/51/51 24/31/31 53/52/52
f 24/31/31 22/29/29 53/52/52
f 53/52/52 22/29/29 35/53/53
f 22/29/29 20/27/27 35/53/53
f 35/53/53 20/27/27 55/54/54
f 20/27/27 36/25/25 55/54/54
f 55/54/54 36/25/25 56/55/55
f 36/25/25 17/23/23 56/55/55
f 56/55/55 17/23/23 37/56/56
f 17/23/23 15/21/21 37/56/56
f 37/56/56 15/21/21 38/57/57
f 15/21/21 39/19/19 38/57/57
f 38/57/57 39/19/19 58/58/58
f 39/19/19 12/17/17 58/58/58
f 58/58/58 12/17/17 59/59/59
f 12/17/17 10/15/15 59/59/59
f 59/59/59 10/15/15 40/60/60
f 10/15/15 41/13/13 40/60/60
f 40/60/60 41/13/13 42/61/61
f 41/13/13 43/11/11 42/61/61
f 42/61/61 43/11/11 62/62/62
f 43/11/11 6/9/9 62/62/62
f 62/62/62 6/9/9 64/63/63
f 6/9/9 44/7/7 64/63/63
f 64/63/63 44/7/7 66/64/64
f 44/7/7 45/5/5 66/64/64
f 66/64/64 45/5/5 68/65/65
f 45/5/5 34/2/2 68/65/65
f 68/65/65 34/2/2 70/50/50
f 2/3/3 3/4/4 91/66/66
f 91/66/66 3/4/4 46/67/67
f 3/4/4 4/6/6 46/67/67
f 46/67/67 4/6/6 47/68/68
f 4/6/6 5/8/8 47/68/68
f 47/68/68 5/8/8 94/69/69
f 5/8/8 7/10/10 94/69/69
f 94/69/69 7/10/10 95/70/70
f 7/10/10 8/12/12 95/70/70
f 95/70/70 8/12/12 97/71/71
f 8/12/12 9/14/14 97/71/71
f 97/71/71 9/14/14 48/72/72
f 9/14/14 11/16/16 48/72/72
f 48/72/72 11/16/16 99/73/73
f 11/16/16 13/18/18 99/73/73
f 99/73/73 13/18/18 49/74/74
f 13/18/18 14/20/20 49/74/74
f 49/74/74 14/20/20 101/75/75
f 14/20/20 16/22/22 101/75/75
f 101/75/75 16/22/22 103/76/76
f 16/22/22 18/24/24 103/76/76
f 103/76/76 18/24/24 50/77/77
f 18/24/24 19/26/26 50/77/77
f 50/77/77 19/26/26 105/78/78
f 19/26/26 21/28/28 105/78/78
f 105/78/78 21/28/28 107/79/79
f 21/28/28 23/30/30 107/79/79
f 107/79/79 23/30/30 108/80/80
f 23/30/30 25/32/32 108/80/80
f 108/80/80 25/32/32 109/81/81
f 25/32/32 2/3/3 109/81/81
f 109/81/81 2/3/3 91/66/66
f 51/82/51 52/83/82 72/84/83
f 72/84/83 70/85/50 51/82/51
f 53/86/52 54/87/84 52/83/82
f 52/83/82 51/82/51 53/86/52
f 35/88/53 75/89/85 54/87/84
f 54/87/84 53/86/52 35/88/53
f 55/90/54 77/91/86 75/89/85
f 75/89/85 35/88/53 55/90/54
f 56/92/55 79/93/87 77/91/86
f 77/91/86 55/90/54 56/92/55
f 37/94/56 80/95/88 79/93/87
f 79/93/87 56/92/55 37/94/56
f 38/96/57 57/97/89 80/95/88
f 80/95/88 37/94/56 38/96/57
f 58/98/58 81/99/90 57/97/89
f 57/97/89 38/96/57 58/98/58
f 59/100/59 60/101/91 81/99/90
f 81/99/90 58/98/58 59/100/59
f 40/102/60 61/103/92 60/101/91
f 60/101/91 59/100/59 40/102/60
f 42/104/61 84/105/93 61/103/92
f 61/103/92 40/102/60 42/104/61
f 62/106/62 63/107/94 84/105/93
f 84/105/93 42/104/61 62/106/62
f 64/108/63 65/109/95 63/107/94
f 63/107/94 62/106/62 64/108/63
f 66/110/64 67/111/96 65/109/95
f 65/109/95 64/108/63 66/110/64
f 68/112/65 69/113/97 67/111/96
f 67/111/96 66/110/64 68/112/65
f 70/114/50 72/115/83 69/113/97
f 69/113/97 68/112/65 70/114/50
f 71/116/42 86/117/41 72/118/83
f 72/118/83 52/83/82 71/116/42
f 73/119/43 71/116/42 52/83/82
f 52/83/82 54/87/84 73/119/43
f 74/120/44 73/119/43 54/87/84
f 54/87/84 75/89/85 74/120/44
f 76/121/45 74/120/44 75/89/85
f 75/89/85 77/122/86 76/121/45
f 78/123/46 76/121/45 77/122/86
f 77/122/86 79/124/87 78/123/46
f 31/125/47 78/123/46 79/124/87
f 79/124/87 80/95/88 31/125/47
f 32/126/48 31/125/47 80/95/88
f 80/95/88 57/97/89 32/126/48
f 33/127/49 32/126/48 57/97/89
f 57/97/89 81/99/90 33/127/49
f 82/128/34 33/127/49 81/99/90
f 81/99/90 60/101/91 82/128/34
f 27/129/35 82/128/34 60/101/91
f 60/101/91 61/130/92 27/129/35
f 83/131/36 27/129/35 61/130/92
f 61/130/92 84/132/93 83/131/36
f 28/133/37 83/131/36 84/132/93
f 84/132/93 63/107/94 28/133/37
f 29/134/38 28/133/37 63/107/94
f 63/107/94 65/109/95 29/134/38
f 85/135/39 29/134/38 65/109/95
f 65/109/95 67/111/96 85/135/39
f 30/136/40 85/135/39 67/111/96
f 67/111/96 69/137/97 30/136/40
f 86/138/41 30/136/40 69/137/97
f 69/137/97 72/139/83 86/138/41
f 87/140/98 88/141/99 89/142/100
f 90/143/101 91/144/66 110/145/102
f 110/145/102 91/144/66 46/146/67
f 110/145/102 46/146/67 92/147/103
f 92/147/103 46/146/67 47/148/68
f 92/147/103 47/148/68 93/149/104
f 93/149/104 47/148/68 94/150/69
f 93/149/104 94/150/69 114/151/105
f 114/151/105 94/150/69 95/152/70
f 114/151/105 95/152/70 96/153/106
f 96/153/106 95/152/70 97/154/71
f 96/153/106 97/154/71 115/155/107
f 115/155/107 97/154/71 48/156/72
f 115/155/107 48/156/72 98/157/108
f 98/157/108 48/156/72 99/158/73
f 98/157/108 99/158/73 118/159/109
f 118/159/109 99/158/73 49/160/74
f 118/159/109 49/160/74 100/161/110
f 100/161/110 49/160/74 101/162/75
f 100/161/110 101/162/75 102/163/111
f 102/163/111 101/162/75 103/164/76
f 102/163/111 103/164/76 121/165/112
f 121/165/112 103/164/76 50/166/77
f 121/165/112 50/166/77 104/167/113
f 104/167/113 50/166/77 105/168/78
f 104/167/113 105/168/78 106/169/114
f 106/169/114 105/168/78 107/170/79
f 106/169/114 107/170/79 125/171/115
f 125/171/115 107/170/79 108/172/80
f 125/171/115 108/172/80 126/173/116
f 126/173/116 108/172/80 109/174/81
f 126/173/116 109/174/81 90/175/101
f 90/175/101 109/174/81 91/176/66
f 90/177/101 110/178/102 111/179/117
f 111/179/117 112/180/118 90/177/101
f 110/178/102 92/181/103 113/182/119
f 113/182/119 111/179/117 110/178/102
f 92/181/103 93/183/104 87/140/98
f 87/140/98 113/182/119 92/181/103
f 93/183/104 114/184/105 88/141/99
f 88/141/99 87/140/98 93/183/104
f 96/185/106 88/141/99 114/184/105
f 96/185/106 115/186/107 116/187/120
f 116/187/120 88/141/99 96/185/106
f 115/186/107 98/188/108 117/189/121
f 117/189/121 116/187/120 115/186/107
f 98/188/108 118/190/109 119/191/122
f 119/191/122 117/189/121 98/188/108
f 100/192/110 119/191/122 118/190/109
f 100/192/110 102/193/111 120/194/123
f 120/194/123 119/191/122 100/192/110
f 102/193/111 121/195/112 122/196/124
f 122/196/124 120/194/123 102/193/111
f 121/195/112 104/197/113 123/198/125
f 123/198/125 122/196/124 121/195/112
f 104/197/113 106/199/114 124/200/126
f 124/200/126 123/198/125 104/197/113
f 125/201/115 124/200/126 106/199/114
f 125/201/115 126/202/116 127/203/127
f 127/203/127 124/200/126 125/201/115
f 126/202/116 90/177/101 112/180/118
f 112/180/118 127/203/127 126/202/116
f 128/204/128 119/191/122 120/194/123
f 120/194/123 129/205/129 128/204/128
f 113/182/119 130/206/130 131/207/131
f 88/141/99 132/208/132 89/142/100
f 89/142/100 132/208/132 130/206/130
f 123/198/125 124/200/126 133/209/133
f 133/209/133 124/200/126 134/210/134
f 111/179/117 113/182/119 131/207/131
f 116/187/120 117/189/121 128/204/128
f 135/211/135 136/212/136 137/213/137
f 130/206/130 138/214/138 131/207/131
f 120/194/123 122/196/124 129/205/129
f 136/212/136 134/210/134 137/213/137
f 138/214/138 134/210/134 131/207/131
f 134/210/134 124/200/126 127/203/127
f 131/207/131 112/180/118 111/179/117
f 134/210/134 127/203/127 112/180/118
f 112/180/118 131/207/131 134/210/134
f 134/210/134 138/214/138 137/213/137
f 132/208/132 135/211/135 137/213/137
f 137/213/137 130/206/130 132/208/132
f 128/204/128 117/189/121 119/191/122
f 133/209/133 129/205/129 122/196/124
f 122/196/124 123/198/125 133/209/133
f 129/205/129 135/211/135 128/204/128
f 128/204/128 132/208/132 116/187/120
f 129/205/129 136/212/136 135/211/135
f 132/208/132 128/204/128 135/211/135
f 137/213/137 138/214/138 130/206/130
f 136/212/136 133/209/133 134/210/134
f 113/182/119 89/142/100 130/206/130
f 113/182/119 87/140/98 89/142/100
f 88/141/99 116/187/120 132/208/132
f 133/209/133 136/212/136 129/205/129
