# Blender v2.79 (sub 0) OBJ File: 'bookcase_village_50x120_ph_d.obj'
# www.blender.org
mtllib bookcase_village_50x120_ph_d.mtl
o dec
v 0.005975 1.073613 0.413139
v 0.369675 1.034304 0.420934
v 0.061490 1.023073 0.399699
v 0.357336 1.023073 0.420934
v 0.369675 1.034304 0.413139
v 0.369675 0.381226 0.420934
v 0.418869 0.010944 0.413139
v 0.369675 0.381226 0.413139
v 0.357337 0.392458 0.399698
v 0.061250 0.392457 0.399698
v 0.357336 0.392458 0.420934
v 0.005713 0.010944 0.413139
v 0.005713 0.010944 0.399677
v 0.061249 0.392457 0.420934
v 0.048908 0.381226 0.413139
v 0.049153 1.034304 0.420934
v 0.048908 0.381226 0.420934
v 0.061490 1.023073 0.420934
v 0.418869 1.073613 0.413139
v 0.049153 1.034304 0.413139
v 0.005973 1.073613 0.399678
v 0.357337 1.023073 0.399699
v 0.418869 1.073614 0.399678
v 0.418869 0.010944 0.399678
v 0.428189 1.095190 -0.012834
v -0.415625 1.098047 0.000019
v 0.415625 1.098047 0.000000
v 0.427858 1.095190 0.433256
v 0.415292 1.098047 0.420424
v -0.428190 1.095190 -0.012814
v -0.415957 1.098047 0.420442
v -0.400144 0.253431 0.400095
v 0.399834 0.521712 0.400078
v -0.400144 0.521712 0.400095
v -0.400143 0.521712 0.041238
v 0.399835 0.253431 0.041221
v 0.399834 0.282912 0.400078
v -0.400143 0.282912 0.041238
v -0.400144 0.551193 0.400095
v 0.399834 0.789993 0.400078
v -0.400144 0.789993 0.400095
v 0.428189 1.073014 -0.012834
v 0.418240 1.073014 0.000000
v -0.418238 1.073014 0.000019
v -0.428522 1.073014 0.433276
v 0.399657 -0.000000 0.041221
v -0.400320 -0.000000 0.041238
v -0.400322 1.058273 0.400095
v 0.399657 1.058273 0.041221
v -0.400321 1.058273 0.041238
v 0.399657 1.058273 0.400078
v -0.411972 1.073614 0.397900
v -0.054593 1.023073 0.419157
v -0.042257 1.034304 0.411362
v -0.054594 1.023073 0.397921
v -0.350440 1.023073 0.419157
v -0.362779 0.381226 0.411361
v -0.362779 1.034304 0.419157
v -0.350440 0.392458 0.397921
v -0.411972 0.010944 0.411361
v -0.042011 0.381226 0.419157
v -0.362779 0.381226 0.419157
v -0.350440 0.392458 0.419157
v -0.054353 0.392457 0.419157
v 0.001184 0.010944 0.411361
v 0.000922 1.073613 0.411362
v -0.042257 1.034304 0.419157
v -0.411972 1.073613 0.411362
v -0.362779 1.034304 0.411362
v -0.042011 0.381226 0.411361
v 0.000923 1.073613 0.397900
v -0.350440 1.023073 0.397921
v -0.411972 0.010944 0.397900
v 0.001183 0.010944 0.397900
v -0.054353 0.392457 0.397921
v 0.418240 0.000000 0.000000
v -0.418238 -0.000000 0.000019
v -0.428190 1.073014 -0.012814
v -0.428522 1.095190 0.433276
v 0.427858 1.073014 0.433256
v 0.417906 1.073014 0.400077
v -0.418573 1.073014 0.400096
v -0.418573 -0.000000 0.400096
v 0.417905 -0.000000 0.400077
v 0.399657 -0.000000 0.400078
v -0.400322 -0.000000 0.400095
v 0.399810 0.789992 0.041229
v 0.399834 0.819472 0.400078
v 0.399835 0.819474 0.041221
v -0.400168 0.789993 0.041246
v -0.400143 0.819474 0.041238
v -0.400144 0.819472 0.400095
v 0.399835 0.521712 0.041221
v -0.400168 0.551192 0.041247
v 0.399834 0.551193 0.400078
v 0.399810 0.551192 0.041230
v 0.399834 0.253431 0.400078
v 0.399835 0.282912 0.041221
v -0.400143 0.253431 0.041238
v -0.400144 0.282912 0.400095
vt 0.612600 0.998200
vt -0.190400 0.995600
vt 0.612600 0.969400
vt -0.190400 0.966900
vt 7.612800 0.019900
vt 8.092000 0.019900
vt 7.631300 0.001500
vt 8.073600 0.001500
vt 6.060600 0.002700
vt 5.581400 0.002700
vt 6.060600 0.010100
vt 5.581400 0.010100
vt 1.478100 0.033600
vt 1.035800 0.033200
vt 1.478100 0.001300
vt 1.035800 0.001600
vt -2.461000 0.995600
vt -2.461000 0.966900
vt 8.092000 0.019900
vt 9.164700 0.019900
vt 8.110500 0.001500
vt 9.146200 0.001500
vt 4.029200 0.000400
vt 2.956500 0.007100
vt 4.029300 0.013200
vt 2.956600 0.019900
vt 0.000000 0.033200
vt 0.000000 0.001600
vt 3.686700 1.000600
vt 2.883200 1.000600
vt 3.686700 0.971800
vt 2.883200 0.971800
vt 7.133300 0.019900
vt 7.612800 0.019900
vt 7.151700 0.001500
vt 7.594400 0.001500
vt 4.508700 0.002700
vt 4.508800 0.010100
vt 2.956500 0.035800
vt 2.513800 0.035400
vt 2.956500 0.000900
vt 2.513900 0.000500
vt 6.060600 0.019600
vt 6.079100 0.001100
vt 7.114800 0.001500
vt -0.062400 1.000000
vt -0.416000 1.000000
vt -0.104500 0.963000
vt -0.379000 0.963000
vt -0.379300 0.348400
vt -0.416300 0.000000
vt -0.104500 0.348400
vt -0.062400 0.000000
vt -0.473000 0.952500
vt -0.425400 1.000000
vt -0.726400 0.952500
vt -0.779100 1.000000
vt -0.726400 0.359000
vt -0.779100 0.000000
vt -0.425200 0.000000
vt -0.472700 0.359000
vt 0.523800 0.357000
vt 0.523800 0.713800
vt 0.518300 0.362200
vt 0.518300 0.708600
vt 0.327100 0.626800
vt 0.321700 0.621500
vt 0.327100 0.441000
vt 0.321700 0.446300
vt 0.327100 0.446300
vt 0.332500 0.441000
vt 0.327100 0.621500
vt 0.332500 0.626800
vt 0.511600 0.708600
vt 0.511600 0.362200
vt 0.517200 0.713800
vt 0.517200 0.357000
vt 0.511600 0.357000
vt 0.511600 0.690300
vt 0.498900 0.357000
vt 0.498900 0.690300
vt 0.523800 0.690300
vt 0.523800 0.357000
vt 0.536500 0.690300
vt 0.536500 0.357000
vt 0.309000 0.774300
vt 0.309000 0.441000
vt 0.321700 0.774300
vt 0.321700 0.441000
vt 0.000000 0.774300
vt 0.000000 0.441000
vt 0.154500 0.774300
vt 0.154500 0.441000
vt 0.154500 0.774300
vt 0.154500 0.441000
vt 0.309000 0.774300
vt 0.309000 0.441000
vt 0.691000 0.441000
vt 0.691000 0.774300
vt 0.536500 0.441000
vt 0.536500 0.774300
vt 0.691000 0.333300
vt 0.691000 0.000000
vt 0.845500 0.333300
vt 0.845500 0.000000
vt 0.845500 0.666700
vt 0.845500 1.000000
vt 0.691000 0.666700
vt 0.691000 1.000000
vt 1.000000 0.000000
vt 1.000000 0.333300
vt 0.845500 0.000000
vt 0.845500 0.333300
vt 0.536500 0.357000
vt 0.531000 0.352800
vt 0.536500 0.000100
vt 0.531000 0.004300
vt 0.344400 0.356800
vt 0.358700 0.352700
vt 0.358700 0.004100
vt 0.344400 0.000000
vt 0.000000 0.000000
vt 0.344400 0.000000
vt 0.000000 0.441000
vt 0.344400 0.441000
vt 0.691000 0.666700
vt 0.691000 0.333300
vt 0.845500 0.666700
vt 0.845500 0.333300
vt 0.691000 0.000000
vt 0.691000 0.441000
vt 0.536500 0.000000
vt 0.536500 0.441000
vt 0.498900 0.797900
vt 0.344400 0.797900
vt 0.498900 0.357000
vt 0.344400 0.357000
vt 0.612600 0.998200
vt 0.612600 0.969400
vt -0.190400 0.995600
vt -0.190400 0.966900
vt 7.612800 0.019900
vt 7.631300 0.001500
vt 8.092000 0.019900
vt 8.073600 0.001500
vt 6.060600 0.002700
vt 6.060600 0.010100
vt 5.581400 0.002700
vt 5.581400 0.010100
vt 1.478100 0.033600
vt 1.478100 0.001300
vt 1.035800 0.033200
vt 1.035800 0.001600
vt -2.461000 0.995600
vt -2.461000 0.966900
vt 8.092000 0.019900
vt 8.110500 0.001500
vt 9.164700 0.019900
vt 9.146200 0.001500
vt 4.029200 0.000400
vt 4.029300 0.013200
vt 2.956500 0.007100
vt 2.956600 0.019900
vt 0.000000 0.033200
vt 0.000000 0.001600
vt 3.686700 1.000600
vt 3.686700 0.971800
vt 2.883200 1.000600
vt 2.883200 0.971800
vt 7.133300 0.019900
vt 7.151700 0.001500
vt 7.612800 0.019900
vt 7.594400 0.001500
vt 4.508700 0.002700
vt 4.508800 0.010100
vt 2.956500 0.035800
vt 2.956500 0.000900
vt 2.513800 0.035400
vt 2.513900 0.000500
vt 6.060600 0.019600
vt 6.079100 0.001100
vt 7.114800 0.001500
vt -0.062400 1.000000
vt -0.104500 0.963000
vt -0.416000 1.000000
vt -0.379000 0.963000
vt -0.379300 0.348400
vt -0.416300 0.000000
vt -0.104500 0.348400
vt -0.062400 0.000000
vt -0.473000 0.952500
vt -0.726400 0.952500
vt -0.425400 1.000000
vt -0.779100 1.000000
vt -0.726400 0.359000
vt -0.779100 0.000000
vt -0.425200 0.000000
vt -0.472700 0.359000
vt -0.266500 0.002600
vt -0.247300 0.043600
vt 0.729200 0.002600
vt 0.710800 0.043700
vt 0.495900 0.000000
vt 1.416200 0.000000
vt 0.495900 1.000000
vt 1.416200 1.000000
vt 0.000000 0.000000
vt 0.000000 1.000000
vt 1.912100 0.000000
vt 1.912100 1.000000
vt 0.989000 0.558600
vt 0.000400 0.558600
vt 0.988600 0.006200
vt 0.000000 0.006200
vt 5.320800 0.025400
vt 6.596900 0.025500
vt 5.320800 0.000200
vt 6.596900 0.000100
vt 1.371100 0.025400
vt 1.994200 0.025400
vt 1.371100 0.000200
vt 1.994200 0.000200
vt 3.609300 0.025400
vt 4.426100 0.025400
vt 3.609300 0.000200
vt 4.426100 0.000200
vt 2.446800 0.025400
vt 3.069900 0.025400
vt 2.446800 0.000200
vt 3.069900 0.000200
vt 0.000000 1.001500
vt 0.000000 0.001500
vt 0.013700 0.983000
vt 0.013700 0.017000
vt 1.000000 1.001500
vt 0.986300 0.983000
vt 1.000000 0.001500
vt 0.986300 0.017000
vt -0.266100 0.400800
vt -0.247300 0.400800
vt 0.729600 0.400900
vt 0.710800 0.400900
vt 0.000000 0.000000
vt 1.000000 0.000000
vt 0.000000 0.082200
vt 1.000000 0.082200
vt 0.000000 0.000000
vt 1.000000 0.000000
vt 0.000000 0.030600
vt 1.000000 0.030600
vt 0.000000 0.000000
vt 1.000000 0.000000
vt 0.000000 0.082200
vt 1.000000 0.082200
vt 0.000000 0.000000
vt 1.000000 0.000000
vt 0.000000 0.030600
vt 1.000000 0.030600
vt 0.000000 0.000200
vt 1.000000 0.000000
vt 0.000000 0.082300
vt 1.000000 0.082100
vt 0.000000 0.000000
vt 1.000000 0.000000
vt 0.000000 0.081100
vt 1.000000 0.081100
vt 0.000000 0.000000
vt 1.000000 0.000000
vt 0.000000 0.082200
vt 1.000000 0.082200
vt 0.000000 0.000000
vt 1.000000 0.000000
vt 0.000000 0.030600
vt 1.000000 0.030600
vt 0.000000 0.000000
vt 1.000000 0.000000
vt 0.000000 0.082200
vt 1.000000 0.082200
vn -0.5772 0.5774 0.5774
vn 0.5773 0.5773 0.5773
vn -0.5773 0.5773 -0.5774
vn 0.5773 0.5773 -0.5774
vn -0.5772 0.5774 0.5773
vn -0.3015 -0.3015 0.9045
vn 0.3015 -0.3016 0.9045
vn 0.3015 0.3015 0.9045
vn -0.3015 0.3016 0.9045
vn 0.3016 -0.3018 -0.9044
vn -0.3016 -0.3016 -0.9044
vn 0.5773 -0.5773 0.5773
vn 0.5773 -0.5773 -0.5773
vn -0.3015 0.3015 0.9045
vn 0.3015 -0.3015 0.9045
vn -0.3017 0.3015 -0.9045
vn -0.5774 -0.5773 0.5773
vn -0.5774 -0.5773 -0.5773
vn -0.5774 -0.5772 0.5773
vn 0.3015 0.3014 0.9046
vn -0.3015 -0.3014 0.9046
vn 0.3017 0.3014 -0.9045
vn 0.5982 0.5332 -0.5981
vn -0.5977 0.5333 -0.5985
vn 0.0844 0.9930 -0.0819
vn -0.0843 0.9930 -0.0820
vn 0.5977 0.5333 0.5985
vn 0.0842 0.9930 0.0820
vn -0.0844 0.9930 0.0819
vn -0.5982 0.5332 0.5981
vn -0.5773 -0.5773 0.5773
vn -0.5773 0.5773 0.5773
vn 0.5776 -0.5770 -0.5774
vn -0.5770 -0.5775 -0.5775
vn -0.5773 -0.5773 -0.5773
vn -0.5773 0.5773 -0.5773
vn 0.5773 0.5773 -0.5773
vn -0.5771 0.5775 -0.5774
vn 0.5776 0.5770 -0.5774
vn -0.5776 0.5772 -0.5772
vn 0.5770 0.5777 -0.5773
vn 0.5771 -0.5776 -0.5773
vn -0.5777 -0.5772 -0.5772
vn 0.5776 -0.5773 -0.5771
vn 0.3015 -0.9046 -0.3012
vn -0.5771 -0.5774 -0.5775
vn -0.3015 -0.9044 -0.3018
vn 0.5771 -0.5774 0.5775
vn 0.3015 -0.9044 0.3018
vn -0.3015 -0.9046 0.3012
vn -0.5776 -0.5773 0.5771
vn -0.3015 -0.9045 0.3015
vn 0.3015 -0.9045 0.3015
vn 0.5772 0.5774 0.5774
vn 0.5772 0.5773 -0.5774
vn 0.5772 0.5774 0.5773
vn -0.3015 -0.3016 0.9045
vn 0.3015 0.3016 0.9045
vn -0.3016 -0.3018 -0.9044
vn 0.3016 -0.3017 -0.9044
vn 0.3017 0.3015 -0.9044
vn 0.5774 -0.5773 0.5773
vn 0.5774 -0.5773 -0.5773
vn 0.5774 -0.5772 0.5773
vn -0.3015 0.3014 0.9046
vn 0.3015 -0.3014 0.9046
vn -0.3017 0.3014 -0.9045
vn -0.5771 -0.5774 -0.5776
usemtl dec
s 1
f 1/1/1 19/2/2 21/3/3
f 21/3/3 19/2/2 23/4/4
f 2/5/2 16/6/5 4/7/6
f 4/7/6 16/6/5 18/8/7
f 5/9/8 20/10/9 2/11/2
f 2/11/2 20/10/9 16/12/5
f 3/13/10 22/14/11 18/15/7
f 18/15/7 22/14/11 4/16/6
f 19/2/2 7/17/12 23/4/4
f 23/4/4 7/17/12 24/18/13
f 6/19/12 2/20/2 11/21/14
f 11/21/14 2/20/2 4/22/6
f 8/23/15 5/24/8 6/25/12
f 6/25/12 5/24/8 2/26/2
f 22/14/11 9/27/16 4/16/6
f 4/16/6 9/27/16 11/28/14
f 7/29/12 12/30/17 24/31/13
f 24/31/13 12/30/17 13/32/18
f 17/33/19 6/34/12 14/35/20
f 14/35/20 6/34/12 11/36/14
f 15/37/21 8/23/15 17/38/19
f 17/38/19 8/23/15 6/25/12
f 9/39/16 10/40/22 11/41/14
f 11/41/14 10/40/22 14/42/20
f 12/30/17 1/1/1 13/32/18
f 13/32/18 1/1/1 21/3/3
f 16/43/5 17/33/19 18/44/7
f 18/44/7 17/33/19 14/45/20
f 20/10/9 15/37/21 16/12/5
f 16/12/5 15/37/21 17/38/19
f 10/40/22 3/13/10 14/42/20
f 14/42/20 3/13/10 18/15/7
f 19/46/2 1/47/1 5/48/8
f 5/48/8 1/47/1 20/49/9
f 20/49/9 1/47/1 15/50/21
f 15/50/21 1/47/1 12/51/17
f 15/50/21 12/51/17 8/52/15
f 8/52/15 12/51/17 7/53/12
f 7/53/12 19/46/2 8/52/15
f 8/52/15 19/46/2 5/48/8
f 3/54/10 21/55/3 22/56/11
f 22/56/11 21/55/3 23/57/4
f 23/57/4 9/58/16 22/56/11
f 24/59/13 9/58/16 23/57/4
f 24/59/13 13/60/18 9/58/16
f 9/58/16 13/60/18 10/61/22
f 13/60/18 21/55/3 10/61/22
f 10/61/22 21/55/3 3/54/10
f 25/62/23 30/63/24 27/64/25
f 27/64/25 30/63/24 26/65/26
f 25/66/23 27/67/25 28/68/27
f 28/68/27 27/67/25 29/69/28
f 26/70/26 30/71/24 31/72/29
f 31/72/29 30/71/24 79/73/30
f 29/74/28 31/75/29 28/76/27
f 28/76/27 31/75/29 79/77/30
f 34/78/31 33/79/12 39/80/32
f 39/80/32 33/79/12 95/81/2
f 32/82/31 97/83/12 100/84/32
f 100/84/32 97/83/12 37/85/2
f 88/86/2 92/87/32 40/88/12
f 40/88/12 92/87/32 41/89/31
f 33/90/12 34/91/31 93/92/33
f 93/92/33 34/91/31 35/93/34
f 97/94/12 32/95/31 36/96/13
f 36/96/13 32/95/31 99/97/35
f 100/98/32 37/99/2 38/100/36
f 38/100/36 37/99/2 98/101/37
f 92/102/32 88/103/2 91/104/38
f 91/104/38 88/103/2 89/105/39
f 39/106/32 95/107/2 94/108/40
f 94/108/40 95/107/2 96/109/41
f 40/110/12 41/111/31 87/112/42
f 87/112/42 41/111/31 90/113/43
f 42/114/44 43/115/45 78/116/46
f 78/116/46 43/115/45 44/117/47
f 80/118/48 81/119/49 42/114/44
f 42/114/44 81/119/49 43/115/45
f 44/117/47 82/120/50 78/116/46
f 78/116/46 82/120/50 45/121/51
f 81/119/49 80/118/48 82/120/50
f 82/120/50 80/118/48 45/121/51
f 49/122/31 50/123/12 46/124/52
f 46/124/52 50/123/12 47/125/53
f 51/126/6 48/127/15 49/128/31
f 49/128/31 48/127/15 50/129/12
f 47/130/53 50/131/12 86/132/12
f 86/132/12 50/131/12 48/133/15
f 46/134/52 85/135/31 49/136/31
f 49/136/31 85/135/31 51/137/6
f 66/138/54 71/139/55 68/140/32
f 71/139/55 52/141/3 68/140/32
f 58/142/32 56/143/15 67/144/56
f 56/143/15 53/145/57 67/144/56
f 69/146/14 58/147/32 54/148/58
f 58/147/32 67/149/56 54/148/58
f 55/150/59 53/151/57 72/152/60
f 53/151/57 56/153/15 72/152/60
f 68/140/32 52/141/3 60/154/31
f 52/141/3 73/155/35 60/154/31
f 62/156/31 63/157/8 58/158/32
f 63/157/8 56/159/15 58/158/32
f 57/160/6 62/161/31 69/162/14
f 62/161/31 58/163/32 69/162/14
f 72/152/60 56/153/15 59/164/61
f 56/153/15 63/165/8 59/164/61
f 60/166/31 73/167/35 65/168/62
f 73/167/35 74/169/63 65/168/62
f 61/170/64 64/171/65 62/172/31
f 64/171/65 63/173/8 62/172/31
f 70/174/66 61/175/64 57/160/6
f 61/175/64 62/161/31 57/160/6
f 59/176/61 63/177/8 75/178/67
f 63/177/8 64/179/65 75/178/67
f 65/168/62 74/169/63 66/138/54
f 74/169/63 71/139/55 66/138/54
f 67/180/56 53/181/57 61/170/64
f 53/181/57 64/182/65 61/170/64
f 54/148/58 67/149/56 70/174/66
f 67/149/56 61/175/64 70/174/66
f 75/178/67 64/179/65 55/150/59
f 64/179/65 53/151/57 55/150/59
f 68/183/32 69/184/14 66/185/54
f 69/184/14 54/186/58 66/185/54
f 54/186/58 70/187/66 66/185/54
f 70/187/66 65/188/62 66/185/54
f 70/187/66 57/189/6 65/188/62
f 57/189/6 60/190/31 65/188/62
f 60/190/31 57/189/6 68/183/32
f 57/189/6 69/184/14 68/183/32
f 55/191/59 72/192/60 71/193/55
f 72/192/60 52/194/3 71/193/55
f 52/194/3 72/192/60 59/195/61
f 73/196/35 52/194/3 59/195/61
f 73/196/35 59/195/61 74/197/63
f 59/195/61 75/198/67 74/197/63
f 74/197/63 75/198/67 71/193/55
f 75/198/67 55/191/59 71/193/55
f 76/199/44 46/200/52 77/201/68
f 77/201/68 46/200/52 47/202/53
f 76/203/44 77/204/68 43/205/45
f 43/205/45 77/204/68 44/206/47
f 84/207/48 76/203/44 81/208/49
f 81/208/49 76/203/44 43/205/45
f 77/204/68 83/209/51 44/206/47
f 44/206/47 83/209/51 82/210/50
f 27/211/25 26/212/26 29/213/28
f 29/213/28 26/212/26 31/214/29
f 42/215/44 78/216/46 25/217/23
f 25/217/23 78/216/46 30/218/24
f 78/219/46 45/220/51 30/221/24
f 30/221/24 45/220/51 79/222/30
f 45/223/51 80/224/48 79/225/30
f 79/225/30 80/224/48 28/226/27
f 80/227/48 42/228/44 28/229/27
f 28/229/27 42/228/44 25/230/23
f 81/231/49 82/232/50 51/233/6
f 51/233/6 82/232/50 48/234/15
f 81/231/49 51/233/6 84/235/48
f 84/235/48 51/233/6 85/236/31
f 82/232/50 83/237/51 48/234/15
f 48/234/15 83/237/51 86/238/12
f 76/199/44 84/239/48 46/200/52
f 46/200/52 84/239/48 85/240/31
f 77/201/68 47/202/53 83/241/51
f 83/241/51 47/202/53 86/242/12
f 40/243/12 87/244/42 88/245/2
f 88/245/2 87/244/42 89/246/39
f 87/247/42 90/248/43 89/249/39
f 89/249/39 90/248/43 91/250/38
f 90/251/43 41/252/31 91/253/38
f 91/253/38 41/252/31 92/254/32
f 93/255/33 35/256/34 96/257/41
f 96/257/41 35/256/34 94/258/40
f 33/259/12 93/260/33 95/261/2
f 95/261/2 93/260/33 96/262/41
f 39/263/32 94/264/40 34/265/31
f 34/265/31 94/264/40 35/266/34
f 97/267/12 36/268/13 37/269/2
f 37/269/2 36/268/13 98/270/37
f 36/271/13 99/272/35 98/273/37
f 98/273/37 99/272/35 38/274/36
f 99/275/35 32/276/31 38/277/36
f 38/277/36 32/276/31 100/278/32
