# Wavefront Obj file
# 
# verts: 40 uv-s: 74
mtllib sklad.mtl

g Cube

v 0.500000 0.000384 0.500000
v 0.500000 2.000384 0.500000
v -0.250000 1.335095 -0.500337
v 0.250000 1.335095 -0.500337
v 0.250000 1.385836 -0.430475
v -0.500000 2.000384 0.500000
v 0.500000 2.000384 -0.500000
v -0.500000 2.000384 -0.500000
v -0.500000 0.000384 -0.500000
v -0.500000 0.000384 0.500000
v 0.500000 0.000384 -0.500000
v 0.250000 1.250384 -0.500000
v -0.250000 1.750384 -0.500000
v -0.250000 1.250384 -0.500000
v 0.250000 1.750384 -0.500000
v -0.250000 1.750384 -0.401201
v -0.250000 1.250384 -0.401201
v 0.250000 1.250384 -0.401201
v 0.250000 1.750384 -0.401201
v -0.250000 1.385837 -0.430476
v -0.250000 1.265234 -0.430476
v 0.250000 1.265234 -0.430475
v -0.250000 1.381706 -0.453726
v 0.250000 1.455698 -0.500337
v -0.250000 1.455698 -0.500337
v 0.250000 1.381706 -0.453726
v -0.250000 1.502309 -0.453726
v 0.250000 1.502309 -0.453726
v 0.250000 1.510235 -0.430475
v -0.250000 1.510235 -0.430476
v 0.250000 1.580096 -0.500337
v -0.250000 1.580096 -0.500337
v -0.250000 1.626707 -0.453726
v 0.250000 1.626707 -0.453726
v 0.250000 1.629884 -0.430475
v -0.250000 1.629884 -0.430476
v 0.250000 1.699745 -0.500337
v -0.250000 1.699745 -0.500337
v -0.250000 1.746356 -0.453726
v 0.250000 1.746356 -0.453726
# 40 positions

vt 0.005000 0.005000
vt 0.492032 0.248516
vt 0.005000 0.248516
vt 0.492032 0.255819
vt 0.005000 0.255819
vt 0.492032 0.499335
vt 0.683302 0.187637
vt 0.744182 0.005000
vt 0.683302 0.065879
vt 0.005000 0.506638
vt 0.248517 0.750154
vt 0.005000 0.750154
vt 0.500666 0.492032
vt 0.561545 0.187637
vt 0.744181 0.500666
vt 0.500666 0.987698
vt 0.500666 0.500666
vt 0.751484 0.005000
vt 0.995000 0.248516
vt 0.995000 0.005000
vt 0.561545 0.065879
vt 0.500666 0.005000
vt 0.005000 0.499335
vt 0.492032 0.005000
vt 0.255819 0.506638
vt 0.377577 0.523650
vt 0.377577 0.506638
vt 0.744181 0.987698
vt 0.385209 0.628396
vt 0.409269 0.506638
vt 0.409269 0.628396
vt 0.377577 0.556575
vt 0.255819 0.532516
vt 0.255819 0.556575
vt 0.377577 0.564366
vt 0.255819 0.588425
vt 0.255819 0.564366
vt 0.441119 0.506638
vt 0.417059 0.628396
vt 0.441119 0.628396
vt 0.448909 0.506638
vt 0.460262 0.628396
vt 0.448909 0.628396
vt 0.255819 0.596216
vt 0.377577 0.613228
vt 0.377577 0.596216
vt 0.468816 0.506638
vt 0.480168 0.628396
vt 0.468816 0.628396
vt 0.255819 0.633444
vt 0.377577 0.650457
vt 0.377577 0.633444
vt 0.255819 0.622094
vt 0.402222 0.636028
vt 0.385209 0.757786
vt 0.402222 0.757786
vt 0.377577 0.669276
vt 0.255819 0.657925
vt 0.255819 0.669276
vt 0.744182 0.492032
vt 0.248517 0.506638
vt 0.751484 0.248516
vt 0.255819 0.523650
vt 0.385209 0.506638
vt 0.377577 0.532516
vt 0.377577 0.588425
vt 0.417059 0.506638
vt 0.460262 0.506638
vt 0.255819 0.613228
vt 0.480168 0.506638
vt 0.255819 0.650457
vt 0.377577 0.622094
vt 0.385209 0.636028
vt 0.377577 0.657925
# 74 texture coordinates

vn 1.000000 0.000000 0.000000
vn -1.000000 0.000000 0.000000
vn 0.000000 0.000000 -1.000000
vn 0.000000 1.000000 0.000000
vn 0.000000 0.000000 1.000000
vn 0.000000 -1.000000 0.000000
vn 0.000001 -0.707109 -0.707105
vn 0.000000 0.707107 -0.707107
# 8 normals

usemtl Material
f 11/1/1 2/2/1 1/3/1
f 10/4/2 6/5/2 9/6/2
f 14/7/3 8/8/3 13/9/3
f 8/10/4 2/11/4 7/12/4
f 11/13/3 14/7/3 12/14/3
f 1/15/5 6/16/5 10/17/5
f 1/18/6 9/19/6 11/20/6
f 15/21/3 8/8/3 7/22/3
f 6/5/2 8/23/2 9/6/2
f 11/1/1 7/24/1 2/2/1
f 4/25/7 21/26/7 3/27/7
f 1/15/5 2/28/5 6/16/5
f 7/22/3 12/14/3 15/21/3
f 12/29/4 17/30/4 18/31/4
f 12/32/2 19/33/2 15/34/2
f 13/35/1 17/36/1 14/37/1
f 15/38/6 16/39/6 13/40/6
f 3/41/8 26/42/8 4/43/8
f 24/44/7 20/45/7 25/46/7
f 25/47/8 28/48/8 24/49/8
f 31/50/7 30/51/7 32/52/7
f 32/52/8 34/53/8 31/50/8
f 37/54/7 36/55/7 38/56/7
f 38/57/8 40/58/8 37/59/8
f 14/7/3 9/60/3 8/8/3
f 8/10/4 6/61/4 2/11/4
f 11/13/3 9/60/3 14/7/3
f 1/18/6 10/62/6 9/19/6
f 15/21/3 13/9/3 8/8/3
f 4/25/7 22/63/7 21/26/7
f 7/22/3 11/13/3 12/14/3
f 12/29/4 14/64/4 17/30/4
f 12/32/2 18/65/2 19/33/2
f 13/35/1 16/66/1 17/36/1
f 15/38/6 19/67/6 16/39/6
f 3/41/8 23/68/8 26/42/8
f 24/44/7 5/69/7 20/45/7
f 25/47/8 27/70/8 28/48/8
f 31/50/7 29/71/7 30/51/7
f 32/52/8 33/72/8 34/53/8
f 37/54/7 35/73/7 36/55/7
f 38/57/8 39/74/8 40/58/8

# 42 faces
