# Blender v2.79 (sub 0) OBJ File: 'osnova.obj.blend'
# www.blender.org
mtllib berill_rightarm.mtl
o rightarm
v -0.244704 0.676681 -0.124207
v -0.499154 0.676681 -0.124207
v -0.499154 0.023959 -0.124207
v -0.244704 0.023959 -0.124207
v -0.499154 0.676681 0.125000
v -0.244704 0.676681 0.125000
v -0.244704 0.023959 0.125000
v -0.499154 0.023959 0.125000
vt 0.293973 0.004868
vt 0.293973 0.281793
vt 0.195535 0.281793
vt 0.195535 0.004868
vt 0.098851 0.005505
vt 0.098851 0.281613
vt 0.000704 0.281613
vt 0.000704 0.005505
vt 0.103883 0.372918
vt 0.191544 0.372918
vt 0.191544 0.283414
vt 0.103883 0.283414
vt 0.389909 0.004822
vt 0.389909 0.282171
vt 0.293352 0.282171
vt 0.293352 0.004822
vt 0.195545 0.004822
vt 0.195545 0.282171
vt 0.098988 0.282171
vt 0.098988 0.004822
vn 0.7071 0.0000 -0.7071
vn 0.5773 -0.5773 -0.5773
vn -0.5773 -0.5773 -0.5773
vn -0.7071 0.0000 -0.7071
vn -0.7071 0.0000 0.7071
vn -0.5773 -0.5773 0.5773
vn 0.5773 -0.5773 0.5773
vn 0.7071 0.0000 0.7071
usemtl rightarm
s 1
f 1/1/1 4/2/2 3/3/3 2/4/4
f 5/5/5 8/6/6 7/7/7 6/8/8
f 4/9/2 7/10/7 8/11/6 3/12/3
f 6/13/8 7/14/7 4/15/2 1/16/1
f 2/17/4 3/18/3 8/19/6 5/20/5
