# Blender v2.79 (sub 0) OBJ File: 'kitchen_krujka.obj'
# www.blender.org
mtllib kitchen_krujka.mtl
o dec
v -0.031316 0.000833 0.052082
v -0.031316 0.147719 0.052082
v -0.006678 0.000833 0.072761
v -0.006678 0.147719 0.072761
v 0.024998 0.147717 0.078346
v 0.075910 0.000827 0.042700
v 0.081489 0.147716 0.011018
v 0.070492 0.000834 -0.019209
v 0.014162 0.000829 -0.045473
v 0.014162 0.147716 -0.045473
v -0.016070 0.016525 -0.034470
v -0.055221 0.043934 -0.067328
v 0.045854 0.000834 -0.039889
v 0.081489 0.000829 0.011018
v 0.024998 0.000830 0.078346
v 0.055231 0.000832 0.067343
v -0.042328 0.000830 0.021855
v -0.036749 0.000832 -0.009827
v -0.027138 0.009263 0.049143
v -0.013141 0.009265 -0.030288
v 0.052287 0.009260 0.063153
v 0.071263 0.009265 0.040537
v 0.076408 0.009260 0.011462
v 0.014601 0.009260 -0.040386
v -0.032117 0.009260 -0.007672
v -0.042328 0.147717 0.021855
v -0.037247 0.150145 0.021403
v -0.027138 0.150143 0.049143
v 0.024559 0.150145 0.073251
v 0.055231 0.147719 0.067343
v 0.075910 0.147714 0.042700
v 0.071263 0.150145 0.040537
v 0.076408 0.150140 0.011462
v 0.070492 0.147721 -0.019209
v 0.045854 0.147721 -0.039889
v -0.036749 0.147719 -0.009827
v -0.032117 0.150141 -0.007672
v -0.037247 0.009265 0.021403
v -0.004541 0.150143 0.068119
v -0.004541 0.009263 0.068119
v 0.024559 0.009265 0.073251
v 0.052287 0.150141 0.063153
v 0.066284 0.150142 -0.016278
v 0.066284 0.009262 -0.016278
v 0.043686 0.150142 -0.035254
v 0.043686 0.009262 -0.035254
v 0.014601 0.150140 -0.040386
v -0.013141 0.150145 -0.030288
v -0.016070 0.147714 -0.034470
v -0.016070 0.000827 -0.034470
v -0.036749 0.016530 -0.009827
v -0.016070 0.128150 -0.034470
v -0.061461 0.016997 -0.030574
v -0.040522 0.021474 -0.013000
v -0.075900 0.043939 -0.042684
v -0.019843 0.021469 -0.037643
v -0.040782 0.016992 -0.055217
v -0.037009 0.021936 -0.052045
v -0.051448 0.101397 -0.064155
v -0.040496 0.128150 -0.054976
v -0.040522 0.123219 -0.013000
v -0.019843 0.123214 -0.037643
v -0.051448 0.045577 -0.064155
v -0.072127 0.101402 -0.039512
v -0.061175 0.128155 -0.030333
v -0.075900 0.103052 -0.042685
v -0.055221 0.103047 -0.067328
v -0.057688 0.021941 -0.027401
v -0.072127 0.045582 -0.039512
v -0.036723 0.123214 -0.051796
v -0.057402 0.123219 -0.027153
v -0.036749 0.128155 -0.009827
vt 0.618700 0.564900
vt 0.618700 0.549300
vt 0.649400 0.549300
vt 0.680100 0.549300
vt 0.649400 0.695700
vt 0.680100 0.695700
vt 0.710800 0.549300
vt 0.710800 0.695700
vt 0.741500 0.549300
vt 0.741500 0.695700
vt 0.772200 0.549300
vt 0.772200 0.695700
vt 0.802900 0.549300
vt 0.802900 0.695700
vt 0.833600 0.549300
vt 0.833600 0.695700
vt 0.864400 0.549300
vt 0.864400 0.695700
vt 0.895100 0.549300
vt 0.895100 0.695700
vt 0.925800 0.549300
vt 0.925800 0.695700
vt 0.956500 0.564900
vt 0.956500 0.676200
vt 0.701200 0.523500
vt 0.701200 0.488400
vt 0.761100 0.523500
vt 0.761100 0.488400
vt 0.594700 0.661900
vt 0.612500 0.631900
vt 0.612500 0.597300
vt 0.594700 0.567400
vt 0.563800 0.550100
vt 0.497200 0.567400
vt 0.528100 0.550100
vt 0.479400 0.597300
vt 0.479400 0.631900
vt 0.497200 0.661900
vt 0.528100 0.679200
vt 0.563800 0.679200
vt 0.484900 0.630500
vt 0.484900 0.598800
vt 0.501200 0.658000
vt 0.562300 0.673900
vt 0.501200 0.571300
vt 0.529600 0.555400
vt 0.562300 0.555400
vt 0.590700 0.571300
vt 0.607000 0.598800
vt 0.607000 0.630500
vt 0.590700 0.658000
vt 0.529600 0.673900
vt 0.618700 0.695700
vt 0.618700 0.698100
vt 0.649400 0.698100
vt 0.680100 0.698100
vt 0.710800 0.698100
vt 0.741500 0.698100
vt 0.772200 0.698100
vt 0.802900 0.698100
vt 0.833600 0.698100
vt 0.864400 0.698100
vt 0.895100 0.698100
vt 0.925800 0.698100
vt 0.956500 0.695700
vt 0.956500 0.698100
vt 0.987200 0.695700
vt 0.987200 0.698100
vt 0.618700 0.557700
vt 0.649400 0.557700
vt 0.680100 0.557700
vt 0.710800 0.557700
vt 0.741500 0.557700
vt 0.772200 0.557700
vt 0.802900 0.557700
vt 0.833600 0.557700
vt 0.864400 0.557700
vt 0.895100 0.557700
vt 0.925800 0.557700
vt 0.956500 0.557700
vt 0.987200 0.557700
vt 0.987200 0.676200
vt 0.956500 0.549300
vt 0.987200 0.549300
vt 0.987200 0.564900
vt 0.631900 0.523700
vt 0.631900 0.488500
vt 0.666000 0.523600
vt 0.666000 0.488400
vt 0.831000 0.488200
vt 0.831000 0.523400
vt 0.796500 0.488300
vt 0.796500 0.523500
vt 0.540000 0.567500
vt 0.540000 0.661300
vt 0.535600 0.571700
vt 0.535600 0.657100
vt 0.512100 0.661300
vt 0.516500 0.657100
vt 0.495400 0.590500
vt 0.499700 0.591900
vt 0.495400 0.640200
vt 0.499700 0.638800
vt 0.511800 0.567900
vt 0.516100 0.572000
vt 0.540000 0.661300
vt 0.540000 0.567500
vt 0.535600 0.657100
vt 0.535600 0.571700
vt 0.511800 0.567900
vt 0.516100 0.572000
vt 0.495400 0.640200
vt 0.499700 0.638800
vt 0.495400 0.590500
vt 0.499700 0.591900
vt 0.512100 0.661300
vt 0.516500 0.657100
vt 0.651300 0.477300
vt 0.674200 0.477200
vt 0.651300 0.441900
vt 0.674200 0.441900
vt 0.746500 0.477100
vt 0.746500 0.441800
vt 0.701900 0.477100
vt 0.701900 0.441800
vt 0.776600 0.477200
vt 0.800000 0.477200
vt 0.800000 0.441700
vt 0.776600 0.441800
vt 0.781400 0.524600
vt 0.680900 0.524700
vt 0.781400 0.488700
vt 0.680900 0.488800
vt 0.618700 0.676200
vn -0.9568 -0.2825 -0.0679
vn -0.6863 -0.6532 -0.3199
vn -0.7541 -0.6533 0.0662
vn -0.6202 -0.6532 0.4343
vn -0.8640 0.4976 0.0758
vn -0.7102 0.4981 0.4974
vn -0.3201 -0.6531 0.6862
vn -0.3664 0.4981 0.7859
vn 0.0660 -0.6532 0.7543
vn 0.0756 0.4980 0.8639
vn 0.4343 -0.6530 0.6203
vn 0.4972 0.4986 0.7100
vn 0.6862 -0.6532 0.3199
vn 0.7859 0.4981 0.3664
vn 0.7542 -0.6533 -0.0661
vn 0.8639 0.4979 -0.0757
vn 0.6203 -0.6532 -0.4342
vn 0.7101 0.4988 -0.4969
vn 0.3201 -0.6531 -0.6863
vn 0.3664 0.4985 -0.7856
vn -0.0660 -0.6533 -0.7542
vn -0.0756 0.4980 -0.8639
vn -0.2330 -0.2829 -0.9304
vn -0.2285 0.2834 -0.9314
vn -0.9689 0.2463 0.0240
vn -0.1438 0.2460 -0.9585
vn -0.9729 -0.2296 0.0257
vn -0.1429 -0.2294 -0.9627
vn -0.4342 -0.6534 -0.6201
vn 0.6201 0.6533 -0.4342
vn 0.3201 0.6532 -0.6861
vn 0.7543 0.6532 -0.0661
vn 0.4343 0.6532 0.6202
vn -0.0660 0.6530 -0.7544
vn -0.4343 0.6532 -0.6201
vn -0.6863 0.6530 -0.3202
vn -0.7544 0.6531 0.0661
vn -0.6200 0.6533 0.4344
vn -0.3201 0.6532 0.6861
vn 0.0660 0.6534 0.7541
vn 0.6860 0.6535 0.3199
vn -0.7859 0.4982 -0.3663
vn 0.3796 0.9080 0.1771
vn 0.4163 0.9084 -0.0366
vn 0.3430 0.9080 -0.2405
vn 0.1767 0.9081 -0.3796
vn -0.0363 0.9082 -0.4170
vn -0.2407 0.9078 -0.3434
vn -0.3797 0.9080 -0.1771
vn -0.4165 0.9084 0.0363
vn -0.3439 0.9075 0.2410
vn -0.1774 0.9079 0.3799
vn 0.0363 0.9081 0.4170
vn -0.4975 0.4975 -0.7106
vn 0.2398 0.9084 0.3424
vn -0.9570 0.2830 -0.0635
vn -0.6643 0.7041 0.2508
vn 0.1327 0.7033 -0.6983
vn 0.1149 -0.6948 -0.7099
vn -0.6791 -0.6951 0.2360
vn -0.8090 0.3012 0.5047
vn -0.8126 -0.3017 0.4986
vn -0.3389 -0.5301 0.7772
vn -0.0642 0.2024 0.9772
vn -0.0784 -0.2137 0.9737
vn -0.3286 0.5173 0.7901
vn 0.3507 -0.3009 -0.8868
vn 0.3578 0.3006 -0.8841
vn 0.7207 0.5183 -0.4604
vn 0.9456 -0.2141 -0.2450
vn 0.9514 0.2029 -0.2318
vn 0.7059 -0.5322 -0.4674
usemtl dec
s 1
f 51/1/1 18/2/2 17/3/3
f 17/3/3 1/4/4 26/5/5
f 26/5/5 1/4/4 2/6/6
f 1/4/4 3/7/7 2/6/6
f 2/6/6 3/7/7 4/8/8
f 3/7/7 15/9/9 4/8/8
f 4/8/8 15/9/9 5/10/10
f 15/9/9 16/11/11 5/10/10
f 5/10/10 16/11/11 30/12/12
f 16/11/11 6/13/13 30/12/12
f 30/12/12 6/13/13 31/14/14
f 6/13/13 14/15/15 31/14/14
f 31/14/14 14/15/15 7/16/16
f 14/15/15 8/17/17 7/16/16
f 7/16/16 8/17/17 34/18/18
f 8/17/17 13/19/19 34/18/18
f 34/18/18 13/19/19 35/20/20
f 13/19/19 9/21/21 35/20/20
f 35/20/20 9/21/21 10/22/22
f 11/23/23 52/24/24 9/21/21
f 9/21/21 52/24/24 10/22/22
f 66/25/25 67/26/26 55/27/27
f 55/27/27 67/26/26 12/28/28
f 9/29/21 13/30/19 8/31/17
f 14/32/15 6/33/13 8/31/17
f 8/31/17 6/33/13 15/34/9
f 6/33/13 16/35/11 15/34/9
f 15/34/9 3/36/7 1/37/4
f 1/37/4 17/38/3 18/39/2
f 1/37/4 18/39/2 15/34/9
f 15/34/9 18/39/2 8/31/17
f 8/31/17 18/39/2 9/29/21
f 9/29/21 18/39/2 50/40/29
f 19/41/30 40/42/31 38/43/32
f 38/43/32 40/42/31 20/44/33
f 40/42/31 41/45/34 21/46/35
f 21/46/35 22/47/36 23/48/37
f 21/46/35 23/48/37 40/42/31
f 40/42/31 23/48/37 20/44/33
f 44/49/38 46/50/39 23/48/37
f 23/48/37 46/50/39 20/44/33
f 46/50/39 24/51/40 20/44/33
f 25/52/41 38/43/32 20/44/33
f 36/53/42 26/5/5 37/54/43
f 37/54/43 26/5/5 27/55/44
f 26/5/5 2/6/6 28/56/45
f 28/56/45 27/55/44 26/5/5
f 4/8/8 39/57/46 2/6/6
f 2/6/6 39/57/46 28/56/45
f 4/8/8 5/10/10 29/58/47
f 29/58/47 39/57/46 4/8/8
f 5/10/10 30/12/12 42/59/48
f 42/59/48 29/58/47 5/10/10
f 30/12/12 31/14/14 42/59/48
f 42/59/48 31/14/14 32/60/49
f 31/14/14 7/16/16 33/61/50
f 33/61/50 32/60/49 31/14/14
f 7/16/16 34/18/18 43/62/51
f 43/62/51 33/61/50 7/16/16
f 34/18/18 35/20/20 43/62/51
f 43/62/51 35/20/20 45/63/52
f 35/20/20 10/22/22 47/64/53
f 47/64/53 45/63/52 35/20/20
f 10/22/22 49/65/54 48/66/55
f 48/66/55 47/64/53 10/22/22
f 49/65/54 36/67/42 48/66/55
f 48/66/55 36/67/42 37/68/43
f 37/54/43 27/55/44 25/69/41
f 25/69/41 27/55/44 38/70/32
f 27/55/44 28/56/45 38/70/32
f 38/70/32 28/56/45 19/71/30
f 28/56/45 39/57/46 19/71/30
f 19/71/30 39/57/46 40/72/31
f 39/57/46 29/58/47 40/72/31
f 40/72/31 29/58/47 41/73/34
f 29/58/47 42/59/48 41/73/34
f 41/73/34 42/59/48 21/74/35
f 42/59/48 32/60/49 21/74/35
f 21/74/35 32/60/49 22/75/36
f 32/60/49 33/61/50 22/75/36
f 22/75/36 33/61/50 23/76/37
f 33/61/50 43/62/51 23/76/37
f 23/76/37 43/62/51 44/77/38
f 43/62/51 45/63/52 44/77/38
f 44/77/38 45/63/52 46/78/39
f 45/63/52 47/64/53 46/78/39
f 46/78/39 47/64/53 24/79/40
f 47/64/53 48/66/55 24/79/40
f 24/79/40 48/66/55 20/80/33
f 48/66/55 37/68/43 20/80/33
f 20/80/33 37/68/43 25/81/41
f 36/67/42 49/65/54 72/82/56
f 72/82/56 49/65/54 52/24/24
f 50/83/29 18/84/2 11/23/23
f 11/23/23 18/84/2 51/85/1
f 72/86/56 52/87/24 65/88/57
f 65/88/57 52/87/24 60/89/58
f 11/90/23 51/91/1 57/92/59
f 57/92/59 51/91/1 53/93/60
f 51/94/1 72/95/56 54/96/61
f 54/96/61 72/95/56 61/97/62
f 72/95/56 65/98/57 61/97/62
f 61/97/62 65/98/57 71/99/63
f 55/100/27 69/101/64 66/102/25
f 66/102/25 69/101/64 64/103/65
f 51/94/1 54/96/61 53/104/60
f 53/104/60 54/96/61 68/105/66
f 52/106/24 11/107/23 62/108/67
f 62/108/67 11/107/23 56/109/68
f 11/107/23 57/110/59 56/109/68
f 56/109/68 57/110/59 58/111/69
f 67/112/26 59/113/70 12/114/28
f 12/114/28 59/113/70 63/115/71
f 60/116/58 52/106/24 70/117/72
f 70/117/72 52/106/24 62/108/67
f 61/118/62 71/119/63 62/120/67
f 62/120/67 71/119/63 70/121/72
f 69/122/64 63/123/71 64/124/65
f 64/124/65 63/123/71 59/125/70
f 68/126/66 54/127/61 56/128/68
f 56/128/68 58/129/69 68/126/66
f 54/130/61 61/131/62 56/132/68
f 56/132/68 61/131/62 62/133/67
f 65/88/57 60/89/58 66/25/25
f 66/25/25 60/89/58 67/26/26
f 57/92/59 53/93/60 12/28/28
f 12/28/28 53/93/60 55/27/27
f 55/100/27 53/104/60 69/101/64
f 69/101/64 53/104/60 68/105/66
f 71/99/63 65/98/57 64/103/65
f 64/103/65 65/98/57 66/102/25
f 67/112/26 60/116/58 59/113/70
f 59/113/70 60/116/58 70/117/72
f 58/111/69 57/110/59 63/115/71
f 63/115/71 57/110/59 12/114/28
f 68/126/66 58/129/69 69/122/64
f 69/122/64 58/129/69 63/123/71
f 70/121/72 71/119/63 64/124/65
f 64/124/65 59/125/70 70/121/72
f 52/24/24 49/65/54 10/22/22
f 9/21/21 50/83/29 11/23/23
f 26/5/5 36/53/42 72/134/56
f 26/5/5 72/134/56 17/3/3
f 51/1/1 17/3/3 72/134/56
