# Blender v2.79 (sub 0) OBJ File: 'divan.obj'
# www.blender.org
mtllib divan.mtl
o default
v 1.040793 1.064373 -0.481089
v -1.039907 1.019273 -0.515189
v -1.032107 1.064373 -0.481089
v 1.048593 1.019273 -0.515189
v -1.052007 0.993273 -0.269189
v 1.040693 1.083873 -0.342489
v -1.032007 1.083873 -0.342489
v 1.060693 0.993173 -0.269189
v 1.060893 0.172173 -0.182989
v -1.052207 0.149173 -0.382789
v 1.060893 0.149173 -0.382789
v -1.052207 0.172173 -0.182989
v 1.060893 0.847473 -0.228489
v -1.052207 0.321973 -0.162989
v 1.060893 0.321973 -0.162989
v -1.052207 0.847473 -0.228489
v -1.045707 0.989573 -0.510989
v 1.054293 0.989573 -0.510989
v -1.069907 0.992773 -0.487789
v -1.056207 1.042573 -0.468189
v -1.064107 1.012973 -0.490589
v -1.075607 0.982273 -0.290489
v -1.055907 1.058873 -0.352389
v -1.075407 0.842873 -0.251589
v -1.075407 0.322073 -0.186689
v -1.075807 0.202873 -0.376689
v -1.075407 0.174673 -0.366789
v -1.075107 0.193373 -0.203789
v -1.045707 0.227073 -0.403789
v 1.054293 0.226973 -0.403789
v 1.084093 0.174673 -0.366789
v 1.084093 0.322073 -0.186689
v 1.083693 0.193373 -0.203789
v 1.084493 0.202873 -0.376689
v 1.084293 0.982273 -0.290489
v 1.064893 1.042573 -0.468189
v 1.064593 1.058873 -0.352389
v 1.078593 0.992773 -0.487789
v 1.072793 1.012973 -0.490589
v 1.084093 0.842873 -0.251589
v -1.055707 0.191973 0.625211
v -1.063707 0.151973 0.585211
v 1.064293 0.191973 0.625211
v 1.072293 0.151973 0.585211
v -1.075707 0.171473 -0.174789
v 1.084293 0.151973 -0.124789
v -1.075707 0.151973 -0.124789
v 1.084293 0.171473 -0.174789
v 1.054293 0.151973 0.555211
v -1.045707 0.151973 0.555211
v -1.045707 0.151973 -0.094789
v 1.054293 0.151973 -0.094789
v 1.084293 0.411973 -0.034789
v 1.084293 0.322573 -0.154789
v 1.084293 0.411973 0.375211
v 1.078293 0.151973 0.555211
v 1.084293 0.151973 -0.094789
v 1.084293 0.391973 0.525211
v 1.064293 0.331973 0.625211
v -1.075707 0.322573 -0.154789
v -1.075707 0.411973 -0.034789
v -1.075707 0.411973 0.375211
v -1.069707 0.151973 0.555211
v -1.075707 0.151973 -0.094789
v -1.075707 0.391973 0.525211
v -1.055707 0.331973 0.625211
v -0.775707 0.390173 0.525211
v -0.775707 0.331273 0.625211
v 0.804293 0.391973 0.525211
v 0.804293 0.331973 0.625211
v 0.284293 0.373873 0.525211
v 0.284293 0.323973 0.625211
v -0.355707 0.338973 0.525211
v -0.075707 0.331973 0.625211
v -0.075707 0.390173 0.525211
v -0.355707 0.288573 0.625211
v 0.804293 0.378873 -0.034789
v 0.804293 0.411673 0.375211
v -0.775707 0.409573 0.375211
v -0.775707 0.385373 -0.034789
v 0.284293 0.411673 -0.034789
v 0.284293 0.386973 0.375211
v -0.355707 0.408573 -0.034789
v -0.075707 0.393473 0.375211
v -0.075707 0.394873 -0.034789
v -0.355707 0.373873 0.375211
v 1.084293 -0.119927 0.547011
v 1.082293 -0.121927 0.547011
v 1.106293 -0.121927 0.547011
v 1.104293 -0.119927 0.547011
v 1.104293 -0.096927 0.547011
v 1.106293 -0.096927 0.547011
v 1.082293 -0.096927 0.547011
v 1.084293 -0.096927 0.547011
v 1.106293 -0.121927 -0.452989
v 1.082293 -0.121927 -0.452989
v 1.084293 -0.096927 -0.452989
v 1.082293 -0.096927 -0.452989
v 1.104293 -0.096927 -0.452989
v 1.106293 -0.096927 -0.452989
v 1.084293 -0.119927 -0.452989
v 1.104293 -0.119927 -0.452989
v 1.084293 0.618073 0.547011
v 1.104293 0.618073 0.547011
v 1.104293 0.618073 -0.452989
v 1.084293 0.618073 -0.452989
v -1.097707 -0.121927 0.547011
v -1.073707 -0.121927 0.547011
v -1.075707 -0.119927 0.547011
v -1.095707 -0.119927 0.547011
v -1.097707 -0.096927 0.547011
v -1.095707 -0.096927 0.547011
v -1.075707 -0.096927 0.547011
v -1.073707 -0.096927 0.547011
v -1.097707 -0.121927 -0.452989
v -1.073707 -0.121927 -0.452989
v -1.075707 -0.096927 -0.452989
v -1.073707 -0.096927 -0.452989
v -1.095707 -0.096927 -0.452989
v -1.097707 -0.096927 -0.452989
v -1.075707 -0.119927 -0.452989
v -1.095707 -0.119927 -0.452989
v -1.075707 0.618073 0.547011
v -1.095707 0.618073 0.547011
v -1.095707 0.618073 -0.452989
v -1.075707 0.618073 -0.452989
v 1.034193 0.246673 -0.387489
v -1.025507 0.974773 -0.492589
v 1.034193 0.974773 -0.492589
v -1.025507 0.246673 -0.387489
vt 0.932068 0.512059
vt 0.009319 0.532060
vt 0.012778 0.512059
vt 0.935527 0.532060
vt 0.003953 0.543590
vt 0.932023 0.503411
vt 0.012823 0.503411
vt 0.940893 0.543635
vt 0.929871 0.508499
vt 0.929916 0.569661
vt 0.015170 0.569661
vt 0.015214 0.508499
vt 0.940982 0.907732
vt 0.003865 0.917932
vt 0.940982 0.917932
vt 0.003865 0.907732
vt 0.940982 0.608250
vt 0.003865 0.841298
vt 0.940982 0.841298
vt 0.003865 0.608250
vt 0.006747 0.545231
vt 0.938055 0.545231
vt 0.987691 0.545931
vt 0.978897 0.523587
vt 0.988947 0.536868
vt 0.899168 0.550642
vt 0.926941 0.516274
vt 0.881714 0.613187
vt 0.852596 0.846856
vt 0.937843 0.900338
vt 0.933402 0.912990
vt 0.860268 0.904600
vt 0.998100 0.547367
vt 0.999985 0.534041
vt 0.984685 0.513806
vt 0.889611 0.545707
vt 0.922499 0.505057
vt 0.940580 0.924431
vt 0.850936 0.914112
vt 0.841962 0.846901
vt 0.871350 0.611123
vt 0.950003 0.889480
vt 0.006747 0.883385
vt -0.003985 0.543812
vt -0.001413 0.534854
vt 0.938055 0.883429
vt 0.933402 0.912990
vt 0.852596 0.846856
vt 0.860268 0.904600
vt 0.937844 0.900338
vt 0.899168 0.550642
vt 0.978897 0.523587
vt 0.926941 0.516274
vt 0.987691 0.545931
vt 0.988947 0.536868
vt 0.881714 0.613187
vt 0.998100 0.547367
vt 0.999985 0.534041
vt 0.984685 0.513806
vt 0.889611 0.545751
vt 0.922499 0.505057
vt 0.940581 0.924431
vt 0.850936 0.914112
vt 0.841962 0.846901
vt 0.871350 0.611123
vt 0.950003 0.889525
vt 0.946259 0.534854
vt 0.948831 0.543812
vt 0.011252 0.612269
vt 0.007977 0.595895
vt 0.879052 0.612269
vt 0.882327 0.595895
vt 0.004307 0.997900
vt 0.886646 0.977476
vt 0.004307 0.977476
vt 0.886646 0.997900
vt 0.009209 0.687448
vt 0.874391 0.699702
vt 0.881744 0.687448
vt 0.016562 0.699702
vt 0.016562 0.965221
vt 0.874391 0.965221
vt 0.887793 0.939091
vt 0.986631 0.996626
vt 0.924533 0.988407
vt 0.887793 0.770594
vt 0.994645 0.684290
vt 0.994645 0.696619
vt 0.978206 0.667851
vt 0.886646 0.965221
vt 0.994644 0.963749
vt 0.896012 0.708948
vt 0.920670 0.667851
vt 0.884194 0.699702
vt 0.924533 0.988407
vt 0.986631 0.996626
vt 0.887793 0.939091
vt 0.887793 0.770594
vt 0.978206 0.667851
vt 0.994645 0.696619
vt 0.994645 0.684290
vt 0.004307 0.965221
vt 0.994645 0.963749
vt 0.896012 0.708948
vt 0.920670 0.667851
vt 0.006758 0.699702
vt 0.004307 0.711957
vt 0.012477 0.671108
vt 0.126854 0.711957
vt 0.126854 0.671108
vt 0.772268 0.711957
vt 0.878476 0.671108
vt 0.886646 0.711957
vt 0.772268 0.671108
vt 0.559854 0.711957
vt 0.559854 0.671108
vt 0.298420 0.711957
vt 0.412797 0.671108
vt 0.412797 0.711957
vt 0.298420 0.671108
vt 0.886646 0.940711
vt 0.772268 0.940711
vt 0.886646 0.773231
vt 0.772268 0.773231
vt 0.004307 0.773231
vt 0.126854 0.773231
vt 0.004307 0.940711
vt 0.126854 0.940711
vt 0.559854 0.940711
vt 0.559854 0.773231
vt 0.298420 0.940711
vt 0.412797 0.773231
vt 0.412797 0.940711
vt 0.298420 0.773231
vt 0.004307 0.989730
vt 0.886646 0.989730
vt 0.011252 0.669576
vt 0.125867 0.669290
vt 0.772624 0.669576
vt 0.879052 0.669576
vt 0.559767 0.666302
vt 0.297790 0.651811
vt 0.012477 0.671108
vt 0.412405 0.669576
vt 0.003259 0.001183
vt 0.003259 -0.000147
vt 0.003259 -0.000147
vt 0.003259 0.001183
vt 0.003259 0.016474
vt 0.003259 0.016474
vt 0.003259 0.016474
vt 0.003259 0.016474
vt 0.999042 -0.000147
vt 0.999042 -0.000147
vt 0.999042 0.016474
vt 0.999042 0.016474
vt 0.999042 0.016474
vt 0.999042 0.016474
vt 0.999042 0.001183
vt 0.999042 0.001183
vt 0.003259 0.491841
vt 0.003259 0.491841
vt 0.999042 0.491842
vt 0.999042 0.491842
vt 0.003259 -0.000147
vt 0.003259 -0.000147
vt 0.003259 0.001183
vt 0.003259 0.001183
vt 0.003259 0.016474
vt 0.003259 0.016474
vt 0.003259 0.016474
vt 0.003259 0.016474
vt 0.999042 -0.000147
vt 0.999042 -0.000147
vt 0.999042 0.016474
vt 0.999042 0.016474
vt 0.999042 0.016474
vt 0.999042 0.016474
vt 0.999042 0.001183
vt 0.999042 0.001183
vt 0.003259 0.491841
vt 0.003259 0.491841
vt 0.999042 0.491842
vt 0.999042 0.491842
vt 0.929141 0.874692
vt 0.015705 0.551795
vt 0.929141 0.551795
vt 0.015705 0.874692
vn 0.3442 0.8207 -0.4561
vn -0.3554 0.2787 -0.8922
vn -0.3442 0.8207 -0.4561
vn 0.3558 0.2783 -0.8922
vn -0.3880 0.4533 0.8024
vn 0.3505 0.8786 0.3244
vn -0.3505 0.8787 0.3241
vn 0.3876 0.4531 0.8027
vn 0.3849 -0.6587 0.6465
vn -0.3793 -0.7661 -0.5188
vn 0.3893 -0.7584 -0.5227
vn -0.3842 -0.6588 0.6468
vn 0.3797 0.1819 0.9071
vn -0.3767 -0.0040 0.9263
vn 0.3767 -0.0040 0.9263
vn -0.3797 0.1819 0.9071
vn -0.3591 -0.2132 -0.9086
vn 0.3577 -0.2135 -0.9091
vn -0.7565 0.0343 -0.6531
vn -0.8423 0.5048 -0.1890
vn -0.8659 0.2604 -0.4270
vn -0.9086 0.2523 0.3330
vn -0.8511 0.5116 0.1183
vn -0.9239 0.0753 0.3751
vn -0.9157 -0.0004 0.4020
vn -0.8902 -0.0967 -0.4452
vn -0.9006 -0.3723 -0.2246
vn -0.9014 -0.3093 0.3030
vn -0.2066 -0.0584 -0.9767
vn 0.2094 -0.0645 -0.9757
vn 0.8919 -0.3597 -0.2742
vn 0.9157 -0.0005 0.4019
vn 0.9018 -0.3089 0.3023
vn 0.8648 -0.1454 -0.4806
vn 0.9083 0.2527 0.3333
vn 0.8423 0.5048 -0.1890
vn 0.8510 0.5116 0.1185
vn 0.7565 0.0343 -0.6531
vn 0.8658 0.2600 -0.4275
vn 0.9239 0.0753 0.3751
vn -0.5538 -0.2912 0.7801
vn -0.5934 -0.7109 0.3774
vn 0.5538 -0.2912 0.7801
vn 0.5934 -0.7109 0.3774
vn -0.5910 -0.4103 -0.6945
vn 0.6678 -0.7315 -0.1376
vn -0.6678 -0.7315 -0.1376
vn 0.5910 -0.4103 -0.6945
vn 0.0000 -1.0000 0.0000
vn 0.6002 0.7610 -0.2463
vn 0.6183 0.4162 -0.6667
vn 0.6900 0.7231 0.0335
vn 0.7197 -0.6899 0.0787
vn 0.7072 -0.7070 0.0010
vn 0.6808 0.6787 0.2753
vn 0.5366 0.3884 0.7492
vn -0.6207 0.4108 -0.6678
vn -0.6167 0.7442 -0.2567
vn -0.6954 0.7168 0.0508
vn -0.7197 -0.6899 0.0787
vn -0.7072 -0.7070 0.0010
vn -0.6790 0.6804 0.2757
vn -0.5355 0.3900 0.7491
vn 0.0563 0.9457 0.3200
vn 0.0268 0.5074 0.8613
vn -0.0191 0.9449 0.3267
vn -0.0080 0.4967 0.8679
vn 0.0038 0.9624 0.2715
vn 0.0065 0.5187 0.8549
vn -0.0298 0.9389 0.3428
vn -0.0411 0.5209 0.8526
vn -0.0481 0.9592 0.2786
vn -0.0151 0.8695 -0.4937
vn 0.0160 0.9778 -0.2089
vn -0.0081 0.9992 0.0403
vn 0.0613 0.9969 0.0490
vn 0.0089 0.9764 -0.2157
vn -0.0278 0.9307 -0.3646
vn -0.0195 0.9975 0.0679
vn 0.0019 0.9396 -0.3423
vn -0.0095 0.9995 0.0294
vn 0.0084 0.9619 -0.2734
vn -0.0294 0.9920 0.1229
vn -0.0000 0.0000 1.0000
vn -0.5774 -0.5773 0.5773
vn 0.5774 -0.5773 0.5773
vn 0.3015 0.3015 0.9045
vn 0.5773 0.5774 0.5773
vn -0.5773 0.5774 0.5773
vn -0.3015 0.3015 0.9045
vn 0.5774 -0.5773 -0.5773
vn -0.5774 -0.5773 -0.5773
vn -0.3015 0.3015 -0.9045
vn -0.5774 0.5773 -0.5773
vn 0.3015 0.3015 -0.9045
vn 0.5774 0.5774 -0.5773
vn -0.0000 0.0000 -1.0000
vn -0.5774 0.5773 0.5774
vn 0.5774 0.5774 0.5774
vn 0.5774 0.5773 -0.5774
vn -0.5774 0.5774 -0.5774
vn 0.5774 0.5773 0.5774
vn -0.5774 0.5774 0.5774
vn -0.5774 0.5773 -0.5774
vn 0.5774 0.5774 -0.5774
vn -0.2849 0.1915 -0.9392
vn 0.2522 -0.4198 -0.8719
vn -0.2545 -0.4187 -0.8717
vn 0.2824 0.1935 -0.9396
usemtl divan
s 1
f 1/1/1 2/2/2 3/3/3
f 2/2/2 1/1/1 4/4/4
f 5/5/5 6/6/6 7/7/7
f 6/6/6 5/5/5 8/8/8
f 6/9/6 1/10/1 3/11/3
f 6/9/6 3/11/3 7/12/7
f 9/13/9 10/14/10 11/15/11
f 10/14/10 9/13/9 12/16/12
f 13/17/13 14/18/14 15/19/15
f 14/18/14 13/17/13 16/20/16
f 8/8/8 16/20/16 13/17/13
f 16/20/16 8/8/8 5/5/5
f 4/4/4 17/21/17 2/2/2
f 4/4/4 18/22/18 17/21/17
f 19/23/19 20/24/20 21/25/21
f 20/24/20 22/26/22 23/27/23
f 19/23/19 22/26/22 20/24/20
f 19/23/19 24/28/24 22/26/22
f 19/23/19 25/29/25 24/28/24
f 26/30/26 25/29/25 19/23/19
f 25/29/25 27/31/27 28/32/28
f 26/30/26 27/31/27 25/29/25
f 9/13/9 14/18/14 12/16/12
f 14/18/14 9/13/9 15/19/15
f 17/33/17 21/25/21 2/34/2
f 3/35/3 21/25/21 20/24/20
f 21/25/21 3/35/3 2/34/2
f 5/36/5 23/27/23 22/26/22
f 23/27/23 5/36/5 7/37/7
f 7/37/7 20/24/20 23/27/23
f 20/24/20 7/37/7 3/35/3
f 10/38/10 28/32/28 27/31/27
f 28/32/28 10/38/10 12/39/12
f 14/40/14 24/28/24 25/29/25
f 24/28/24 14/40/14 16/41/16
f 16/41/16 22/26/22 24/28/24
f 22/26/22 16/41/16 5/36/5
f 25/29/25 12/39/12 14/40/14
f 12/39/12 25/29/25 28/32/28
f 29/42/29 21/25/21 17/33/17
f 29/43/29 19/44/19 21/45/21
f 29/42/29 26/30/26 19/23/19
f 29/43/29 11/15/11 10/14/10
f 11/15/11 29/43/29 30/46/30
f 26/30/26 10/38/10 27/31/27
f 10/38/10 26/30/26 29/42/29
f 31/47/31 32/48/32 33/49/33
f 34/50/34 32/48/32 31/47/31
f 35/51/35 36/52/36 37/53/37
f 36/52/36 38/54/38 39/55/39
f 35/51/35 38/54/38 36/52/36
f 40/56/40 38/54/38 35/51/35
f 32/48/32 38/54/38 40/56/40
f 34/50/34 38/54/38 32/48/32
f 18/57/18 4/58/4 39/55/39
f 1/59/1 39/55/39 4/58/4
f 39/55/39 1/59/1 36/52/36
f 8/60/8 37/53/37 6/61/6
f 37/53/37 8/60/8 35/51/35
f 36/52/36 1/59/1 6/61/6
f 36/52/36 6/61/6 37/53/37
f 11/62/11 33/49/33 9/63/9
f 33/49/33 11/62/11 31/47/31
f 15/64/15 40/56/40 13/65/13
f 40/56/40 15/64/15 32/48/32
f 13/65/13 35/51/35 8/60/8
f 35/51/35 13/65/13 40/56/40
f 32/48/32 9/63/9 33/49/33
f 9/63/9 32/48/32 15/64/15
f 30/66/30 38/54/38 34/50/34
f 30/46/30 39/67/39 38/68/38
f 30/66/30 18/57/18 39/55/39
f 31/47/31 30/66/30 34/50/34
f 30/66/30 31/47/31 11/62/11
f 41/69/41 42/70/42 43/71/43
f 42/70/42 44/72/44 43/71/43
f 45/73/45 46/74/46 47/75/47
f 48/76/48 46/74/46 45/73/45
f 42/77/42 49/78/49 44/79/44
f 42/77/42 50/80/49 49/78/49
f 51/81/49 47/75/47 46/74/46
f 51/81/49 46/74/46 52/82/49
f 53/83/50 48/84/48 54/85/51
f 55/86/52 48/84/48 53/83/50
f 44/87/44 56/88/53 43/89/43
f 57/90/54 46/74/46 48/76/48
f 55/86/52 57/91/54 48/84/48
f 56/88/53 57/91/54 55/86/52
f 58/92/55 56/88/53 55/86/52
f 43/89/43 56/88/53 58/92/55
f 59/93/56 43/89/43 58/92/55
f 56/94/53 52/82/49 57/90/54
f 49/78/49 52/82/49 56/94/53
f 44/79/44 49/78/49 56/94/53
f 52/82/49 46/74/46 57/90/54
f 60/95/57 45/96/45 61/97/58
f 61/97/58 45/96/45 62/98/59
f 41/99/41 63/100/60 42/101/42
f 45/73/45 47/75/47 64/102/61
f 45/96/45 64/103/61 62/98/59
f 62/98/59 64/103/61 63/100/60
f 62/98/59 63/100/60 65/104/62
f 65/104/62 63/100/60 41/99/41
f 65/104/62 41/99/41 66/105/63
f 64/102/61 51/81/49 63/106/60
f 63/106/60 51/81/49 50/80/49
f 63/106/60 50/80/49 42/77/42
f 64/102/61 47/75/47 51/81/49
f 65/107/62 66/108/63 67/109/64
f 66/108/63 68/110/65 67/109/64
f 69/111/66 59/112/56 58/113/55
f 69/111/66 70/114/67 59/112/56
f 71/115/68 70/114/67 69/111/66
f 71/115/68 72/116/69 70/114/67
f 73/117/70 74/118/71 75/119/72
f 73/117/70 76/120/73 74/118/71
f 74/118/71 72/116/69 75/119/72
f 75/119/72 72/116/69 71/115/68
f 67/109/64 76/120/73 73/117/70
f 68/110/65 76/120/73 67/109/64
f 53/121/50 77/122/74 55/123/52
f 55/123/52 77/122/74 78/124/75
f 62/125/59 79/126/76 61/127/58
f 79/126/76 80/128/77 61/127/58
f 78/124/75 77/122/74 81/129/78
f 81/129/78 82/130/79 78/124/75
f 83/131/80 84/132/81 85/133/82
f 83/131/80 86/134/83 84/132/81
f 84/132/81 82/130/79 85/133/82
f 85/133/82 82/130/79 81/129/78
f 80/128/77 86/134/83 83/131/80
f 79/126/76 86/134/83 80/128/77
f 78/124/75 58/113/55 55/123/52
f 78/124/75 69/111/66 58/113/55
f 65/107/62 67/109/64 62/125/59
f 62/125/59 67/109/64 79/126/76
f 78/124/75 82/130/79 69/111/66
f 82/130/79 71/115/68 69/111/66
f 84/132/81 86/134/83 75/119/72
f 86/134/83 73/117/70 75/119/72
f 75/119/72 71/115/68 84/132/81
f 84/132/81 71/115/68 82/130/79
f 79/126/76 73/117/70 86/134/83
f 67/109/64 73/117/70 79/126/76
f 80/128/77 60/135/57 61/127/58
f 53/121/50 54/136/51 77/122/74
f 77/122/74 54/136/51 81/129/78
f 83/131/80 60/135/57 80/128/77
f 85/133/82 60/135/57 83/131/80
f 85/133/82 54/136/51 60/135/57
f 81/129/78 54/136/51 85/133/82
f 66/137/63 41/69/41 68/138/65
f 70/139/67 43/71/43 59/140/56
f 72/141/69 43/71/43 70/139/67
f 68/138/65 41/69/41 76/142/73
f 76/120/73 41/143/41 74/118/71
f 74/144/71 43/71/43 72/141/69
f 41/69/41 43/71/43 74/144/71
f 54/136/51 45/73/45 60/135/57
f 45/73/45 54/136/51 48/76/48
f 50/80/49 51/81/49 52/82/49
f 50/80/49 52/82/49 49/78/49
f 87/145/84 88/146/85 89/147/86
f 87/145/84 89/147/86 90/148/84
f 91/149/87 90/148/84 92/150/88
f 90/148/84 89/147/86 92/150/88
f 93/151/89 88/146/85 87/145/84
f 93/151/89 87/145/84 94/152/90
f 95/153/91 88/146/85 96/154/92
f 88/146/85 95/153/91 89/147/86
f 94/152/90 97/155/93 93/151/89
f 97/155/93 98/156/94 93/151/89
f 92/150/88 99/157/95 91/149/87
f 100/158/96 99/157/95 92/150/88
f 95/153/91 96/154/92 101/159/97
f 102/160/97 95/153/91 101/159/97
f 100/158/96 95/153/91 102/160/97
f 100/158/96 102/160/97 99/157/95
f 97/155/93 101/159/97 98/156/94
f 101/159/97 96/154/92 98/156/94
f 98/156/94 96/154/92 93/151/89
f 93/151/89 96/154/92 88/146/85
f 92/150/88 95/153/91 100/158/96
f 89/147/86 95/153/91 92/150/88
f 103/161/98 94/152/90 91/149/87
f 103/161/98 91/149/87 104/162/99
f 94/152/90 87/145/84 90/148/84
f 94/152/90 90/148/84 91/149/87
f 104/162/99 105/163/100 103/161/98
f 105/163/100 106/164/101 103/161/98
f 99/157/95 97/155/93 106/164/101
f 105/163/100 99/157/95 106/164/101
f 102/160/97 101/159/97 97/155/93
f 99/157/95 102/160/97 97/155/93
f 103/161/98 97/155/93 94/152/90
f 97/155/93 103/161/98 106/164/101
f 99/157/95 104/162/99 91/149/87
f 104/162/99 99/157/95 105/163/100
f 107/165/85 108/166/86 109/167/84
f 110/168/84 107/165/85 109/167/84
f 111/169/89 107/165/85 110/168/84
f 111/169/89 110/168/84 112/170/90
f 113/171/87 109/167/84 114/172/88
f 109/167/84 108/166/86 114/172/88
f 108/166/86 115/173/92 116/174/91
f 115/173/92 108/166/86 107/165/85
f 114/172/88 117/175/95 113/171/87
f 114/172/88 118/176/96 117/175/95
f 112/170/90 119/177/93 111/169/89
f 111/169/89 119/177/93 120/178/94
f 121/179/97 116/174/91 115/173/92
f 121/179/97 115/173/92 122/180/97
f 119/177/93 122/180/97 120/178/94
f 122/180/97 115/173/92 120/178/94
f 118/176/96 116/174/91 121/179/97
f 118/176/96 121/179/97 117/175/95
f 114/172/88 116/174/91 118/176/96
f 108/166/86 116/174/91 114/172/88
f 120/178/94 115/173/92 111/169/89
f 111/169/89 115/173/92 107/165/85
f 112/170/90 113/171/87 123/181/102
f 124/182/103 112/170/90 123/181/102
f 110/168/84 109/167/84 113/171/87
f 112/170/90 110/168/84 113/171/87
f 123/181/102 125/183/104 124/182/103
f 123/181/102 126/184/105 125/183/104
f 126/184/105 117/175/95 119/177/93
f 126/184/105 119/177/93 125/183/104
f 117/175/95 121/179/97 122/180/97
f 117/175/95 122/180/97 119/177/93
f 117/175/95 123/181/102 113/171/87
f 123/181/102 117/175/95 126/184/105
f 124/182/103 119/177/93 112/170/90
f 119/177/93 124/182/103 125/183/104
f 127/185/106 128/186/107 129/187/108
f 128/186/107 127/185/106 130/188/109
f 17/21/17 130/188/109 29/43/29
f 130/188/109 17/21/17 128/186/107
f 29/43/29 127/185/106 30/46/30
f 127/185/106 29/43/29 130/188/109
f 30/46/30 129/187/108 18/22/18
f 129/187/108 30/46/30 127/185/106
f 18/22/18 128/186/107 17/21/17
f 128/186/107 18/22/18 129/187/108
