# Blender v2.79 (sub 0) OBJ File: 'notebook.obj'
# www.blender.org
mtllib notebook.mtl
o dec
v 0.171777 0.006595 -0.106031
v 0.192651 0.006595 -0.106031
v 0.192651 0.013412 -0.068473
v 0.171777 0.006595 -0.068473
v 0.192651 0.006595 -0.068473
v 0.171777 0.013412 -0.068473
v 0.192651 0.013412 -0.106031
v 0.171777 0.013412 -0.106031
v 0.185049 0.041207 -0.099134
v 0.185549 0.042842 -0.099423
v 0.187066 0.042842 -0.098547
v 0.185549 0.042842 -0.101174
v 0.189083 0.041207 -0.101463
v 0.188583 0.042842 -0.101174
v 0.189083 0.041207 -0.099134
v 0.188583 0.042842 -0.099423
v 0.187066 0.042842 -0.102050
v 0.185049 0.013159 -0.099134
v 0.187066 0.041207 -0.097970
v 0.185049 0.041207 -0.101463
v 0.185049 0.013159 -0.101463
v 0.187066 0.041207 -0.102627
v 0.189083 0.013159 -0.101463
v 0.187066 0.013159 -0.102627
v 0.189083 0.013159 -0.099134
v 0.187066 0.013159 -0.097970
v -0.171266 -0.000000 0.112704
v 0.164702 -0.000000 0.120336
v 0.171777 0.000000 -0.120434
v 0.171777 0.019662 -0.120434
v 0.148748 0.019662 -0.120434
v -0.171266 0.000000 -0.120434
v -0.171266 0.019662 -0.120434
v -0.171266 0.019701 -0.115235
v -0.171266 0.028595 -0.118254
v -0.064515 0.028595 -0.115218
v -0.064515 0.028595 -0.118254
v -0.064515 0.026573 -0.120434
v 0.171777 0.028595 -0.115216
v 0.171777 0.028595 -0.118254
v 0.148748 0.028595 -0.115218
v 0.148748 0.028595 -0.118254
v -0.171266 0.028595 -0.115235
v -0.147139 0.027195 -0.122624
v 0.169250 0.027197 -0.122624
v -0.171266 0.248820 -0.176583
v -0.171266 0.028105 -0.119315
v -0.083056 0.024976 -0.121233
v -0.147139 0.023059 -0.118049
v 0.171777 0.247094 -0.182562
v -0.164190 0.019662 0.120336
v -0.171266 0.019663 0.112704
v -0.147139 0.028595 -0.115218
v -0.147077 0.019701 -0.115226
v -0.083056 0.028595 -0.115218
v -0.064458 0.019701 -0.115223
v -0.147139 0.019662 -0.120434
v -0.082997 0.019701 -0.115224
v -0.083056 0.019662 -0.120434
v -0.064515 0.019662 -0.120434
v 0.148671 0.019701 -0.115218
v 0.171777 0.026573 -0.120434
v 0.148748 0.026573 -0.120434
v -0.147139 0.028595 -0.118254
v -0.147139 0.026573 -0.120434
v -0.171266 0.026573 -0.120434
v -0.083056 0.028595 -0.118254
v -0.083056 0.026573 -0.120434
v 0.171777 0.019663 0.112704
v 0.171777 0.019701 -0.115216
v 0.171777 -0.000000 0.112704
v 0.164702 0.019662 0.120336
v -0.164190 -0.000000 0.120336
v -0.147139 0.035388 -0.114942
v -0.165889 0.246512 -0.175916
v 0.166400 0.246512 -0.175916
v -0.064525 0.035390 -0.114942
v -0.083056 0.024836 -0.111894
v -0.083064 0.029817 -0.113333
v -0.064515 0.024836 -0.111894
v 0.148748 0.027195 -0.122624
v 0.171777 0.029849 -0.113342
v 0.171777 0.028123 -0.119320
v 0.148751 0.029823 -0.113335
v -0.064515 0.027195 -0.122624
v -0.171266 0.029832 -0.113337
v -0.083056 0.027195 -0.122624
v -0.147141 0.029815 -0.113332
v -0.147139 0.024836 -0.111894
v 0.148748 0.023059 -0.118049
v 0.148748 0.024836 -0.111894
v -0.064525 0.029817 -0.113333
v -0.083056 0.023059 -0.118049
v -0.147139 0.024976 -0.121233
v 0.148748 0.024976 -0.121233
v -0.064515 0.024976 -0.121233
v -0.064515 0.023059 -0.118049
v 0.171777 0.248820 -0.176583
v -0.164190 0.254426 -0.184680
v -0.164190 0.256153 -0.178701
v 0.164702 0.256153 -0.178701
v 0.162474 0.250580 -0.177091
v -0.161963 0.250580 -0.177091
v -0.165889 0.035401 -0.114946
v -0.083064 0.035390 -0.114942
v 0.148748 0.035395 -0.114944
v 0.166400 0.035416 -0.114950
v 0.164702 0.254426 -0.184680
v 0.169250 0.245207 -0.185587
v -0.171266 0.247094 -0.182562
v -0.168739 0.245207 -0.185587
v -0.168739 0.027181 -0.122620
v -0.163091 0.251059 -0.187278
v 0.163602 0.251059 -0.187278
vt 0.382900 0.498100
vt 0.474600 0.498100
vt 0.382900 0.349900
vt 0.474600 0.349900
vt 0.382900 0.498100
vt 0.382900 0.349900
vt 0.474600 0.498100
vt 0.474600 0.349900
vt 0.382900 0.481300
vt 0.474600 0.481300
vt 0.382900 0.498000
vt 0.474600 0.498000
vt 0.474600 0.481300
vt 0.382900 0.481300
vt 0.474600 0.498000
vt 0.382900 0.498000
vt 0.480900 0.350500
vt 0.467600 0.350500
vt 0.481600 0.341500
vt 0.466900 0.340700
vt 0.494200 0.350500
vt 0.492300 0.341400
vt 0.427700 0.350500
vt 0.414400 0.350500
vt 0.427000 0.340700
vt 0.414300 0.341200
vt 0.441000 0.350500
vt 0.441700 0.341500
vt 0.454300 0.350500
vt 0.453200 0.341300
vt 0.132000 0.413000
vt 0.132000 0.406800
vt 0.126700 0.414100
vt 0.128300 0.403400
vt 0.123600 0.405800
vt 0.123800 0.412400
vt 0.480900 0.482800
vt 0.467600 0.482800
vt 0.494200 0.482800
vt 0.427700 0.482800
vt 0.414400 0.482800
vt 0.441000 0.482800
vt 0.454300 0.482800
vt 0.429000 0.498000
vt 0.429000 0.350000
vt 0.458600 0.498000
vt 0.458600 0.350000
vt 0.894200 0.718900
vt 0.513800 0.718900
vt 0.894200 0.506900
vt 0.886300 0.500000
vt 0.521600 0.500000
vt 0.513800 0.506900
vt 0.998300 0.586600
vt 0.998300 1.000000
vt 0.975900 0.586600
vt 0.975900 1.000000
vt 0.942800 0.781900
vt 0.942800 0.998800
vt 0.914800 0.781900
vt 0.914800 0.998800
vt 0.914800 0.993900
vt 0.912100 0.768600
vt 0.501300 0.768600
vt 0.912100 0.744100
vt 0.884500 0.744100
vt 0.629100 0.744100
vt 0.606900 0.744100
vt 0.530200 0.744100
vt 0.501300 0.744100
vt 0.942200 0.999000
vt 0.942200 0.782500
vt 0.917300 0.999000
vt 0.917200 0.994100
vt 0.917300 0.782500
vt 0.538600 0.779900
vt 0.538500 0.785600
vt 0.534200 0.779900
vt 0.534200 0.787300
vt 0.536700 0.787300
vt 0.621700 0.779700
vt 0.621700 0.785400
vt 0.601600 0.779700
vt 0.601600 0.785400
vt 0.601600 0.787100
vt 0.621700 0.787100
vt 0.601600 0.789600
vt 0.621700 0.789600
vt 0.577500 0.789800
vt 0.562100 0.789800
vt 0.577500 0.787300
vt 0.562100 0.787300
vt 0.577500 0.785500
vt 0.562100 0.785500
vt 0.577500 0.779700
vt 0.562100 0.779700
vt 0.534100 0.789800
vt 0.515000 0.787100
vt 0.515000 0.789600
vt 0.557700 0.785800
vt 0.557700 0.780000
vt 0.626000 0.787100
vt 0.623500 0.787100
vt 0.626000 0.779700
vt 0.504100 0.724700
vt 0.504100 0.510500
vt 0.529900 0.724600
vt 0.908200 0.724600
vt 0.883700 0.724600
vt 0.908200 0.510500
vt 0.628700 0.724600
vt 0.901400 0.504800
vt 0.606500 0.724600
vt 0.510900 0.504800
vt 0.969000 0.989000
vt 0.959800 0.989000
vt 0.969000 0.577200
vt 0.959800 0.577200
vt 0.930400 0.508600
vt 0.921600 0.508600
vt 0.930400 0.724500
vt 0.921600 0.724500
vt 0.530300 0.724600
vt 0.606800 0.724600
vt 0.530300 0.726900
vt 0.606800 0.726900
vt 0.530200 0.729600
vt 0.606700 0.729600
vt 0.530200 0.739400
vt 0.606700 0.739400
vt 0.628900 0.724600
vt 0.883400 0.724600
vt 0.628900 0.726900
vt 0.883400 0.726900
vt 0.628800 0.729600
vt 0.883300 0.729600
vt 0.628800 0.739400
vt 0.883300 0.739400
vt 0.921600 0.724400
vt 0.921600 0.508600
vt 0.930400 0.724400
vt 0.930400 0.508600
vt 0.905300 0.769400
vt 0.629000 0.999900
vt 0.508700 0.769400
vt 0.500200 0.776900
vt 0.606600 0.999900
vt 0.529300 0.999900
vt 0.500200 0.999900
vt 0.515000 0.779700
vt 0.646100 0.787100
vt 0.646100 0.779700
vt 0.581800 0.787200
vt 0.581800 0.779800
vt 0.597300 0.787100
vt 0.597300 0.779700
vt 0.606600 0.781400
vt 0.606500 0.786500
vt 0.529300 0.781400
vt 0.529300 0.786500
vt 0.886100 0.786500
vt 0.628900 0.786500
vt 0.886000 0.781400
vt 0.629000 0.781400
vt 0.597300 0.787100
vt 0.597300 0.779700
vt 0.599800 0.787100
vt 0.579300 0.787200
vt 0.557700 0.787200
vt 0.557700 0.779800
vt 0.560200 0.787200
vt 0.510600 0.779700
vt 0.510600 0.785400
vt 0.512500 0.787100
vt 0.534100 0.791600
vt 0.514900 0.791400
vt 0.913900 0.776900
vt 0.913900 0.999900
vt 0.886000 0.999900
vt 0.942800 0.771800
vt 0.914800 0.771800
vt 0.917300 0.772400
vt 0.942200 0.772400
vt 0.695900 0.846000
vt 0.693200 0.846100
vt 0.695900 0.819800
vt 0.647000 0.846000
vt 0.647000 0.819800
vt 0.649600 0.846000
vt 0.683700 0.846100
vt 0.681000 0.846100
vt 0.647600 0.819300
vt 0.695400 0.819300
vt 0.808700 0.765000
vt 0.808700 0.770100
vt 0.886300 0.765000
vt 0.886300 0.770100
vt 0.527900 0.770100
vt 0.786200 0.770100
vt 0.527900 0.765000
vt 0.786200 0.765000
vt 0.886200 0.728900
vt 0.910800 0.728900
vt 0.886200 0.741900
vt 0.913900 0.741900
vt 0.913900 0.732800
vt 0.629800 0.728900
vt 0.629800 0.741900
vt 0.607500 0.728900
vt 0.607500 0.741900
vt 0.530500 0.728900
vt 0.530500 0.741900
vt 0.504500 0.728900
vt 0.501500 0.741900
vt 0.501500 0.732800
vt 0.611600 0.741600
vt 0.611700 0.726500
vt 0.615500 0.741600
vt 0.619800 0.737400
vt 0.619800 0.726500
vt 0.611600 0.741600
vt 0.615500 0.741600
vt 0.611700 0.726500
vt 0.619800 0.737400
vt 0.619800 0.726500
vt 0.611600 0.741600
vt 0.611600 0.726500
vt 0.615500 0.741600
vt 0.619800 0.737400
vt 0.619800 0.726500
vt 0.611600 0.741600
vt 0.615500 0.741600
vt 0.611700 0.726500
vt 0.619800 0.737400
vt 0.619800 0.726500
vt 0.606800 0.730400
vt 0.530300 0.730400
vt 0.883400 0.730400
vt 0.628900 0.730400
vt 0.930400 0.501400
vt 0.921600 0.501400
vt 0.921600 0.501400
vt 0.930400 0.501400
vt 0.508600 0.771800
vt 0.906900 0.771800
vt 0.511300 0.777500
vt 0.904200 0.777500
vt 0.915500 0.779300
vt 0.909000 0.781600
vt 0.915500 0.993300
vt 0.909000 0.987600
vt 0.915500 0.770100
vt 0.909000 0.775800
vt 0.886300 0.775800
vt 0.808700 0.775800
vt 0.786200 0.775800
vt 0.527900 0.775800
vt 0.500000 0.770100
vt 0.506500 0.775800
vt 0.500000 0.993300
vt 0.500000 0.779300
vt 0.506500 0.987600
vt 0.506500 0.781600
vt 0.509600 0.501400
vt 0.902700 0.501400
vt 0.911200 0.508600
vt 0.911200 0.723700
vt 0.501100 0.508600
vt 0.501100 0.723700
vn 0.0000 -0.7071 -0.7071
vn 0.5773 -0.5773 -0.5773
vn 0.0000 -0.7071 0.7071
vn 0.5773 -0.5773 0.5773
vn 0.0000 0.7071 -0.7071
vn 0.0000 0.7071 0.7071
vn 0.5773 0.5773 -0.5773
vn 0.5773 0.5773 0.5773
vn -0.8547 0.1606 0.4936
vn 0.0000 0.1605 0.9870
vn -0.5882 0.7340 0.3396
vn -0.0001 0.7339 0.6792
vn -0.8547 0.1606 -0.4936
vn -0.5882 0.7340 -0.3395
vn 0.0000 0.1605 -0.9870
vn 0.0001 0.7339 -0.6792
vn 0.8547 0.1606 -0.4936
vn 0.5882 0.7340 -0.3396
vn 0.8547 0.1606 0.4936
vn 0.5882 0.7340 0.3395
vn -0.8660 0.0000 0.5001
vn 0.0000 0.0000 1.0000
vn -0.8660 0.0000 -0.5001
vn 0.0000 0.0000 -1.0000
vn 0.8660 0.0000 -0.5001
vn 0.8660 0.0000 0.5001
vn -0.5773 -0.5773 -0.5773
vn -0.7204 -0.6334 0.2825
vn -0.3116 -0.6272 0.7138
vn 0.3116 -0.6272 0.7138
vn 0.7204 -0.6334 0.2825
vn -0.3116 0.6271 0.7139
vn 0.3116 0.6271 0.7139
vn 0.7204 0.6334 0.2826
vn 0.7071 0.0000 -0.7071
vn 0.9045 0.3015 0.3016
vn -0.2986 0.2973 -0.9069
vn 0.2989 0.2982 -0.9065
vn -0.3003 0.3039 -0.9041
vn 0.2988 0.2980 -0.9066
vn -0.7071 0.0000 -0.7071
vn -0.9046 0.3013 0.3015
vn -0.7204 0.6334 0.2826
vn 0.6272 0.3115 -0.7138
vn 0.6334 0.7204 -0.2826
vn -0.6272 0.3115 -0.7138
vn 0.6248 0.3127 -0.7154
vn 0.6313 0.7219 -0.2832
vn -0.6334 0.7204 -0.2826
vn 0.5750 0.5789 0.5781
vn -0.5775 0.5774 0.5771
vn -0.5794 0.5754 0.5772
vn 0.5753 0.5788 0.5779
vn -0.6353 0.7189 -0.2821
vn 0.6315 0.7218 -0.2832
vn -0.6294 0.3104 -0.7123
vn 0.6250 0.3126 -0.7153
vn -0.5746 0.5796 0.5778
vn -0.6308 0.7223 -0.2834
vn -0.6242 0.3130 -0.7158
vn -0.3539 -0.7868 -0.5055
vn -0.4767 -0.0581 -0.8771
vn -0.2454 -0.6147 -0.7496
vn 0.3541 -0.7868 -0.5054
vn 0.2459 -0.6148 -0.7494
vn 0.4767 -0.0581 -0.8771
vn -0.2456 -0.6146 -0.7496
vn 0.2064 0.2167 -0.9542
vn 0.2457 -0.6149 -0.7493
vn -0.2064 0.2167 -0.9542
vn 0.3116 0.8598 0.4044
vn 0.3808 0.7526 -0.5372
vn -0.3116 0.8598 0.4044
vn -0.3807 0.7526 -0.5372
vn -0.7204 0.4472 0.5301
vn -0.8862 0.2486 -0.3908
vn -0.5775 -0.3942 0.7149
vn -0.7265 -0.6851 -0.0524
vn -0.6583 -0.5370 -0.5275
vn 0.6587 -0.5368 -0.5272
vn -0.6271 -0.7723 -0.1013
vn 0.6275 -0.7720 -0.1012
vn -0.5772 -0.3946 0.7149
vn 0.5778 -0.3941 0.7147
vn -0.6580 -0.5372 -0.5277
vn 0.6583 -0.5371 -0.5275
vn -0.6268 -0.7725 -0.1014
vn 0.6271 -0.7723 -0.1013
vn -0.5767 -0.3949 0.7151
vn 0.5771 -0.3946 0.7150
vn 0.7267 -0.6849 -0.0524
vn 0.8862 0.2486 -0.3908
vn 0.5776 -0.3941 0.7148
vn 0.7204 0.4472 0.5301
vn 0.3027 0.9061 0.2955
vn -0.3036 0.9031 0.3035
vn 0.3026 0.9062 0.2952
vn -0.3024 0.9066 0.2941
vn 0.0000 0.2775 0.9607
vn 0.0000 0.2774 0.9607
vn 0.3030 -0.0387 0.9522
vn -0.3030 -0.0393 0.9522
vn 0.3030 -0.0394 0.9521
vn -0.3032 -0.0400 0.9521
usemtl dec
s 1
f 1/1/1 2/2/2 4/3/3
f 2/2/2 5/4/4 4/3/3
f 8/5/5 6/6/6 7/7/7
f 6/6/6 3/8/8 7/7/7
f 4/9/3 5/10/4 6/11/6
f 5/10/4 3/12/8 6/11/6
f 2/13/2 1/14/1 7/15/7
f 1/14/1 8/16/5 7/15/7
f 9/17/9 19/18/10 10/19/11
f 11/20/12 10/19/11 19/18/10
f 20/21/13 9/17/9 12/22/14
f 10/19/11 12/22/14 9/17/9
f 22/23/15 20/24/13 17/25/16
f 12/26/14 17/25/16 20/24/13
f 13/27/17 22/23/15 14/28/18
f 17/25/16 14/28/18 22/23/15
f 15/29/19 13/27/17 16/30/20
f 14/28/18 16/30/20 13/27/17
f 19/18/10 15/29/19 11/20/12
f 16/30/20 11/20/12 15/29/19
f 16/31/20 14/32/18 11/33/12
f 14/32/18 17/34/16 11/33/12
f 17/34/16 12/35/14 11/33/12
f 12/35/14 10/36/11 11/33/12
f 9/17/9 18/37/21 19/18/10
f 18/37/21 26/38/22 19/18/10
f 20/21/13 21/39/23 9/17/9
f 21/39/23 18/37/21 9/17/9
f 22/23/15 24/40/24 20/24/13
f 24/40/24 21/41/23 20/24/13
f 13/27/17 23/42/25 22/23/15
f 23/42/25 24/40/24 22/23/15
f 15/29/19 25/43/26 13/27/17
f 25/43/26 23/42/25 13/27/17
f 19/18/10 26/38/22 15/29/19
f 26/38/22 25/43/26 15/29/19
f 7/44/7 3/45/8 2/46/2
f 3/45/8 5/47/4 2/46/2
f 32/48/27 29/49/2 27/50/28
f 27/50/28 29/49/2 73/51/29
f 73/51/29 29/49/2 28/52/30
f 29/49/2 71/53/31 28/52/30
f 73/54/29 28/55/30 51/56/32
f 28/55/30 72/57/33 51/56/32
f 71/58/31 29/59/2 69/60/34
f 30/61/35 70/62/36 29/59/2
f 29/59/2 70/62/36 69/60/34
f 29/63/2 32/64/27 30/65/35
f 30/65/35 32/64/27 31/66/37
f 31/66/37 32/64/27 60/67/38
f 60/67/38 32/64/27 59/68/39
f 59/68/39 32/64/27 57/69/40
f 32/64/27 33/70/41 57/69/40
f 32/71/27 27/72/28 33/73/41
f 33/73/41 27/72/28 34/74/42
f 27/72/28 52/75/43 34/74/42
f 30/76/35 62/77/44 70/78/36
f 39/79/8 70/78/36 40/80/45
f 62/77/44 40/80/45 70/78/36
f 33/81/41 66/82/46 57/83/40
f 66/82/46 65/84/47 57/83/40
f 64/85/48 35/86/49 53/87/50
f 35/86/49 43/88/51 53/87/50
f 55/89/52 36/90/53 67/91/54
f 36/90/53 37/92/55 67/91/54
f 68/93/56 38/94/57 59/95/39
f 38/94/57 60/96/38 59/95/39
f 39/79/8 40/97/45 41/98/58
f 41/98/58 40/97/45 42/99/59
f 63/100/60 62/77/44 31/101/37
f 62/77/44 30/76/35 31/101/37
f 43/102/51 35/103/49 34/104/42
f 35/103/49 66/82/46 34/104/42
f 66/82/46 33/81/41 34/104/42
f 112/105/61 111/106/62 44/107/63
f 45/108/64 81/109/65 109/110/66
f 81/109/65 85/111/67 109/110/66
f 109/110/66 85/111/67 114/112/68
f 44/107/63 111/106/62 87/113/69
f 87/113/69 111/106/62 85/111/67
f 111/106/62 113/114/70 85/111/67
f 113/114/70 114/112/68 85/111/67
f 101/115/71 108/116/72 100/117/73
f 108/116/72 99/118/74 100/117/73
f 46/119/75 110/120/76 86/121/77
f 110/120/76 47/122/78 86/121/77
f 44/123/63 87/124/69 94/125/79
f 87/124/69 48/126/80 94/125/79
f 49/127/81 93/128/82 89/129/83
f 93/128/82 78/130/84 89/129/83
f 85/131/67 81/132/65 96/133/85
f 81/132/65 95/134/86 96/133/85
f 97/135/87 90/136/88 80/137/89
f 90/136/88 91/138/90 80/137/89
f 83/139/91 50/140/92 82/141/93
f 50/140/92 98/142/94 82/141/93
f 72/143/33 56/144/95 51/145/32
f 51/145/32 56/144/95 52/146/43
f 56/144/95 58/147/96 52/146/43
f 58/147/96 54/148/97 52/146/43
f 54/148/97 34/149/42 52/146/43
f 39/79/8 41/98/58 70/78/36
f 41/98/58 61/150/98 70/78/36
f 43/102/51 34/104/42 53/151/50
f 53/151/50 34/104/42 54/152/97
f 55/153/52 58/154/96 36/155/53
f 36/155/53 58/154/96 56/156/95
f 58/157/96 59/158/39 54/159/97
f 54/159/97 59/158/39 57/160/40
f 31/161/37 60/162/38 61/163/98
f 56/164/95 61/163/98 60/162/38
f 53/165/50 54/166/97 64/167/48
f 64/167/48 54/166/97 65/84/47
f 54/166/97 57/83/40 65/84/47
f 55/153/52 67/168/54 58/154/96
f 67/168/54 68/93/56 58/154/96
f 58/154/96 68/93/56 59/95/39
f 36/169/53 56/170/95 37/171/55
f 37/171/55 56/170/95 38/94/57
f 56/170/95 60/96/38 38/94/57
f 31/172/37 61/150/98 63/173/60
f 41/98/58 42/174/59 61/150/98
f 61/150/98 42/174/59 63/173/60
f 40/97/45 62/175/44 42/99/59
f 62/175/44 63/176/60 42/99/59
f 64/85/48 65/84/47 35/86/49
f 65/84/47 66/82/46 35/86/49
f 37/92/55 38/94/57 67/91/54
f 38/94/57 68/93/56 67/91/54
f 72/143/33 69/177/34 56/144/95
f 70/178/36 61/179/98 69/177/34
f 69/177/34 61/179/98 56/144/95
f 28/180/30 71/58/31 72/181/33
f 71/58/31 69/60/34 72/181/33
f 52/75/43 27/72/28 51/182/32
f 51/182/32 27/72/28 73/183/29
f 104/184/99 74/185/99 75/186/99
f 107/187/100 76/188/99 106/189/100
f 74/185/99 105/190/100 75/186/99
f 106/189/100 76/188/99 77/191/100
f 76/188/99 102/192/99 77/191/100
f 105/190/100 77/191/100 75/186/99
f 75/186/99 77/191/100 103/193/99
f 77/191/100 102/192/99 103/193/99
f 78/194/84 79/195/101 89/196/83
f 89/196/83 79/195/101 88/197/102
f 84/198/103 92/199/104 91/200/90
f 80/201/89 91/200/90 92/199/104
f 81/202/65 45/203/64 84/204/103
f 82/205/93 84/204/103 83/206/91
f 45/203/64 83/206/91 84/204/103
f 85/207/67 92/208/104 87/209/69
f 87/209/69 92/208/104 79/210/101
f 44/211/63 88/212/102 112/213/61
f 86/214/77 47/215/78 88/212/102
f 47/215/78 112/213/61 88/212/102
f 87/216/69 79/217/101 48/218/80
f 48/218/80 79/217/101 93/219/82
f 93/219/82 79/217/101 78/220/84
f 44/221/63 94/222/79 88/223/102
f 94/222/79 49/224/81 88/223/102
f 49/224/81 89/225/83 88/223/102
f 81/226/65 84/227/103 95/228/86
f 95/228/86 84/227/103 90/229/88
f 90/229/88 84/227/103 91/230/90
f 85/231/67 96/232/85 92/233/104
f 96/232/85 97/234/87 92/233/104
f 97/234/87 80/235/89 92/233/104
f 48/126/80 93/236/82 94/125/79
f 93/236/82 49/237/81 94/125/79
f 95/134/86 90/238/88 96/133/85
f 90/238/88 97/239/87 96/133/85
f 101/240/71 98/142/94 108/241/72
f 98/142/94 50/140/92 108/241/72
f 99/242/74 110/120/76 100/243/73
f 110/120/76 46/119/75 100/243/73
f 101/244/71 100/245/73 102/246/99
f 100/245/73 103/247/99 102/246/99
f 100/245/73 46/248/75 103/247/99
f 46/248/75 75/249/99 103/247/99
f 86/250/77 104/251/99 46/248/75
f 46/248/75 104/251/99 75/249/99
f 86/252/77 88/197/102 104/253/99
f 88/197/102 74/254/99 104/253/99
f 88/197/102 79/195/101 74/254/99
f 79/195/101 105/255/100 74/254/99
f 79/195/101 92/199/104 105/255/100
f 92/199/104 77/256/100 105/255/100
f 92/199/104 84/198/103 77/256/100
f 84/198/103 106/257/100 77/256/100
f 82/258/93 107/259/100 84/198/103
f 84/198/103 107/259/100 106/257/100
f 82/260/93 98/261/94 107/262/100
f 98/261/94 76/263/99 107/262/100
f 101/244/71 102/246/99 98/261/94
f 98/261/94 102/246/99 76/263/99
f 99/264/74 108/265/72 113/114/70
f 113/114/70 108/265/72 114/112/68
f 50/266/92 83/267/91 109/110/66
f 109/110/66 83/267/91 45/108/64
f 110/268/76 111/106/62 47/269/78
f 112/105/61 47/269/78 111/106/62
f 99/264/74 113/114/70 110/268/76
f 113/114/70 111/106/62 110/268/76
f 50/266/92 109/110/66 108/265/72
f 109/110/66 114/112/68 108/265/72
