# Blender v2.79 (sub 0) OBJ File: 'kitchen_tarelka1.obj'
# www.blender.org
mtllib kitchen_tarelka1.mtl
o dec
v 0.164001 0.087910 -0.067933
v 0.167640 0.099623 0.000000
v 0.154880 0.099621 -0.064155
v 0.118540 0.099625 -0.118538
v 0.067931 0.087910 -0.164002
v 0.064153 0.099626 -0.154877
v 0.000000 0.099621 -0.167642
v -0.064153 0.099626 -0.154877
v -0.125521 0.087909 -0.125523
v -0.118540 0.099625 -0.118538
v -0.154880 0.099621 -0.064155
v -0.177513 0.087911 0.000000
v -0.167640 0.099623 0.000000
v -0.164001 0.087913 0.067933
v -0.154880 0.099624 0.064155
v -0.125521 0.087914 0.125523
v -0.118540 0.099621 0.118538
v -0.064153 0.099620 0.154877
v 0.000000 0.099625 0.167642
v 0.064153 0.099620 0.154877
v 0.118540 0.099621 0.118538
v 0.164001 0.087913 0.067933
v 0.154880 0.099624 0.064155
v 0.046831 0.000112 0.113059
v 0.000000 0.000110 0.122379
v -0.046831 0.000111 0.113059
v -0.086533 0.000116 0.086536
v -0.113061 0.000115 0.046833
v -0.122377 0.000114 0.000000
v -0.113061 0.000113 -0.046833
v -0.046831 0.000117 -0.113059
v 0.000000 0.000106 -0.122379
v 0.046831 0.000117 -0.113059
v 0.113061 0.000113 -0.046833
v 0.122377 0.000114 0.000000
v 0.113061 0.011599 -0.046833
v 0.086533 0.011597 -0.086536
v 0.046831 0.011602 -0.113059
v -0.086533 0.011597 -0.086536
v -0.122377 0.011600 0.000000
v -0.113061 0.011601 0.046833
v -0.086533 0.011602 0.086536
v -0.046831 0.011597 0.113059
v 0.000000 0.011602 0.122379
v 0.046831 0.011597 0.113059
v 0.177513 0.087911 0.000000
v 0.137312 0.087913 -0.056874
v 0.137312 0.087909 0.056874
v 0.125521 0.087914 0.125523
v 0.067931 0.087913 0.164002
v 0.000000 0.087913 0.177515
v -0.067931 0.087913 0.164002
v -0.137312 0.087909 0.056874
v -0.148626 0.087911 0.000000
v -0.164001 0.087910 -0.067933
v -0.067931 0.087910 -0.164002
v -0.056876 0.087914 -0.137310
v 0.000000 0.087910 -0.177515
v 0.000000 0.087911 -0.148626
v 0.056876 0.087914 -0.137310
v 0.125521 0.087909 -0.125523
v 0.056876 0.095834 -0.137310
v 0.000000 0.095832 -0.148626
v -0.056876 0.095834 -0.137310
v -0.137312 0.095834 -0.056875
v -0.148626 0.095832 0.000000
v -0.056876 0.095829 0.137310
v 0.000000 0.095832 0.148626
v 0.056876 0.095829 0.137310
v 0.137312 0.095830 0.056874
v 0.148626 0.087911 0.000000
v 0.139330 0.017939 0.000000
v 0.128724 0.017941 0.053322
v 0.105094 0.087911 0.105094
v 0.056876 0.087909 0.137310
v 0.000000 0.087911 0.148626
v 0.000000 0.017939 0.139331
v -0.056876 0.087909 0.137310
v -0.105094 0.087911 0.105094
v -0.098521 0.017940 0.098523
v -0.139330 0.017939 0.000000
v -0.137312 0.087913 -0.056874
v -0.128724 0.017936 -0.053322
v -0.105094 0.087911 -0.105094
v -0.098521 0.017937 -0.098523
v -0.053319 0.017939 -0.128724
v 0.105094 0.087911 -0.105094
v 0.098521 0.017937 -0.098523
v 0.137312 0.095834 -0.056875
v 0.122377 0.011600 0.000000
v 0.105094 0.095832 -0.105094
v 0.000000 0.011598 -0.122379
v -0.046831 0.011602 -0.113059
v -0.105094 0.095832 -0.105094
v -0.113061 0.011598 -0.046833
v -0.137312 0.095830 0.056874
v -0.105094 0.095832 0.105094
v 0.105094 0.095832 0.105094
v 0.086533 0.011602 0.086536
v 0.113061 0.011601 0.046833
v 0.148626 0.095832 0.000000
v 0.128724 0.017936 -0.053322
v 0.113061 0.000115 0.046833
v 0.086533 0.000116 0.086536
v 0.098521 0.017940 0.098523
v 0.053319 0.017938 0.128724
v -0.053319 0.017938 0.128724
v -0.128724 0.017941 0.053322
v -0.086533 0.000112 -0.086536
v 0.000000 0.017938 -0.139331
v 0.053319 0.017939 -0.128724
v 0.086533 0.000112 -0.086536
vt 0.141700 0.995800
vt 0.088900 0.985300
vt 0.141700 0.988100
vt 0.091800 0.978200
vt 0.044100 0.955300
vt 0.049500 0.949900
vt 0.014100 0.910500
vt 0.021200 0.907600
vt 0.003600 0.857600
vt 0.011300 0.857600
vt 0.014100 0.804800
vt 0.021200 0.807700
vt 0.044100 0.759900
vt 0.049500 0.765400
vt 0.088900 0.730000
vt 0.091800 0.737100
vt 0.141700 0.719500
vt 0.141700 0.727200
vt 0.194600 0.730000
vt 0.191700 0.737100
vt 0.239400 0.759900
vt 0.234000 0.765400
vt 0.269400 0.804800
vt 0.262300 0.807700
vt 0.279900 0.857600
vt 0.272200 0.857600
vt 0.269400 0.910500
vt 0.262300 0.907600
vt 0.239400 0.955300
vt 0.234000 0.949900
vt 0.194600 0.985300
vt 0.191700 0.978200
vt 0.209100 0.925000
vt 0.229700 0.894100
vt 0.237000 0.857600
vt 0.229700 0.821200
vt 0.209100 0.790300
vt 0.178200 0.769600
vt 0.141700 0.762400
vt 0.105300 0.769600
vt 0.074400 0.790300
vt 0.053800 0.821200
vt 0.046500 0.857600
vt 0.053800 0.894100
vt 0.074400 0.925000
vt 0.105300 0.945600
vt 0.141700 0.952900
vt 0.178200 0.945600
vt 0.105300 0.945600
vt 0.074400 0.925000
vt 0.053800 0.894100
vt 0.046500 0.857600
vt 0.053800 0.821200
vt 0.074400 0.790300
vt 0.105300 0.769600
vt 0.141700 0.762400
vt 0.178200 0.769600
vt 0.209100 0.790300
vt 0.229700 0.821200
vt 0.237000 0.857600
vt 0.229700 0.894100
vt 0.209100 0.925000
vt 0.178200 0.945600
vt 0.141700 0.952900
vt 0.097500 0.964500
vt 0.141700 0.973300
vt 0.186000 0.964500
vt 0.223500 0.939400
vt 0.248600 0.901900
vt 0.257400 0.857600
vt 0.248600 0.813400
vt 0.223500 0.775800
vt 0.186000 0.750800
vt 0.141700 0.742000
vt 0.097500 0.750800
vt 0.060000 0.775800
vt 0.034900 0.813400
vt 0.026100 0.857600
vt 0.034900 0.901900
vt 0.060000 0.939400
vt 0.141700 0.973300
vt 0.097500 0.964500
vt 0.060000 0.939400
vt 0.034900 0.901900
vt 0.026100 0.857600
vt 0.034900 0.813400
vt 0.060000 0.775800
vt 0.097500 0.750800
vt 0.141700 0.742000
vt 0.186000 0.750800
vt 0.223500 0.775800
vt 0.248600 0.813400
vt 0.257400 0.857600
vt 0.248600 0.901900
vt 0.223500 0.939400
vt 0.186000 0.964500
vt 0.571500 0.182000
vt 0.571500 0.134200
vt 0.609200 0.134200
vt 0.609200 0.182000
vt 0.533800 0.182000
vt 0.533800 0.134200
vt 0.496100 0.182000
vt 0.496100 0.134200
vt 0.458500 0.182000
vt 0.458500 0.134200
vt 0.420800 0.182000
vt 0.420800 0.134200
vt 0.383100 0.182000
vt 0.383100 0.134200
vt 0.345400 0.182000
vt 0.345400 0.134200
vt 0.307700 0.182000
vt 0.307700 0.134200
vt 0.270000 0.182000
vt 0.270000 0.134200
vt 0.232400 0.182000
vt 0.232400 0.134200
vt 0.194700 0.182000
vt 0.194700 0.134200
vt 0.157000 0.182000
vt 0.157000 0.134200
vt 0.119300 0.182000
vt 0.119300 0.134200
vt 0.081600 0.182000
vt 0.081600 0.134200
vt 0.044000 0.182000
vt 0.044000 0.134200
vt 0.006300 0.182000
vt 0.006300 0.134200
vt 0.006600 0.115100
vt 0.046300 0.115100
vt 0.006600 0.009000
vt 0.046300 0.009000
vt 0.086000 0.115100
vt 0.086000 0.009000
vt 0.125700 0.115100
vt 0.125700 0.009000
vt 0.165300 0.115100
vt 0.165300 0.009000
vt 0.205000 0.115100
vt 0.205000 0.009000
vt 0.244700 0.115100
vt 0.244700 0.009000
vt 0.284400 0.115100
vt 0.284400 0.009000
vt 0.324100 0.115100
vt 0.324100 0.009000
vt 0.363700 0.115100
vt 0.363700 0.009000
vt 0.403400 0.115100
vt 0.403400 0.009000
vt 0.443100 0.115100
vt 0.443100 0.009000
vt 0.482800 0.115100
vt 0.482800 0.009000
vt 0.522400 0.115100
vt 0.522400 0.009000
vt 0.562100 0.115100
vt 0.562100 0.009000
vt 0.601800 0.115100
vt 0.601800 0.009000
vt 0.641500 0.115100
vt 0.641500 0.009000
vt 0.571500 0.118400
vt 0.609100 0.118400
vt 0.609100 0.134200
vt 0.533800 0.118400
vt 0.496100 0.118400
vt 0.458400 0.118400
vt 0.458400 0.134200
vt 0.420700 0.118400
vt 0.420700 0.134200
vt 0.383100 0.118400
vt 0.345400 0.118400
vt 0.307700 0.118400
vt 0.270000 0.118400
vt 0.232300 0.118400
vt 0.232300 0.134200
vt 0.194600 0.118400
vt 0.194600 0.134200
vt 0.157000 0.118400
vt 0.119300 0.118400
vt 0.081600 0.118400
vt 0.043900 0.118400
vt 0.043900 0.134200
vt 0.006200 0.118400
vt 0.006200 0.134200
vn 0.9234 -0.3838 0.0000
vn 0.8531 -0.3838 -0.3533
vn 0.3846 0.9231 0.0000
vn 0.3554 0.9230 -0.1472
vn 0.6529 -0.3838 -0.6529
vn 0.2720 0.9231 -0.2720
vn 0.3533 -0.3838 -0.8531
vn 0.1472 0.9231 -0.3553
vn 0.0000 -0.3838 -0.9234
vn 0.0000 0.9230 -0.3847
vn -0.3533 -0.3838 -0.8531
vn -0.1472 0.9231 -0.3553
vn -0.6529 -0.3838 -0.6529
vn -0.2720 0.9231 -0.2719
vn -0.8531 -0.3838 -0.3533
vn -0.3554 0.9230 -0.1472
vn -0.9234 -0.3838 0.0000
vn -0.3846 0.9231 0.0000
vn -0.8531 -0.3837 0.3534
vn -0.3553 0.9231 0.1472
vn -0.6530 -0.3836 0.6530
vn -0.2719 0.9231 0.2719
vn -0.3534 -0.3836 0.8532
vn -0.1471 0.9231 0.3552
vn -0.0000 -0.3837 0.9234
vn 0.0000 0.9231 0.3846
vn 0.3534 -0.3836 0.8532
vn 0.1471 0.9231 0.3551
vn 0.6530 -0.3836 0.6530
vn 0.2719 0.9231 0.2719
vn 0.8531 -0.3837 0.3534
vn 0.3553 0.9231 0.1472
vn 0.3070 -0.9008 0.3070
vn 0.1662 -0.9008 0.4010
vn 0.0000 -0.9008 0.4342
vn -0.1661 -0.9008 0.4010
vn -0.3070 -0.9008 0.3070
vn -0.4011 -0.9008 0.1661
vn -0.4342 -0.9008 0.0000
vn -0.4011 -0.9008 -0.1661
vn -0.3070 -0.9008 -0.3071
vn -0.1663 -0.9007 -0.4013
vn 0.0000 -0.9008 -0.4343
vn 0.1663 -0.9007 -0.4014
vn 0.3070 -0.9008 -0.3070
vn 0.4011 -0.9008 -0.1661
vn 0.4342 -0.9008 0.0000
vn 0.4011 -0.9008 0.1662
vn -0.5882 0.7711 0.2436
vn -0.4501 0.7712 0.4501
vn -0.2436 0.7711 0.5882
vn 0.0000 0.7712 0.6365
vn 0.2436 0.7711 0.5882
vn 0.4501 0.7712 0.4501
vn 0.5882 0.7711 0.2436
vn 0.6366 0.7711 0.0000
vn 0.5882 0.7711 -0.2436
vn 0.4503 0.7710 -0.4503
vn 0.2436 0.7711 -0.5882
vn 0.0000 0.7710 -0.6369
vn -0.2436 0.7712 -0.5882
vn -0.4503 0.7710 -0.4503
vn -0.5882 0.7711 -0.2436
vn -0.6366 0.7711 0.0000
vn 0.5609 -0.7946 -0.2323
vn 0.6071 -0.7946 0.0000
vn 0.5610 -0.7945 0.2323
vn 0.4293 -0.7945 0.4293
vn 0.2324 -0.7945 0.5610
vn 0.0000 -0.7946 0.6071
vn -0.2323 -0.7945 0.5610
vn -0.4293 -0.7945 0.4293
vn -0.5610 -0.7945 0.2324
vn -0.6071 -0.7946 0.0000
vn -0.5609 -0.7946 -0.2323
vn -0.4293 -0.7946 -0.4293
vn -0.2323 -0.7946 -0.5609
vn 0.0000 -0.7946 -0.6071
vn 0.2323 -0.7946 -0.5608
vn 0.4292 -0.7946 -0.4293
vn -0.6306 0.7761 0.0000
vn -0.5825 0.7761 0.2413
vn -0.4459 0.7760 0.4459
vn -0.2413 0.7761 0.5826
vn 0.0000 0.7761 0.6306
vn 0.2413 0.7761 0.5826
vn 0.4459 0.7761 0.4460
vn 0.5825 0.7761 0.2412
vn 0.6306 0.7761 0.0000
vn 0.5827 0.7760 -0.2413
vn 0.4459 0.7761 -0.4459
vn 0.2413 0.7761 -0.5826
vn 0.0000 0.7761 -0.6306
vn -0.2413 0.7761 -0.5826
vn -0.4459 0.7761 -0.4458
vn -0.5827 0.7760 -0.2413
vn 0.9088 -0.4172 0.0000
vn 0.8396 -0.4173 -0.3478
vn 0.8396 -0.4172 0.3478
vn 0.6426 -0.4172 0.6426
vn 0.3478 -0.4172 0.8396
vn 0.0000 -0.4172 0.9088
vn -0.3478 -0.4172 0.8396
vn -0.6426 -0.4172 0.6426
vn -0.8396 -0.4172 0.3478
vn -0.9088 -0.4172 0.0000
vn -0.8396 -0.4173 -0.3478
vn -0.6426 -0.4172 -0.6426
vn -0.3478 -0.4173 -0.8396
vn 0.0000 -0.4172 -0.9088
vn 0.3477 -0.4173 -0.8396
vn 0.6426 -0.4172 -0.6426
usemtl dec
s 1
f 46/1/1 1/2/2 2/3/3
f 2/3/3 1/2/2 3/4/4
f 1/2/2 61/5/5 3/4/4
f 3/4/4 61/5/5 4/6/6
f 61/5/5 5/7/7 4/6/6
f 4/6/6 5/7/7 6/8/8
f 5/7/7 58/9/9 6/8/8
f 6/8/8 58/9/9 7/10/10
f 58/9/9 56/11/11 7/10/10
f 7/10/10 56/11/11 8/12/12
f 56/11/11 9/13/13 8/12/12
f 8/12/12 9/13/13 10/14/14
f 9/13/13 55/15/15 10/14/14
f 10/14/14 55/15/15 11/16/16
f 55/15/15 12/17/17 11/16/16
f 11/16/16 12/17/17 13/18/18
f 12/17/17 14/19/19 13/18/18
f 13/18/18 14/19/19 15/20/20
f 14/19/19 16/21/21 15/20/20
f 15/20/20 16/21/21 17/22/22
f 16/21/21 52/23/23 17/22/22
f 17/22/22 52/23/23 18/24/24
f 52/23/23 51/25/25 18/24/24
f 18/24/24 51/25/25 19/26/26
f 51/25/25 50/27/27 19/26/26
f 19/26/26 50/27/27 20/28/28
f 50/27/27 49/29/29 20/28/28
f 20/28/28 49/29/29 21/30/30
f 49/29/29 22/31/31 21/30/30
f 21/30/30 22/31/31 23/32/32
f 22/31/31 46/1/1 23/32/32
f 23/32/32 46/1/1 2/3/3
f 104/33/33 24/34/34 25/35/35
f 25/35/35 26/36/36 27/37/37
f 27/37/37 28/38/38 29/39/39
f 25/35/35 27/37/37 29/39/39
f 29/39/39 30/40/40 109/41/41
f 109/41/41 31/42/42 32/43/43
f 29/39/39 109/41/41 32/43/43
f 32/43/43 33/44/44 112/45/45
f 112/45/45 34/46/46 35/47/47
f 32/43/43 112/45/45 35/47/47
f 29/39/39 32/43/43 35/47/47
f 25/35/35 29/39/39 35/47/47
f 104/33/33 25/35/35 35/47/47
f 103/48/48 104/33/33 35/47/47
f 36/49/49 37/50/50 38/51/51
f 38/51/51 92/52/52 93/53/53
f 93/53/53 39/54/54 95/55/55
f 38/51/51 93/53/53 95/55/55
f 95/55/55 40/56/56 41/57/57
f 41/57/57 42/58/58 43/59/59
f 95/55/55 41/57/57 43/59/59
f 43/59/59 44/60/60 45/61/61
f 45/61/61 99/62/62 100/63/63
f 43/59/59 45/61/61 100/63/63
f 95/55/55 43/59/59 100/63/63
f 38/51/51 95/55/55 100/63/63
f 36/49/49 38/51/51 100/63/63
f 90/64/64 36/49/49 100/63/63
f 1/2/2 46/1/1 47/65/65
f 47/65/65 46/1/1 71/66/66
f 46/1/1 22/31/31 71/66/66
f 71/66/66 22/31/31 48/67/67
f 22/31/31 49/29/29 48/67/67
f 48/67/67 49/29/29 74/68/68
f 49/29/29 50/27/27 74/68/68
f 74/68/68 50/27/27 75/69/69
f 50/27/27 51/25/25 75/69/69
f 75/69/69 51/25/25 76/70/70
f 51/25/25 52/23/23 76/70/70
f 76/70/70 52/23/23 78/71/71
f 52/23/23 16/21/21 78/71/71
f 78/71/71 16/21/21 79/72/72
f 16/21/21 14/19/19 79/72/72
f 79/72/72 14/19/19 53/73/73
f 14/19/19 12/17/17 53/73/73
f 53/73/73 12/17/17 54/74/74
f 12/17/17 55/15/15 54/74/74
f 54/74/74 55/15/15 82/75/75
f 55/15/15 9/13/13 82/75/75
f 82/75/75 9/13/13 84/76/76
f 9/13/13 56/11/11 84/76/76
f 84/76/76 56/11/11 57/77/77
f 56/11/11 58/9/9 57/77/77
f 57/77/77 58/9/9 59/78/78
f 58/9/9 5/7/7 59/78/78
f 59/78/78 5/7/7 60/79/79
f 5/7/7 61/5/5 60/79/79
f 60/79/79 61/5/5 87/80/80
f 61/5/5 1/2/2 87/80/80
f 87/80/80 1/2/2 47/65/65
f 2/3/3 3/4/4 101/81/81
f 101/81/81 3/4/4 89/82/82
f 3/4/4 4/6/6 89/82/82
f 89/82/82 4/6/6 91/83/83
f 4/6/6 6/8/8 91/83/83
f 91/83/83 6/8/8 62/84/84
f 6/8/8 7/10/10 62/84/84
f 62/84/84 7/10/10 63/85/85
f 7/10/10 8/12/12 63/85/85
f 63/85/85 8/12/12 64/86/86
f 8/12/12 10/14/14 64/86/86
f 64/86/86 10/14/14 94/87/87
f 10/14/14 11/16/16 94/87/87
f 94/87/87 11/16/16 65/88/88
f 11/16/16 13/18/18 65/88/88
f 65/88/88 13/18/18 66/89/89
f 13/18/18 15/20/20 66/89/89
f 66/89/89 15/20/20 96/90/90
f 15/20/20 17/22/22 96/90/90
f 96/90/90 17/22/22 97/91/91
f 17/22/22 18/24/24 97/91/91
f 97/91/91 18/24/24 67/92/92
f 18/24/24 19/26/26 67/92/92
f 67/92/92 19/26/26 68/93/93
f 19/26/26 20/28/28 68/93/93
f 68/93/93 20/28/28 69/94/94
f 20/28/28 21/30/30 69/94/94
f 69/94/94 21/30/30 98/95/95
f 21/30/30 23/32/32 98/95/95
f 98/95/95 23/32/32 70/96/96
f 23/32/32 2/3/3 70/96/96
f 70/96/96 2/3/3 101/81/81
f 71/97/66 72/98/97 102/99/98
f 102/99/98 47/100/65 71/97/66
f 48/101/67 73/102/99 72/98/97
f 72/98/97 71/97/66 48/101/67
f 74/103/68 105/104/100 73/102/99
f 73/102/99 48/101/67 74/103/68
f 75/105/69 106/106/101 105/104/100
f 105/104/100 74/103/68 75/105/69
f 76/107/70 77/108/102 106/106/101
f 106/106/101 75/105/69 76/107/70
f 78/109/71 107/110/103 77/108/102
f 77/108/102 76/107/70 78/109/71
f 79/111/72 80/112/104 107/110/103
f 107/110/103 78/109/71 79/111/72
f 53/113/73 108/114/105 80/112/104
f 80/112/104 79/111/72 53/113/73
f 54/115/74 81/116/106 108/114/105
f 108/114/105 53/113/73 54/115/74
f 82/117/75 83/118/107 81/116/106
f 81/116/106 54/115/74 82/117/75
f 84/119/76 85/120/108 83/118/107
f 83/118/107 82/117/75 84/119/76
f 57/121/77 86/122/109 85/120/108
f 85/120/108 84/119/76 57/121/77
f 59/123/78 110/124/110 86/122/109
f 86/122/109 57/121/77 59/123/78
f 60/125/79 111/126/111 110/124/110
f 110/124/110 59/123/78 60/125/79
f 87/127/80 88/128/112 111/126/111
f 111/126/111 60/125/79 87/127/80
f 47/129/65 102/130/98 88/128/112
f 88/128/112 87/127/80 47/129/65
f 101/131/81 89/132/82 90/133/64
f 90/133/64 89/132/82 36/134/49
f 89/132/82 91/135/83 36/134/49
f 36/134/49 91/135/83 37/136/50
f 91/135/83 62/137/84 37/136/50
f 37/136/50 62/137/84 38/138/51
f 62/137/84 63/139/85 38/138/51
f 38/138/51 63/139/85 92/140/52
f 63/139/85 64/141/86 92/140/52
f 92/140/52 64/141/86 93/142/53
f 64/141/86 94/143/87 93/142/53
f 93/142/53 94/143/87 39/144/54
f 94/143/87 65/145/88 39/144/54
f 39/144/54 65/145/88 95/146/55
f 65/145/88 66/147/89 95/146/55
f 95/146/55 66/147/89 40/148/56
f 66/147/89 96/149/90 40/148/56
f 40/148/56 96/149/90 41/150/57
f 96/149/90 97/151/91 41/150/57
f 41/150/57 97/151/91 42/152/58
f 97/151/91 67/153/92 42/152/58
f 42/152/58 67/153/92 43/154/59
f 67/153/92 68/155/93 43/154/59
f 43/154/59 68/155/93 44/156/60
f 68/155/93 69/157/94 44/156/60
f 44/156/60 69/157/94 45/158/61
f 69/157/94 98/159/95 45/158/61
f 45/158/61 98/159/95 99/160/62
f 98/159/95 70/161/96 99/160/62
f 99/160/62 70/161/96 100/162/63
f 70/161/96 101/163/81 100/162/63
f 100/162/63 101/163/81 90/164/64
f 35/165/47 34/166/46 102/167/98
f 102/167/98 72/98/97 35/165/47
f 103/168/48 35/165/47 72/98/97
f 72/98/97 73/102/99 103/168/48
f 104/169/33 103/168/48 73/102/99
f 73/102/99 105/104/100 104/169/33
f 24/170/34 104/169/33 105/104/100
f 105/104/100 106/171/101 24/170/34
f 25/172/35 24/170/34 106/171/101
f 106/171/101 77/173/102 25/172/35
f 26/174/36 25/172/35 77/173/102
f 77/173/102 107/110/103 26/174/36
f 27/175/37 26/174/36 107/110/103
f 107/110/103 80/112/104 27/175/37
f 28/176/38 27/175/37 80/112/104
f 80/112/104 108/114/105 28/176/38
f 29/177/39 28/176/38 108/114/105
f 108/114/105 81/116/106 29/177/39
f 30/178/40 29/177/39 81/116/106
f 81/116/106 83/179/107 30/178/40
f 109/180/41 30/178/40 83/179/107
f 83/179/107 85/181/108 109/180/41
f 31/182/42 109/180/41 85/181/108
f 85/181/108 86/122/109 31/182/42
f 32/183/43 31/182/42 86/122/109
f 86/122/109 110/124/110 32/183/43
f 33/184/44 32/183/43 110/124/110
f 110/124/110 111/126/111 33/184/44
f 112/185/45 33/184/44 111/126/111
f 111/126/111 88/186/112 112/185/45
f 34/187/46 112/185/45 88/186/112
f 88/186/112 102/188/98 34/187/46
