# Blender v2.79 (sub 0) OBJ File: 'kitchen_miska.obj'
# www.blender.org
mtllib kitchen_miska.mtl
o dec
v 0.097111 0.013074 -0.040229
v 0.048517 0.112785 -0.117132
v 0.012205 0.112787 -0.126664
v -0.040218 0.013072 -0.097114
v -0.059064 0.112788 -0.111720
v -0.117131 0.112783 -0.048519
v -0.097102 0.013069 0.040212
v -0.117131 0.112788 0.048519
v -0.089648 0.112789 0.089651
v -0.040218 0.013071 0.097098
v 0.058596 0.100535 0.110285
v 0.074326 0.013069 0.074311
v 0.059064 0.112786 0.111416
v 0.000005 0.001421 -0.000008
v -0.067255 0.001423 0.067253
v -0.095115 0.001421 -0.000009
v -0.067255 0.001419 -0.067270
v 0.000005 0.001418 -0.095131
v 0.036405 0.001422 -0.087887
v 0.087884 0.001417 -0.036413
v 0.087884 0.001424 0.036396
v 0.067264 0.001423 0.067253
v 0.126782 0.112786 0.000000
v 0.117131 0.112783 -0.048519
v 0.083670 0.014148 -0.048317
v 0.096613 0.014152 -0.000009
v 0.089648 0.112782 -0.089652
v 0.048309 0.014152 -0.083674
v 0.000005 0.014153 -0.096616
v -0.089648 0.112782 -0.089651
v -0.083661 0.014148 -0.048317
v -0.126782 0.112786 0.000000
v -0.096604 0.014152 -0.000009
v -0.083661 0.014148 0.048291
v -0.048517 0.112786 0.117132
v 0.089648 0.112789 0.089651
v 0.083670 0.014148 0.048291
v 0.117131 0.112788 0.048519
v 0.105112 0.013071 -0.000009
v 0.095124 0.001421 -0.000009
v 0.074326 0.013074 -0.074328
v 0.067264 0.001419 -0.067270
v 0.040227 0.013072 -0.097114
v 0.000005 0.013069 -0.105118
v -0.036396 0.001422 -0.087887
v -0.074317 0.013074 -0.074328
v -0.097102 0.013074 -0.040229
v -0.087875 0.001417 -0.036413
v -0.105102 0.013071 -0.000009
v -0.087875 0.001424 0.036396
v -0.074317 0.013069 0.074311
v -0.036396 0.001420 0.087870
v 0.000005 0.013074 0.105101
v 0.000005 0.001423 0.095113
v 0.040227 0.013071 0.097098
v 0.036405 0.001420 0.087870
v 0.097111 0.013069 0.040212
v 0.012205 0.100536 -0.125439
v -0.008388 0.100630 -0.157208
v -0.058596 0.100538 -0.110589
v -0.052412 0.100628 -0.148453
v -0.011394 0.112784 0.125202
v -0.011394 0.100534 0.123979
v 0.052412 0.100629 0.148454
v 0.008388 0.100627 0.157208
v 0.000005 0.014151 -0.000009
v -0.048300 0.014152 0.083657
v 0.000005 0.014152 0.096599
v 0.048309 0.014152 0.083657
v -0.048300 0.014152 -0.083674
vt 0.789600 0.289400
vt 0.789600 0.314700
vt 0.724500 0.289300
vt 0.724500 0.314700
vt 0.789600 0.340100
vt 0.724500 0.340100
vt 0.789600 0.365500
vt 0.724500 0.365500
vt 0.789600 0.391000
vt 0.732500 0.384700
vt 0.724500 0.384800
vt 0.789600 0.416500
vt 0.732500 0.422600
vt 0.789600 0.009900
vt 0.789600 0.035300
vt 0.732500 0.016000
vt 0.724500 0.035300
vt 0.724500 0.016000
vt 0.789600 0.060700
vt 0.724500 0.060700
vt 0.789600 0.086100
vt 0.724500 0.086100
vt 0.789600 0.111400
vt 0.724500 0.111400
vt 0.789600 0.136800
vt 0.724500 0.136800
vt 0.789600 0.162200
vt 0.724500 0.162200
vt 0.789600 0.187700
vt 0.732500 0.181800
vt 0.724500 0.181800
vt 0.732500 0.219400
vt 0.789600 0.213200
vt 0.789600 0.238600
vt 0.724500 0.238600
vt 0.724500 0.219300
vt 0.789600 0.264000
vt 0.724500 0.264000
vt 0.080800 0.634900
vt 0.135500 0.634900
vt 0.131400 0.613900
vt 0.119500 0.596100
vt 0.101700 0.584200
vt 0.080800 0.580100
vt 0.059900 0.584200
vt 0.042100 0.596100
vt 0.030200 0.613900
vt 0.026100 0.634900
vt 0.030200 0.655900
vt 0.042100 0.673700
vt 0.059900 0.685600
vt 0.080800 0.689800
vt 0.101700 0.685600
vt 0.119500 0.673700
vt 0.131400 0.655900
vt 0.652900 0.282400
vt 0.652900 0.307800
vt 0.717300 0.316200
vt 0.717300 0.282400
vt 0.652900 0.333100
vt 0.717300 0.350100
vt 0.652900 0.358600
vt 0.652900 0.377800
vt 0.717300 0.384000
vt 0.652900 0.415600
vt 0.717300 0.418000
vt 0.652900 0.009000
vt 0.652900 0.028400
vt 0.717300 0.011400
vt 0.652900 0.053800
vt 0.717300 0.045300
vt 0.652900 0.079100
vt 0.717300 0.079100
vt 0.652900 0.104500
vt 0.717300 0.112900
vt 0.652900 0.129900
vt 0.652900 0.155300
vt 0.717300 0.146800
vt 0.652900 0.174900
vt 0.717300 0.180800
vt 0.652900 0.212400
vt 0.717300 0.214700
vt 0.652900 0.231700
vt 0.717300 0.248600
vt 0.652900 0.257100
vt 0.789600 0.289300
vt 0.799200 0.289300
vt 0.799200 0.314700
vt 0.799200 0.340100
vt 0.799200 0.365500
vt 0.789600 0.390900
vt 0.799200 0.390900
vt 0.789600 0.416300
vt 0.799200 0.416300
vt 0.789600 0.009800
vt 0.799200 0.009800
vt 0.789600 0.035200
vt 0.799200 0.035200
vt 0.789600 0.060600
vt 0.799200 0.060600
vt 0.789600 0.086000
vt 0.799200 0.086000
vt 0.799200 0.111400
vt 0.799200 0.136800
vt 0.799200 0.162200
vt 0.789600 0.187600
vt 0.799200 0.187600
vt 0.789600 0.213000
vt 0.799200 0.213000
vt 0.789600 0.238400
vt 0.799200 0.238400
vt 0.789600 0.263900
vt 0.799200 0.263900
vt 0.024300 0.696900
vt 0.017300 0.737900
vt 0.038600 0.733600
vt 0.043100 0.708100
vt 0.021600 0.746600
vt 0.017300 0.737900
vt 0.024300 0.696900
vt 0.031400 0.690200
vt 0.017300 0.737900
vt 0.024300 0.696900
vt 0.043100 0.708100
vt 0.038600 0.733600
vt 0.031400 0.690300
vt 0.024300 0.696900
vt 0.017300 0.737900
vt 0.021600 0.746600
vt 0.210600 0.634100
vt 0.182900 0.585800
vt 0.210600 0.578300
vt 0.238400 0.585800
vt 0.258800 0.606200
vt 0.266200 0.634100
vt 0.258800 0.661900
vt 0.238400 0.682300
vt 0.210600 0.689800
vt 0.182900 0.682300
vt 0.162500 0.661900
vt 0.155100 0.634100
vt 0.162500 0.606200
vn 0.9012 -0.4335 0.0000
vn 0.8326 -0.4333 -0.3449
vn 0.3691 0.9252 0.0884
vn 0.3890 0.9183 -0.0730
vn 0.6373 -0.4333 -0.6373
vn 0.1123 0.9047 -0.4110
vn 0.3499 -0.4404 -0.8268
vn 0.3699 0.9057 -0.2070
vn -0.0105 -0.4376 -0.8991
vn 0.3052 -0.3568 -0.8829
vn 0.5932 0.8010 0.0800
vn -0.3364 -0.4348 -0.8353
vn -0.6165 -0.3557 -0.7024
vn -0.6391 -0.4386 -0.6318
vn -0.3788 0.9196 -0.1036
vn -0.5174 0.7909 0.3269
vn -0.8326 -0.4333 -0.3449
vn -0.3048 0.9328 -0.1924
vn -0.9012 -0.4335 0.0000
vn -0.3692 0.9251 -0.0885
vn -0.8325 -0.4335 0.3448
vn -0.2792 0.9208 0.2722
vn -0.6372 -0.4335 0.6372
vn -0.2474 0.9367 0.2475
vn -0.3477 -0.4375 0.8292
vn -0.3399 0.9099 0.2375
vn 0.0087 -0.4318 0.9019
vn -0.2938 -0.3580 0.8863
vn -0.5990 0.7931 -0.1101
vn 0.6126 -0.3565 0.7054
vn 0.3362 -0.4330 0.8363
vn 0.6388 -0.4383 0.6322
vn 0.4581 0.8880 0.0395
vn 0.4984 0.8138 -0.2987
vn 0.8325 -0.4335 0.3448
vn 0.3048 0.9328 0.1922
vn 0.0000 -1.0000 0.0000
vn 0.0000 -0.8884 0.4590
vn -0.1756 -0.8884 0.4241
vn -0.3246 -0.8884 0.3246
vn -0.4240 -0.8884 0.1757
vn -0.4590 -0.8884 0.0001
vn -0.4242 -0.8883 -0.1758
vn -0.3246 -0.8883 -0.3247
vn -0.1757 -0.8884 -0.4241
vn 0.0000 -0.8884 -0.4590
vn 0.1757 -0.8884 -0.4241
vn 0.3246 -0.8883 -0.3247
vn 0.4242 -0.8883 -0.1757
vn 0.4590 -0.8884 0.0000
vn 0.4240 -0.8884 0.1757
vn 0.3246 -0.8884 0.3246
vn 0.1756 -0.8884 0.4241
vn -0.5656 0.7508 0.3410
vn -0.6474 0.7621 0.0065
vn -0.3360 0.7616 0.5540
vn 0.0140 0.7575 0.6527
vn 0.3113 0.7613 0.5688
vn 0.5562 0.7674 0.3189
vn 0.6474 0.7621 -0.0065
vn 0.5618 0.7648 -0.3152
vn 0.3188 0.7674 -0.5562
vn -0.0164 0.7547 -0.6558
vn -0.3262 0.7517 -0.5731
vn -0.5550 0.7633 -0.3305
vn 0.1633 -0.1577 -0.9739
vn -0.5350 -0.1550 -0.8305
vn -0.1860 -0.1526 0.9706
vn 0.5354 -0.1536 0.8305
vn 0.0000 1.0000 0.0000
usemtl dec
s 1
f 39/1/1 1/2/2 23/3/3
f 23/3/3 1/2/2 24/4/4
f 1/2/2 41/5/5 24/4/4
f 24/4/4 41/5/5 27/6/6
f 41/5/5 43/7/7 27/6/6
f 27/6/6 43/7/7 2/8/8
f 43/7/7 44/9/9 58/10/10
f 2/8/8 43/7/7 58/10/10
f 2/8/8 58/10/10 3/11/11
f 4/12/12 60/13/13 44/9/9
f 44/9/9 60/13/13 58/10/10
f 4/14/12 46/15/14 60/16/13
f 60/16/13 46/15/14 30/17/15
f 30/17/15 5/18/16 60/16/13
f 46/15/14 47/19/17 30/17/15
f 30/17/15 47/19/17 6/20/18
f 47/19/17 49/21/19 6/20/18
f 6/20/18 49/21/19 32/22/20
f 49/21/19 7/23/21 32/22/20
f 32/22/20 7/23/21 8/24/22
f 7/23/21 51/25/23 8/24/22
f 8/24/22 51/25/23 9/26/24
f 51/25/23 10/27/25 9/26/24
f 9/26/24 10/27/25 35/28/26
f 10/27/25 53/29/27 63/30/28
f 35/28/26 10/27/25 63/30/28
f 35/28/26 63/30/28 62/31/29
f 11/32/30 63/30/28 55/33/31
f 55/33/31 63/30/28 53/29/27
f 55/33/31 12/34/32 11/32/30
f 11/32/30 12/34/32 36/35/33
f 36/35/33 13/36/34 11/32/30
f 12/34/32 57/37/35 36/35/33
f 36/35/33 57/37/35 38/38/36
f 57/37/35 39/1/1 38/38/36
f 38/38/36 39/1/1 23/3/3
f 14/39/37 54/40/38 52/41/39
f 14/39/37 52/41/39 15/42/40
f 14/39/37 15/42/40 50/43/41
f 14/39/37 50/43/41 16/44/42
f 14/39/37 16/44/42 48/45/43
f 14/39/37 48/45/43 17/46/44
f 14/39/37 17/46/44 45/47/45
f 14/39/37 45/47/45 18/48/46
f 14/39/37 18/48/46 19/49/47
f 14/39/37 19/49/47 42/50/48
f 14/39/37 42/50/48 20/51/49
f 14/39/37 20/51/49 40/52/50
f 14/39/37 40/52/50 21/53/51
f 14/39/37 21/53/51 22/54/52
f 14/39/37 22/54/52 56/55/53
f 14/39/37 56/55/53 54/40/38
f 23/56/3 24/57/4 25/58/54
f 25/58/54 26/59/55 23/56/3
f 24/57/4 27/60/6 28/61/56
f 28/61/56 25/58/54 24/57/4
f 27/60/6 2/62/8 28/61/56
f 2/62/8 3/63/11 29/64/57
f 29/64/57 28/61/56 2/62/8
f 3/63/11 5/65/16 70/66/58
f 70/66/58 29/64/57 3/63/11
f 5/67/16 30/68/15 70/69/58
f 30/68/15 6/70/18 31/71/59
f 31/71/59 70/69/58 30/68/15
f 6/70/18 32/72/20 33/73/60
f 33/73/60 31/71/59 6/70/18
f 32/72/20 8/74/22 34/75/61
f 34/75/61 33/73/60 32/72/20
f 8/74/22 9/76/24 34/75/61
f 9/76/24 35/77/26 67/78/62
f 67/78/62 34/75/61 9/76/24
f 35/77/26 62/79/29 68/80/63
f 68/80/63 67/78/62 35/77/26
f 62/79/29 13/81/34 69/82/64
f 69/82/64 68/80/63 62/79/29
f 13/81/34 36/83/33 37/84/65
f 37/84/65 69/82/64 13/81/34
f 36/83/33 38/85/36 37/84/65
f 38/85/36 23/56/3 26/59/55
f 26/59/55 37/84/65 38/85/36
f 39/86/1 40/87/50 1/2/2
f 1/2/2 40/87/50 20/88/49
f 1/2/2 20/88/49 41/5/5
f 41/5/5 20/88/49 42/89/48
f 41/5/5 42/89/48 43/7/7
f 43/7/7 42/89/48 19/90/47
f 43/7/7 19/90/47 44/91/9
f 44/91/9 19/90/47 18/92/46
f 44/91/9 18/92/46 4/93/12
f 4/93/12 18/92/46 45/94/45
f 4/95/12 45/96/45 46/97/14
f 46/97/14 45/96/45 17/98/44
f 46/97/14 17/98/44 47/99/17
f 47/99/17 17/98/44 48/100/43
f 47/99/17 48/100/43 49/101/19
f 49/101/19 48/100/43 16/102/42
f 49/101/19 16/102/42 7/23/21
f 7/23/21 16/102/42 50/103/41
f 7/23/21 50/103/41 51/25/23
f 51/25/23 50/103/41 15/104/40
f 51/25/23 15/104/40 10/27/25
f 10/27/25 15/104/40 52/105/39
f 10/27/25 52/105/39 53/106/27
f 53/106/27 52/105/39 54/107/38
f 53/106/27 54/107/38 55/108/31
f 55/108/31 54/107/38 56/109/53
f 55/108/31 56/109/53 12/110/32
f 12/110/32 56/109/53 22/111/52
f 12/110/32 22/111/52 57/112/35
f 57/112/35 22/111/52 21/113/51
f 57/112/35 21/113/51 39/86/1
f 39/86/1 21/113/51 40/87/50
f 5/114/16 3/115/11 59/116/66
f 59/116/66 61/117/67 5/114/16
f 3/115/11 58/118/10 59/116/66
f 58/119/10 60/120/13 61/117/67
f 61/117/67 59/116/66 58/119/10
f 60/121/13 5/114/16 61/117/67
f 13/122/34 62/123/29 65/124/68
f 65/124/68 64/125/69 13/122/34
f 62/123/29 63/126/28 65/124/68
f 63/127/28 11/128/30 64/125/69
f 64/125/69 65/124/68 63/127/28
f 11/129/30 13/122/34 64/125/69
f 66/130/70 31/131/59 33/132/60
f 66/130/70 33/132/60 34/133/61
f 66/130/70 34/133/61 67/134/62
f 66/130/70 67/134/62 68/135/63
f 66/130/70 68/135/63 69/136/64
f 66/130/70 69/136/64 37/137/65
f 66/130/70 37/137/65 26/138/55
f 66/130/70 26/138/55 25/139/54
f 66/130/70 25/139/54 28/140/56
f 66/130/70 28/140/56 29/141/57
f 66/130/70 29/141/57 70/142/58
f 66/130/70 70/142/58 31/131/59
