# Blender v2.79 (sub 0) OBJ File: 'dek_lampa.obj'
# www.blender.org
mtllib dek_lampa.mtl
o lamp
v -0.177756 0.495272 0.177756
v -0.215163 0.586849 0.001212
v -0.250883 0.495272 0.001212
v -0.152498 0.586849 0.152498
v -0.042629 0.686371 0.042629
v -0.059785 0.686371 0.001212
v 0.023497 0.666287 0.000000
v 0.016615 0.666287 0.016615
v 0.013148 0.666287 0.013149
v 0.018595 0.666287 0.000000
v 0.013148 0.659591 0.013149
v 0.018595 0.659591 0.000000
v 0.018009 0.648099 0.018009
v 0.025468 0.648099 0.000000
v 0.020374 0.635135 0.020374
v 0.028813 0.635135 0.000000
v 0.020374 0.621744 0.020374
v 0.028813 0.621744 0.000000
v 0.018263 0.615751 0.018263
v 0.025827 0.615751 0.000000
v 0.009914 0.609433 0.009915
v 0.014021 0.609433 0.000000
v 0.000000 0.609433 0.000000
v 0.009914 0.609433 -0.009914
v 0.018263 0.615751 -0.018263
v 0.020374 0.621744 -0.020374
v 0.020374 0.635135 -0.020374
v 0.018009 0.648099 -0.018008
v 0.013148 0.659591 -0.013148
v 0.013148 0.666287 -0.013148
v 0.016615 0.666287 -0.016614
v 0.016615 0.686371 -0.016614
v 0.023497 0.686371 0.000000
v -0.023497 0.666287 0.000000
v -0.016615 0.666287 -0.016614
v -0.013148 0.666287 -0.013148
v -0.018595 0.666287 0.000000
v -0.013148 0.659591 -0.013148
v -0.018595 0.659591 0.000000
v -0.018009 0.648099 -0.018008
v -0.025468 0.648099 0.000000
v -0.020374 0.635135 -0.020374
v -0.028813 0.635135 0.000000
v -0.020374 0.621744 -0.020374
v -0.028813 0.621744 0.000000
v -0.018263 0.615751 -0.018263
v -0.025827 0.615751 0.000000
v -0.009914 0.609433 -0.009914
v -0.014021 0.609433 0.000000
v -0.009914 0.609433 0.009915
v -0.018263 0.615751 0.018263
v -0.020374 0.621744 0.020374
v -0.020374 0.635135 0.020374
v -0.018009 0.648099 0.018009
v -0.013148 0.659591 0.013149
v -0.013148 0.666287 0.013149
v -0.016615 0.666287 0.016615
v -0.016615 0.686371 0.016615
v -0.023497 0.686371 0.000000
v -0.152498 0.586849 -0.150074
v -0.177756 0.495272 -0.175332
v -0.042629 0.686371 -0.040206
v -0.001212 0.586849 -0.212739
v -0.001212 0.495273 -0.248459
v -0.001212 0.686371 -0.057361
v -0.001212 0.686371 0.059785
v -0.005144 0.686371 0.005144
v 0.002720 0.686371 0.005144
v 0.040206 0.686371 0.042629
v 0.002720 0.686371 -0.002720
v 0.040206 0.686371 -0.040206
v -0.005144 0.686371 -0.002720
v -0.005144 0.991720 -0.002720
v -0.005144 0.991720 0.005144
v 0.002720 0.991720 0.005144
v 0.002720 0.991720 -0.002720
v 0.010584 0.991720 -0.010583
v -0.013007 0.991720 -0.010583
v -0.013007 0.991720 0.013008
v 0.010584 0.991720 0.013008
v 0.010584 1.004444 0.013008
v 0.010584 1.004444 -0.010583
v -0.013007 1.004444 -0.010583
v -0.013007 1.004444 0.013008
v 0.057361 0.686371 0.001212
v 0.175332 0.495272 -0.175332
v 0.212739 0.586849 0.001212
v 0.248459 0.495272 0.001212
v 0.150074 0.586849 -0.150074
v -0.001212 0.495272 0.250883
v -0.001212 0.586849 0.215163
v 0.000000 0.666287 0.023497
v 0.000000 0.666287 0.018595
v 0.000000 0.659591 0.018595
v 0.000000 0.648099 0.025468
v 0.000000 0.635135 0.028813
v 0.000000 0.621744 0.028813
v 0.000000 0.615751 0.025828
v 0.000000 0.609433 0.014021
v 0.016615 0.686371 0.016615
v 0.000000 0.686371 0.023497
v 0.175332 0.495272 0.177756
v 0.150074 0.586849 0.152498
v 0.000000 0.666287 -0.023496
v 0.000000 0.666287 -0.018595
v 0.000000 0.659591 -0.018595
v 0.000000 0.648099 -0.025468
v 0.000000 0.635135 -0.028813
v 0.000000 0.621744 -0.028813
v 0.000000 0.615751 -0.025827
v 0.000000 0.609433 -0.014021
v -0.016615 0.686371 -0.016614
v 0.000000 0.686371 -0.023496
v -0.176315 0.496154 0.176315
v -0.213416 0.586984 0.001212
v -0.248845 0.496154 0.001212
v -0.151263 0.586984 0.151263
v -0.042291 0.685693 0.042291
v -0.059307 0.685693 0.001212
v -0.151263 0.586984 -0.148839
v -0.176315 0.496154 -0.173891
v -0.042291 0.685693 -0.039868
v -0.001212 0.586984 -0.210992
v -0.001212 0.496155 -0.246421
v -0.001212 0.685693 -0.056883
v -0.001212 0.685693 0.059307
v -0.005112 0.685693 0.005112
v 0.002688 0.685693 0.005112
v 0.039868 0.685693 0.042291
v 0.002688 0.685693 -0.002688
v 0.039868 0.685693 -0.039868
v -0.005112 0.685693 -0.002688
v 0.056883 0.685693 0.001212
v 0.173891 0.496154 -0.173891
v 0.210992 0.586984 0.001212
v 0.246421 0.496154 0.001212
v 0.148839 0.586984 -0.148839
v -0.001212 0.496154 0.248845
v -0.001212 0.586984 0.213416
v 0.173891 0.496154 0.176315
v 0.148839 0.586984 0.151263
vt 0.757887 -0.005569
vt 0.526172 0.092722
vt 0.508319 -0.005569
vt 0.740034 0.092722
vt 0.662377 0.269101
vt 0.603829 0.269101
vt -0.342400 -0.113493
vt -0.272007 -0.106324
vt -0.281685 -0.093366
vt -0.337393 -0.099040
vt -0.000225 0.000806
vt -0.000052 0.000953
vt -0.000267 0.000884
vt -0.000010 0.000875
vt -0.000182 0.000640
vt 0.000112 0.000734
vt -0.000118 0.000478
vt 0.000214 0.000585
vt -0.000035 0.000322
vt 0.000298 0.000428
vt 0.000024 0.000250
vt 0.000322 0.000346
vt 0.000171 0.000125
vt 0.000333 0.000177
vt 0.000333 0.000000
vt 0.000495 0.000125
vt 0.000642 0.000250
vt 0.000700 0.000322
vt 0.000367 0.000428
vt 0.000784 0.000478
vt 0.000451 0.000585
vt 0.000848 0.000640
vt 0.000554 0.000734
vt 0.000890 0.000806
vt 0.000675 0.000875
vt 0.000932 0.000884
vt 0.000717 0.000953
vt -0.393076 -0.104723
vt -0.412763 -0.120675
vt -0.402389 -0.181434
vt -0.332026 -0.174252
vt -0.342400 -0.113493
vt -0.272007 -0.106324
vt -0.281685 -0.093366
vt -0.337393 -0.099040
vt -0.000225 0.000806
vt -0.000052 0.000953
vt -0.000267 0.000884
vt -0.000010 0.000875
vt -0.000182 0.000640
vt 0.000112 0.000734
vt -0.000118 0.000478
vt 0.000214 0.000585
vt -0.000035 0.000322
vt 0.000298 0.000428
vt 0.000024 0.000250
vt 0.000322 0.000346
vt 0.000171 0.000125
vt 0.000333 0.000177
vt 0.000495 0.000125
vt 0.000642 0.000250
vt 0.000700 0.000322
vt 0.000367 0.000428
vt 0.000784 0.000478
vt 0.000451 0.000585
vt 0.000848 0.000640
vt 0.000554 0.000734
vt 0.000890 0.000806
vt 0.000675 0.000875
vt 0.000932 0.000884
vt 0.000717 0.000953
vt -0.393076 -0.104723
vt -0.412763 -0.120675
vt -0.402389 -0.181434
vt -0.332026 -0.174252
vt 0.757887 -0.005569
vt 0.526172 0.092722
vt 0.508319 -0.005569
vt 0.740034 0.092722
vt 0.662377 0.269101
vt 0.603829 0.269101
vt 0.757887 -0.005569
vt 0.526172 0.092722
vt 0.508319 -0.005569
vt 0.740034 0.092722
vt 0.662377 0.269101
vt 0.603829 0.269101
vt -1.959340 2.395250
vt -1.959340 2.478890
vt -1.981740 2.437070
vt -1.905240 2.377920
vt -1.910380 2.433100
vt -1.900110 2.433100
vt -1.851150 2.395250
vt -1.900110 2.441040
vt -1.851150 2.478890
vt -1.905240 2.496210
vt -1.910380 2.441040
vt -1.511590 2.441040
vt -1.511590 2.433100
vt -1.900110 2.741430
vt -1.910380 2.741430
vt -2.298900 2.433100
vt -2.298900 2.441040
vt -1.910380 2.132710
vt -1.900110 2.132710
vt -1.838490 3.431750
vt -1.859030 3.439690
vt -1.848760 3.431750
vt -1.828220 3.439690
vt -1.828220 3.415870
vt -1.838490 3.423810
vt -1.859030 3.415870
vt -1.848760 3.423810
vt -1.889840 3.452530
vt -1.889840 3.439690
vt -1.859030 3.452530
vt -1.828220 3.452530
vt -1.920650 3.439690
vt -1.951460 3.452530
vt -1.951460 3.439690
vt -1.920650 3.452530
vt -1.828750 2.437070
vt 0.757887 -0.005569
vt 0.526172 0.092722
vt 0.508319 -0.005569
vt 0.740034 0.092722
vt 0.662377 0.269101
vt 0.603829 0.269101
vt 0.757887 -0.005569
vt 0.526172 0.092722
vt 0.508319 -0.005569
vt 0.740034 0.092722
vt 0.662377 0.269101
vt 0.603829 0.269101
vt -0.342400 -0.113493
vt -0.272007 -0.106324
vt -0.281685 -0.093366
vt -0.337393 -0.099040
vt -0.000225 0.000806
vt -0.000052 0.000953
vt -0.000267 0.000884
vt -0.000010 0.000875
vt -0.000182 0.000640
vt 0.000112 0.000734
vt -0.000118 0.000478
vt 0.000214 0.000585
vt -0.000035 0.000322
vt 0.000298 0.000428
vt 0.000024 0.000250
vt 0.000322 0.000346
vt 0.000171 0.000125
vt 0.000333 0.000177
vt 0.000495 0.000125
vt 0.000642 0.000250
vt 0.000700 0.000322
vt 0.000367 0.000428
vt 0.000784 0.000478
vt 0.000451 0.000585
vt 0.000848 0.000640
vt 0.000554 0.000734
vt 0.000890 0.000806
vt 0.000675 0.000875
vt 0.000932 0.000884
vt 0.000717 0.000953
vt -0.393076 -0.104723
vt -0.412763 -0.120675
vt -0.402389 -0.181434
vt -0.332026 -0.174252
vt 0.757887 -0.005569
vt 0.526172 0.092722
vt 0.508319 -0.005569
vt 0.740034 0.092722
vt 0.662377 0.269101
vt 0.603829 0.269101
vt 0.757887 -0.005569
vt 0.526172 0.092722
vt 0.508319 -0.005569
vt 0.740034 0.092722
vt 0.662377 0.269101
vt 0.603829 0.269101
vt -0.342400 -0.113493
vt -0.272007 -0.106324
vt -0.281685 -0.093366
vt -0.337393 -0.099040
vt -0.000225 0.000806
vt -0.000052 0.000953
vt -0.000267 0.000884
vt -0.000010 0.000875
vt -0.000182 0.000640
vt 0.000112 0.000734
vt -0.000118 0.000478
vt 0.000214 0.000585
vt -0.000035 0.000322
vt 0.000298 0.000428
vt 0.000024 0.000250
vt 0.000322 0.000346
vt 0.000171 0.000125
vt 0.000333 0.000177
vt 0.000495 0.000125
vt 0.000642 0.000250
vt 0.000700 0.000322
vt 0.000367 0.000428
vt 0.000784 0.000478
vt 0.000451 0.000585
vt 0.000848 0.000640
vt 0.000554 0.000734
vt 0.000890 0.000806
vt 0.000675 0.000875
vt 0.000932 0.000884
vt 0.000717 0.000953
vt -0.393076 -0.104723
vt -0.412763 -0.120675
vt -0.402389 -0.181434
vt -0.332026 -0.174252
vt 0.757887 -0.005569
vt 0.526172 0.092722
vt 0.508319 -0.005569
vt 0.740034 0.092722
vt 0.662377 0.269101
vt 0.603829 0.269101
vt 1.000000 0.000000
vt 0.000000 1.000000
vt 0.000000 0.000000
vt 1.000000 1.000000
vt 1.000000 0.000000
vt 0.000000 1.000000
vt 0.000000 0.000000
vt 1.000000 1.000000
vt 1.000000 0.000000
vt 0.000000 1.000000
vt 0.000000 0.000000
vt 1.000000 1.000000
vt 1.000000 0.000000
vt 0.000000 1.000000
vt 0.000000 0.000000
vt 1.000000 1.000000
vt 0.757887 -0.005569
vt 0.508319 -0.005569
vt 0.526172 0.092722
vt 0.740034 0.092722
vt 0.662377 0.269101
vt 0.603829 0.269101
vt 0.757887 -0.005569
vt 0.508319 -0.005569
vt 0.526172 0.092722
vt 0.740034 0.092722
vt 0.662377 0.269101
vt 0.603829 0.269101
vt 0.757887 -0.005569
vt 0.508319 -0.005569
vt 0.526172 0.092722
vt 0.740034 0.092722
vt 0.662377 0.269101
vt 0.603829 0.269101
vt -1.959340 2.395250
vt -1.981740 2.437070
vt -1.959340 2.478890
vt -1.905240 2.377920
vt -1.910380 2.433100
vt -1.900110 2.433100
vt -1.851150 2.395250
vt -1.900110 2.441040
vt -1.851150 2.478890
vt -1.905240 2.496210
vt -1.910380 2.441040
vt -1.828750 2.437070
vt 0.757887 -0.005569
vt 0.508319 -0.005569
vt 0.526172 0.092722
vt 0.740034 0.092722
vt 0.662377 0.269101
vt 0.603829 0.269101
vt 0.757887 -0.005569
vt 0.508319 -0.005569
vt 0.526172 0.092722
vt 0.740034 0.092722
vt 0.662377 0.269101
vt 0.603829 0.269101
vt 0.757887 -0.005569
vt 0.508319 -0.005569
vt 0.526172 0.092722
vt 0.740034 0.092722
vt 0.662377 0.269101
vt 0.603829 0.269101
vt 0.757887 -0.005569
vt 0.508319 -0.005569
vt 0.526172 0.092722
vt 0.740034 0.092722
vt 0.662377 0.269101
vt 0.603829 0.269101
vt 0.757887 -0.005569
vt 0.508319 -0.005569
vt 0.526172 0.092722
vt 0.740034 0.092722
vt 0.662377 0.269101
vt 0.603829 0.269101
vn -0.6588 0.3634 0.6588
vn -0.8008 0.5989 -0.0000
vn -0.9316 0.3634 -0.0000
vn -0.5662 0.5989 0.5662
vn -0.2424 0.9394 0.2424
vn -0.3429 0.9394 0.0000
vn 0.7764 -0.6303 -0.0000
vn 0.5490 -0.6303 0.5490
vn 0.4203 -0.8042 0.4203
vn 0.5944 -0.8042 -0.0000
vn 0.6778 0.2846 0.6779
vn 0.9587 0.2846 -0.0000
vn 0.6559 0.3736 0.6559
vn 0.9276 0.3736 -0.0000
vn 0.7018 0.1222 0.7018
vn 0.9925 0.1223 -0.0000
vn 0.6902 -0.2175 0.6902
vn 0.9761 -0.2175 -0.0000
vn 0.5304 -0.6613 0.5304
vn 0.7501 -0.6613 -0.0000
vn 0.2111 -0.9544 0.2111
vn 0.2985 -0.9544 -0.0000
vn 0.0000 -1.0000 0.0000
vn 0.2111 -0.9544 -0.2111
vn 0.5304 -0.6613 -0.5304
vn 0.6902 -0.2175 -0.6902
vn 0.7018 0.1223 -0.7018
vn 0.6559 0.3737 -0.6559
vn 0.6779 0.2846 -0.6779
vn 0.4203 -0.8042 -0.4203
vn 0.5490 -0.6303 -0.5490
vn 0.7071 0.0000 -0.7071
vn 1.0000 0.0000 -0.0000
vn -0.7764 -0.6303 -0.0000
vn -0.5490 -0.6303 -0.5490
vn -0.4203 -0.8042 -0.4203
vn -0.5944 -0.8042 -0.0000
vn -0.6779 0.2846 -0.6779
vn -0.9587 0.2846 0.0000
vn -0.6559 0.3736 -0.6559
vn -0.9276 0.3736 -0.0000
vn -0.7018 0.1223 -0.7018
vn -0.9925 0.1222 -0.0000
vn -0.6902 -0.2175 -0.6902
vn -0.9761 -0.2175 0.0000
vn -0.5304 -0.6613 -0.5304
vn -0.7501 -0.6613 0.0000
vn -0.2111 -0.9544 -0.2111
vn -0.2985 -0.9544 -0.0000
vn -0.2111 -0.9544 0.2111
vn -0.5304 -0.6613 0.5304
vn -0.6902 -0.2175 0.6902
vn -0.7018 0.1222 0.7018
vn -0.6559 0.3736 0.6559
vn -0.6779 0.2846 0.6779
vn -0.4203 -0.8042 0.4203
vn -0.5490 -0.6303 0.5490
vn -0.7071 -0.0000 0.7071
vn -1.0000 0.0000 -0.0000
vn -0.5662 0.5989 -0.5662
vn -0.6588 0.3634 -0.6588
vn -0.2424 0.9394 -0.2424
vn 0.0000 0.5989 -0.8008
vn -0.0000 0.3634 -0.9316
vn 0.0000 0.9394 -0.3429
vn -0.0000 0.9394 0.3429
vn -0.3015 0.9045 0.3015
vn 0.3015 0.9045 0.3015
vn 0.2424 0.9394 0.2424
vn 0.3015 0.9045 -0.3015
vn 0.2424 0.9394 -0.2424
vn -0.3015 0.9045 -0.3015
vn -0.3015 -0.9045 -0.3015
vn -0.3015 -0.9045 0.3015
vn 0.3015 -0.9045 0.3015
vn 0.3015 -0.9045 -0.3015
vn 0.5773 -0.5773 -0.5774
vn -0.5774 -0.5774 -0.5774
vn -0.5774 -0.5774 0.5773
vn 0.5773 -0.5773 0.5774
vn 0.7071 -0.0000 0.7071
vn -0.7071 0.0000 -0.7071
vn 0.3429 0.9394 0.0000
vn 0.6588 0.3634 -0.6588
vn 0.8008 0.5989 0.0000
vn 0.9316 0.3634 0.0000
vn 0.5662 0.5989 -0.5662
vn -0.0000 0.3634 0.9316
vn -0.0000 0.5989 0.8008
vn -0.0000 -0.6303 0.7764
vn 0.0000 -0.8042 0.5944
vn 0.0000 0.2846 0.9587
vn -0.0000 0.3736 0.9276
vn -0.0000 0.1222 0.9925
vn -0.0000 -0.2175 0.9761
vn -0.0000 -0.6613 0.7501
vn 0.0000 -0.9544 0.2985
vn -0.0000 -0.0000 1.0000
vn 0.6588 0.3634 0.6588
vn 0.5662 0.5989 0.5662
vn 0.0000 -0.6303 -0.7764
vn -0.0000 -0.8042 -0.5944
vn -0.0000 0.2846 -0.9587
vn -0.0000 0.3736 -0.9276
vn -0.0000 0.1223 -0.9925
vn -0.0000 -0.2175 -0.9761
vn -0.0000 -0.6613 -0.7501
vn 0.0000 -0.9544 -0.2985
vn 0.0000 0.0000 -1.0000
vn 0.6588 -0.3634 -0.6588
vn 0.9316 -0.3634 0.0000
vn 0.8008 -0.5989 0.0000
vn 0.5662 -0.5989 -0.5662
vn 0.2424 -0.9394 -0.2424
vn 0.3429 -0.9394 -0.0000
vn 0.6588 -0.3634 0.6588
vn 0.5662 -0.5989 0.5662
vn 0.2424 -0.9394 0.2424
vn 0.0000 -0.3634 0.9316
vn -0.0000 -0.5989 0.8008
vn -0.0000 -0.9394 0.3429
vn 0.0000 -0.9394 -0.3429
vn -0.2424 -0.9394 -0.2424
vn -0.2424 -0.9394 0.2424
vn -0.3429 -0.9394 -0.0000
vn -0.6588 -0.3634 0.6588
vn -0.9316 -0.3634 -0.0000
vn -0.8008 -0.5989 -0.0000
vn -0.5662 -0.5989 0.5662
vn 0.0000 -0.3634 -0.9316
vn 0.0000 -0.5989 -0.8008
vn -0.6588 -0.3634 -0.6588
vn -0.5662 -0.5989 -0.5662
usemtl lamp
s 1
f 1/1/1 2/2/2 3/3/3
f 2/2/2 1/1/1 4/4/4
f 5/5/5 2/2/2 4/4/4
f 2/2/2 5/5/5 6/6/6
f 7/7/7 8/8/8 9/9/9
f 7/7/7 9/9/9 10/10/10
f 11/11/11 10/12/10 9/13/9
f 10/12/10 11/11/11 12/14/12
f 13/15/13 12/14/12 11/11/11
f 12/14/12 13/15/13 14/16/14
f 15/17/15 14/16/14 13/15/13
f 14/16/14 15/17/15 16/18/16
f 17/19/17 16/18/16 15/17/15
f 16/18/16 17/19/17 18/20/18
f 19/21/19 18/20/18 17/19/17
f 18/20/18 19/21/19 20/22/20
f 21/23/21 20/22/20 19/21/19
f 20/22/20 21/23/21 22/24/22
f 22/24/22 21/23/21 23/25/23
f 24/26/24 22/24/22 23/25/23
f 24/26/24 20/22/20 22/24/22
f 20/22/20 24/26/24 25/27/25
f 26/28/26 20/22/20 25/27/25
f 20/22/20 26/28/26 18/29/18
f 27/30/27 18/29/18 26/28/26
f 18/29/18 27/30/27 16/31/16
f 28/32/28 16/31/16 27/30/27
f 16/31/16 28/32/28 14/33/14
f 29/34/29 14/33/14 28/32/28
f 14/33/14 29/34/29 12/35/12
f 30/36/30 12/35/12 29/34/29
f 12/35/12 30/36/30 10/37/10
f 30/38/30 7/7/7 10/10/10
f 7/7/7 30/38/30 31/39/31
f 32/40/32 7/7/7 31/39/31
f 7/7/7 32/40/32 33/41/33
f 34/42/34 35/43/35 36/44/36
f 34/42/34 36/44/36 37/45/37
f 38/46/38 37/47/37 36/48/36
f 37/47/37 38/46/38 39/49/39
f 40/50/40 39/49/39 38/46/38
f 39/49/39 40/50/40 41/51/41
f 42/52/42 41/51/41 40/50/40
f 41/51/41 42/52/42 43/53/43
f 44/54/44 43/53/43 42/52/42
f 43/53/43 44/54/44 45/55/45
f 46/56/46 45/55/45 44/54/44
f 45/55/45 46/56/46 47/57/47
f 48/58/48 47/57/47 46/56/46
f 47/57/47 48/58/48 49/59/49
f 49/59/49 48/58/48 23/25/23
f 50/60/50 49/59/49 23/25/23
f 50/60/50 47/57/47 49/59/49
f 47/57/47 50/60/50 51/61/51
f 52/62/52 47/57/47 51/61/51
f 47/57/47 52/62/52 45/63/45
f 53/64/53 45/63/45 52/62/52
f 45/63/45 53/64/53 43/65/43
f 54/66/54 43/65/43 53/64/53
f 43/65/43 54/66/54 41/67/41
f 55/68/55 41/67/41 54/66/54
f 41/67/41 55/68/55 39/69/39
f 56/70/56 39/69/39 55/68/55
f 39/69/39 56/70/56 37/71/37
f 56/72/56 34/42/34 37/45/37
f 34/42/34 56/72/56 57/73/57
f 58/74/58 34/42/34 57/73/57
f 34/42/34 58/74/58 59/75/59
f 3/76/3 60/77/60 61/78/61
f 60/77/60 3/76/3 2/79/2
f 6/80/6 60/77/60 2/79/2
f 60/77/60 6/80/6 62/81/62
f 61/82/61 63/83/63 64/84/64
f 63/83/63 61/82/61 60/85/60
f 62/86/62 63/83/63 60/85/60
f 63/83/63 62/86/62 65/87/65
f 5/88/5 62/89/62 6/90/6
f 62/89/62 5/88/5 66/91/66
f 62/89/62 66/91/66 67/92/67
f 67/92/67 66/91/66 68/93/68
f 68/93/68 66/91/66 69/94/69
f 68/93/68 69/94/69 70/95/70
f 71/96/71 70/95/70 69/94/69
f 65/97/65 70/95/70 71/96/71
f 65/97/65 72/98/72 70/95/70
f 62/89/62 72/98/72 65/97/65
f 72/98/72 62/89/62 67/92/67
f 67/92/67 73/99/73 72/98/72
f 73/99/73 67/92/67 74/100/74
f 67/92/67 75/101/75 74/102/74
f 75/101/75 67/92/67 68/93/68
f 70/95/70 75/103/75 68/93/68
f 75/103/75 70/95/70 76/104/76
f 70/95/70 73/105/73 76/106/76
f 73/105/73 70/95/70 72/98/72
f 73/107/73 77/108/77 76/109/76
f 73/107/73 78/110/78 77/108/77
f 78/110/78 73/107/73 79/111/79
f 74/112/74 79/111/79 73/107/73
f 79/111/79 74/112/74 80/113/80
f 80/113/80 74/112/74 75/114/75
f 80/113/80 75/114/75 77/108/77
f 76/109/76 77/108/77 75/114/75
f 77/108/77 81/115/81 80/116/80
f 81/115/81 77/108/77 82/117/32
f 77/108/77 83/118/82 82/117/32
f 83/118/82 77/108/77 78/110/78
f 79/119/79 83/120/82 78/121/78
f 83/120/82 79/119/79 84/122/58
f 79/119/79 81/115/81 84/122/58
f 81/115/81 79/119/79 80/116/80
f 71/96/71 69/94/69 85/123/83
f 86/124/84 87/125/85 88/126/86
f 87/125/85 86/124/84 89/127/87
f 71/128/71 87/125/85 89/127/87
f 87/125/85 71/128/71 85/129/83
f 90/130/88 4/131/4 1/132/1
f 4/131/4 90/130/88 91/133/89
f 66/134/66 4/131/4 91/133/89
f 4/131/4 66/134/66 5/135/5
f 92/136/90 57/137/57 56/138/56
f 92/136/90 56/138/56 93/139/91
f 55/140/55 93/141/91 56/142/56
f 93/141/91 55/140/55 94/143/92
f 54/144/54 94/143/92 55/140/55
f 94/143/92 54/144/54 95/145/93
f 53/146/53 95/145/93 54/144/54
f 95/145/93 53/146/53 96/147/94
f 52/148/52 96/147/94 53/146/53
f 96/147/94 52/148/52 97/149/95
f 51/150/51 97/149/95 52/148/52
f 97/149/95 51/150/51 98/151/96
f 50/152/50 98/151/96 51/150/51
f 98/151/96 50/152/50 99/153/97
f 99/153/97 50/152/50 23/25/23
f 21/154/21 99/153/97 23/25/23
f 21/154/21 98/151/96 99/153/97
f 98/151/96 21/154/21 19/155/19
f 17/156/17 98/151/96 19/155/19
f 98/151/96 17/156/17 97/157/95
f 15/158/15 97/157/95 17/156/17
f 97/157/95 15/158/15 96/159/94
f 13/160/13 96/159/94 15/158/15
f 96/159/94 13/160/13 95/161/93
f 11/162/11 95/161/93 13/160/13
f 95/161/93 11/162/11 94/163/92
f 9/164/9 94/163/92 11/162/11
f 94/163/92 9/164/9 93/165/91
f 9/166/9 92/136/90 93/139/91
f 92/136/90 9/166/9 8/167/8
f 100/168/81 92/136/90 8/167/8
f 92/136/90 100/168/81 101/169/98
f 102/170/99 91/171/89 90/172/88
f 91/171/89 102/170/99 103/173/100
f 69/174/69 91/171/89 103/173/100
f 91/171/89 69/174/69 66/175/66
f 88/176/86 103/177/100 102/178/99
f 103/177/100 88/176/86 87/179/85
f 85/180/83 103/177/100 87/179/85
f 103/177/100 85/180/83 69/181/69
f 104/182/101 31/183/31 30/184/30
f 104/182/101 30/184/30 105/185/102
f 29/186/29 105/187/102 30/188/30
f 105/187/102 29/186/29 106/189/103
f 28/190/28 106/189/103 29/186/29
f 106/189/103 28/190/28 107/191/104
f 27/192/27 107/191/104 28/190/28
f 107/191/104 27/192/27 108/193/105
f 26/194/26 108/193/105 27/192/27
f 108/193/105 26/194/26 109/195/106
f 25/196/25 109/195/106 26/194/26
f 109/195/106 25/196/25 110/197/107
f 24/198/24 110/197/107 25/196/25
f 110/197/107 24/198/24 111/199/108
f 111/199/108 24/198/24 23/25/23
f 48/200/48 111/199/108 23/25/23
f 48/200/48 110/197/107 111/199/108
f 110/197/107 48/200/48 46/201/46
f 44/202/44 110/197/107 46/201/46
f 110/197/107 44/202/44 109/203/106
f 42/204/42 109/203/106 44/202/44
f 109/203/106 42/204/42 108/205/105
f 40/206/40 108/205/105 42/204/42
f 108/205/105 40/206/40 107/207/104
f 38/208/38 107/207/104 40/206/40
f 107/207/104 38/208/38 106/209/103
f 36/210/36 106/209/103 38/208/38
f 106/209/103 36/210/36 105/211/102
f 36/212/36 104/182/101 105/185/102
f 104/182/101 36/212/36 35/213/35
f 112/214/82 104/182/101 35/213/35
f 104/182/101 112/214/82 113/215/109
f 64/216/64 89/217/87 86/218/84
f 89/217/87 64/216/64 63/219/63
f 65/220/65 89/217/87 63/219/63
f 89/217/87 65/220/65 71/221/71
f 8/222/8 33/223/33 100/224/81
f 33/223/33 8/222/8 7/225/7
f 35/226/35 59/227/59 112/228/82
f 59/227/59 35/226/35 34/229/34
f 57/230/57 101/231/98 58/232/58
f 101/231/98 57/230/57 92/233/90
f 31/234/31 113/235/109 32/236/32
f 113/235/109 31/234/31 104/237/101
f 114/238/110 116/239/111 115/240/112
f 115/240/112 117/241/113 114/238/110
f 118/242/114 117/241/113 115/240/112
f 115/240/112 119/243/115 118/242/114
f 116/244/111 121/245/116 120/246/117
f 120/246/117 115/247/112 116/244/111
f 119/248/115 115/247/112 120/246/117
f 120/246/117 122/249/118 119/248/115
f 121/250/116 124/251/119 123/252/120
f 123/252/120 120/253/117 121/250/116
f 122/254/118 120/253/117 123/252/120
f 123/252/120 125/255/121 122/254/118
f 118/256/114 119/257/115 122/258/118
f 122/258/118 126/259/122 118/256/114
f 122/258/118 127/260/23 126/259/122
f 127/260/23 128/261/23 126/259/122
f 128/261/23 129/262/123 126/259/122
f 128/261/23 130/263/23 129/262/123
f 131/264/124 129/262/123 130/263/23
f 125/265/121 131/264/124 130/263/23
f 125/265/121 130/263/23 132/266/23
f 122/258/118 125/265/121 132/266/23
f 132/266/23 127/260/23 122/258/118
f 131/264/124 133/267/125 129/262/123
f 134/268/126 136/269/127 135/270/128
f 135/270/128 137/271/129 134/268/126
f 131/272/124 137/271/129 135/270/128
f 135/270/128 133/273/125 131/272/124
f 138/274/130 114/275/110 117/276/113
f 117/276/113 139/277/131 138/274/130
f 126/278/122 139/277/131 117/276/113
f 117/276/113 118/279/114 126/278/122
f 140/280/132 138/281/130 139/282/131
f 139/282/131 141/283/133 140/280/132
f 129/284/123 141/283/133 139/282/131
f 139/282/131 126/285/122 129/284/123
f 136/286/127 140/287/132 141/288/133
f 141/288/133 135/289/128 136/286/127
f 133/290/125 135/289/128 141/288/133
f 141/288/133 129/291/123 133/290/125
f 124/292/119 134/293/126 137/294/129
f 137/294/129 123/295/120 124/292/119
f 125/296/121 123/295/120 137/294/129
f 137/294/129 131/297/124 125/296/121
