# Blender v2.79 (sub 0) OBJ File: 'fence.obj'
# www.blender.org
mtllib fence.mtl
o dec
v -0.500000 0.198440 0.031250
v 0.500000 0.279690 0.031250
v 0.500000 0.198440 0.031250
v 0.500000 0.198440 0.093750
v -0.500000 0.279690 0.093750
v -0.500000 0.198440 0.093750
v -0.500000 0.279690 0.031250
v 0.500000 0.279690 0.093750
v 0.312500 -0.045310 -0.000000
v 0.437500 1.904690 0.000000
v 0.437500 -0.045310 -0.000000
v 0.437500 -0.045310 0.062500
v 0.312500 1.904690 0.062500
v 0.312500 -0.045310 0.062500
v 0.312500 1.904690 0.000000
v 0.437500 1.904690 0.062500
v 0.125000 -0.045310 -0.000000
v 0.250000 1.904690 0.000000
v 0.250000 -0.045310 -0.000000
v 0.250000 -0.045310 0.062500
v 0.125000 1.904690 0.062500
v 0.125000 -0.045310 0.062500
v 0.125000 1.904690 0.000000
v 0.250000 1.904690 0.062500
v -0.500000 0.929690 0.031250
v 0.500000 1.010940 0.031250
v 0.500000 0.929690 0.031250
v 0.500000 0.929690 0.093750
v -0.500000 1.010940 0.093750
v -0.500000 0.929690 0.093750
v -0.500000 1.010940 0.031250
v 0.500000 1.010940 0.093750
v -0.437500 -0.045310 -0.000000
v -0.312500 1.904690 0.000000
v -0.312500 -0.045310 -0.000000
v -0.312500 -0.045310 0.062500
v -0.437500 1.904690 0.062500
v -0.437500 -0.045310 0.062500
v -0.437500 1.904690 0.000000
v -0.312500 1.904690 0.062500
v -0.062500 -0.045310 -0.000000
v 0.062500 1.904690 0.000000
v 0.062500 -0.045310 -0.000000
v 0.062500 -0.045310 0.062500
v -0.062500 1.904690 0.062500
v -0.062500 -0.045310 0.062500
v -0.062500 1.904690 0.000000
v 0.062500 1.904690 0.062500
v -0.500000 1.579690 0.031250
v 0.500000 1.660940 0.031250
v 0.500000 1.579690 0.031250
v 0.500000 1.579690 0.093750
v -0.500000 1.660940 0.093750
v -0.500000 1.579690 0.093750
v -0.500000 1.660940 0.031250
v 0.500000 1.660940 0.093750
v -0.250000 -0.045310 -0.000000
v -0.125000 1.904690 0.000000
v -0.125000 -0.045310 -0.000000
v -0.125000 -0.045310 0.062500
v -0.250000 1.904690 0.062500
v -0.250000 -0.045310 0.062500
v -0.250000 1.904690 0.000000
v -0.125000 1.904690 0.062500
vt 0.078125 0.031250
vt 0.328125 0.062500
vt 0.328125 0.031250
vt 0.343750 0.031250
vt 0.593750 0.062500
vt 0.593750 0.031250
vt 0.078125 0.062500
vt 0.328125 0.093750
vt 0.328125 0.062500
vt 0.578125 0.093750
vt 0.578125 0.062500
vt 0.343750 0.062500
vt 0.062500 0.031250
vt 0.015625 0.218750
vt 0.046875 0.968750
vt 0.046875 0.218750
vt 0.062500 0.218750
vt 0.093750 0.968750
vt 0.093750 0.218750
vt 0.015625 0.968750
vt 0.046875 1.000000
vt 0.046875 0.968750
vt 0.078125 1.000000
vt 0.078125 0.968750
vt 0.062500 0.968750
vt 0.000000 0.218750
vt 0.015625 0.218750
vt 0.046875 0.968750
vt 0.046875 0.218750
vt 0.062500 0.218750
vt 0.093750 0.968750
vt 0.093750 0.218750
vt 0.015625 0.968750
vt 0.046875 1.000000
vt 0.046875 0.968750
vt 0.078125 1.000000
vt 0.078125 0.968750
vt 0.062500 0.968750
vt 0.000000 0.218750
vt 0.015625 0.031250
vt 0.265625 0.062500
vt 0.265625 0.031250
vt 0.281250 0.031250
vt 0.531250 0.062500
vt 0.531250 0.031250
vt 0.015625 0.062500
vt 0.265625 0.093750
vt 0.265625 0.062500
vt 0.515625 0.093750
vt 0.515625 0.062500
vt 0.281250 0.062500
vt 0.000000 0.031250
vt 0.015625 0.218750
vt 0.046875 0.968750
vt 0.046875 0.218750
vt 0.062500 0.218750
vt 0.093750 0.968750
vt 0.093750 0.218750
vt 0.015625 0.968750
vt 0.046875 1.000000
vt 0.046875 0.968750
vt 0.078125 1.000000
vt 0.078125 0.968750
vt 0.062500 0.968750
vt 0.000000 0.218750
vt 0.015625 0.218750
vt 0.046875 0.968750
vt 0.046875 0.218750
vt 0.062500 0.218750
vt 0.093750 0.968750
vt 0.093750 0.218750
vt 0.015625 0.968750
vt 0.046875 1.000000
vt 0.046875 0.968750
vt 0.078125 1.000000
vt 0.078125 0.968750
vt 0.062500 0.968750
vt 0.000000 0.218750
vt 0.015625 0.031250
vt 0.265625 0.062500
vt 0.265625 0.031250
vt 0.281250 0.031250
vt 0.531250 0.062500
vt 0.531250 0.031250
vt 0.015625 0.062500
vt 0.265625 0.093750
vt 0.265625 0.062500
vt 0.515625 0.093750
vt 0.515625 0.062500
vt 0.281250 0.062500
vt 0.000000 0.031250
vt 0.015625 0.218750
vt 0.046875 0.968750
vt 0.046875 0.218750
vt 0.062500 0.218750
vt 0.093750 0.968750
vt 0.093750 0.218750
vt 0.015625 0.968750
vt 0.046875 1.000000
vt 0.046875 0.968750
vt 0.078125 1.000000
vt 0.078125 0.968750
vt 0.062500 0.968750
vt 0.000000 0.218750
vt 0.078125 0.093750
vt 0.328125 0.093750
vt 0.062500 0.062500
vt 0.015625 1.000000
vt 0.046875 1.000000
vt 0.000000 0.968750
vt 0.015625 1.000000
vt 0.046875 1.000000
vt 0.000000 0.968750
vt 0.015625 0.093750
vt 0.265625 0.093750
vt 0.000000 0.062500
vt 0.015625 1.000000
vt 0.046875 1.000000
vt 0.000000 0.968750
vt 0.015625 1.000000
vt 0.046875 1.000000
vt 0.000000 0.968750
vt 0.015625 0.093750
vt 0.265625 0.093750
vt 0.000000 0.062500
vt 0.015625 1.000000
vt 0.046875 1.000000
vt 0.000000 0.968750
vn 0.0000 0.0000 -1.0000
vn 0.0000 -0.0000 1.0000
vn 0.0000 1.0000 0.0000
vn 0.0000 -1.0000 -0.0000
vn 1.0000 0.0000 0.0000
vn -1.0000 0.0000 0.0000
usemtl dec
s 1
f 1/1/1 2/2/1 3/3/1
f 4/4/2 5/5/2 6/6/2
f 7/7/3 8/8/3 2/2/3
f 6/9/4 3/10/4 4/11/4
f 3/3/5 8/12/5 4/4/5
f 6/13/6 7/7/6 1/1/6
f 9/14/1 10/15/1 11/16/1
f 12/17/2 13/18/2 14/19/2
f 15/20/3 16/21/3 10/15/3
f 14/22/4 11/23/4 12/24/4
f 11/16/5 16/25/5 12/17/5
f 14/26/6 15/20/6 9/14/6
f 17/27/1 18/28/1 19/29/1
f 20/30/2 21/31/2 22/32/2
f 23/33/3 24/34/3 18/28/3
f 22/35/4 19/36/4 20/37/4
f 19/29/5 24/38/5 20/30/5
f 22/39/6 23/33/6 17/27/6
f 25/40/1 26/41/1 27/42/1
f 28/43/2 29/44/2 30/45/2
f 31/46/3 32/47/3 26/41/3
f 30/48/4 27/49/4 28/50/4
f 27/42/5 32/51/5 28/43/5
f 30/52/6 31/46/6 25/40/6
f 33/53/1 34/54/1 35/55/1
f 36/56/2 37/57/2 38/58/2
f 39/59/3 40/60/3 34/54/3
f 38/61/4 35/62/4 36/63/4
f 35/55/5 40/64/5 36/56/5
f 38/65/6 39/59/6 33/53/6
f 41/66/1 42/67/1 43/68/1
f 44/69/2 45/70/2 46/71/2
f 47/72/3 48/73/3 42/67/3
f 46/74/4 43/75/4 44/76/4
f 43/68/5 48/77/5 44/69/5
f 46/78/6 47/72/6 41/66/6
f 49/79/1 50/80/1 51/81/1
f 52/82/2 53/83/2 54/84/2
f 55/85/3 56/86/3 50/80/3
f 54/87/4 51/88/4 52/89/4
f 51/81/5 56/90/5 52/82/5
f 54/91/6 55/85/6 49/79/6
f 57/92/1 58/93/1 59/94/1
f 60/95/2 61/96/2 62/97/2
f 63/98/3 64/99/3 58/93/3
f 62/100/4 59/101/4 60/102/4
f 59/94/5 64/103/5 60/95/5
f 62/104/6 63/98/6 57/92/6
f 1/1/1 7/7/1 2/2/1
f 4/4/2 8/12/2 5/5/2
f 7/7/3 5/105/3 8/8/3
f 6/9/4 1/106/4 3/10/4
f 3/3/5 2/2/5 8/12/5
f 6/13/6 5/107/6 7/7/6
f 9/14/1 15/20/1 10/15/1
f 12/17/2 16/25/2 13/18/2
f 15/20/3 13/108/3 16/21/3
f 14/22/4 9/109/4 11/23/4
f 11/16/5 10/15/5 16/25/5
f 14/26/6 13/110/6 15/20/6
f 17/27/1 23/33/1 18/28/1
f 20/30/2 24/38/2 21/31/2
f 23/33/3 21/111/3 24/34/3
f 22/35/4 17/112/4 19/36/4
f 19/29/5 18/28/5 24/38/5
f 22/39/6 21/113/6 23/33/6
f 25/40/1 31/46/1 26/41/1
f 28/43/2 32/51/2 29/44/2
f 31/46/3 29/114/3 32/47/3
f 30/48/4 25/115/4 27/49/4
f 27/42/5 26/41/5 32/51/5
f 30/52/6 29/116/6 31/46/6
f 33/53/1 39/59/1 34/54/1
f 36/56/2 40/64/2 37/57/2
f 39/59/3 37/117/3 40/60/3
f 38/61/4 33/118/4 35/62/4
f 35/55/5 34/54/5 40/64/5
f 38/65/6 37/119/6 39/59/6
f 41/66/1 47/72/1 42/67/1
f 44/69/2 48/77/2 45/70/2
f 47/72/3 45/120/3 48/73/3
f 46/74/4 41/121/4 43/75/4
f 43/68/5 42/67/5 48/77/5
f 46/78/6 45/122/6 47/72/6
f 49/79/1 55/85/1 50/80/1
f 52/82/2 56/90/2 53/83/2
f 55/85/3 53/123/3 56/86/3
f 54/87/4 49/124/4 51/88/4
f 51/81/5 50/80/5 56/90/5
f 54/91/6 53/125/6 55/85/6
f 57/92/1 63/98/1 58/93/1
f 60/95/2 64/103/2 61/96/2
f 63/98/3 61/126/3 64/99/3
f 62/100/4 57/127/4 59/101/4
f 59/94/5 58/93/5 64/103/5
f 62/104/6 61/128/6 63/98/6
