# Blender v2.79 (sub 6) OBJ File: 'SSPR.blend'
# www.blender.org
mtllib ssp_rightarm.mtl
o rightarm
v -0.500025 0.766727 -0.125039
v -0.249980 0.766727 -0.125039
v -0.249980 0.000002 -0.125040
v -0.249980 0.766727 0.125133
v -0.500025 0.766727 0.125133
v -0.500024 0.000002 0.125133
v -0.500024 0.000002 -0.125040
v -0.249980 0.000002 0.125133
vt 0.106860 0.446063
vt 0.000127 0.446063
vt 0.000127 0.752255
vt 0.314695 0.446051
vt 0.208080 0.446050
vt 0.208080 0.751903
vt 0.402323 0.536220
vt 0.289642 0.536220
vt 0.289642 0.661220
vt 0.314767 0.446251
vt 0.314767 0.752603
vt 0.417017 0.752602
vt 0.208569 0.445964
vt 0.106450 0.445964
vt 0.106450 0.751924
vt 0.106860 0.752255
vt 0.314694 0.751903
vt 0.402323 0.661220
vt 0.417016 0.446251
vt 0.208569 0.751924
vt 0.341715 0.272253
vt 0.451986 0.161925
vt 0.451986 0.272253
vt 0.341715 0.161925
vn 0.0000 0.0000 -1.0000
vn 0.0000 -0.0000 1.0000
vn 0.0000 -1.0000 -0.0000
vn 1.0000 0.0000 0.0000
vn -1.0000 -0.0000 0.0000
vn -0.0000 1.0000 0.0000
usemtl leftarm.001
s off
f 1/1/1 2/2/1 3/3/1
f 4/4/2 5/5/2 6/6/2
f 7/7/3 3/8/3 8/9/3
f 4/10/4 8/11/4 3/12/4
f 5/13/5 1/14/5 7/15/5
f 1/1/1 3/3/1 7/16/1
f 4/4/2 6/6/2 8/17/2
f 7/7/3 8/9/3 6/18/3
f 4/10/4 3/12/4 2/19/4
f 5/13/5 7/15/5 6/20/5
f 4/21/6 1/22/6 5/23/6
f 4/21/6 2/24/6 1/22/6
