# Blender v2.79 (sub 6) OBJ File: 'SSPR.blend'
# www.blender.org
mtllib ssp_head.mtl
o head
v -0.132359 -0.005334 -0.336638
v -0.256111 0.023927 -0.309414
v -0.132359 0.023927 -0.336638
v -0.256593 -0.544114 -0.210055
v -0.132359 -0.544114 -0.303281
v -0.265030 -0.536454 -0.266879
v -0.265030 -0.502370 -0.290816
v -0.265030 -0.512709 -0.302464
v -0.221879 -0.023728 -0.297678
v -0.256111 -0.023728 -0.309414
v -0.212836 -0.024454 -0.313250
v -0.122834 -0.104428 -0.322024
v -0.212836 -0.233085 -0.325057
v -0.212836 -0.104934 -0.318198
v -0.265030 -0.023728 -0.267477
v -0.256594 -0.232760 0.252009
v -0.256594 0.023927 0.252010
v -0.221879 -0.511562 -0.336013
v -0.223863 -0.502369 -0.287912
v -0.256593 -0.535350 0.252009
v -0.223863 -0.232759 -0.267133
v -0.223863 -0.023728 -0.253489
v -0.122834 -0.005564 -0.316491
v -0.132359 -0.514662 -0.359794
v -0.212836 -0.513355 -0.343424
v -0.122834 -0.514897 -0.346918
v -0.249694 -0.544114 -0.284505
v -0.265030 -0.232759 -0.270037
v -0.265030 -0.023728 -0.256394
v -0.265030 0.023927 -0.267477
v -0.265030 0.023927 0.243486
v -0.255942 -0.544162 -0.344884
v -0.122834 -0.360856 -0.337061
v -0.122834 -0.232579 -0.328883
v -0.212836 -0.361362 -0.333235
v -0.265030 -0.232760 0.243486
v -0.132359 -0.544162 -0.354467
v -0.255942 -0.513238 -0.349981
v -0.265030 -0.536454 -0.210570
v -0.265030 -0.536454 0.243486
v -0.221879 -0.232759 -0.304201
v -0.256593 -0.544115 0.243486
v -0.256593 -0.544114 -0.265375
v 0.000000 -0.544114 -0.303281
v -0.000000 0.023927 0.271982
v 0.000000 -0.232759 0.271982
v -0.000000 -0.005334 -0.346346
v -0.000000 0.023927 -0.346346
v 0.000000 -0.544162 -0.356608
v 0.000000 -0.516160 -0.359794
v 0.000000 -0.515992 -0.350121
v 0.000000 -0.360749 -0.340429
v -0.000000 -0.005456 -0.319858
v 0.000000 -0.104321 -0.325392
v 0.000000 -0.232471 -0.332251
v 0.000000 -0.544115 0.263459
v 0.000000 -0.535350 0.271982
v 0.132359 -0.005334 -0.336638
v 0.256111 0.023927 -0.309414
v 0.132359 0.023927 -0.336638
v 0.256594 -0.544114 -0.210055
v 0.132359 -0.544114 -0.303281
v 0.265030 -0.536454 -0.266879
v 0.265030 -0.502370 -0.290816
v 0.265030 -0.512708 -0.302464
v 0.221879 -0.023728 -0.297678
v 0.256111 -0.023728 -0.309414
v 0.212836 -0.024454 -0.313250
v 0.122834 -0.104428 -0.322024
v 0.212837 -0.233085 -0.325057
v 0.212836 -0.104934 -0.318198
v 0.265030 -0.023728 -0.267477
v 0.256594 -0.232759 0.252009
v 0.256594 0.023927 0.252010
v 0.221879 -0.511562 -0.336013
v 0.223863 -0.502369 -0.287912
v 0.256594 -0.535350 0.252009
v 0.223863 -0.232759 -0.267133
v 0.223863 -0.023728 -0.253489
v 0.122834 -0.005564 -0.316491
v 0.132359 -0.514662 -0.359794
v 0.212837 -0.513355 -0.343424
v 0.122834 -0.514897 -0.346918
v 0.249695 -0.544114 -0.284505
v 0.265030 -0.232759 -0.270037
v 0.265030 -0.023728 -0.256394
v 0.265030 0.023927 -0.267477
v 0.265030 0.023927 0.243486
v 0.255942 -0.544162 -0.344884
v 0.122834 -0.360856 -0.337061
v 0.122834 -0.232579 -0.328883
v 0.212837 -0.361362 -0.333235
v 0.265030 -0.232759 0.243486
v 0.132359 -0.544162 -0.354467
v 0.255942 -0.513238 -0.349981
v 0.265030 -0.536454 -0.210570
v 0.265030 -0.536454 0.243486
v 0.221879 -0.232759 -0.304201
v 0.256594 -0.544115 0.243486
v 0.256594 -0.544114 -0.265375
vt 0.456814 0.522425
vt 0.466836 0.478192
vt 0.466836 0.522437
vt 0.305932 0.434091
vt 0.271343 0.340261
vt 0.305943 0.385635
vt 0.287079 0.336956
vt 0.279255 0.319097
vt 0.289028 0.322899
vt 0.497174 0.489972
vt 0.502870 0.483070
vt 0.497577 0.493340
vt 0.053461 0.825252
vt 0.102075 0.787533
vt 0.053505 0.787454
vt 0.499892 0.479115
vt 0.101286 0.219231
vt 0.009646 0.125488
vt 0.101286 0.125488
vt 0.491182 0.657650
vt 0.490031 0.669332
vt 0.478746 0.660825
vt 0.101286 0.335013
vt 0.009646 0.219231
vt 0.022809 0.784911
vt 0.100864 0.764144
vt 0.021425 0.764144
vt 0.495457 0.529460
vt 0.495516 0.574004
vt 0.486775 0.571863
vt 0.500458 0.619776
vt 0.496827 0.653294
vt 0.495579 0.617407
vt 0.298983 0.342780
vt 0.450514 0.646486
vt 0.440281 0.551646
vt 0.450468 0.551729
vt 0.440327 0.478172
vt 0.450514 0.478254
vt 0.109058 0.120529
vt 0.285193 0.123315
vt 0.111946 0.123315
vt 0.297912 0.337027
vt 0.150662 0.825269
vt 0.102030 0.825332
vt 0.015999 0.825116
vt 0.023013 0.787308
vt 0.215737 0.825340
vt 0.150706 0.787470
vt 0.266950 0.142931
vt 0.104640 0.219923
vt 0.104640 0.125446
vt 0.271827 0.219866
vt 0.287293 0.125384
vt 0.451709 0.613155
vt 0.461445 0.569215
vt 0.460252 0.613346
vt 0.298249 0.079502
vt 0.288987 0.120370
vt 0.456749 0.569202
vt 0.466771 0.569215
vt 0.266950 0.336963
vt 0.104640 0.337018
vt 0.452901 0.659589
vt 0.461445 0.659780
vt 0.102352 0.035688
vt 0.491675 0.574004
vt 0.488516 0.574710
vt 0.102142 0.783296
vt 0.203404 0.765314
vt 0.216389 0.870720
vt 0.150857 0.870657
vt 0.016194 0.870504
vt 0.102226 0.870720
vt 0.053657 0.870641
vt 0.095523 0.434096
vt 0.301575 0.035688
vt 0.502870 0.527831
vt 0.053849 0.787356
vt 0.102545 0.787264
vt 0.151190 0.785688
vt 0.022732 0.783861
vt 0.101969 0.783850
vt 0.207062 0.778851
vt 0.291524 0.125398
vt 0.287293 0.142924
vt 0.500458 0.664013
vt 0.104512 0.335416
vt 0.101521 0.338214
vt 0.103369 0.337189
vt 0.271943 0.337185
vt 0.104512 0.125488
vt 0.104512 0.219231
vt 0.311175 0.385640
vt 0.009881 0.338214
vt 0.292848 0.337184
vt 0.291881 0.340261
vt 0.303843 0.340503
vt 0.450514 0.478172
vt 0.478746 0.484740
vt 0.481124 0.474518
vt 0.480724 0.671133
vt 0.009646 0.335013
vt 0.440327 0.646405
vt 0.300920 0.325313
vt 0.208310 0.787585
vt 0.450514 0.569237
vt 0.102961 0.340265
vt 0.208960 0.785787
vt 0.291524 0.142938
vt 0.311163 0.434096
vt 0.456814 0.522425
vt 0.466836 0.522437
vt 0.466836 0.478192
vt 0.305943 0.385635
vt 0.271343 0.340261
vt 0.287079 0.336956
vt 0.289028 0.322899
vt 0.279255 0.319097
vt 0.497174 0.489972
vt 0.497577 0.493340
vt 0.502870 0.483070
vt 0.053461 0.825252
vt 0.053505 0.787454
vt 0.102075 0.787533
vt 0.499892 0.479115
vt 0.101286 0.219231
vt 0.101286 0.125488
vt 0.491182 0.657650
vt 0.478746 0.660825
vt 0.490031 0.669332
vt 0.101286 0.335013
vt 0.022809 0.784911
vt 0.021425 0.764144
vt 0.100864 0.764144
vt 0.495457 0.529460
vt 0.500458 0.619776
vt 0.495579 0.617407
vt 0.496827 0.653294
vt 0.298983 0.342780
vt 0.450514 0.646486
vt 0.450468 0.551729
vt 0.440281 0.551646
vt 0.450514 0.478254
vt 0.440327 0.478172
vt 0.109058 0.120529
vt 0.111946 0.123315
vt 0.285193 0.123315
vt 0.297912 0.337027
vt 0.150662 0.825269
vt 0.102030 0.825332
vt 0.015999 0.825116
vt 0.023013 0.787308
vt 0.215737 0.825340
vt 0.150706 0.787470
vt 0.266950 0.142931
vt 0.104640 0.125446
vt 0.104640 0.219923
vt 0.271827 0.219866
vt 0.287293 0.125384
vt 0.451709 0.613155
vt 0.460252 0.613346
vt 0.461445 0.569215
vt 0.288987 0.120370
vt 0.298249 0.079502
vt 0.104640 0.337018
vt 0.266950 0.336963
vt 0.102142 0.783296
vt 0.203404 0.765314
vt 0.502870 0.527831
vt 0.102545 0.787264
vt 0.053849 0.787356
vt 0.151190 0.785688
vt 0.022732 0.783861
vt 0.101969 0.783850
vt 0.207062 0.778851
vt 0.291524 0.125398
vt 0.287293 0.142924
vt 0.500458 0.664013
vt 0.104512 0.335416
vt 0.101521 0.338214
vt 0.271943 0.337185
vt 0.103369 0.337189
vt 0.104512 0.125488
vt 0.104512 0.219231
vt 0.311175 0.385640
vt 0.292848 0.337184
vt 0.291881 0.340261
vt 0.303843 0.340503
vt 0.450514 0.478172
vt 0.478746 0.484740
vt 0.481124 0.474518
vt 0.480724 0.671133
vt 0.440327 0.646405
vt 0.300920 0.325313
vt 0.208310 0.787585
vt 0.450514 0.569237
vt 0.102961 0.340265
vt 0.208960 0.785787
vt 0.291524 0.142938
vn -0.2149 0.0000 -0.9766
vn 0.0000 -1.0000 0.0000
vn -1.0000 0.0000 0.0000
vn -0.0133 -0.9992 0.0388
vn -0.0427 0.0534 -0.9977
vn -0.0776 -0.0000 0.9970
vn -0.1748 0.9658 -0.1918
vn -0.9988 0.0019 -0.0489
vn -0.9990 -0.0008 -0.0443
vn -0.9990 0.0029 -0.0448
vn 0.0007 -1.0000 -0.0046
vn 0.0173 0.9998 0.0054
vn 0.0702 0.0767 -0.9946
vn 0.0760 0.0768 -0.9941
vn 0.0702 0.0708 -0.9950
vn 0.0691 0.0707 -0.9951
vn 0.0702 0.0650 -0.9954
vn -0.0000 1.0000 0.0000
vn -0.9837 -0.1496 -0.0998
vn -0.0427 0.0636 -0.9971
vn -0.0488 0.0613 -0.9969
vn -0.0427 0.0638 -0.9970
vn -0.0799 -0.1772 -0.9809
vn -0.0731 -0.0000 -0.9973
vn -0.0013 -0.1131 -0.9936
vn 0.0085 0.9998 -0.0173
vn -0.9986 0.0041 -0.0534
vn -0.9987 0.0069 -0.0509
vn -0.0285 0.0622 -0.9977
vn -0.0264 0.0629 -0.9977
vn -0.0274 0.0623 -0.9977
vn -0.0274 0.0559 -0.9981
vn -0.0274 0.0636 -0.9976
vn -0.0274 0.0534 -0.9982
vn -0.0796 -0.6198 -0.7807
vn -0.9171 0.0213 -0.3980
vn -0.9170 0.0254 -0.3980
vn -0.8933 0.0140 -0.4491
vn -0.8446 0.0607 -0.5319
vn -0.9781 0.0000 -0.2080
vn 0.0043 0.9999 -0.0103
vn 0.0032 0.9999 -0.0100
vn -0.5349 -0.5890 0.6058
vn -0.6722 -0.7403 -0.0000
vn -0.7107 -0.0000 0.7034
vn -0.7107 -0.0000 0.7035
vn 0.0000 -1.0000 0.0009
vn -0.0557 -0.6960 0.7158
vn -0.6320 -0.7407 -0.2279
vn -0.6723 -0.7403 0.0000
vn 0.0001 -1.0000 0.0008
vn -0.6096 0.1459 -0.7791
vn 0.0467 0.7471 -0.6631
vn -0.9983 0.0029 -0.0575
vn -0.9986 0.0017 -0.0534
vn -0.9987 -0.0005 -0.0504
vn -0.0008 -0.9999 -0.0110
vn 0.0085 0.9992 -0.0380
vn 0.0084 0.9993 -0.0369
vn 0.0701 0.0767 -0.9946
vn 0.0712 0.0709 -0.9949
vn 0.0644 0.0650 -0.9958
vn 0.0701 0.0708 -0.9950
vn -0.9818 -0.0309 -0.1874
vn -0.0427 0.0558 -0.9975
vn -0.0376 0.0668 -0.9971
vn -0.0763 -0.1622 -0.9838
vn -0.0159 -0.1777 -0.9840
vn 0.0113 0.9999 0.0099
vn -0.9991 0.0048 -0.0421
vn -0.0261 0.0630 -0.9977
vn -0.0254 0.0638 -0.9976
vn -0.0243 0.0634 -0.9977
vn 0.2006 -0.9739 -0.1059
vn -0.8637 0.0309 -0.5030
vn -0.6268 0.0521 -0.7774
vn -0.4067 -0.9126 0.0428
vn 0.0001 -1.0000 0.0009
vn 0.2149 0.0000 -0.9766
vn 1.0000 -0.0000 0.0000
vn 0.0133 -0.9992 0.0388
vn 0.0427 0.0534 -0.9977
vn 0.0776 -0.0000 0.9970
vn 0.1748 0.9658 -0.1918
vn 0.9990 0.0071 -0.0444
vn 0.9990 0.0029 -0.0448
vn 0.9990 -0.0008 -0.0451
vn -0.0007 -1.0000 -0.0046
vn -0.0173 0.9998 0.0054
vn -0.0702 0.0767 -0.9946
vn -0.0643 0.0767 -0.9950
vn -0.0709 0.0709 -0.9950
vn -0.0702 0.0709 -0.9950
vn -0.0702 0.0650 -0.9954
vn 0.9837 -0.1496 -0.0998
vn 0.0427 0.0636 -0.9971
vn 0.0488 0.0613 -0.9969
vn 0.0427 0.0638 -0.9970
vn 0.0799 -0.1772 -0.9809
vn 0.0731 0.0000 -0.9973
vn 0.0013 -0.1131 -0.9936
vn -0.0085 0.9998 -0.0173
vn 0.9986 0.0041 -0.0534
vn 0.9987 0.0064 -0.0505
vn 0.0265 0.0629 -0.9977
vn 0.0274 0.0623 -0.9977
vn 0.0272 0.0611 -0.9978
vn 0.0274 0.0559 -0.9981
vn 0.0274 0.0636 -0.9976
vn 0.0274 0.0534 -0.9982
vn 0.0796 -0.6198 -0.7807
vn 0.9171 0.0213 -0.3980
vn 0.9170 0.0254 -0.3980
vn 0.8933 0.0140 -0.4491
vn 0.8446 0.0607 -0.5319
vn 0.9781 0.0000 -0.2080
vn -0.0043 0.9999 -0.0103
vn -0.0049 0.9999 -0.0113
vn 0.5349 -0.5890 0.6058
vn 0.6722 -0.7403 -0.0000
vn 0.7107 -0.0000 0.7034
vn 0.7107 -0.0000 0.7035
vn 0.0557 -0.6960 0.7158
vn 0.6320 -0.7407 -0.2279
vn 0.6723 -0.7403 0.0000
vn -0.0001 -1.0000 0.0008
vn 0.6096 0.1459 -0.7791
vn -0.0468 0.7471 -0.6631
vn 0.9988 0.0034 -0.0496
vn 0.9987 -0.0010 -0.0509
vn 0.9986 0.0017 -0.0534
vn 0.0008 -0.9999 -0.0110
vn -0.0085 0.9992 -0.0380
vn -0.0085 0.9992 -0.0392
vn -0.0701 0.0767 -0.9946
vn -0.0700 0.0708 -0.9950
vn -0.0691 0.0707 -0.9951
vn -0.0761 0.0648 -0.9950
vn 0.9818 -0.0309 -0.1874
vn 0.0427 0.0558 -0.9975
vn 0.0376 0.0668 -0.9971
vn 0.0763 -0.1622 -0.9838
vn 0.0159 -0.1777 -0.9840
vn -0.0113 0.9999 0.0099
vn 0.9991 0.0048 -0.0421
vn 0.0251 0.0649 -0.9976
vn 0.0260 0.0628 -0.9977
vn 0.0254 0.0638 -0.9976
vn -0.2006 -0.9739 -0.1059
vn 0.8637 0.0309 -0.5030
vn 0.6268 0.0521 -0.7774
vn 0.4067 -0.9126 0.0428
vn -0.0001 -1.0000 0.0009
usemtl head
s off
f 1/1/1 2/2/1 3/3/1
f 44/4/2 4/5/2 5/6/2
f 6/7/3 7/8/3 8/9/3
f 9/10/4 10/11/4 11/12/4
f 12/13/5 13/14/5 14/15/5
f 15/16/2 10/11/2 9/10/2
f 16/17/6 45/18/6 17/19/6
f 18/20/7 8/21/7 19/22/7
f 20/23/6 46/24/6 16/17/6
f 9/25/8 21/26/9 22/27/10
f 23/28/11 47/29/11 53/30/11
f 24/31/12 25/32/12 26/33/12
f 4/5/2 27/34/2 5/6/2
f 19/35/13 28/36/14 21/37/15
f 21/37/16 29/38/17 22/39/17
f 17/40/18 30/41/18 31/42/18
f 8/9/19 32/43/19 6/7/19
f 33/44/20 13/14/20 34/45/20
f 23/46/21 14/15/21 11/47/21
f 26/48/22 35/49/22 33/44/22
f 29/50/3 36/51/3 31/52/3
f 7/8/3 36/51/3 28/53/3
f 30/54/3 29/50/3 31/52/3
f 37/55/23 38/56/23 24/57/23
f 30/41/18 3/58/18 2/59/18
f 47/60/24 3/3/24 48/61/24
f 7/8/3 39/62/3 40/63/3
f 49/64/25 24/57/25 50/65/25
f 45/66/18 30/41/18 17/40/18
f 50/67/26 26/33/26 51/68/26
f 41/69/27 19/70/27 21/26/28
f 51/71/29 33/44/30 52/72/31
f 53/73/32 12/13/32 23/46/32
f 52/72/33 34/45/33 55/74/33
f 54/75/34 34/45/34 12/13/34
f 56/76/2 4/5/2 44/4/2
f 48/77/18 3/58/18 30/41/18
f 1/78/35 11/12/35 10/11/35
f 41/69/36 14/79/36 13/80/36
f 41/69/37 13/80/37 35/81/37
f 9/82/38 14/15/38 41/83/38
f 35/81/39 18/84/39 41/69/39
f 2/85/40 15/86/40 30/54/40
f 30/54/3 15/86/3 29/50/3
f 25/32/41 38/87/42 8/21/41
f 40/88/43 42/89/43 20/23/43
f 4/5/44 40/90/44 39/91/44
f 31/92/45 16/17/45 17/19/45
f 36/93/46 20/23/46 16/17/46
f 37/94/47 44/4/47 5/6/47
f 56/95/48 20/23/48 42/89/48
f 6/96/49 27/34/49 43/97/49
f 39/91/50 43/97/50 4/5/50
f 37/94/51 27/34/51 32/98/51
f 1/1/1 10/99/1 2/2/1
f 6/7/3 39/62/3 7/8/3
f 12/13/5 34/45/5 13/14/5
f 9/10/2 22/100/2 15/16/2
f 22/100/2 29/101/2 15/16/2
f 16/17/6 46/24/6 45/18/6
f 18/20/52 25/32/52 8/21/52
f 8/21/53 7/102/53 19/22/53
f 20/23/6 57/103/6 46/24/6
f 9/25/54 41/69/55 21/26/56
f 23/28/57 1/78/57 47/29/57
f 24/31/58 38/87/59 25/32/58
f 4/5/2 43/97/2 27/34/2
f 19/35/60 7/104/60 28/36/61
f 21/37/62 28/36/63 29/38/17
f 8/9/64 38/105/64 32/43/64
f 33/44/20 35/49/20 13/14/20
f 23/46/65 12/13/65 14/15/65
f 26/48/66 25/106/66 35/49/66
f 29/50/3 28/53/3 36/51/3
f 7/8/3 40/63/3 36/51/3
f 37/55/67 32/107/67 38/56/67
f 47/60/24 1/1/24 3/3/24
f 49/64/68 37/55/68 24/57/68
f 45/66/18 48/77/18 30/41/18
f 50/67/69 24/31/69 26/33/69
f 41/69/70 18/84/70 19/70/70
f 51/71/71 26/48/72 33/44/73
f 53/73/32 54/75/32 12/13/32
f 52/72/33 33/44/33 34/45/33
f 54/75/34 55/74/34 34/45/34
f 56/76/2 42/108/2 4/5/2
f 1/78/74 23/28/74 11/12/74
f 9/82/75 11/47/75 14/15/75
f 35/81/76 25/109/76 18/84/76
f 2/85/40 10/110/40 15/86/40
f 4/5/50 42/108/50 40/90/50
f 31/92/46 36/93/46 16/17/46
f 36/93/46 40/88/46 20/23/46
f 37/94/47 49/111/47 44/4/47
f 56/95/48 57/103/48 20/23/48
f 6/96/77 32/98/77 27/34/77
f 39/91/50 6/96/50 43/97/50
f 37/94/78 5/6/78 27/34/78
f 58/112/79 60/113/79 59/114/79
f 44/4/2 62/115/2 61/116/2
f 63/117/80 65/118/80 64/119/80
f 66/120/81 68/121/81 67/122/81
f 69/123/82 71/124/82 70/125/82
f 72/126/2 66/120/2 67/122/2
f 73/127/83 74/128/83 45/18/83
f 75/129/84 76/130/84 65/131/84
f 77/132/83 73/127/83 46/24/83
f 66/133/85 79/134/86 78/135/87
f 80/136/88 53/30/88 47/29/88
f 81/137/89 83/138/89 82/139/89
f 61/116/2 62/115/2 84/140/2
f 76/141/90 78/142/91 85/143/92
f 78/142/93 79/144/94 86/145/94
f 74/146/18 88/147/18 87/148/18
f 65/118/95 63/117/95 89/149/95
f 90/150/96 91/151/96 70/125/96
f 80/152/97 68/153/97 71/124/97
f 83/154/98 90/150/98 92/155/98
f 86/156/80 88/157/80 93/158/80
f 64/119/80 85/159/80 93/158/80
f 87/160/80 88/157/80 86/156/80
f 94/161/99 81/162/99 95/163/99
f 87/148/18 59/164/18 60/165/18
f 47/60/100 48/61/100 60/113/100
f 64/119/80 97/166/80 96/167/80
f 49/64/101 50/65/101 81/162/101
f 45/66/18 74/146/18 87/148/18
f 50/67/102 51/68/102 83/138/102
f 98/168/103 78/135/104 76/169/103
f 51/71/105 52/72/106 90/150/107
f 53/73/108 80/152/108 69/123/108
f 52/72/109 55/74/109 91/151/109
f 54/75/110 69/123/110 91/151/110
f 56/76/2 44/4/2 61/116/2
f 48/77/18 87/148/18 60/165/18
f 58/170/111 67/122/111 68/121/111
f 98/168/112 70/171/112 71/172/112
f 98/168/113 92/173/113 70/171/113
f 66/174/114 98/175/114 71/124/114
f 92/173/115 98/168/115 75/176/115
f 59/177/116 87/160/116 72/178/116
f 87/160/80 86/156/80 72/178/80
f 82/139/117 65/131/117 95/179/118
f 97/180/119 77/132/119 99/181/119
f 61/116/120 96/182/120 97/183/120
f 88/184/121 74/128/121 73/127/121
f 93/185/122 73/127/122 77/132/122
f 94/186/47 62/115/47 44/4/47
f 56/95/123 99/181/123 77/132/123
f 63/187/124 100/188/124 84/140/124
f 96/182/125 61/116/125 100/188/125
f 94/186/126 89/189/126 84/140/126
f 58/112/79 59/114/79 67/190/79
f 63/117/80 64/119/80 96/167/80
f 69/123/82 70/125/82 91/151/82
f 66/120/2 72/126/2 79/191/2
f 79/191/2 72/126/2 86/192/2
f 73/127/83 45/18/83 46/24/83
f 75/129/127 65/131/127 82/139/127
f 65/131/128 76/130/128 64/193/128
f 77/132/83 46/24/83 57/103/83
f 66/133/129 78/135/130 98/168/131
f 80/136/132 47/29/132 58/170/132
f 81/137/133 82/139/133 95/179/134
f 61/116/2 84/140/2 100/188/2
f 76/141/135 85/143/136 64/194/135
f 78/142/137 86/145/94 85/143/138
f 65/118/139 89/149/139 95/195/139
f 90/150/96 70/125/96 92/155/96
f 80/152/140 71/124/140 69/123/140
f 83/154/141 92/155/141 82/196/141
f 86/156/80 93/158/80 85/159/80
f 64/119/80 93/158/80 97/166/80
f 94/161/142 95/163/142 89/197/142
f 47/60/100 60/113/100 58/112/100
f 49/64/143 81/162/143 94/161/143
f 45/66/18 87/148/18 48/77/18
f 50/67/144 83/138/144 81/137/144
f 98/168/145 76/169/145 75/176/145
f 51/71/146 90/150/147 83/154/148
f 53/73/108 69/123/108 54/75/108
f 52/72/109 91/151/109 90/150/109
f 54/75/110 91/151/110 55/74/110
f 56/76/2 61/116/2 99/198/2
f 58/170/149 68/121/149 80/136/149
f 66/174/150 71/124/150 68/153/150
f 92/173/151 75/176/151 82/199/151
f 59/177/116 72/178/116 67/200/116
f 61/116/125 97/183/125 99/198/125
f 88/184/122 73/127/122 93/185/122
f 93/185/122 77/132/122 97/180/122
f 94/186/47 44/4/47 49/111/47
f 56/95/123 77/132/123 57/103/123
f 63/187/152 84/140/152 89/189/152
f 96/182/120 100/188/120 63/187/120
f 94/186/153 84/140/153 62/115/153
