# Blender v2.79 (sub 0) OBJ File: 'bottles.obj'
# www.blender.org
mtllib bottles.mtl
o dec
v 0.224093 0.307110 0.106999
v 0.224093 0.508263 0.106999
v 0.224093 0.508263 0.177521
v 0.224093 0.307110 0.177521
v 0.153572 0.508263 0.177521
v 0.153572 0.307110 0.177521
v 0.153572 0.508263 0.106999
v 0.153572 0.307110 0.106999
v 0.250219 -0.012940 0.080873
v 0.250219 0.318846 0.080873
v 0.250219 0.318846 0.203647
v 0.250219 -0.012940 0.203647
v 0.127446 0.318846 0.203647
v 0.127446 -0.012940 0.203647
v 0.127446 0.318846 0.080873
v 0.127446 -0.012940 0.080873
v -0.093951 0.059935 0.122097
v -0.009658 -0.009140 0.231553
v -0.093951 -0.009140 0.122097
v -0.009658 0.059935 0.231553
v -0.151039 -0.009141 0.340432
v -0.151039 0.059935 0.340432
v -0.235332 -0.009140 0.230975
v -0.235332 0.059935 0.230975
v 0.087863 0.144614 -0.224109
v -0.082382 0.144614 -0.291676
v -0.082382 0.144614 -0.224109
v 0.087863 0.075386 -0.291676
v -0.082382 0.075386 -0.291676
v -0.082382 0.075386 -0.224109
v 0.087863 0.075386 -0.224109
v 0.087863 0.144614 -0.291676
v -0.075772 0.184064 -0.158399
v -0.440050 0.184064 -0.357385
v -0.440050 0.184064 -0.158399
v -0.075772 0.184064 -0.357385
v -0.440050 0.035936 -0.357385
v -0.075772 0.035936 -0.357385
v -0.440050 0.035936 -0.158399
v -0.075772 0.035936 -0.158399
vt 0.123768 0.470237
vt 0.123768 0.561542
vt 0.187945 0.562317
vt 0.063314 0.468587
vt 0.062338 0.562174
vt 0.123209 0.562663
vt 0.001631 0.468240
vt 0.001631 0.563539
vt 0.058950 0.563539
vt 0.189115 0.468537
vt 0.186014 0.562854
vt 0.249714 0.562854
vt 0.060110 0.593333
vt 0.184856 0.592845
vt 0.184856 0.562211
vt 0.000000 0.000000
vt 0.000000 0.000000
vt 0.000000 0.000000
vt 0.372554 0.783198
vt 0.371578 0.937704
vt 0.498741 0.937704
vt 0.250059 0.780510
vt 0.248105 0.937431
vt 0.372012 0.937431
vt 0.121300 0.781108
vt 0.119750 0.937588
vt 0.243694 0.937503
vt 0.000391 0.782203
vt -0.002709 0.937937
vt 0.116877 0.937937
vt 0.373065 0.940557
vt 0.127771 0.939782
vt 0.124671 0.996545
vt 0.062735 0.562753
vt 0.063241 0.594003
vt 0.187265 0.593985
vt 0.187945 0.469462
vt 0.122233 0.469076
vt 0.060500 0.468240
vt 0.251265 0.469312
vt 0.060110 0.562211
vt 0.000000 0.000000
vt 0.498741 0.784174
vt 0.372012 0.780999
vt 0.247941 0.781883
vt 0.121528 0.782203
vt 0.373065 0.996545
vt 0.186758 0.563712
vt 0.315271 0.376139
vt 0.438469 0.406092
vt 0.313680 0.406092
vt 0.626134 0.374626
vt 0.439296 0.406695
vt 0.624180 0.406695
vt 0.122383 0.405297
vt 0.000190 0.374474
vt -0.001640 0.405235
vt 0.125053 0.376476
vt 0.313776 0.405730
vt 0.125053 0.406505
vt 0.315924 0.468414
vt 0.501153 0.408354
vt 0.498053 0.468414
vt 0.312017 0.407298
vt 0.126006 0.468811
vt 0.126006 0.407957
vt 0.439445 0.375705
vt 0.442226 0.375114
vt 0.121284 0.374535
vt 0.312226 0.376476
vt 0.315924 0.408354
vt 0.312823 0.469586
vt 0.248788 0.374720
vt 0.189744 0.281143
vt 0.248214 0.280570
vt 0.250812 0.250518
vt 0.435982 0.279058
vt 0.249947 0.279902
vt 0.312885 0.372943
vt 0.255475 0.280865
vt 0.310932 0.280865
vt 0.001568 0.279504
vt 0.186073 0.249396
vt 0.182252 0.279289
vt 0.000000 0.000000
vt 0.000000 0.000000
vt 0.000000 0.000000
vt 0.438354 0.279803
vt 0.499353 0.250524
vt 0.498864 0.279803
vt 0.373543 0.246688
vt 0.499378 0.064372
vt 0.373543 0.063395
vt 0.867998 0.000001
vt 0.501865 0.062499
vt 0.502565 -0.000365
vt 0.622807 0.248919
vt 0.498108 0.065331
vt 0.622807 0.065331
vt 0.000997 0.000044
vt 0.369227 0.060630
vt 0.366426 -0.000890
vt 1.000051 0.062229
vt 0.877878 -0.001154
vt 1.000051 -0.000666
vt 0.502714 0.062183
vt 0.371171 -0.000300
vt 0.503329 -0.000300
vt 0.188767 0.374821
vt 0.437824 0.250982
vt 0.255475 0.373432
vt 0.000960 0.249330
vt 0.000000 0.000000
vt 0.438842 0.250524
vt 0.499207 0.249416
vt 0.868528 0.061888
vt 0.498108 0.250469
vt -0.001316 0.061362
vt 0.878855 0.062229
vt 0.370556 0.061567
vn 1.0000 0.0000 0.0000
vn 0.0000 -0.0000 1.0000
vn -1.0000 0.0000 0.0000
vn 0.0000 0.0000 -1.0000
vn 0.0000 1.0000 0.0000
vn 0.0000 -1.0000 0.0000
vn 0.7923 0.0000 -0.6101
vn 0.6101 -0.0000 0.7923
vn -0.7923 0.0000 0.6101
vn -0.6101 0.0000 -0.7923
usemtl dec
s off
f 1/1/1 2/2/1 3/3/1
f 4/4/2 3/5/2 5/6/2
f 6/7/3 5/8/3 7/9/3
f 8/10/4 7/11/4 2/12/4
f 5/13/5 3/14/5 2/15/5
f 4/16/6 6/17/6 8/18/6
f 9/19/1 10/20/1 11/21/1
f 12/22/2 11/23/2 13/24/2
f 14/25/3 13/26/3 15/27/3
f 16/28/4 15/29/4 10/30/4
f 13/31/5 11/32/5 10/33/5
f 12/34/6 14/35/6 16/36/6
f 1/1/1 3/3/1 4/37/1
f 4/4/2 5/6/2 6/38/2
f 6/7/3 7/9/3 8/39/3
f 8/10/4 2/12/4 1/40/4
f 5/13/5 2/15/5 7/41/5
f 4/16/6 8/18/6 1/42/6
f 9/19/1 11/21/1 12/43/1
f 12/22/2 13/24/2 14/44/2
f 14/25/3 15/27/3 16/45/3
f 16/28/4 10/30/4 9/46/4
f 13/31/5 10/33/5 15/47/5
f 12/34/6 16/36/6 9/48/6
f 17/49/7 18/50/7 19/51/7
f 20/52/8 21/53/8 18/54/8
f 22/55/9 23/56/9 21/57/9
f 24/58/10 19/59/10 23/60/10
f 21/61/6 19/62/6 18/63/6
f 20/64/5 24/65/5 22/66/5
f 17/49/7 20/67/7 18/50/7
f 20/52/8 22/68/8 21/53/8
f 22/55/9 24/69/9 23/56/9
f 24/58/10 17/70/10 19/59/10
f 21/61/6 23/71/6 19/62/6
f 20/64/5 17/72/5 24/65/5
f 25/73/5 26/74/5 27/75/5
f 26/76/4 28/77/4 29/78/4
f 28/79/6 30/80/6 29/81/6
f 31/82/2 27/83/2 30/84/2
f 26/85/3 30/86/3 27/87/3
f 32/88/1 31/89/1 28/90/1
f 33/91/5 34/92/5 35/93/5
f 36/94/4 37/95/4 34/96/4
f 38/97/6 39/98/6 37/99/6
f 40/100/2 35/101/2 39/102/2
f 37/103/3 35/104/3 34/105/3
f 36/106/1 40/107/1 38/108/1
f 25/73/5 32/109/5 26/74/5
f 26/76/4 32/110/4 28/77/4
f 28/79/6 31/111/6 30/80/6
f 31/82/2 25/112/2 27/83/2
f 26/85/3 29/113/3 30/86/3
f 32/88/1 25/114/1 31/89/1
f 33/91/5 36/115/5 34/92/5
f 36/94/4 38/116/4 37/95/4
f 38/97/6 40/117/6 39/98/6
f 40/100/2 33/118/2 35/101/2
f 37/103/3 39/119/3 35/104/3
f 36/106/1 33/120/1 40/107/1
