# Blender v2.79 (sub 0) OBJ File: 'fence_corner.obj'
# www.blender.org
mtllib fence_corner.mtl
o dec
v -0.500000 0.197484 0.031250
v -0.090332 0.278734 0.031250
v -0.090332 0.197484 0.031250
v -0.090332 0.197484 0.093750
v -0.500000 0.278734 0.093750
v -0.500000 0.197484 0.093750
v -0.500000 0.278734 0.031250
v -0.090332 0.278734 0.093750
v -0.094979 0.197484 0.499978
v -0.090332 0.278734 0.000000
v -0.090332 0.197484 0.000000
v -0.027835 0.197484 0.000581
v -0.032482 0.278734 0.500559
v -0.032482 0.197484 0.500559
v -0.094979 0.278734 0.499978
v -0.027835 0.278734 0.000581
v -0.090332 -0.046266 0.062500
v -0.027832 1.903734 0.062500
v -0.027832 -0.046266 0.062500
v -0.027832 -0.046266 0.125000
v -0.090332 1.903734 0.125000
v -0.090332 -0.046266 0.125000
v -0.090332 1.903734 0.062500
v -0.027832 1.903734 0.125000
v -0.296516 -0.046266 -0.000000
v -0.173811 1.903734 0.000000
v -0.173811 -0.046266 -0.000000
v -0.173811 -0.046266 0.062500
v -0.296516 1.903734 0.062500
v -0.296516 -0.046266 0.062500
v -0.296516 1.903734 0.000000
v -0.173811 1.903734 0.062500
v -0.500000 0.928734 0.031250
v -0.090332 1.009984 0.031250
v -0.090332 0.928734 0.031250
v -0.090332 0.928734 0.093750
v -0.500000 1.009984 0.093750
v -0.500000 0.928734 0.093750
v -0.500000 1.009984 0.031250
v -0.090332 1.009984 0.093750
v -0.094979 1.578734 0.499978
v -0.090332 1.659984 0.000000
v -0.090332 1.578734 0.000000
v -0.027835 1.578734 0.000581
v -0.032482 1.659984 0.500559
v -0.032482 1.578734 0.500559
v -0.094979 1.659984 0.499978
v -0.027835 1.659984 0.000581
v -0.461560 -0.046266 -0.000000
v -0.361337 1.903734 0.000000
v -0.361337 -0.046266 -0.000000
v -0.361337 -0.046266 0.062500
v -0.461560 1.903734 0.062500
v -0.461560 -0.046266 0.062500
v -0.461560 1.903734 0.000000
v -0.361337 1.903734 0.062500
v -0.120641 -0.046266 -0.000000
v -0.027832 1.903734 0.000000
v -0.027832 -0.046266 -0.000000
v -0.120641 1.903734 0.062500
v -0.120641 -0.046266 0.062500
v -0.120641 1.903734 0.000000
v -0.090332 -0.046266 0.162500
v -0.027832 1.903734 0.162500
v -0.027832 -0.046266 0.162500
v -0.027832 -0.046266 0.287500
v -0.090332 1.903734 0.287500
v -0.090332 -0.046266 0.287500
v -0.090332 1.903734 0.162500
v -0.027832 1.903734 0.287500
v -0.500000 1.578734 0.031250
v -0.090332 1.659984 0.031250
v -0.090332 1.578734 0.031250
v -0.090332 1.578734 0.093750
v -0.500000 1.659984 0.093750
v -0.500000 1.578734 0.093750
v -0.500000 1.659984 0.031250
v -0.090332 1.659984 0.093750
v -0.094979 0.928734 0.499978
v -0.090332 1.009984 0.000000
v -0.090332 0.928734 0.000000
v -0.027835 0.928734 0.000581
v -0.032482 1.009984 0.500559
v -0.032482 0.928734 0.500559
v -0.094979 1.009984 0.499978
v -0.027835 1.009984 0.000581
v -0.090332 -0.044253 0.337500
v -0.027832 1.905747 0.337500
v -0.027832 -0.044253 0.337500
v -0.027832 -0.044254 0.462500
v -0.090332 1.905747 0.462500
v -0.090332 -0.044254 0.462500
v -0.090332 1.905747 0.337500
v -0.027832 1.905747 0.462500
vt 0.015625 0.031250
vt 0.140625 0.062500
vt 0.140625 0.031250
vt 0.156250 0.031250
vt 0.281250 0.062500
vt 0.281250 0.031250
vt 0.015625 0.062500
vt 0.140625 0.093750
vt 0.140625 0.062500
vt 0.265625 0.093750
vt 0.265625 0.062500
vt 0.156250 0.062500
vt 0.000000 0.031250
vt 0.015625 0.031742
vt 0.140625 0.062992
vt 0.140625 0.031742
vt 0.156250 0.031742
vt 0.281250 0.062992
vt 0.281250 0.031742
vt 0.015625 0.062992
vt 0.140625 0.094242
vt 0.265625 0.062992
vt 0.140625 0.094242
vt 0.265625 0.094242
vt 0.156250 0.062992
vt 0.000000 0.031742
vt 0.015625 0.218750
vt 0.031250 0.968750
vt 0.031250 0.218750
vt 0.046875 0.218750
vt 0.062500 0.968750
vt 0.062500 0.218750
vt 0.031515 0.968750
vt 0.047140 1.000000
vt 0.047140 0.968750
vt 0.031250 0.968750
vt 0.046875 1.000000
vt 0.046875 0.968750
vt 0.046875 0.968750
vt 0.000000 0.218750
vt 0.015625 0.968750
vt 0.015625 0.218750
vt 0.046875 0.968750
vt 0.046875 0.218750
vt 0.062500 0.218750
vt 0.093750 0.968750
vt 0.093750 0.218750
vt 0.031902 0.968750
vt 0.063152 1.000000
vt 0.063152 0.968750
vt 0.046875 0.968750
vt 0.078125 1.000000
vt 0.078125 0.968750
vt 0.062500 0.968750
vt 0.000000 0.218750
vt 0.015625 0.968750
vt 0.015625 0.031250
vt 0.140625 0.062500
vt 0.140625 0.031250
vt 0.156250 0.031250
vt 0.281250 0.062500
vt 0.281250 0.031250
vt 0.015625 0.062500
vt 0.140625 0.093750
vt 0.140625 0.062500
vt 0.265625 0.093750
vt 0.265625 0.062500
vt 0.156250 0.062500
vt 0.000000 0.031250
vt 0.015625 0.031250
vt 0.140625 0.062500
vt 0.140625 0.031250
vt 0.156250 0.031250
vt 0.281250 0.062500
vt 0.281250 0.031250
vt 0.015625 0.062500
vt 0.140625 0.093750
vt 0.265625 0.062500
vt 0.140625 0.093750
vt 0.265625 0.093750
vt 0.156250 0.062500
vt 0.000000 0.031250
vt 0.015625 0.218750
vt 0.046875 0.968750
vt 0.046875 0.218750
vt 0.062500 0.218750
vt 0.093750 0.968750
vt 0.093750 0.218750
vt 0.031515 0.968750
vt 0.062765 1.000000
vt 0.062765 0.968750
vt 0.046875 0.968750
vt 0.078125 1.000000
vt 0.078125 0.968750
vt 0.062500 0.968750
vt 0.000000 0.218750
vt 0.015625 0.968750
vt 0.015625 0.218750
vt 0.046875 0.968750
vt 0.046875 0.218750
vt 0.062500 0.218750
vt 0.093750 0.968750
vt 0.093750 0.218750
vt 0.031902 0.968750
vt 0.063152 1.000000
vt 0.063152 0.968750
vt 0.046875 0.968750
vt 0.078125 1.000000
vt 0.078125 0.968750
vt 0.062500 0.968750
vt 0.000000 0.218750
vt 0.015625 0.968750
vt 0.031250 0.187500
vt 0.046875 0.937500
vt 0.046875 0.187500
vt 0.078125 0.187500
vt 0.093750 0.937500
vt 0.093750 0.187500
vt 0.031250 0.937500
vt 0.046875 1.000000
vt 0.046875 0.937500
vt 0.062500 1.000000
vt 0.062500 0.937500
vt 0.078125 0.937500
vt 0.000000 0.187500
vt 0.015625 0.031250
vt 0.140625 0.062500
vt 0.140625 0.031250
vt 0.156250 0.031250
vt 0.281250 0.062500
vt 0.281250 0.031250
vt 0.015625 0.062500
vt 0.140625 0.093750
vt 0.140625 0.062500
vt 0.265625 0.093750
vt 0.265625 0.062500
vt 0.156250 0.062500
vt 0.000000 0.031250
vt 0.015625 0.031742
vt 0.140625 0.062992
vt 0.140625 0.031742
vt 0.156250 0.031742
vt 0.281250 0.062992
vt 0.281250 0.031742
vt 0.015625 0.062992
vt 0.140625 0.094242
vt 0.265625 0.062992
vt 0.140625 0.094242
vt 0.265625 0.094242
vt 0.156250 0.062992
vt 0.000000 0.031742
vt 0.031250 0.187500
vt 0.046875 0.937500
vt 0.046875 0.187500
vt 0.078125 0.187500
vt 0.093750 0.937500
vt 0.093750 0.187500
vt 0.031250 0.937500
vt 0.046875 1.000000
vt 0.046875 0.937500
vt 0.062500 1.000000
vt 0.062500 0.937500
vt 0.078125 0.937500
vt 0.000000 0.187500
vt 0.015625 0.093750
vt 0.140625 0.093750
vt 0.000000 0.062500
vt 0.015625 0.094242
vt 0.140625 0.062992
vt 0.000000 0.062992
vt 0.031515 1.000000
vt 0.031250 1.000000
vt 0.000000 0.968750
vt 0.031902 1.000000
vt 0.046875 1.000000
vt 0.000000 0.968750
vt 0.015625 0.093750
vt 0.140625 0.093750
vt 0.000000 0.062500
vt 0.015625 0.093750
vt 0.140625 0.062500
vt 0.000000 0.062500
vt 0.031515 1.000000
vt 0.046875 1.000000
vt 0.000000 0.968750
vt 0.031902 1.000000
vt 0.046875 1.000000
vt 0.000000 0.968750
vt 0.031250 1.000000
vt 0.046875 1.000000
vt 0.000000 0.937500
vt 0.015625 0.093750
vt 0.140625 0.093750
vt 0.000000 0.062500
vt 0.015625 0.094242
vt 0.140625 0.062992
vt 0.000000 0.062992
vt 0.031250 1.000000
vt 0.046875 1.000000
vt 0.000000 0.937500
vn 0.0000 0.0000 -1.0000
vn 0.0000 -0.0000 1.0000
vn 0.0000 1.0000 0.0000
vn 0.0000 -1.0000 -0.0000
vn 1.0000 0.0000 0.0000
vn -1.0000 0.0000 0.0000
vn -1.0000 0.0000 -0.0093
vn 1.0000 -0.0000 0.0093
vn 0.0093 0.0000 -1.0000
vn -0.0093 -0.0000 1.0000
usemtl dec
s 1
f 1/1/1 2/2/1 3/3/1
f 4/4/2 5/5/2 6/6/2
f 7/7/3 8/8/3 2/2/3
f 6/9/4 3/10/4 4/11/4
f 3/3/5 8/12/5 4/4/5
f 6/13/6 7/7/6 1/1/6
f 9/14/7 10/15/7 11/16/7
f 12/17/8 13/18/8 14/19/8
f 15/20/3 16/21/3 10/15/3
f 12/22/4 9/23/4 11/24/4
f 11/16/9 16/25/9 12/17/9
f 14/26/10 15/20/10 9/14/10
f 17/27/1 18/28/1 19/29/1
f 20/30/2 21/31/2 22/32/2
f 23/33/3 24/34/3 18/35/3
f 22/36/4 19/37/4 20/38/4
f 19/29/5 24/39/5 20/30/5
f 22/40/6 23/41/6 17/27/6
f 25/42/1 26/43/1 27/44/1
f 28/45/2 29/46/2 30/47/2
f 31/48/3 32/49/3 26/50/3
f 30/51/4 27/52/4 28/53/4
f 27/44/5 32/54/5 28/45/5
f 30/55/6 31/56/6 25/42/6
f 33/57/1 34/58/1 35/59/1
f 36/60/2 37/61/2 38/62/2
f 39/63/3 40/64/3 34/58/3
f 38/65/4 35/66/4 36/67/4
f 35/59/5 40/68/5 36/60/5
f 38/69/6 39/63/6 33/57/6
f 41/70/7 42/71/7 43/72/7
f 44/73/8 45/74/8 46/75/8
f 47/76/3 48/77/3 42/71/3
f 44/78/4 41/79/4 43/80/4
f 43/72/9 48/81/9 44/73/9
f 46/82/10 47/76/10 41/70/10
f 49/83/1 50/84/1 51/85/1
f 52/86/2 53/87/2 54/88/2
f 55/89/3 56/90/3 50/91/3
f 54/92/4 51/93/4 52/94/4
f 51/85/5 56/95/5 52/86/5
f 54/96/6 55/97/6 49/83/6
f 57/98/1 58/99/1 59/100/1
f 19/101/2 60/102/2 61/103/2
f 62/104/3 18/105/3 58/106/3
f 61/107/4 59/108/4 19/109/4
f 59/100/5 18/110/5 19/101/5
f 61/111/6 62/112/6 57/98/6
f 63/113/1 64/114/1 65/115/1
f 66/116/2 67/117/2 68/118/2
f 69/119/3 70/120/3 64/114/3
f 68/121/4 65/122/4 66/123/4
f 65/115/5 70/124/5 66/116/5
f 68/125/6 69/119/6 63/113/6
f 71/126/1 72/127/1 73/128/1
f 74/129/2 75/130/2 76/131/2
f 77/132/3 78/133/3 72/127/3
f 76/134/4 73/135/4 74/136/4
f 73/128/5 78/137/5 74/129/5
f 76/138/6 77/132/6 71/126/6
f 79/139/7 80/140/7 81/141/7
f 82/142/8 83/143/8 84/144/8
f 85/145/3 86/146/3 80/140/3
f 82/147/4 79/148/4 81/149/4
f 81/141/9 86/150/9 82/142/9
f 84/151/10 85/145/10 79/139/10
f 87/152/1 88/153/1 89/154/1
f 90/155/2 91/156/2 92/157/2
f 93/158/3 94/159/3 88/153/3
f 92/160/4 89/161/4 90/162/4
f 89/154/5 94/163/5 90/155/5
f 92/164/6 93/158/6 87/152/6
f 1/1/1 7/7/1 2/2/1
f 4/4/2 8/12/2 5/5/2
f 7/7/3 5/165/3 8/8/3
f 6/9/4 1/166/4 3/10/4
f 3/3/5 2/2/5 8/12/5
f 6/13/6 5/167/6 7/7/6
f 9/14/7 15/20/7 10/15/7
f 12/17/8 16/25/8 13/18/8
f 15/20/3 13/168/3 16/21/3
f 12/22/4 14/169/4 9/23/4
f 11/16/9 10/15/9 16/25/9
f 14/26/10 13/170/10 15/20/10
f 17/27/1 23/41/1 18/28/1
f 20/30/2 24/39/2 21/31/2
f 23/33/3 21/171/3 24/34/3
f 22/36/4 17/172/4 19/37/4
f 19/29/5 18/28/5 24/39/5
f 22/40/6 21/173/6 23/41/6
f 25/42/1 31/56/1 26/43/1
f 28/45/2 32/54/2 29/46/2
f 31/48/3 29/174/3 32/49/3
f 30/51/4 25/175/4 27/52/4
f 27/44/5 26/43/5 32/54/5
f 30/55/6 29/176/6 31/56/6
f 33/57/1 39/63/1 34/58/1
f 36/60/2 40/68/2 37/61/2
f 39/63/3 37/177/3 40/64/3
f 38/65/4 33/178/4 35/66/4
f 35/59/5 34/58/5 40/68/5
f 38/69/6 37/179/6 39/63/6
f 41/70/7 47/76/7 42/71/7
f 44/73/8 48/81/8 45/74/8
f 47/76/3 45/180/3 48/77/3
f 44/78/4 46/181/4 41/79/4
f 43/72/9 42/71/9 48/81/9
f 46/82/10 45/182/10 47/76/10
f 49/83/1 55/97/1 50/84/1
f 52/86/2 56/95/2 53/87/2
f 55/89/3 53/183/3 56/90/3
f 54/92/4 49/184/4 51/93/4
f 51/85/5 50/84/5 56/95/5
f 54/96/6 53/185/6 55/97/6
f 57/98/1 62/112/1 58/99/1
f 19/101/2 18/110/2 60/102/2
f 62/104/3 60/186/3 18/105/3
f 61/107/4 57/187/4 59/108/4
f 59/100/5 58/99/5 18/110/5
f 61/111/6 60/188/6 62/112/6
f 63/113/1 69/119/1 64/114/1
f 66/116/2 70/124/2 67/117/2
f 69/119/3 67/189/3 70/120/3
f 68/121/4 63/190/4 65/122/4
f 65/115/5 64/114/5 70/124/5
f 68/125/6 67/191/6 69/119/6
f 71/126/1 77/132/1 72/127/1
f 74/129/2 78/137/2 75/130/2
f 77/132/3 75/192/3 78/133/3
f 76/134/4 71/193/4 73/135/4
f 73/128/5 72/127/5 78/137/5
f 76/138/6 75/194/6 77/132/6
f 79/139/7 85/145/7 80/140/7
f 82/142/8 86/150/8 83/143/8
f 85/145/3 83/195/3 86/146/3
f 82/147/4 84/196/4 79/148/4
f 81/141/9 80/140/9 86/150/9
f 84/151/10 83/197/10 85/145/10
f 87/152/1 93/158/1 88/153/1
f 90/155/2 94/163/2 91/156/2
f 93/158/3 91/198/3 94/159/3
f 92/160/4 87/199/4 89/161/4
f 89/154/5 88/153/5 94/163/5
f 92/164/6 91/200/6 93/158/6
