# Blender v2.79 (sub 0) OBJ File: 'dek_stol.obj'
# www.blender.org
mtllib dek_stol.mtl
o stol
v -0.401545 0.116866 -1.480205
v -0.401545 0.162384 -1.421154
v -0.401545 0.116866 -1.421154
v -0.401545 0.162384 -1.480205
v -0.401545 0.943032 0.480279
v -0.460596 0.943032 0.421229
v -0.460596 0.943032 0.480279
v -0.460596 0.943032 -0.302187
v 0.460596 0.943032 -0.302187
v 0.401545 0.943032 0.480279
v 0.460596 0.943033 -1.421154
v -0.460596 0.943033 -1.480205
v -0.460596 0.943033 -1.421154
v -0.401545 0.943033 -1.480205
v 0.401545 0.943033 -1.480205
v 0.460596 0.943033 -1.480205
v -0.460596 0.722667 -0.302187
v 0.460596 0.682087 -0.302187
v -0.460596 0.682087 -0.302187
v 0.460596 0.722667 -0.302187
v 0.460596 0.722667 -1.421154
v 0.401545 0.682087 -1.421154
v 0.460596 0.682087 -1.421154
v -0.401545 0.682087 -1.421154
v -0.460596 0.682087 -1.421154
v -0.460596 0.722667 -1.421154
v 0.401545 0.116866 -1.421154
v 0.401545 0.162384 -1.480205
v 0.401545 0.116866 -1.480205
v 0.401545 0.162384 -1.421154
v 0.460596 0.943032 0.480279
v 0.460596 0.943032 0.421229
v 0.460596 -0.000000 0.421229
v 0.401545 -0.000000 0.480279
v 0.401545 -0.000000 0.421229
v 0.460596 -0.000000 0.480279
v -0.401545 -0.000000 0.421229
v -0.460596 -0.000000 0.480279
v -0.460596 -0.000000 0.421229
v -0.401545 -0.000000 0.480279
v 0.499963 0.999926 0.499963
v -0.499963 0.999926 -1.499888
v -0.499963 0.999926 0.499963
v 0.499963 0.999926 -1.499888
v 0.499963 0.943033 -1.499888
v 0.499963 0.943032 0.499963
v -0.499963 0.943032 0.499963
v -0.499963 0.943033 -1.499888
v -0.460596 0.000000 -1.421154
v -0.460596 0.000000 -1.480205
v -0.401545 0.000000 -1.480205
v -0.401545 0.000000 -1.421154
v -0.401545 0.682087 -1.480205
v -0.401545 0.181841 0.480279
v 0.401545 0.181841 0.480279
v 0.401545 0.181841 0.421229
v -0.401545 0.181841 0.421229
v -0.460596 0.181841 0.421229
v -0.460596 0.181841 -0.302187
v 0.460596 0.000000 -1.480205
v 0.460596 0.000000 -1.421154
v 0.401545 0.000000 -1.421154
v 0.401545 0.682087 -1.480205
v 0.401545 0.000000 -1.480205
v 0.460596 0.181841 -0.302187
v 0.460596 0.181841 0.421229
vt 1.480310 0.116875
vt 1.421260 0.162396
vt 1.421260 0.116875
vt 1.480310 0.162396
vt -0.401575 -0.480315
vt -0.460630 -0.421260
vt -0.460630 -0.480315
vt -0.460630 0.302209
vt 0.460630 0.302209
vt 0.401575 -0.480315
vt 0.460630 1.421260
vt -0.460630 1.480310
vt -0.460630 1.421260
vt -0.401575 1.480310
vt 0.401575 1.480310
vt 0.460630 1.480310
vt 0.460630 0.722721
vt -0.460630 0.682139
vt 0.460630 0.682139
vt -0.460630 0.722721
vt 0.460630 0.722721
vt 0.401575 0.682139
vt 0.460630 0.682139
vt -0.401575 0.682139
vt -0.460630 0.682139
vt -0.460630 0.722721
vt -1.421260 0.116875
vt -1.480310 0.162396
vt -1.480310 0.116875
vt -1.421260 0.162396
vt 0.460630 -0.480315
vt 0.460630 -0.421260
vt -0.460630 -0.421260
vt -0.401575 -0.480315
vt -0.401575 -0.421260
vt -0.460630 -0.480315
vt 0.401575 -0.421260
vt 0.460630 -0.480315
vt 0.460630 -0.421260
vt 0.401575 -0.480315
vt 1.000000 0.000000
vt 0.000000 1.000000
vt 0.000000 0.000000
vt 1.000000 1.000000
vt 1.056900 1.000000
vt 1.056900 -0.000000
vt 0.000000 -0.028449
vt 1.000000 -0.028449
vt -0.056899 0.000000
vt -0.056899 1.000000
vt 1.000000 1.028450
vt 0.000000 1.028450
vt 0.039370 -1.018610
vt 0.000000 -1.028450
vt 1.000000 -1.028450
vt 0.039370 -0.067819
vt 0.039370 -0.429554
vt 0.039370 -0.989079
vt 1.494920 0.472066
vt 1.553980 0.361876
vt 1.553980 0.472066
vt 1.553980 0.341585
vt 1.553980 0.000516
vt 1.494920 0.000516
vt 1.435870 0.058953
vt 1.435870 0.000516
vt 1.613030 0.058953
vt 1.672090 0.000516
vt 1.672090 0.058953
vt 1.613030 0.000516
vt 1.613030 0.081714
vt 2.416180 0.081714
vt 2.416180 0.058953
vt -0.645669 0.308437
vt 0.157480 0.278910
vt 0.157480 0.308437
vt -0.645669 0.278910
vt 0.901575 0.331198
vt 0.098425 0.308437
vt 0.901575 0.308437
vt 0.098425 0.331198
vt -0.645669 0.360726
vt 0.157480 0.331198
vt 0.157480 0.360725
vt -0.645669 0.331198
vt 1.672090 0.081714
vt 1.613030 0.341585
vt 1.672090 0.341585
vt 1.435870 0.081714
vt 1.435870 0.341585
vt 1.435870 0.472066
vt 0.098425 -1.018610
vt 0.901575 -1.018610
vt 0.960630 -1.018610
vt 0.960630 -0.067819
vt 0.960630 -0.038292
vt 0.901575 -0.038292
vt 0.098425 -0.038292
vt 0.039370 -0.038292
vt 1.862650 -0.000000
vt 2.972790 1.000000
vt 1.862650 1.000000
vt 2.972790 -0.000000
vt 1.613030 0.091443
vt 2.416180 0.061915
vt 2.416180 0.091443
vt 1.613030 0.061915
vt 1.672090 0.000516
vt 1.672090 0.091443
vt 1.613030 0.000516
vt 1.553980 0.000516
vt 1.553980 0.472066
vt 1.613030 0.472066
vt 1.494920 0.472066
vt 1.494920 0.000516
vt 1.494920 0.091443
vt 2.000000 1.000000
vt 3.000000 -0.000000
vt 3.000000 1.000000
vt 2.000000 -0.000000
vt 2.000000 0.710501
vt 2.000000 0.356883
vt 0.685619 0.253566
vt 2.000000 0.253566
vt 0.685619 0.356883
vt 0.960630 -0.989079
vt 0.960630 -0.429554
vt 2.475240 0.472066
vt 2.534290 0.000516
vt 2.534290 0.472066
vt 2.475240 0.361876
vt 2.475240 0.341585
vt 2.475240 0.000516
vt 2.416180 0.000516
vt 2.416180 0.341585
vt 2.000000 -0.000000
vt 4.000000 -0.052772
vt 4.000000 -0.000000
vt 4.000000 -0.770479
vt 2.000000 -0.823251
vt 4.000000 -0.823251
vt 2.000000 0.657191
vt -0.940046 0.710501
vt -0.940046 0.657191
vt 2.000000 0.036265
vt 4.000000 0.859516
vt 2.000000 0.859517
vt 4.000000 0.036265
vt 3.000000 0.657191
vt 4.546780 0.710501
vt 3.000000 0.710501
vt 4.546780 0.657191
vt 0.929880 1.116180
vt 0.008620 1.005990
vt 0.929880 1.005990
vt 0.008620 1.116180
vt 0.901575 0.561542
vt 0.098425 0.591069
vt 0.098425 0.561542
vt 0.901575 0.591069
vt 0.901575 0.721551
vt 0.098425 0.721551
vt 2.593350 0.341585
vt 2.593350 0.472066
vt 2.593350 0.081714
vt 2.593350 0.058953
vt 2.593350 0.000516
vt 0.098425 0.220472
vt 0.157480 0.250000
vt 0.098425 0.250000
vt 0.157480 0.220472
vt 2.357130 0.058953
vt 2.357130 0.000516
vt 2.357130 0.341585
vt 2.357130 0.081714
vt 3.000000 -0.000000
vt 3.000000 1.000000
vt 2.000000 1.000000
vt 2.000000 -0.000000
vt 1.593350 0.472066
vt 1.593350 0.000516
vt 1.593350 0.091443
vt 1.534290 0.472066
vt 1.534290 0.000516
vt 2.475240 0.472066
vt 2.416180 0.000516
vt 2.475240 0.000516
vt 2.416180 0.472066
vt 2.357130 0.091443
vt 2.357130 0.000516
vt 1.652400 0.000516
vt 1.652400 0.091443
vt 1.593350 0.453177
vt 2.455550 0.091443
vt 2.514610 0.453177
vt 2.514610 0.091443
vt 1.435870 0.091443
vt 1.435870 0.000516
vt 2.000000 0.234540
vt 0.685619 -0.000000
vt 0.685619 0.234540
vt 1.613030 -0.029012
vt 1.553980 -0.029012
vn 0.5345 -0.2673 -0.8018
vn 0.5345 0.2673 0.8018
vn 0.5345 -0.2673 0.8018
vn 0.5345 0.2673 -0.8018
vn 0.0000 0.0000 1.0000
vn -1.0000 0.0000 0.0000
vn -0.4082 -0.8165 0.4082
vn -0.9470 0.0554 -0.3164
vn 0.9420 0.1097 -0.3172
vn -0.7038 -0.0785 0.7060
vn -0.4082 -0.8165 -0.4082
vn 0.7038 -0.0785 0.7060
vn 0.0000 0.0000 -1.0000
vn 0.4082 -0.8165 -0.4082
vn 0.4082 0.4082 -0.8165
vn 0.8018 -0.2673 -0.5345
vn -0.8018 -0.2673 -0.5345
vn -0.4082 0.4082 -0.8165
vn 0.8018 0.2673 0.5345
vn -0.2294 -0.6882 0.6882
vn 0.8018 -0.2673 0.5345
vn 0.2294 -0.6882 0.6882
vn -0.8018 -0.2673 0.5345
vn -0.8018 0.2673 0.5345
vn -0.5345 -0.2673 0.8018
vn -0.5345 0.2673 -0.8018
vn -0.5345 -0.2673 -0.8018
vn -0.5345 0.2673 0.8018
vn 0.4082 -0.8165 0.4082
vn 0.6388 -0.7693 0.0000
vn 0.5773 -0.5773 -0.5773
vn -0.5773 -0.5773 0.5773
vn -0.5773 -0.5773 -0.5773
vn 0.5773 -0.5773 0.5773
vn 0.5773 0.5773 0.5773
vn -0.5773 0.5773 -0.5773
vn -0.5773 0.5773 0.5773
vn 0.5773 0.5773 -0.5773
vn 0.3015 -0.3015 -0.9045
vn 0.3015 -0.3015 0.9045
vn -0.3015 -0.3015 0.9045
vn -0.3015 -0.9045 -0.3015
vn 0.3015 -0.9045 -0.3015
vn -0.3015 -0.3015 -0.9045
usemtl stol
s 1
f 1/1/1 2/2/2 3/3/3
f 2/2/2 1/1/1 4/4/4
f 5/5/5 6/6/6 7/7/7
f 6/6/6 5/5/5 8/8/8
f 8/8/8 5/5/5 9/9/9
f 9/9/9 5/5/5 10/10/5
f 11/11/10 12/12/11 13/13/12
f 12/12/11 11/11/10 14/14/13
f 14/14/13 11/11/10 15/15/13
f 15/15/13 11/11/10 16/16/14
f 17/17/15 18/18/16 19/19/17
f 18/18/16 17/17/15 20/20/18
f 21/21/19 22/22/20 23/23/21
f 22/22/20 21/21/19 24/24/22
f 24/24/22 21/21/19 25/25/23
f 25/25/23 21/21/19 26/26/24
f 27/27/25 28/28/26 29/29/27
f 28/28/26 27/27/25 30/30/28
f 9/9/9 10/10/5 31/31/29
f 9/9/9 31/31/29 32/32/30
f 33/33/31 34/34/32 35/35/33
f 34/34/32 33/33/31 36/36/34
f 37/37/31 38/38/32 39/39/33
f 38/38/32 37/37/31 40/40/34
f 41/41/35 42/42/36 43/43/37
f 42/42/36 41/41/35 44/44/38
f 41/41/35 45/45/31 44/44/38
f 45/45/31 41/41/35 46/46/34
f 41/41/35 47/47/32 46/48/34
f 47/47/32 41/41/35 43/43/37
f 42/42/36 47/49/32 43/43/37
f 47/49/32 42/42/36 48/50/33
f 42/42/36 45/51/31 48/52/33
f 45/51/31 42/42/36 44/44/38
f 12/53/11 48/54/33 45/55/31
f 48/54/33 12/53/11 47/47/32
f 47/47/32 12/53/11 6/56/6
f 12/53/11 8/57/8 6/56/6
f 8/57/8 12/53/11 13/58/12
f 12/59/11 26/60/24 13/61/12
f 26/60/24 12/59/11 25/62/23
f 25/62/23 12/59/11 49/63/32
f 49/63/32 12/59/11 50/64/33
f 1/65/1 50/64/33 12/59/11
f 50/64/33 1/65/1 51/66/31
f 3/67/3 51/68/31 1/69/1
f 51/68/31 3/67/3 52/70/34
f 3/67/3 49/63/32 52/70/34
f 49/63/32 3/67/3 25/62/23
f 25/62/23 3/67/3 2/71/2
f 3/67/3 30/72/28 2/71/2
f 30/72/28 3/67/3 27/73/25
f 3/74/3 29/75/27 27/76/25
f 29/75/27 3/74/3 1/77/1
f 4/78/4 29/79/27 1/80/1
f 29/79/27 4/78/4 28/81/26
f 4/82/4 30/83/28 28/84/26
f 30/83/28 4/82/4 2/85/2
f 4/86/4 24/87/22 2/71/2
f 24/87/22 4/86/4 53/88/39
f 4/89/4 12/59/11 53/90/39
f 1/65/1 12/59/11 4/89/4
f 53/90/39 12/59/11 14/91/13
f 12/53/11 45/55/31 14/92/13
f 14/92/13 45/55/31 15/93/13
f 15/93/13 45/55/31 16/94/14
f 16/94/14 45/55/31 32/95/30
f 46/48/34 32/95/30 45/55/31
f 46/48/34 31/96/29 32/95/30
f 46/48/34 10/97/5 31/96/29
f 46/48/34 5/98/5 10/97/5
f 46/48/34 7/99/7 5/98/5
f 47/47/32 7/99/7 46/48/34
f 7/99/7 47/47/32 6/56/6
f 54/100/40 10/101/5 5/102/5
f 10/101/5 54/100/40 55/103/41
f 54/104/40 56/105/42 55/106/41
f 56/105/42 54/104/40 57/107/43
f 54/104/40 37/108/31 57/109/43
f 37/108/31 54/104/40 40/110/34
f 54/104/40 38/111/32 40/110/34
f 38/111/32 54/104/40 7/112/7
f 7/112/7 54/104/40 5/113/5
f 6/114/6 38/111/32 7/112/7
f 38/111/32 6/114/6 39/115/33
f 39/115/33 6/114/6 58/116/32
f 8/117/8 58/118/32 6/119/6
f 58/118/32 8/117/8 59/120/33
f 59/120/33 8/117/8 17/121/15
f 8/122/8 20/123/18 17/124/15
f 20/123/18 8/122/8 9/125/9
f 8/57/8 11/126/10 9/127/9
f 8/57/8 13/58/12 11/126/10
f 9/127/9 11/126/10 16/94/14
f 11/128/10 60/129/31 16/130/14
f 21/131/19 60/129/31 11/128/10
f 23/132/21 60/129/31 21/131/19
f 60/129/31 23/132/21 61/133/34
f 23/132/21 62/134/32 61/133/34
f 62/134/32 23/132/21 27/73/25
f 27/73/25 23/132/21 30/72/28
f 30/72/28 23/132/21 22/135/20
f 18/136/16 22/137/20 23/138/21
f 18/136/16 24/139/22 22/137/20
f 19/140/17 24/139/22 18/136/16
f 24/139/22 19/140/17 25/141/23
f 19/142/17 26/143/24 25/144/23
f 26/143/24 19/142/17 17/121/15
f 59/120/33 17/121/15 19/142/17
f 20/145/18 26/146/24 17/147/15
f 26/146/24 20/145/18 21/148/19
f 18/149/16 21/150/19 20/151/18
f 21/150/19 18/149/16 23/152/21
f 11/153/10 26/154/24 21/155/19
f 26/154/24 11/153/10 13/156/12
f 25/62/23 2/71/2 24/87/22
f 24/157/22 63/158/44 22/159/20
f 63/158/44 24/157/22 53/160/39
f 14/161/13 63/158/44 53/160/39
f 63/158/44 14/161/13 15/162/13
f 16/130/14 63/163/44 15/164/13
f 16/130/14 28/165/26 63/163/44
f 16/130/14 29/166/27 28/165/26
f 60/129/31 29/166/27 16/130/14
f 29/166/27 60/129/31 64/167/33
f 60/168/31 62/169/32 64/170/33
f 62/169/32 60/168/31 61/171/34
f 62/134/32 29/172/27 64/173/33
f 29/172/27 62/134/32 27/73/25
f 30/72/28 63/174/44 28/175/26
f 63/174/44 30/72/28 22/135/20
f 18/149/16 20/151/18 65/176/31
f 9/177/9 65/176/31 20/151/18
f 32/178/30 65/176/31 9/177/9
f 65/176/31 32/178/30 66/179/43
f 32/180/30 33/181/31 66/182/43
f 31/183/29 33/181/31 32/180/30
f 33/181/31 31/183/29 36/184/34
f 31/185/29 34/186/32 36/187/34
f 34/186/32 31/185/29 55/106/41
f 55/106/41 31/185/29 10/188/5
f 9/127/9 16/94/14 32/95/30
f 56/189/42 34/186/32 55/106/41
f 34/186/32 56/189/42 35/190/33
f 66/182/43 35/191/33 56/192/42
f 35/191/33 66/182/43 33/181/31
f 56/192/42 65/193/31 66/182/43
f 57/194/43 65/193/31 56/192/42
f 57/194/43 59/195/33 65/193/31
f 59/195/33 57/194/43 58/196/32
f 57/197/43 39/115/33 58/116/32
f 39/115/33 57/197/43 37/198/31
f 19/199/17 65/200/31 59/120/33
f 65/200/31 19/199/17 18/201/16
f 49/63/32 51/202/31 52/70/34
f 51/202/31 49/63/32 50/203/33
