# Blender v2.79 (sub 0) OBJ File: 'cash_register_1.obj'
# www.blender.org
mtllib cash_register_1.mtl
o dec
v -0.031738 0.404104 -0.017845
v -0.031738 0.330036 0.136622
v 0.215312 0.404104 -0.017845
v 0.215312 0.330036 0.136622
v -0.248089 0.256184 0.188614
v -0.248089 0.131263 0.179037
v 0.248089 0.131263 0.179037
v 0.248089 0.131263 -0.196934
v 0.248089 0.489995 -0.092628
v 0.248089 0.397092 -0.029467
v 0.248089 0.256184 0.205966
v 0.248089 0.256184 0.188614
v 0.244355 0.112185 0.165770
v 0.259328 0.131263 -0.185696
v 0.259328 0.131263 0.167798
v 0.259328 0.267422 0.196892
v 0.259328 0.267422 0.178204
v 0.259328 0.275276 0.198585
v 0.259328 0.487960 -0.104834
v 0.259328 0.388268 -0.037058
v 0.259328 0.482237 -0.146611
v 0.259328 0.415714 -0.185696
v 0.248089 0.418771 -0.196934
v 0.248089 0.492631 -0.153539
v 0.248089 0.498391 -0.111491
v -0.248089 0.131263 -0.196934
v 0.244355 0.112185 -0.183668
v -0.259328 0.267422 0.196892
v -0.259328 0.275276 0.198585
v -0.259328 0.267422 0.178204
v -0.259328 0.487960 -0.104834
v -0.259328 0.482237 -0.146611
v -0.259328 0.388268 -0.037058
v -0.259328 0.131263 0.168627
v -0.259328 0.131263 -0.185696
v -0.259328 0.415714 -0.185696
v -0.248089 0.418771 -0.196934
v -0.248089 0.256184 0.205966
v -0.248089 0.492631 -0.153539
v -0.248089 0.489995 -0.092628
v -0.248089 0.498391 -0.111491
v -0.293055 0.017606 0.270467
v 0.293055 0.017606 0.270467
v -0.293055 0.094578 0.270467
v 0.293055 0.094578 0.270467
v -0.312982 0.000000 -0.223822
v 0.312982 -0.000000 0.262467
v 0.312982 0.000000 -0.223822
v 0.312982 0.112185 -0.223822
v -0.312982 -0.000000 0.262467
v -0.312982 0.112185 -0.223822
v -0.312982 0.112185 0.262467
v -0.244355 0.112185 0.165770
v -0.244355 0.112185 -0.183668
v 0.296966 0.014020 0.262467
v 0.312982 0.112185 0.262467
v 0.296966 0.098164 0.262467
v -0.296966 0.014020 0.262467
v -0.296966 0.098164 0.262467
v -0.248089 0.281576 0.211440
v -0.248089 0.397092 -0.029467
v 0.248089 0.281576 0.211440
v 0.226053 0.316584 0.138431
v -0.042479 0.316584 0.138431
v 0.226053 0.397092 -0.029467
v -0.042479 0.397092 -0.029467
vt 0.222700 0.432100
vt 0.222600 0.264100
vt 0.468400 0.432300
vt 0.468400 0.264000
vt 0.000200 0.127200
vt 0.000200 0.000100
vt 0.503500 0.127200
vt 0.503500 0.000100
vt 0.503500 0.708300
vt 0.503500 1.000000
vt 0.000200 0.708300
vt 0.000200 1.000000
vt 0.000200 0.621500
vt 0.000200 0.578400
vt 0.503500 0.621500
vt 0.503500 0.578400
vt 0.503500 0.557500
vt 0.481200 0.443600
vt 0.503500 0.443600
vt 0.000200 0.144800
vt 0.503500 0.144800
vt 0.000200 0.171200
vt 0.503500 0.171200
vt 0.508400 0.000000
vt 0.505200 0.021400
vt 0.921700 0.000000
vt 0.924800 0.021400
vt 0.520000 0.000200
vt 0.517800 0.021500
vt 0.910700 0.000200
vt 0.913000 0.021500
vt 0.945500 0.173700
vt 0.924600 0.173700
vt 0.947400 0.182500
vt 0.608200 0.420300
vt 0.683900 0.308800
vt 0.561500 0.413900
vt 0.517800 0.339500
vt 0.925500 0.021500
vt 0.936300 0.161100
vt 0.955700 0.161100
vt 0.505200 0.021500
vt 0.505200 0.342900
vt 0.553700 0.425500
vt 0.961800 0.189500
vt 0.692400 0.318700
vt 0.621800 0.422600
vt 0.600700 0.431900
vt 0.508400 0.000000
vt 0.505200 0.021400
vt 0.921800 0.000000
vt 0.924800 0.021400
vt 0.945400 0.173700
vt 0.947300 0.182500
vt 0.924500 0.173700
vt 0.608000 0.420300
vt 0.561300 0.413900
vt 0.683800 0.308900
vt 0.913800 0.021500
vt 0.517600 0.021500
vt 0.517600 0.339600
vt 0.925400 0.021500
vt 0.936200 0.161200
vt 0.910600 0.000200
vt 0.519900 0.000200
vt 0.505100 0.021500
vt 0.505100 0.343000
vt 0.955600 0.161200
vt 0.553600 0.425600
vt 0.961700 0.189600
vt 0.692300 0.318700
vt 0.621700 0.422600
vt 0.600600 0.432000
vt 0.000200 0.557500
vt 0.520600 0.539900
vt 0.982800 0.539900
vt 0.520600 0.598400
vt 0.982800 0.598400
vt 0.999400 0.521500
vt 0.504700 0.521500
vt 0.999400 0.432800
vt 0.504700 0.432800
vt 0.999200 1.000000
vt 0.504500 1.000000
vt 0.999200 0.615600
vt 0.504500 0.615600
vt 0.999800 0.431700
vt 0.669900 0.431700
vt 0.999800 0.355600
vt 0.669900 0.355600
vt 0.999800 0.431700
vt 0.669900 0.431700
vt 0.999800 0.355600
vt 0.669900 0.355600
vt 0.504500 0.615600
vt 0.999200 0.615600
vt 0.558700 0.692100
vt 0.945000 0.692100
vt 0.999200 1.000000
vt 0.945000 0.968300
vt 0.504500 1.000000
vt 0.558700 0.968300
vt 0.504500 0.522700
vt 0.999200 0.522700
vt 0.516900 0.533700
vt 0.986400 0.533700
vt 0.986400 0.604700
vt 0.516900 0.604700
vt 0.209900 0.252900
vt 0.000200 0.443600
vt 0.209900 0.443600
vt 0.481200 0.252700
vn -0.3041 0.9523 0.0251
vn -0.3041 0.6158 0.7268
vn 0.3041 0.9523 0.0251
vn 0.3041 0.6158 0.7268
vn -0.5560 -0.6083 0.5664
vn -0.3448 -0.3217 0.8818
vn 0.5568 -0.6093 0.5645
vn 0.3612 -0.3203 0.8757
vn 0.3692 0.2439 -0.8968
vn 0.3614 -0.2867 -0.8872
vn -0.3692 0.2439 -0.8968
vn -0.3614 -0.2867 -0.8872
vn -0.3699 0.7731 -0.5152
vn -0.3362 0.9360 0.1043
vn 0.3699 0.7731 -0.5152
vn 0.3362 0.9360 0.1043
vn 0.3362 0.7039 0.6257
vn 0.1441 0.8197 0.5543
vn 0.4162 0.6893 0.5930
vn -0.3818 -0.7191 0.5806
vn 0.3818 -0.7191 0.5806
vn -0.3809 0.4069 0.8303
vn 0.3809 0.4069 0.8303
vn 0.4981 0.6841 0.5329
vn -0.4980 0.6833 0.5338
vn 0.4980 0.6841 -0.5329
vn 0.8857 -0.3010 -0.3534
vn 0.8853 -0.3143 0.3428
vn 0.8997 -0.3397 0.2742
vn 0.9858 -0.1231 0.1141
vn 0.8992 0.1925 0.3928
vn 0.8618 0.4634 0.2062
vn 0.9480 0.2412 0.2075
vn 0.8976 0.3667 -0.2444
vn 0.9046 0.1119 -0.4112
vn -0.4980 0.6841 -0.5329
vn -0.8997 -0.3397 0.2742
vn -0.8992 0.1925 0.3928
vn -0.9859 -0.1224 0.1139
vn -0.8618 0.4634 0.2062
vn -0.8976 0.3667 -0.2444
vn -0.9480 0.2412 0.2075
vn -0.8774 -0.3170 0.3601
vn -0.8857 -0.3010 -0.3534
vn -0.9046 0.1119 -0.4112
vn -0.4162 0.6893 0.5930
vn -0.3362 0.7039 0.6257
vn -0.4270 -0.4418 0.7889
vn 0.4270 -0.4418 0.7889
vn -0.4270 0.4418 0.7889
vn 0.4270 0.4418 0.7889
vn -0.5773 0.5773 -0.5773
vn 0.5773 0.5773 -0.5773
vn -0.5773 -0.5773 -0.5773
vn 0.5773 -0.5773 -0.5773
vn -0.5773 -0.5773 0.5773
vn 0.5773 -0.5773 0.5773
vn 0.5773 0.5773 0.5773
vn -0.5773 0.5773 0.5773
vn -0.1809 -0.1781 0.9672
vn 0.1809 -0.1781 0.9672
vn 0.1809 0.1781 0.9672
vn -0.1809 0.1781 0.9672
vn -0.1344 0.8329 0.5368
vn -0.1441 0.8197 0.5543
vn 0.1344 0.8329 0.5368
usemtl dec
s 1
f 1/1/1 2/2/2 3/3/3
f 3/3/3 2/2/2 4/4/4
f 5/5/5 6/6/6 12/7/7
f 12/7/7 6/6/6 7/8/8
f 23/9/9 8/10/10 37/11/11
f 37/11/11 8/10/10 26/12/12
f 39/13/13 41/14/14 24/15/15
f 24/15/15 41/14/14 25/16/16
f 9/17/17 65/18/18 10/19/19
f 38/20/20 5/5/5 11/21/21
f 11/21/21 5/5/5 12/7/7
f 60/22/22 38/20/20 62/23/23
f 62/23/23 38/20/20 11/21/21
f 24/15/15 23/9/9 39/13/13
f 39/13/13 23/9/9 37/11/11
f 13/24/24 7/25/8 53/26/25
f 53/26/25 7/25/8 6/27/6
f 27/28/26 14/29/27 13/30/24
f 13/30/24 14/29/27 15/31/28
f 16/32/29 17/33/30 18/34/31
f 19/35/32 20/36/33 21/37/34
f 15/31/28 14/29/27 17/33/30
f 18/34/31 17/33/30 20/36/33
f 21/37/34 20/36/33 22/38/35
f 17/33/30 14/29/27 20/36/33
f 14/29/27 22/38/35 20/36/33
f 7/39/8 15/31/28 12/40/7
f 12/40/7 15/31/28 17/33/30
f 17/33/30 16/32/29 12/40/7
f 12/40/7 16/32/29 11/41/21
f 14/29/27 8/42/10 22/38/35
f 22/38/35 8/42/10 23/43/9
f 22/38/35 23/43/9 21/37/34
f 21/37/34 23/43/9 24/44/15
f 18/34/31 62/45/23 16/32/29
f 16/32/29 62/45/23 11/41/21
f 62/45/23 18/34/31 10/46/19
f 10/46/19 18/34/31 20/36/33
f 10/46/19 20/36/33 9/47/17
f 9/47/17 20/36/33 19/35/32
f 24/44/15 25/48/16 21/37/34
f 21/37/34 25/48/16 19/35/32
f 13/30/24 15/31/28 7/39/8
f 27/28/26 8/42/10 14/29/27
f 54/49/36 26/50/12 27/51/26
f 27/51/26 26/50/12 8/52/10
f 28/53/37 29/54/38 30/55/39
f 31/56/40 32/57/41 33/58/42
f 34/59/43 30/55/39 35/60/44
f 29/54/38 33/58/42 30/55/39
f 32/57/41 36/61/45 33/58/42
f 30/55/39 33/58/42 35/60/44
f 33/58/42 36/61/45 35/60/44
f 6/62/6 5/63/5 34/59/43
f 34/59/43 5/63/5 30/55/39
f 34/59/43 35/60/44 53/64/25
f 53/64/25 35/60/44 54/65/36
f 35/60/44 36/61/45 26/66/12
f 26/66/12 36/61/45 37/67/11
f 30/55/39 5/63/5 28/53/37
f 28/53/37 5/63/5 38/68/20
f 36/61/45 32/57/41 37/67/11
f 37/67/11 32/57/41 39/69/13
f 29/54/38 28/53/37 60/70/22
f 60/70/22 28/53/37 38/68/20
f 60/70/22 61/71/46 29/54/38
f 29/54/38 61/71/46 33/58/42
f 61/71/46 40/72/47 33/58/42
f 33/58/42 40/72/47 31/56/40
f 39/69/13 32/57/41 41/73/14
f 41/73/14 32/57/41 31/56/40
f 53/64/25 6/62/6 34/59/43
f 54/65/36 35/60/44 26/66/12
f 9/17/17 25/16/16 40/74/47
f 40/74/47 25/16/16 41/14/14
f 19/35/32 25/48/16 9/47/17
f 31/56/40 40/72/47 41/73/14
f 42/75/48 43/76/49 44/77/50
f 44/77/50 43/76/49 45/78/51
f 51/79/52 49/80/53 46/81/54
f 46/81/54 49/80/53 48/82/55
f 46/83/54 48/84/55 50/85/56
f 50/85/56 48/84/55 47/86/57
f 47/87/57 48/88/55 56/89/58
f 56/89/58 48/88/55 49/90/53
f 46/91/54 50/92/56 51/93/52
f 51/93/52 50/92/56 52/94/59
f 52/95/59 56/96/58 53/97/25
f 53/97/25 56/96/58 13/98/24
f 56/96/58 49/99/53 13/98/24
f 13/98/24 49/99/53 27/100/26
f 49/99/53 51/101/52 27/100/26
f 27/100/26 51/101/52 54/102/36
f 52/95/59 53/97/25 51/101/52
f 51/101/52 53/97/25 54/102/36
f 50/103/56 47/104/57 58/105/60
f 58/105/60 47/104/57 55/106/61
f 47/104/57 56/96/58 55/106/61
f 55/106/61 56/96/58 57/107/62
f 56/96/58 52/95/59 57/107/62
f 57/107/62 52/95/59 59/108/63
f 52/95/59 50/103/56 59/108/63
f 59/108/63 50/103/56 58/105/60
f 58/105/60 55/106/61 42/75/48
f 42/75/48 55/106/61 43/76/49
f 55/106/61 57/107/62 43/76/49
f 43/76/49 57/107/62 45/78/51
f 57/107/62 59/108/63 45/78/51
f 45/78/51 59/108/63 44/77/50
f 59/108/63 58/105/60 44/77/50
f 44/77/50 58/105/60 42/75/48
f 60/22/22 64/109/64 61/110/46
f 61/110/46 64/109/64 66/111/65
f 62/23/23 10/19/19 63/112/66
f 63/112/66 10/19/19 65/18/18
f 63/112/66 64/109/64 62/23/23
f 62/23/23 64/109/64 60/22/22
f 40/74/47 66/111/65 9/17/17
f 9/17/17 66/111/65 65/18/18
f 66/111/65 40/74/47 61/110/46
f 66/111/65 64/109/64 1/1/1
f 1/1/1 64/109/64 2/2/2
f 64/109/64 63/112/66 2/2/2
f 2/2/2 63/112/66 4/4/4
f 63/112/66 65/18/18 4/4/4
f 4/4/4 65/18/18 3/3/3
f 65/18/18 66/111/65 3/3/3
f 3/3/3 66/111/65 1/1/1
