# Blender v2.79 (sub 0) OBJ File: 'kover.obj'
# www.blender.org
mtllib kover.mtl
o Cube
v -1.310831 0.063050 0.020499
v -2.510957 0.002628 -1.707779
v -2.619511 0.063050 -0.011309
v 1.271389 0.128906 -0.192011
v -0.002149 0.002628 -1.848575
v -0.002149 0.063050 -0.152105
v 2.544927 0.002628 -1.726557
v 2.544927 0.063050 -0.030087
v 1.271389 0.068482 1.605375
v 2.544927 0.002628 1.666383
v -0.002149 0.002628 1.544365
v -2.549227 0.002628 1.685161
v -1.275689 0.002628 1.716969
v -1.256553 0.002628 -1.675973
v 1.271389 0.017660 1.605375
v -2.619511 0.012228 -0.011309
v -0.002149 -0.048196 -1.848575
v 2.544927 0.012228 -0.030087
v 1.271389 0.017660 -1.888481
v 1.271389 0.068484 -1.888481
v -1.256553 -0.048196 -1.675973
v -0.002149 -0.048196 1.544365
v -1.275689 -0.048196 1.716969
v -2.549227 -0.048196 1.685161
v 2.544927 -0.048194 -1.726557
v -2.510957 -0.048196 -1.707779
v 2.544927 -0.048196 1.666383
vt 0.250000 0.500000
vt 0.000000 1.000000
vt 0.000000 0.500000
vt 0.750000 0.500000
vt 0.500000 1.000000
vt 0.500000 0.500000
vt 1.000000 1.000000
vt 1.000000 0.500000
vt 0.750000 0.000000
vt 1.000000 0.000000
vt 0.500000 0.000000
vt 0.000000 0.000000
vt 0.250000 0.000000
vt 0.250000 1.000000
vt 0.750000 0.000000
vt 0.000000 0.500000
vt 0.500000 1.000000
vt 1.000000 0.500000
vt 0.750000 1.000000
vt 0.750000 1.000000
vt 0.250000 1.000000
vt 0.500000 0.000000
vt 0.250000 0.000000
vt 0.000000 0.000000
vt 1.000000 1.000000
vt 0.000000 1.000000
vt 1.000000 0.000000
vn 0.0009 0.9994 -0.0355
vn -0.0527 0.9980 -0.0355
vn 0.0561 0.9978 -0.0355
vn 0.0499 0.9981 0.0355
vn -0.0532 0.9980 0.0336
vn -0.0009 0.9994 0.0356
vn 0.0048 0.9994 0.0355
vn -0.0047 0.9993 -0.0357
vn -0.0479 0.0000 0.9989
vn -0.9991 0.0000 0.0414
vn -0.1363 0.0000 -0.9907
vn 1.0000 0.0000 0.0000
vn 0.1261 0.0000 -0.9920
vn -0.0313 0.0000 -0.9995
vn -0.9980 0.0000 -0.0639
vn 0.0253 0.0000 -0.9997
vn 0.1343 0.0000 0.9909
vn -0.0250 0.0000 0.9997
vn -0.0478 0.0000 0.9989
vn 0.0009 0.9994 -0.0356
vn 0.0474 0.9983 0.0336
vn -0.0505 0.9981 0.0355
vn 0.0047 0.9994 0.0356
vn -0.0049 0.9994 -0.0356
usemtl Material
s off
f 1/1/1 2/2/1 3/3/1
f 4/4/2 5/5/2 6/6/2
f 7/7/3 4/4/3 8/8/3
f 8/8/4 9/9/4 10/10/4
f 4/4/5 11/11/5 9/9/5
f 1/1/6 12/12/6 13/13/6
f 11/11/7 1/1/7 13/13/7
f 6/6/8 14/14/8 1/1/8
f 11/11/9 15/15/9 9/9/9
f 16/16/10 12/12/10 3/3/10
f 17/17/11 14/14/11 5/5/11
f 18/18/12 7/7/12 8/8/12
f 7/7/13 19/19/13 20/20/13
f 19/19/14 5/5/14 20/20/14
f 2/2/15 16/16/15 3/3/15
f 21/21/16 2/2/16 14/14/16
f 10/10/12 18/18/12 8/8/12
f 13/13/17 22/22/17 11/11/17
f 12/12/18 23/23/18 13/13/18
f 15/15/19 10/10/19 9/9/19
f 1/1/20 14/14/20 2/2/20
f 4/4/2 20/20/2 5/5/2
f 7/7/3 20/20/3 4/4/3
f 8/8/21 4/4/21 9/9/21
f 4/4/22 6/6/22 11/11/22
f 1/1/6 3/3/6 12/12/6
f 11/11/23 6/6/23 1/1/23
f 6/6/24 5/5/24 14/14/24
f 11/11/9 22/22/9 15/15/9
f 16/16/10 24/24/10 12/12/10
f 17/17/11 21/21/11 14/14/11
f 18/18/12 25/25/12 7/7/12
f 7/7/13 25/25/13 19/19/13
f 19/19/14 17/17/14 5/5/14
f 2/2/15 26/26/15 16/16/15
f 21/21/16 26/26/16 2/2/16
f 10/10/12 27/27/12 18/18/12
f 13/13/17 23/23/17 22/22/17
f 12/12/18 24/24/18 23/23/18
f 15/15/19 27/27/19 10/10/19
