# Blender v2.79 (sub 0) OBJ File: 'bin.obj'
# www.blender.org
mtllib bin.mtl
o dec
v 0.312500 -0.037500 -0.312500
v -0.312500 -0.037500 -0.312500
v -0.312500 0.900000 -0.312500
v 0.312500 0.900000 -0.312500
v -0.312500 -0.037500 0.312500
v 0.312500 -0.037500 0.312500
v 0.312500 0.900000 0.312500
v -0.312500 0.900000 0.312500
v 0.343750 0.900000 -0.343750
v -0.343750 0.900000 -0.343750
v -0.343750 0.962500 -0.343750
v 0.343750 0.962500 -0.343750
v -0.343750 0.900000 0.343750
v 0.343750 0.900000 0.343750
v 0.343750 0.962500 0.343750
v -0.343750 0.962500 0.343750
v 0.031250 0.962500 -0.093750
v -0.031250 0.962500 -0.093750
v -0.031250 1.025000 -0.093750
v 0.031250 1.025000 -0.093750
v -0.031250 0.962500 0.093750
v 0.031250 0.962500 0.093750
v 0.031250 1.025000 0.093750
v -0.031250 1.025000 0.093750
vt 0.156250 0.000000
vt 0.312500 0.234375
vt 0.312500 0.000000
vt 0.468750 0.000000
vt 0.625000 0.234375
vt 0.625000 0.000000
vt 0.156250 0.234375
vt 0.312500 0.390625
vt 0.312500 0.234375
vt 0.468750 0.390625
vt 0.468750 0.234375
vt 0.468750 0.234375
vt 0.000000 0.000000
vt 0.171875 0.390625
vt 0.343750 0.406250
vt 0.343750 0.390625
vt 0.515625 0.390625
vt 0.687500 0.406250
vt 0.687500 0.390625
vt 0.171875 0.406250
vt 0.343750 0.578125
vt 0.343750 0.406250
vt 0.515625 0.578125
vt 0.515625 0.406250
vt 0.515625 0.406250
vt 0.000000 0.390625
vt 0.046875 0.578125
vt 0.062500 0.593750
vt 0.062500 0.578125
vt 0.109375 0.578125
vt 0.125000 0.593750
vt 0.125000 0.578125
vt 0.046875 0.593750
vt 0.062500 0.640625
vt 0.062500 0.593750
vt 0.078125 0.640625
vt 0.078125 0.593750
vt 0.109375 0.593750
vt 0.000000 0.578125
vt 0.156250 0.390625
vt 0.312500 0.390625
vt 0.000000 0.234375
vt 0.171875 0.578125
vt 0.343750 0.578125
vt 0.000000 0.406250
vt 0.046875 0.640625
vt 0.062500 0.640625
vt 0.000000 0.593750
vn 0.0000 0.0000 -1.0000
vn 0.0000 -0.0000 1.0000
vn 0.0000 1.0000 0.0000
vn 0.0000 -1.0000 -0.0000
vn 1.0000 0.0000 0.0000
vn -1.0000 -0.0000 0.0000
usemtl dec
s off
f 2/1/1 4/2/1 1/3/1
f 6/4/2 8/5/2 5/6/2
f 3/7/3 7/8/3 4/2/3
f 5/9/4 1/10/4 6/11/4
f 1/3/5 7/12/5 6/4/5
f 5/13/6 3/7/6 2/1/6
f 10/14/1 12/15/1 9/16/1
f 14/17/2 16/18/2 13/19/2
f 11/20/3 15/21/3 12/15/3
f 13/22/4 9/23/4 14/24/4
f 9/16/5 15/25/5 14/17/5
f 13/26/6 11/20/6 10/14/6
f 18/27/1 20/28/1 17/29/1
f 22/30/2 24/31/2 21/32/2
f 19/33/3 23/34/3 20/28/3
f 21/35/4 17/36/4 22/37/4
f 17/29/5 23/38/5 22/30/5
f 21/39/6 19/33/6 18/27/6
f 2/1/1 3/7/1 4/2/1
f 6/4/2 7/12/2 8/5/2
f 3/7/3 8/40/3 7/8/3
f 5/9/4 2/41/4 1/10/4
f 1/3/5 4/2/5 7/12/5
f 5/13/6 8/42/6 3/7/6
f 10/14/1 11/20/1 12/15/1
f 14/17/2 15/25/2 16/18/2
f 11/20/3 16/43/3 15/21/3
f 13/22/4 10/44/4 9/23/4
f 9/16/5 12/15/5 15/25/5
f 13/26/6 16/45/6 11/20/6
f 18/27/1 19/33/1 20/28/1
f 22/30/2 23/38/2 24/31/2
f 19/33/3 24/46/3 23/34/3
f 21/35/4 18/47/4 17/36/4
f 17/29/5 20/28/5 23/38/5
f 21/39/6 24/48/6 19/33/6
